<svg width="94" height="89" viewBox="0 0 94 89" fill="none" xmlns="http://www.w3.org/2000/svg">
<path d="M42 2.36689C39.162 0.816143 35.9427 -0.000174061 32.6656 2.7839e-08C29.3886 0.000174117 26.1693 0.816832 23.3315 2.36788C20.4937 3.91892 18.1373 6.14969 16.4993 8.83591C14.8612 11.5221 13.9993 14.5691 14 17.6706V25.5058C10.0287 27.0163 6.77133 29.366 4.39133 32.4621C1.36267 36.4061 0 41.2336 0 46.379C0 53.2734 3.71 59.3463 9.33333 62.9061V68.4623C9.33304 72.0615 10.3655 75.5933 12.3204 78.6806C14.2753 81.7678 17.0793 84.2947 20.4331 85.9916C23.787 87.6884 27.5647 88.4914 31.3631 88.3149C35.1615 88.1384 38.8379 86.989 42 84.9895V68.4623C42 62.5749 40.46 58.8119 37.9867 56.2723C35.4527 53.6797 31.3413 51.7496 24.9013 50.7338L26.432 42.0241C32.508 42.9781 37.828 44.7757 42 47.8232V2.36689ZM51.3333 2.36689V47.8232C55.5053 44.7757 60.8253 42.9781 66.9013 42.0241L68.432 50.7338C61.992 51.7496 57.8807 53.6797 55.3467 56.2767C52.8733 58.8119 51.3333 62.5749 51.3333 68.4623V84.9895C54.4954 86.989 58.1719 88.1384 61.9703 88.3149C65.7686 88.4914 69.5464 87.6884 72.9002 85.9916C76.254 84.2947 79.0581 81.7678 81.013 78.6806C82.9679 75.5933 84.0003 72.0615 84 68.4623V62.9061C89.6233 59.3463 93.3333 53.2778 93.3333 46.379C93.3333 41.2336 91.9707 36.4061 88.942 32.4665C86.562 29.366 83.3047 27.0163 79.3333 25.5058V17.6706C79.3341 14.5691 78.4721 11.5221 76.834 8.83591C75.196 6.14969 72.8396 3.91892 70.0018 2.36788C67.164 0.816832 63.9448 0.000174117 60.6677 2.7839e-08C57.3907 -0.000174061 54.1713 0.816143 51.3333 2.36689Z" fill="#FF719E"/>
</svg>
