<svg width="641" height="383" viewBox="0 0 641 383" fill="none" xmlns="http://www.w3.org/2000/svg" xmlns:xlink="http://www.w3.org/1999/xlink">
<path fill-rule="evenodd" clip-rule="evenodd" d="M341.263 86.2854C372.512 35.7012 424.03 3.39572 480.372 5.67799C536.501 7.9518 583.812 44.0017 609.014 96.5452C622.041 85.6657 637.594 79.3431 654.299 79.343C700.194 79.343 737.399 127.06 737.399 185.921C737.399 244.783 700.194 292.499 654.299 292.499C637.553 292.499 621.964 286.146 608.917 275.217C579.948 337.776 522.274 379.644 458.398 377.057C405.444 374.912 360.339 342.703 334.243 294.944C311.161 328.833 277.577 350.171 240.188 350.171C195.721 350.171 156.633 319.989 134.197 274.405C121.233 285.127 105.795 291.351 89.2217 291.351C43.3266 291.351 6.12125 243.634 6.12109 184.773C6.12109 125.911 43.3265 78.1946 89.2217 78.1946C105.858 78.1946 121.351 84.4655 134.346 95.263C156.805 49.8464 195.819 19.7981 240.188 19.7981C281.565 19.7982 318.283 45.929 341.263 86.2854Z" fill="white"/>
<use xlink:href="#stroke0_1_1905" transform="translate(344.455 79.4171) scale(0.0367997) rotate(66.3307)"/>
<use xlink:href="#stroke0_1_1905" transform="translate(347.213 79.578) scale(0.0311983) rotate(86.8034)"/>
<use xlink:href="#stroke0_1_1905" transform="translate(337.309 86.4179) scale(0.0399081) rotate(-82.7035)"/>
<use xlink:href="#stroke0_1_1905" transform="translate(337.757 80.4226) scale(0.0394071) rotate(-56.5882)"/>
<use xlink:href="#stroke0_1_1905" transform="translate(344.396 85.248) scale(0.0445265) rotate(-118.102)"/>
<use xlink:href="#stroke0_1_1905" transform="translate(348.5 82.0685) scale(0.0391525) rotate(-131.754)"/>
<use xlink:href="#stroke0_1_1905" transform="translate(349.875 64.1584) scale(0.0373203) rotate(31.5346)"/>
<use xlink:href="#stroke0_1_1905" transform="translate(351.386 61.9938) scale(0.0370771) rotate(29.8703)"/>
<use xlink:href="#stroke0_1_1905" transform="translate(354.77 73.941) scale(0.0317656) rotate(-140.679)"/>
<use xlink:href="#stroke0_1_1905" transform="translate(352.854 56.8452) scale(0.0438567) rotate(18.6335)"/>
<use xlink:href="#stroke0_1_1905" transform="translate(361.382 56.3328) scale(0.035114) rotate(66.8435)"/>
<use xlink:href="#stroke0_1_1905" transform="translate(366.219 60.1041) scale(0.0308853) rotate(123.727)"/>
<use xlink:href="#stroke0_1_1905" transform="translate(366.06 64.9133) scale(0.0357769) rotate(-175.84)"/>
<use xlink:href="#stroke0_1_1905" transform="translate(359.093 52.7579) scale(0.0297005) rotate(-1.89606)"/>
<use xlink:href="#stroke0_1_1905" transform="translate(358.807 52.0895) scale(0.0339566) rotate(-19.9845)"/>
<use xlink:href="#stroke0_1_1905" transform="translate(359.926 56.3873) scale(0.0362009) rotate(-71.3283)"/>
<use xlink:href="#stroke0_1_1905" transform="translate(377.301 49.7216) scale(0.041686) rotate(120.102)"/>
<use xlink:href="#stroke0_1_1905" transform="translate(363.67 44.3934) scale(0.0433066) rotate(-16.3819)"/>
<use xlink:href="#stroke0_1_1905" transform="translate(370.214 53.2517) scale(0.0333377) rotate(-111.485)"/>
<use xlink:href="#stroke0_1_1905" transform="translate(369.901 51.504) scale(0.0405339) rotate(-97.1421)"/>
<use xlink:href="#stroke0_1_1905" transform="translate(381.214 38.6732) scale(0.0297216) rotate(79.5801)"/>
<use xlink:href="#stroke0_1_1905" transform="translate(374.92 46.4395) scale(0.0297896) rotate(-94.8845)"/>
<use xlink:href="#stroke0_1_1905" transform="translate(379.523 32.1304) scale(0.040521) rotate(29.6739)"/>
<use xlink:href="#stroke0_1_1905" transform="translate(377.669 41.1153) scale(0.0299989) rotate(-72.5215)"/>
<use xlink:href="#stroke0_1_1905" transform="translate(378.694 41.8106) scale(0.0403067) rotate(-84.3357)"/>
<use xlink:href="#stroke0_1_1905" transform="translate(382.445 28.2579) scale(0.042562) rotate(2.45277)"/>
<use xlink:href="#stroke0_1_1905" transform="translate(384.258 35.8616) scale(0.0313869) rotate(-70.8272)"/>
<use xlink:href="#stroke0_1_1905" transform="translate(397.059 38.0525) scale(0.037472) rotate(-175.876)"/>
<use xlink:href="#stroke0_1_1905" transform="translate(388.011 31.5189) scale(0.0324443) rotate(-58.0177)"/>
<use xlink:href="#stroke0_1_1905" transform="translate(394.358 36.1739) scale(0.0369087) rotate(-119.748)"/>
<use xlink:href="#stroke0_1_1905" transform="translate(402.769 20.2406) scale(0.0389489) rotate(67.333)"/>
<use xlink:href="#stroke0_1_1905" transform="translate(401.79 16.7831) scale(0.0439407) rotate(40.2548)"/>
<use xlink:href="#stroke0_1_1905" transform="translate(397.631 24.3414) scale(0.0335352) rotate(-48.4938)"/>
<use xlink:href="#stroke0_1_1905" transform="translate(404.762 15.8376) scale(0.0365872) rotate(25.1163)"/>
<use xlink:href="#stroke0_1_1905" transform="translate(408.536 12.7651) scale(0.0434351) rotate(34.751)"/>
<use xlink:href="#stroke0_1_1905" transform="translate(408.164 15.3211) scale(0.0311331) rotate(3.37309)"/>
<use xlink:href="#stroke0_1_1905" transform="translate(421.988 19.282) scale(0.0366727) rotate(131.653)"/>
<use xlink:href="#stroke0_1_1905" transform="translate(413.586 24.8248) scale(0.0366771) rotate(-111.856)"/>
<use xlink:href="#stroke0_1_1905" transform="translate(423.42 21.5008) scale(0.0294161) rotate(178.385)"/>
<use xlink:href="#stroke0_1_1905" transform="translate(413.523 18.2817) scale(0.0416214) rotate(-63.8135)"/>
<use xlink:href="#stroke0_1_1905" transform="translate(433.505 13.1186) scale(0.0431511) rotate(120.155)"/>
<use xlink:href="#stroke0_1_1905" transform="translate(432.69 16.72) scale(0.0292194) rotate(159.435)"/>
<use xlink:href="#stroke0_1_1905" transform="translate(423.174 9.33432) scale(0.0367621) rotate(-19.0546)"/>
<use xlink:href="#stroke0_1_1905" transform="translate(439.875 14.1011) scale(0.0373197) rotate(145.872)"/>
<use xlink:href="#stroke0_1_1905" transform="translate(428.441 8.1771) scale(0.0358872) rotate(-23.047)"/>
<use xlink:href="#stroke0_1_1905" transform="translate(434.485 4.66013) scale(0.03281) rotate(13.7347)"/>
<use xlink:href="#stroke0_1_1905" transform="translate(443.023 2.64974) scale(0.0379619) rotate(62.3746)"/>
<use xlink:href="#stroke0_1_1905" transform="translate(451.284 10.1217) scale(0.039947) rotate(137.582)"/>
<use xlink:href="#stroke0_1_1905" transform="translate(447.515 16.7727) scale(0.040443) rotate(-148.377)"/>
<use xlink:href="#stroke0_1_1905" transform="translate(451.95 15.0273) scale(0.0370829) rotate(-161.347)"/>
<use xlink:href="#stroke0_1_1905" transform="translate(457.456 4.04813) scale(0.0329683) rotate(100.652)"/>
<use xlink:href="#stroke0_1_1905" transform="translate(462.399 7.06754) scale(0.039155) rotate(131.288)"/>
<use xlink:href="#stroke0_1_1905" transform="translate(450.044 8.0045) scale(0.0350669) rotate(-59.0539)"/>
<use xlink:href="#stroke0_1_1905" transform="translate(453.38 5.09366) scale(0.0311008) rotate(-36.8634)"/>
<use xlink:href="#stroke0_1_1905" transform="translate(468.898 8.99255) scale(0.0355055) rotate(154.379)"/>
<use xlink:href="#stroke0_1_1905" transform="translate(456.837 6.99697) scale(0.0402556) rotate(-56.1571)"/>
<use xlink:href="#stroke0_1_1905" transform="translate(467.007 11.716) scale(0.0291985) rotate(-132.074)"/>
<use xlink:href="#stroke0_1_1905" transform="translate(478.802 3.74843) scale(0.0418517) rotate(118.763)"/>
<use xlink:href="#stroke0_1_1905" transform="translate(479.285 4.39985) scale(0.0303675) rotate(120.579)"/>
<use xlink:href="#stroke0_1_1905" transform="translate(481.824 0.764869) scale(0.0376577) rotate(93.1098)"/>
<use xlink:href="#stroke0_1_1905" transform="translate(478.737 12.2063) scale(0.0320857) rotate(-141.553)"/>
<use xlink:href="#stroke0_1_1905" transform="translate(486.639 8.18371) scale(0.0308417) rotate(154.482)"/>
<use xlink:href="#stroke0_1_1905" transform="translate(476.359 10.0855) scale(0.0404258) rotate(-79.2723)"/>
<use xlink:href="#stroke0_1_1905" transform="translate(490.667 1.73473) scale(0.0301528) rotate(87.5166)"/>
<use xlink:href="#stroke0_1_1905" transform="translate(490.173 12.5364) scale(0.0315545) rotate(-153.169)"/>
<use xlink:href="#stroke0_1_1905" transform="translate(493.364 -0.770359) scale(0.0371172) rotate(58.3498)"/>
<use xlink:href="#stroke0_1_1905" transform="translate(501.107 11.3131) scale(0.0403238) rotate(163.375)"/>
<use xlink:href="#stroke0_1_1905" transform="translate(504.483 7.7153) scale(0.0365804) rotate(134.104)"/>
<use xlink:href="#stroke0_1_1905" transform="translate(492.571 2.69228) scale(0.0440109) rotate(-13.5709)"/>
<use xlink:href="#stroke0_1_1905" transform="translate(509.527 9.9088) scale(0.0330963) rotate(143.672)"/>
<use xlink:href="#stroke0_1_1905" transform="translate(512.795 6.18393) scale(0.0379976) rotate(109.963)"/>
<use xlink:href="#stroke0_1_1905" transform="translate(514.413 14.4522) scale(0.0375116) rotate(169.229)"/>
<use xlink:href="#stroke0_1_1905" transform="translate(508.761 4.04902) scale(0.0325392) rotate(22.8204)"/>
<use xlink:href="#stroke0_1_1905" transform="translate(518.31 5.51133) scale(0.0361406) rotate(82.5571)"/>
<use xlink:href="#stroke0_1_1905" transform="translate(517.025 4.48729) scale(0.0364132) rotate(48.8134)"/>
<use xlink:href="#stroke0_1_1905" transform="translate(523 6.47504) scale(0.0370701) rotate(75.5235)"/>
<use xlink:href="#stroke0_1_1905" transform="translate(518.552 21.5652) scale(0.0405108) rotate(-117.817)"/>
<use xlink:href="#stroke0_1_1905" transform="translate(524.043 8.51547) scale(0.030118) rotate(41.5111)"/>
<use xlink:href="#stroke0_1_1905" transform="translate(522.751 21.2874) scale(0.032482) rotate(-107.041)"/>
<use xlink:href="#stroke0_1_1905" transform="translate(520.947 18.3876) scale(0.0389084) rotate(-61.2181)"/>
<use xlink:href="#stroke0_1_1905" transform="translate(526.171 24.0238) scale(0.0396417) rotate(-97.8172)"/>
<use xlink:href="#stroke0_1_1905" transform="translate(539.883 20.0565) scale(0.0295931) rotate(141.784)"/>
<use xlink:href="#stroke0_1_1905" transform="translate(533.65 25.776) scale(0.0303866) rotate(-117.04)"/>
<use xlink:href="#stroke0_1_1905" transform="translate(532.104 22.5231) scale(0.0295207) rotate(-63.1903)"/>
<use xlink:href="#stroke0_1_1905" transform="translate(531.66 21.8865) scale(0.0425701) rotate(-46.0362)"/>
<use xlink:href="#stroke0_1_1905" transform="translate(547.729 27.6348) scale(0.0306584) rotate(170.79)"/>
<use xlink:href="#stroke0_1_1905" transform="translate(551.323 24.6194) scale(0.0312479) rotate(129.689)"/>
<use xlink:href="#stroke0_1_1905" transform="translate(540.184 28.1991) scale(0.0349008) rotate(-65.5)"/>
<use xlink:href="#stroke0_1_1905" transform="translate(548.274 36.7613) scale(0.0444308) rotate(-130.148)"/>
<use xlink:href="#stroke0_1_1905" transform="translate(558.739 34.2008) scale(0.0389478) rotate(167.648)"/>
<use xlink:href="#stroke0_1_1905" transform="translate(548.495 30.3422) scale(0.0288513) rotate(-42.9947)"/>
<use xlink:href="#stroke0_1_1905" transform="translate(561.86 27.6239) scale(0.0350644) rotate(90.6691)"/>
<use xlink:href="#stroke0_1_1905" transform="translate(552.496 32.8477) scale(0.0288075) rotate(-39.6084)"/>
<use xlink:href="#stroke0_1_1905" transform="translate(555.282 30.8295) scale(0.0318618) rotate(-7.1103)"/>
<use xlink:href="#stroke0_1_1905" transform="translate(560.092 45.6876) scale(0.0439517) rotate(-123.393)"/>
<use xlink:href="#stroke0_1_1905" transform="translate(567.411 30.2402) scale(0.0445159) rotate(56.2042)"/>
<use xlink:href="#stroke0_1_1905" transform="translate(569.029 47.25) scale(0.0316191) rotate(-154.214)"/>
<use xlink:href="#stroke0_1_1905" transform="translate(575.24 49.0914) scale(0.0416911) rotate(178.204)"/>
<use xlink:href="#stroke0_1_1905" transform="translate(565.412 49.4512) scale(0.0373243) rotate(-85.1434)"/>
<use xlink:href="#stroke0_1_1905" transform="translate(569.331 51.8082) scale(0.0320192) rotate(-99.415)"/>
<use xlink:href="#stroke0_1_1905" transform="translate(570.842 41.0664) scale(0.0436969) rotate(9.84421)"/>
<use xlink:href="#stroke0_1_1905" transform="translate(579.438 56.5012) scale(0.0296036) rotate(-157.144)"/>
<use xlink:href="#stroke0_1_1905" transform="translate(581.4 59.9229) scale(0.0371922) rotate(-154.896)"/>
<use xlink:href="#stroke0_1_1905" transform="translate(583.903 46.1172) scale(0.0442948) rotate(57.7013)"/>
<use xlink:href="#stroke0_1_1905" transform="translate(584.975 49.8464) scale(0.0364592) rotate(53.6867)"/>
<use xlink:href="#stroke0_1_1905" transform="translate(577.083 59.1134) scale(0.0397445) rotate(-46.6461)"/>
<use xlink:href="#stroke0_1_1905" transform="translate(590.44 69.2855) scale(0.0399312) rotate(-161.948)"/>
<use xlink:href="#stroke0_1_1905" transform="translate(588.229 70.4339) scale(0.0319536) rotate(-132.896)"/>
<use xlink:href="#stroke0_1_1905" transform="translate(588.352 58.873) scale(0.035825) rotate(24.8515)"/>
<use xlink:href="#stroke0_1_1905" transform="translate(587.407 62.7465) scale(0.0343878) rotate(0.434784)"/>
<use xlink:href="#stroke0_1_1905" transform="translate(589.965 77.9697) scale(0.0409614) rotate(-112.141)"/>
<use xlink:href="#stroke0_1_1905" transform="translate(595.509 78.8514) scale(0.0301516) rotate(-140.838)"/>
<use xlink:href="#stroke0_1_1905" transform="translate(589.309 71.3906) scale(0.0399215) rotate(-23.5633)"/>
<use xlink:href="#stroke0_1_1905" transform="translate(593.034 80.6664) scale(0.0305155) rotate(-82.9781)"/>
<use xlink:href="#stroke0_1_1905" transform="translate(596.324 73.8975) scale(0.029207) rotate(10.3061)"/>
<use xlink:href="#stroke0_1_1905" transform="translate(593.091 83.038) scale(0.038326) rotate(-61.7637)"/>
<use xlink:href="#stroke0_1_1905" transform="translate(608.239 81.762) scale(0.0309451) rotate(115.447)"/>
<use xlink:href="#stroke0_1_1905" transform="translate(597.096 80.7732) scale(0.0394937) rotate(-9.99917)"/>
<use xlink:href="#stroke0_1_1905" transform="translate(603.039 94.0564) scale(0.0298222) rotate(-122.641)"/>
<use xlink:href="#stroke0_1_1905" transform="translate(611.955 84.1469) scale(0.0425425) rotate(84.0344)"/>
<use xlink:href="#stroke0_1_1905" transform="translate(605.341 85.9811) scale(0.0368574) rotate(25.5916)"/>
<use xlink:href="#stroke0_1_1905" transform="translate(604.458 91.1238) scale(0.0291548) rotate(-1.27809)"/>
<use xlink:href="#stroke0_1_1905" transform="translate(607.178 102.363) scale(0.0352605) rotate(-115.322)"/>
<use xlink:href="#stroke0_1_1905" transform="translate(613.826 87.9538) scale(0.0312535) rotate(57.5122)"/>
<use xlink:href="#stroke0_1_1905" transform="translate(620.657 93.8865) scale(0.0328275) rotate(141.633)"/>
<use xlink:href="#stroke0_1_1905" transform="translate(623.243 89.9425) scale(0.0350653) rotate(121.209)"/>
<use xlink:href="#stroke0_1_1905" transform="translate(610.842 92.9346) scale(0.0408119) rotate(-71.5031)"/>
<use xlink:href="#stroke0_1_1905" transform="translate(616.574 93.3713) scale(0.0329174) rotate(-97.7821)"/>
<use xlink:href="#stroke0_1_1905" transform="translate(626.554 80.6128) scale(0.0349526) rotate(68.4877)"/>
<use xlink:href="#stroke0_1_1905" transform="translate(624.474 79.6834) scale(0.0306707) rotate(31.8621)"/>
<use xlink:href="#stroke0_1_1905" transform="translate(630.65 90.0356) scale(0.0287694) rotate(-169.8)"/>
<use xlink:href="#stroke0_1_1905" transform="translate(622.795 82.0676) scale(0.0355762) rotate(-33.0317)"/>
<use xlink:href="#stroke0_1_1905" transform="translate(624.793 80.4867) scale(0.0396069) rotate(-30.3668)"/>
<use xlink:href="#stroke0_1_1905" transform="translate(629.255 88.3601) scale(0.0432008) rotate(-93.6179)"/>
<use xlink:href="#stroke0_1_1905" transform="translate(635.143 74.6238) scale(0.0361208) rotate(14.9378)"/>
<use xlink:href="#stroke0_1_1905" transform="translate(635.805 75.3956) scale(0.0365059) rotate(-4.01194)"/>
<use xlink:href="#stroke0_1_1905" transform="translate(650.783 74.3116) scale(0.0429374) rotate(90.1976)"/>
<use xlink:href="#stroke0_1_1905" transform="translate(651.717 86.1589) scale(0.0381885) rotate(-173.674)"/>
<use xlink:href="#stroke0_1_1905" transform="translate(647.245 87.8281) scale(0.0432471) rotate(-118.576)"/>
<use xlink:href="#stroke0_1_1905" transform="translate(650.339 71.4028) scale(0.0415927) rotate(19.5638)"/>
<use xlink:href="#stroke0_1_1905" transform="translate(649.729 81.4532) scale(0.0339953) rotate(-65.8543)"/>
<use xlink:href="#stroke0_1_1905" transform="translate(652.346 79.0238) scale(0.0320223) rotate(-44.4017)"/>
<use xlink:href="#stroke0_1_1905" transform="translate(668.984 74.2201) scale(0.0440853) rotate(93.6672)"/>
<use xlink:href="#stroke0_1_1905" transform="translate(664.181 86.4256) scale(0.030528) rotate(-134.529)"/>
<use xlink:href="#stroke0_1_1905" transform="translate(663.431 74.212) scale(0.0358427) rotate(11.4528)"/>
<use xlink:href="#stroke0_1_1905" transform="translate(671.88 88.0304) scale(0.0348543) rotate(-155.895)"/>
<use xlink:href="#stroke0_1_1905" transform="translate(670.323 73.3641) scale(0.0431511) rotate(26.4156)"/>
<use xlink:href="#stroke0_1_1905" transform="translate(670.46 77.2846) scale(0.0365426) rotate(-0.86372)"/>
<use xlink:href="#stroke0_1_1905" transform="translate(673.551 91.5079) scale(0.0438571) rotate(-106.105)"/>
<use xlink:href="#stroke0_1_1905" transform="translate(674.594 86.6519) scale(0.0325686) rotate(-62.8264)"/>
<use xlink:href="#stroke0_1_1905" transform="translate(680.199 92.2523) scale(0.033863) rotate(-111.312)"/>
<use xlink:href="#stroke0_1_1905" transform="translate(687.977 81.4467) scale(0.0300681) rotate(64.2763)"/>
<use xlink:href="#stroke0_1_1905" transform="translate(694.215 85.3911) scale(0.0345533) rotate(107.058)"/>
<use xlink:href="#stroke0_1_1905" transform="translate(684.549 92.5407) scale(0.0295307) rotate(-77.9849)"/>
<use xlink:href="#stroke0_1_1905" transform="translate(686.327 86.9012) scale(0.0329515) rotate(-13.2405)"/>
<use xlink:href="#stroke0_1_1905" transform="translate(690.413 98.8408) scale(0.0363418) rotate(-109.503)"/>
<use xlink:href="#stroke0_1_1905" transform="translate(687.897 92.3813) scale(0.0424865) rotate(-37.4473)"/>
<use xlink:href="#stroke0_1_1905" transform="translate(696.741 89.798) scale(0.0305792) rotate(23.5815)"/>
<use xlink:href="#stroke0_1_1905" transform="translate(707.919 95.6575) scale(0.0364549) rotate(117.726)"/>
<use xlink:href="#stroke0_1_1905" transform="translate(704.48 108.014) scale(0.0424302) rotate(-149.233)"/>
<use xlink:href="#stroke0_1_1905" transform="translate(696.964 98.3739) scale(0.0432527) rotate(-26.6981)"/>
<use xlink:href="#stroke0_1_1905" transform="translate(701.033 103.759) scale(0.0298241) rotate(-49.2065)"/>
<use xlink:href="#stroke0_1_1905" transform="translate(702.72 104.326) scale(0.0294692) rotate(-38.8741)"/>
<use xlink:href="#stroke0_1_1905" transform="translate(708.828 100.263) scale(0.0343912) rotate(29.3545)"/>
<use xlink:href="#stroke0_1_1905" transform="translate(706.068 106.749) scale(0.0304403) rotate(-26.7511)"/>
<use xlink:href="#stroke0_1_1905" transform="translate(715.484 103.046) scale(0.0407607) rotate(54.6308)"/>
<use xlink:href="#stroke0_1_1905" transform="translate(710.226 109.107) scale(0.0321436) rotate(-7.66887)"/>
<use xlink:href="#stroke0_1_1905" transform="translate(723.75 110.99) scale(0.0407433) rotate(97.133)"/>
<use xlink:href="#stroke0_1_1905" transform="translate(712.132 122.517) scale(0.0372594) rotate(-82.9042)"/>
<use xlink:href="#stroke0_1_1905" transform="translate(725.051 116.73) scale(0.0309492) rotate(96.2918)"/>
<use xlink:href="#stroke0_1_1905" transform="translate(725.245 116.163) scale(0.0371512) rotate(73.6499)"/>
<use xlink:href="#stroke0_1_1905" transform="translate(721.444 133.349) scale(0.0400148) rotate(-130.533)"/>
<use xlink:href="#stroke0_1_1905" transform="translate(731.268 129.76) scale(0.0367855) rotate(146.519)"/>
<use xlink:href="#stroke0_1_1905" transform="translate(728.641 135.944) scale(0.0328307) rotate(-169.852)"/>
<use xlink:href="#stroke0_1_1905" transform="translate(733.107 131.214) scale(0.0340657) rotate(121.034)"/>
<use xlink:href="#stroke0_1_1905" transform="translate(733.127 138.918) scale(0.0345926) rotate(165.992)"/>
<use xlink:href="#stroke0_1_1905" transform="translate(721.159 142.035) scale(0.0412577) rotate(-80.5258)"/>
<use xlink:href="#stroke0_1_1905" transform="translate(732.611 134.969) scale(0.0294295) rotate(74.156)"/>
<use xlink:href="#stroke0_1_1905" transform="translate(725.093 148.615) scale(0.0387452) rotate(-98.6405)"/>
<use xlink:href="#stroke0_1_1905" transform="translate(737.621 149.578) scale(0.0378016) rotate(165.008)"/>
<use xlink:href="#stroke0_1_1905" transform="translate(724 145.843) scale(0.0405203) rotate(-32.7274)"/>
<use xlink:href="#stroke0_1_1905" transform="translate(726.545 155.701) scale(0.0381462) rotate(-85.3145)"/>
<use xlink:href="#stroke0_1_1905" transform="translate(727.055 150.93) scale(0.0341762) rotate(-25.5888)"/>
<use xlink:href="#stroke0_1_1905" transform="translate(741.49 159.839) scale(0.0392978) rotate(156.565)"/>
<use xlink:href="#stroke0_1_1905" transform="translate(729.403 164.476) scale(0.0364664) rotate(-92.922)"/>
<use xlink:href="#stroke0_1_1905" transform="translate(735.048 154.653) scale(0.0352851) rotate(39.5576)"/>
<use xlink:href="#stroke0_1_1905" transform="translate(741.019 161.451) scale(0.0294494) rotate(102.823)"/>
<use xlink:href="#stroke0_1_1905" transform="translate(738.723 175.26) scale(0.0419534) rotate(-156.292)"/>
<use xlink:href="#stroke0_1_1905" transform="translate(743.693 170.759) scale(0.0352921) rotate(137.713)"/>
<use xlink:href="#stroke0_1_1905" transform="translate(728.535 174.012) scale(0.0404657) rotate(-56.7812)"/>
<use xlink:href="#stroke0_1_1905" transform="translate(736.684 168.316) scale(0.0360985) rotate(38.7775)"/>
<use xlink:href="#stroke0_1_1905" transform="translate(731.218 181.978) scale(0.0338621) rotate(-79.5384)"/>
<use xlink:href="#stroke0_1_1905" transform="translate(734.296 174.843) scale(0.0330837) rotate(15.1273)"/>
<use xlink:href="#stroke0_1_1905" transform="translate(729.972 189.156) scale(0.0441892) rotate(-83.9958)"/>
<use xlink:href="#stroke0_1_1905" transform="translate(734.489 195.372) scale(0.0421769) rotate(-119.045)"/>
<use xlink:href="#stroke0_1_1905" transform="translate(728.367 189.21) scale(0.0439578) rotate(-40.5645)"/>
<use xlink:href="#stroke0_1_1905" transform="translate(742.418 196.89) scale(0.0307101) rotate(165.797)"/>
<use xlink:href="#stroke0_1_1905" transform="translate(733.492 200.629) scale(0.0298727) rotate(-103.125)"/>
<use xlink:href="#stroke0_1_1905" transform="translate(730.802 200.207) scale(0.0314803) rotate(-68.9494)"/>
<use xlink:href="#stroke0_1_1905" transform="translate(743.513 195.436) scale(0.042382) rotate(93.8224)"/>
<use xlink:href="#stroke0_1_1905" transform="translate(736.995 197.232) scale(0.030773) rotate(47.964)"/>
<use xlink:href="#stroke0_1_1905" transform="translate(728.275 209.364) scale(0.0401036) rotate(-71.143)"/>
<use xlink:href="#stroke0_1_1905" transform="translate(741.146 204.974) scale(0.0338492) rotate(96.274)"/>
<use xlink:href="#stroke0_1_1905" transform="translate(739.223 205.75) scale(0.0349638) rotate(77.5448)"/>
<use xlink:href="#stroke0_1_1905" transform="translate(734.265 206.495) scale(0.0378484) rotate(40.2298)"/>
<use xlink:href="#stroke0_1_1905" transform="translate(731.737 223.719) scale(0.0343487) rotate(-121.466)"/>
<use xlink:href="#stroke0_1_1905" transform="translate(739.882 217.702) scale(0.0336173) rotate(116.507)"/>
<use xlink:href="#stroke0_1_1905" transform="translate(723.665 219.741) scale(0.0443841) rotate(-32.0334)"/>
<use xlink:href="#stroke0_1_1905" transform="translate(725.945 222.042) scale(0.0312739) rotate(-20.0675)"/>
<use xlink:href="#stroke0_1_1905" transform="translate(725.221 221.463) scale(0.0406221) rotate(-0.137054)"/>
<use xlink:href="#stroke0_1_1905" transform="translate(726.036 237.893) scale(0.0397179) rotate(-111.485)"/>
<use xlink:href="#stroke0_1_1905" transform="translate(735.504 230.392) scale(0.0357335) rotate(108.03)"/>
<use xlink:href="#stroke0_1_1905" transform="translate(725.222 228.99) scale(0.0354088) rotate(21.1466)"/>
<use xlink:href="#stroke0_1_1905" transform="translate(732.91 232.071) scale(0.0443831) rotate(85.5749)"/>
<use xlink:href="#stroke0_1_1905" transform="translate(718.495 243.388) scale(0.0344797) rotate(-65.2974)"/>
<use xlink:href="#stroke0_1_1905" transform="translate(729.876 248.245) scale(0.035505) rotate(169.377)"/>
<use xlink:href="#stroke0_1_1905" transform="translate(725.228 239.736) scale(0.0326746) rotate(61.4737)"/>
<use xlink:href="#stroke0_1_1905" transform="translate(715.195 244.948) scale(0.0354909) rotate(-20.997)"/>
<use xlink:href="#stroke0_1_1905" transform="translate(721.234 257.987) scale(0.0357892) rotate(-145.842)"/>
<use xlink:href="#stroke0_1_1905" transform="translate(725.25 249.961) scale(0.0340432) rotate(106.172)"/>
<use xlink:href="#stroke0_1_1905" transform="translate(718.057 248.372) scale(0.0327164) rotate(45.9191)"/>
<use xlink:href="#stroke0_1_1905" transform="translate(717.543 249.543) scale(0.0385398) rotate(52.6547)"/>
<use xlink:href="#stroke0_1_1905" transform="translate(717.909 266.493) scale(0.0375171) rotate(-166.542)"/>
<use xlink:href="#stroke0_1_1905" transform="translate(721.423 261.949) scale(0.0438703) rotate(130.283)"/>
<use xlink:href="#stroke0_1_1905" transform="translate(709.995 257.543) scale(0.0334162) rotate(36.9734)"/>
<use xlink:href="#stroke0_1_1905" transform="translate(711.496 272.148) scale(0.0312499) rotate(-162.351)"/>
<use xlink:href="#stroke0_1_1905" transform="matrix(0.0237362 -0.0254 0.0254 0.0237362 700.056 267.903)"/>
<use xlink:href="#stroke0_1_1905" transform="translate(711.255 266.56) scale(0.0328714) rotate(101.188)"/>
<use xlink:href="#stroke0_1_1905" transform="translate(697.122 275.387) scale(0.0357421) rotate(-77.904)"/>
<use xlink:href="#stroke0_1_1905" transform="translate(708.109 276.793) scale(0.0354744) rotate(157.164)"/>
<use xlink:href="#stroke0_1_1905" transform="translate(696.258 270.35) scale(0.0289205) rotate(6.36696)"/>
<use xlink:href="#stroke0_1_1905" transform="translate(703.615 272.018) scale(0.0368421) rotate(92.2887)"/>
<use xlink:href="#stroke0_1_1905" transform="translate(701.691 277.395) scale(0.0293538) rotate(122.461)"/>
<use xlink:href="#stroke0_1_1905" transform="translate(698.31 285.228) scale(0.0346468) rotate(-178.423)"/>
<use xlink:href="#stroke0_1_1905" transform="translate(694.156 288.834) scale(0.0389268) rotate(-158.657)"/>
<use xlink:href="#stroke0_1_1905" transform="translate(679.799 281.414) scale(0.0439661) rotate(-38.7652)"/>
<use xlink:href="#stroke0_1_1905" transform="translate(689.236 292.81) scale(0.0433562) rotate(-161.206)"/>
<use xlink:href="#stroke0_1_1905" transform="translate(689.56 288.669) scale(0.0338388) rotate(154.93)"/>
<use xlink:href="#stroke0_1_1905" transform="translate(684.168 281.486) scale(0.0306685) rotate(72.2053)"/>
<use xlink:href="#stroke0_1_1905" transform="translate(681.717 282.515) scale(0.0291762) rotate(70.144)"/>
<use xlink:href="#stroke0_1_1905" transform="translate(672.884 283.624) scale(0.0304122) rotate(3.78704)"/>
<use xlink:href="#stroke0_1_1905" transform="translate(680.334 285.225) scale(0.0355127) rotate(96.7117)"/>
<use xlink:href="#stroke0_1_1905" transform="translate(666.232 297.687) scale(0.0440881) rotate(-103.779)"/>
<use xlink:href="#stroke0_1_1905" transform="translate(667.656 298.466) scale(0.0366333) rotate(-132.74)"/>
<use xlink:href="#stroke0_1_1905" transform="translate(666.668 284.833) scale(0.0325529) rotate(48.5126)"/>
<use xlink:href="#stroke0_1_1905" transform="translate(655.615 287.523) scale(0.0419014) rotate(-17.9541)"/>
<use xlink:href="#stroke0_1_1905" transform="translate(654.893 296.715) scale(0.0336482) rotate(-88.8833)"/>
<use xlink:href="#stroke0_1_1905" transform="translate(654.3 298.306) scale(0.0329165) rotate(-109.007)"/>
<use xlink:href="#stroke0_1_1905" transform="translate(655.883 286.308) scale(0.0302183) rotate(47.3412)"/>
<use xlink:href="#stroke0_1_1905" transform="translate(653.684 286.267) scale(0.0304415) rotate(48.3823)"/>
<use xlink:href="#stroke0_1_1905" transform="translate(644.876 289.908) scale(0.030362) rotate(-25.1216)"/>
<use xlink:href="#stroke0_1_1905" transform="translate(639.482 291.331) scale(0.0410828) rotate(-42.7767)"/>
<use xlink:href="#stroke0_1_1905" transform="translate(645.141 298.163) scale(0.0306023) rotate(-138.238)"/>
<use xlink:href="#stroke0_1_1905" transform="translate(636.863 295.423) scale(0.034379) rotate(-82.5033)"/>
<use xlink:href="#stroke0_1_1905" transform="translate(633.85 285.013) scale(0.0410987) rotate(-4.40657)"/>
<use xlink:href="#stroke0_1_1905" transform="translate(632.727 285.02) scale(0.033257) rotate(0.995507)"/>
<use xlink:href="#stroke0_1_1905" transform="translate(641.663 288.252) scale(0.0344553) rotate(121.157)"/>
<use xlink:href="#stroke0_1_1905" transform="translate(635.898 296.657) scale(0.0439595) rotate(-165.163)"/>
<use xlink:href="#stroke0_1_1905" transform="translate(633.402 292.532) scale(0.0318883) rotate(-178.962)"/>
<use xlink:href="#stroke0_1_1905" transform="translate(627.824 280.173) scale(0.0314524) rotate(49.324)"/>
<use xlink:href="#stroke0_1_1905" transform="translate(620.849 290.07) scale(0.0290893) rotate(-96.7787)"/>
<use xlink:href="#stroke0_1_1905" transform="translate(627.431 277.942) scale(0.0395375) rotate(78.6141)"/>
<use xlink:href="#stroke0_1_1905" transform="translate(619.64 289.176) scale(0.029417) rotate(-133.173)"/>
<use xlink:href="#stroke0_1_1905" transform="translate(616.194 287.579) scale(0.0289461) rotate(-117.863)"/>
<use xlink:href="#stroke0_1_1905" transform="translate(614.209 286.623) scale(0.0302567) rotate(-117.999)"/>
<use xlink:href="#stroke0_1_1905" transform="translate(609.527 275.403) scale(0.0311185) rotate(-9.05715)"/>
<use xlink:href="#stroke0_1_1905" transform="translate(606.834 272.341) scale(0.0380915) rotate(-3.13533)"/>
<use xlink:href="#stroke0_1_1905" transform="translate(615.673 271.86) scale(0.0342083) rotate(92.9745)"/>
<use xlink:href="#stroke0_1_1905" transform="translate(612.136 268.604) scale(0.0420765) rotate(67.2196)"/>
<use xlink:href="#stroke0_1_1905" transform="translate(607.012 271.047) scale(0.0396572) rotate(41.3765)"/>
<use xlink:href="#stroke0_1_1905" transform="translate(599.847 275.163) scale(0.0435872) rotate(1.51475)"/>
<use xlink:href="#stroke0_1_1905" transform="translate(597.239 281.189) scale(0.0379753) rotate(-21.0281)"/>
<use xlink:href="#stroke0_1_1905" transform="translate(599.75 293.495) scale(0.0340414) rotate(-112.155)"/>
<use xlink:href="#stroke0_1_1905" transform="translate(607.877 293.803) scale(0.0369113) rotate(165.095)"/>
<use xlink:href="#stroke0_1_1905" transform="translate(607.767 290.351) scale(0.0379864) rotate(118.765)"/>
<use xlink:href="#stroke0_1_1905" transform="translate(606.154 299.63) scale(0.0439257) rotate(164.072)"/>
<use xlink:href="#stroke0_1_1905" transform="translate(605.84 296.546) scale(0.0443103) rotate(124.7)"/>
<use xlink:href="#stroke0_1_1905" transform="translate(601.544 301.089) scale(0.0310756) rotate(140.879)"/>
<use xlink:href="#stroke0_1_1905" transform="translate(600.631 305.178) scale(0.0361247) rotate(155.229)"/>
<use xlink:href="#stroke0_1_1905" transform="translate(585.489 307.411) scale(0.0360254) rotate(-72.1041)"/>
<use xlink:href="#stroke0_1_1905" transform="matrix(0.027858 -0.0199 0.0199 0.027858 583.892 305.058)"/>
<use xlink:href="#stroke0_1_1905" transform="translate(588.175 316.797) scale(0.0386366) rotate(-131.654)"/>
<use xlink:href="#stroke0_1_1905" transform="translate(591.513 306.291) scale(0.029811) rotate(81.2473)"/>
<use xlink:href="#stroke0_1_1905" transform="translate(582.676 319.244) scale(0.0347677) rotate(-110.065)"/>
<use xlink:href="#stroke0_1_1905" transform="translate(590.408 311.061) scale(0.0348055) rotate(97.5758)"/>
<use xlink:href="#stroke0_1_1905" transform="translate(581.036 322.569) scale(0.0288772) rotate(-119.939)"/>
<use xlink:href="#stroke0_1_1905" transform="translate(580.13 326.497) scale(0.0374347) rotate(-129.662)"/>
<use xlink:href="#stroke0_1_1905" transform="translate(578.742 313.985) scale(0.0341486) rotate(34.7333)"/>
<use xlink:href="#stroke0_1_1905" transform="translate(582.098 329.351) scale(0.03731) rotate(-172.951)"/>
<use xlink:href="#stroke0_1_1905" transform="translate(581.534 327.356) scale(0.0291356) rotate(155.648)"/>
<use xlink:href="#stroke0_1_1905" transform="translate(574.804 333.688) scale(0.0341884) rotate(-141.658)"/>
<use xlink:href="#stroke0_1_1905" transform="translate(565.678 331.407) scale(0.0361781) rotate(-70.703)"/>
<use xlink:href="#stroke0_1_1905" transform="translate(577.23 330.586) scale(0.0313842) rotate(132.682)"/>
<use xlink:href="#stroke0_1_1905" transform="translate(562.184 335.298) scale(0.0360461) rotate(-72.8587)"/>
<use xlink:href="#stroke0_1_1905" transform="translate(570.506 340.552) scale(0.0355529) rotate(-167.42)"/>
<use xlink:href="#stroke0_1_1905" transform="translate(564.618 328.772) scale(0.0350496) rotate(38.2743)"/>
<use xlink:href="#stroke0_1_1905" transform="translate(570.983 338.118) scale(0.0392551) rotate(133.139)"/>
<use xlink:href="#stroke0_1_1905" transform="translate(561.708 332.242) scale(0.0369479) rotate(48.8562)"/>
<use xlink:href="#stroke0_1_1905" transform="translate(553.231 344.021) scale(0.0297609) rotate(-73.6637)"/>
<use xlink:href="#stroke0_1_1905" transform="translate(547.732 342.19) scale(0.0434689) rotate(-42.1618)"/>
<use xlink:href="#stroke0_1_1905" transform="translate(552.495 338.714) scale(0.031755) rotate(24.7142)"/>
<use xlink:href="#stroke0_1_1905" transform="translate(543.387 347.349) scale(0.0425696) rotate(-52.8859)"/>
<use xlink:href="#stroke0_1_1905" transform="translate(544.625 345.553) scale(0.0290487) rotate(-21.0648)"/>
<use xlink:href="#stroke0_1_1905" transform="translate(540.165 354.447) scale(0.042751) rotate(-79.6828)"/>
<use xlink:href="#stroke0_1_1905" transform="translate(541.405 357.044) scale(0.0328436) rotate(-103.147)"/>
<use xlink:href="#stroke0_1_1905" transform="translate(542.346 360.113) scale(0.0349598) rotate(-132.003)"/>
<use xlink:href="#stroke0_1_1905" transform="translate(548.009 351.318) scale(0.0381055) rotate(107.738)"/>
<use xlink:href="#stroke0_1_1905" transform="translate(536.26 363.837) scale(0.0393122) rotate(-123.901)"/>
<use xlink:href="#stroke0_1_1905" transform="translate(537.771 349.615) scale(0.0397864) rotate(55.951)"/>
<use xlink:href="#stroke0_1_1905" transform="translate(533.543 350.919) scale(0.0394362) rotate(44.6456)"/>
<use xlink:href="#stroke0_1_1905" transform="translate(523.955 361.839) scale(0.0333106) rotate(-61.2491)"/>
<use xlink:href="#stroke0_1_1905" transform="translate(528.24 367.922) scale(0.0313667) rotate(-136.696)"/>
<use xlink:href="#stroke0_1_1905" transform="translate(525.349 370.544) scale(0.0384999) rotate(-133.376)"/>
<use xlink:href="#stroke0_1_1905" transform="translate(528.086 371.589) scale(0.0437926) rotate(-171.173)"/>
<use xlink:href="#stroke0_1_1905" transform="translate(525.35 360.449) scale(0.0326895) rotate(86.6307)"/>
<use xlink:href="#stroke0_1_1905" transform="translate(518.828 372.767) scale(0.0322115) rotate(-143.169)"/>
<use xlink:href="#stroke0_1_1905" transform="translate(522.993 368.134) scale(0.034621) rotate(139.592)"/>
<use xlink:href="#stroke0_1_1905" transform="translate(508.035 375.365) scale(0.0429355) rotate(-102.966)"/>
<use xlink:href="#stroke0_1_1905" transform="translate(515.491 362.234) scale(0.0431872) rotate(78.776)"/>
<use xlink:href="#stroke0_1_1905" transform="translate(508.948 363.264) scale(0.0348974) rotate(54.8724)"/>
<use xlink:href="#stroke0_1_1905" transform="translate(497.773 375.199) scale(0.0387117) rotate(-79.6316)"/>
<use xlink:href="#stroke0_1_1905" transform="translate(505.718 366.067) scale(0.033594) rotate(74.369)"/>
<use xlink:href="#stroke0_1_1905" transform="translate(504.179 368.173) scale(0.030691) rotate(87.9652)"/>
<use xlink:href="#stroke0_1_1905" transform="translate(496.115 365.039) scale(0.039776) rotate(35.2648)"/>
<use xlink:href="#stroke0_1_1905" transform="translate(490.544 380.215) scale(0.0357095) rotate(-108.861)"/>
<use xlink:href="#stroke0_1_1905" transform="translate(487.856 381.466) scale(0.0383816) rotate(-111.714)"/>
<use xlink:href="#stroke0_1_1905" transform="translate(496.082 374.831) scale(0.0361881) rotate(130.451)"/>
<use xlink:href="#stroke0_1_1905" transform="translate(491.898 377.658) scale(0.0300408) rotate(152.998)"/>
<use xlink:href="#stroke0_1_1905" transform="translate(486.894 370.445) scale(0.0294893) rotate(70.8888)"/>
<use xlink:href="#stroke0_1_1905" transform="translate(487.204 381.835) scale(0.040124) rotate(175.535)"/>
<use xlink:href="#stroke0_1_1905" transform="translate(480.098 369.039) scale(0.0368432) rotate(54.6183)"/>
<use xlink:href="#stroke0_1_1905" transform="translate(484.225 377.604) scale(0.0435161) rotate(137.157)"/>
<use xlink:href="#stroke0_1_1905" transform="translate(476.326 381.722) scale(0.0297996) rotate(-176.852)"/>
<use xlink:href="#stroke0_1_1905" transform="translate(476.995 380.25) scale(0.0375613) rotate(155.925)"/>
<use xlink:href="#stroke0_1_1905" transform="translate(470.618 382.749) scale(0.0316363) rotate(-168.933)"/>
<use xlink:href="#stroke0_1_1905" transform="translate(464.101 383.797) scale(0.0324403) rotate(-131.853)"/>
<use xlink:href="#stroke0_1_1905" transform="translate(468.435 376.163) scale(0.0290302) rotate(121.776)"/>
<use xlink:href="#stroke0_1_1905" transform="translate(457.265 384.18) scale(0.0368772) rotate(-117.205)"/>
<use xlink:href="#stroke0_1_1905" transform="translate(463.987 375.561) scale(0.0329261) rotate(119.045)"/>
<use xlink:href="#stroke0_1_1905" transform="translate(461.16 375.52) scale(0.0309481) rotate(119.136)"/>
<use xlink:href="#stroke0_1_1905" transform="translate(443.026 376.291) scale(0.0440608) rotate(-46.2855)"/>
<use xlink:href="#stroke0_1_1905" transform="translate(443.598 378.195) scale(0.0291188) rotate(-66.1507)"/>
<use xlink:href="#stroke0_1_1905" transform="translate(451.594 380.451) scale(0.030461) rotate(175.012)"/>
<use xlink:href="#stroke0_1_1905" transform="translate(449.552 382.917) scale(0.0432395) rotate(-174.989)"/>
<use xlink:href="#stroke0_1_1905" transform="translate(448.662 373.076) scale(0.0376948) rotate(114.921)"/>
<use xlink:href="#stroke0_1_1905" transform="translate(440.908 367.681) scale(0.0365147) rotate(60.5716)"/>
<use xlink:href="#stroke0_1_1905" transform="translate(431.437 382.019) scale(0.0428326) rotate(-111.335)"/>
<use xlink:href="#stroke0_1_1905" transform="translate(426.071 376.803) scale(0.0353429) rotate(-75.3191)"/>
<use xlink:href="#stroke0_1_1905" transform="translate(438.443 372.673) scale(0.0425491) rotate(130.439)"/>
<use xlink:href="#stroke0_1_1905" transform="translate(431.334 367.785) scale(0.0296277) rotate(86.3084)"/>
<use xlink:href="#stroke0_1_1905" transform="translate(425.586 378.031) scale(0.032233) rotate(-145.691)"/>
<use xlink:href="#stroke0_1_1905" transform="translate(424.387 363.3) scale(0.0372796) rotate(57.6973)"/>
<use xlink:href="#stroke0_1_1905" transform="translate(421.706 362.031) scale(0.0390291) rotate(57.5293)"/>
<use xlink:href="#stroke0_1_1905" transform="translate(410.636 363.869) scale(0.0379169) rotate(-9.74339)"/>
<use xlink:href="#stroke0_1_1905" transform="translate(416.779 359.437) scale(0.0424815) rotate(60.9836)"/>
<use xlink:href="#stroke0_1_1905" transform="translate(415.902 371.287) scale(0.0322028) rotate(176.359)"/>
<use xlink:href="#stroke0_1_1905" transform="translate(415.887 368.223) scale(0.0367997) rotate(151.921)"/>
<use xlink:href="#stroke0_1_1905" transform="translate(402.832 359.36) scale(0.0306049) rotate(6.31621)"/>
<use xlink:href="#stroke0_1_1905" transform="translate(395.003 361.546) scale(0.0439826) rotate(-37.4465)"/>
<use xlink:href="#stroke0_1_1905" transform="translate(398.865 352.797) scale(0.0447168) rotate(28.8719)"/>
<use xlink:href="#stroke0_1_1905" transform="translate(388.878 358.938) scale(0.0441247) rotate(-40.6577)"/>
<use xlink:href="#stroke0_1_1905" transform="translate(400.799 363.818) scale(0.0370182) rotate(173.826)"/>
<use xlink:href="#stroke0_1_1905" transform="translate(385.118 353.154) scale(0.041269) rotate(-20.4204)"/>
<use xlink:href="#stroke0_1_1905" transform="translate(395.096 348.408) scale(0.0427007) rotate(77.8031)"/>
<use xlink:href="#stroke0_1_1905" transform="translate(380.509 351.653) scale(0.0351358) rotate(-30.7431)"/>
<use xlink:href="#stroke0_1_1905" transform="translate(387.869 345.773) scale(0.0346564) rotate(63.4924)"/>
<use xlink:href="#stroke0_1_1905" transform="translate(384.608 341.693) scale(0.044465) rotate(53.3114)"/>
<use xlink:href="#stroke0_1_1905" transform="translate(374.711 347.583) scale(0.0288047) rotate(-34.7959)"/>
<use xlink:href="#stroke0_1_1905" transform="translate(379.497 341.222) scale(0.0313233) rotate(49.0269)"/>
<use xlink:href="#stroke0_1_1905" transform="translate(377.575 338.678) scale(0.0360172) rotate(48.7849)"/>
<use xlink:href="#stroke0_1_1905" transform="translate(376.726 350.396) scale(0.0307201) rotate(-157.791)"/>
<use xlink:href="#stroke0_1_1905" transform="translate(374.509 336.445) scale(0.03235) rotate(56.2233)"/>
<use xlink:href="#stroke0_1_1905" transform="translate(372.785 333.485) scale(0.0383518) rotate(56.1981)"/>
<use xlink:href="#stroke0_1_1905" transform="translate(373.467 344.095) scale(0.0326243) rotate(176.854)"/>
<use xlink:href="#stroke0_1_1905" transform="translate(370.198 343.434) scale(0.0323599) rotate(-167.878)"/>
<use xlink:href="#stroke0_1_1905" transform="translate(362.229 341.31) scale(0.0296791) rotate(-109.134)"/>
<use xlink:href="#stroke0_1_1905" transform="translate(369.85 336.178) scale(0.0318232) rotate(147.654)"/>
<use xlink:href="#stroke0_1_1905" transform="translate(356.667 335.553) scale(0.0291135) rotate(-77.1067)"/>
<use xlink:href="#stroke0_1_1905" transform="translate(366.887 330.087) scale(0.0322531) rotate(123.472)"/>
<use xlink:href="#stroke0_1_1905" transform="translate(352.232 326.424) scale(0.0336941) rotate(-25.319)"/>
<use xlink:href="#stroke0_1_1905" transform="translate(355.167 321.179) scale(0.0311118) rotate(25.2728)"/>
<use xlink:href="#stroke0_1_1905" transform="translate(360.255 330.304) scale(0.0335279) rotate(175.79)"/>
<use xlink:href="#stroke0_1_1905" transform="translate(352.139 316.97) scale(0.0328388) rotate(28.1783)"/>
<use xlink:href="#stroke0_1_1905" transform="translate(345.882 324.553) scale(0.0333585) rotate(-74.0401)"/>
<use xlink:href="#stroke0_1_1905" transform="translate(353.941 327.611) scale(0.0442561) rotate(-162.595)"/>
<use xlink:href="#stroke0_1_1905" transform="translate(346.023 310.953) scale(0.0316848) rotate(19.348)"/>
<use xlink:href="#stroke0_1_1905" transform="translate(354.036 316.089) scale(0.034823) rotate(140.435)"/>
<use xlink:href="#stroke0_1_1905" transform="translate(344.176 320.416) scale(0.0378322) rotate(-130.014)"/>
<use xlink:href="#stroke0_1_1905" transform="translate(349.374 314.112) scale(0.0321397) rotate(164.171)"/>
<use xlink:href="#stroke0_1_1905" transform="translate(343.435 317.061) scale(0.0438158) rotate(-146.522)"/>
<use xlink:href="#stroke0_1_1905" transform="translate(345.955 302.004) scale(0.0315882) rotate(96.4911)"/>
<use xlink:href="#stroke0_1_1905" transform="translate(345.367 304.882) scale(0.0296153) rotate(142.123)"/>
<use xlink:href="#stroke0_1_1905" transform="translate(333.227 307.368) scale(0.0365794) rotate(-98.6175)"/>
<use xlink:href="#stroke0_1_1905" transform="translate(335.916 305.842) scale(0.0317682) rotate(-131.41)"/>
<use xlink:href="#stroke0_1_1905" transform="translate(333.914 290.686) scale(0.0327183) rotate(27.6726)"/>
<use xlink:href="#stroke0_1_1905" transform="translate(335.29 303.965) scale(0.0431046) rotate(-146.403)"/>
<use xlink:href="#stroke0_1_1905" transform="translate(328.019 301.402) scale(0.0291175) rotate(-90.0451)"/>
<use xlink:href="#stroke0_1_1905" transform="translate(335.426 305.854) scale(0.0375749) rotate(-173.308)"/>
<use xlink:href="#stroke0_1_1905" transform="translate(324.454 308.48) scale(0.0397558) rotate(-102.651)"/>
<use xlink:href="#stroke0_1_1905" transform="translate(320.875 300.808) scale(0.0359473) rotate(-21.9143)"/>
<use xlink:href="#stroke0_1_1905" transform="translate(332.826 304.999) scale(0.0347064) rotate(121.514)"/>
<use xlink:href="#stroke0_1_1905" transform="translate(332.318 309.56) scale(0.0411232) rotate(139.024)"/>
<use xlink:href="#stroke0_1_1905" transform="translate(316.076 310.211) scale(0.029576) rotate(-46.1957)"/>
<use xlink:href="#stroke0_1_1905" transform="translate(313.68 313.829) scale(0.0341314) rotate(-61.4573)"/>
<use xlink:href="#stroke0_1_1905" transform="translate(315.134 319.028) scale(0.0301698) rotate(-101.825)"/>
<use xlink:href="#stroke0_1_1905" transform="translate(315.95 321.88) scale(0.0305979) rotate(-126.779)"/>
<use xlink:href="#stroke0_1_1905" transform="translate(323.634 315.348) scale(0.0421666) rotate(115.882)"/>
<use xlink:href="#stroke0_1_1905" transform="translate(305.641 317.659) scale(0.0375287) rotate(-32.772)"/>
<use xlink:href="#stroke0_1_1905" transform="translate(317.025 319.991) scale(0.0292576) rotate(117.067)"/>
<use xlink:href="#stroke0_1_1905" transform="translate(317.517 324.5) scale(0.0409663) rotate(139.963)"/>
<use xlink:href="#stroke0_1_1905" transform="translate(314.648 327.775) scale(0.0400224) rotate(149.421)"/>
<use xlink:href="#stroke0_1_1905" transform="translate(309.776 320.139) scale(0.043359) rotate(79.0105)"/>
<use xlink:href="#stroke0_1_1905" transform="translate(302.104 321.243) scale(0.0381073) rotate(43.2332)"/>
<use xlink:href="#stroke0_1_1905" transform="translate(296.296 336.728) scale(0.0335759) rotate(-109.699)"/>
<use xlink:href="#stroke0_1_1905" transform="translate(292.997 324.324) scale(0.0439987) rotate(13.7834)"/>
<use xlink:href="#stroke0_1_1905" transform="translate(301.648 334.447) scale(0.033815) rotate(135.427)"/>
<use xlink:href="#stroke0_1_1905" transform="translate(300.642 334.241) scale(0.0410859) rotate(123.185)"/>
<use xlink:href="#stroke0_1_1905" transform="translate(286.995 342.298) scale(0.0302116) rotate(-110.518)"/>
<use xlink:href="#stroke0_1_1905" transform="translate(281.135 341.12) scale(0.0354103) rotate(-73.8078)"/>
<use xlink:href="#stroke0_1_1905" transform="translate(282.905 330.792) scale(0.0430788) rotate(27.2614)"/>
<use xlink:href="#stroke0_1_1905" transform="translate(276.995 346.956) scale(0.0394591) rotate(-98.3893)"/>
<use xlink:href="#stroke0_1_1905" transform="translate(287.547 340.5) scale(0.0398731) rotate(120.964)"/>
<use xlink:href="#stroke0_1_1905" transform="translate(269.894 349.458) scale(0.0442401) rotate(-91.9589)"/>
<use xlink:href="#stroke0_1_1905" transform="translate(268.446 351.111) scale(0.0409465) rotate(-101.963)"/>
<use xlink:href="#stroke0_1_1905" transform="translate(275.215 339.219) scale(0.036933) rotate(78.1705)"/>
<use xlink:href="#stroke0_1_1905" transform="translate(271.188 353.245) scale(0.0378974) rotate(-163.19)"/>
<use xlink:href="#stroke0_1_1905" transform="translate(271.554 347.708) scale(0.0299372) rotate(139.398)"/>
<use xlink:href="#stroke0_1_1905" transform="translate(257.187 351.465) scale(0.0345888) rotate(-82.8788)"/>
<use xlink:href="#stroke0_1_1905" transform="translate(264.721 343.58) scale(0.0289889) rotate(83.7024)"/>
<use xlink:href="#stroke0_1_1905" transform="translate(267.02 347.185) scale(0.044518) rotate(122.89)"/>
<use xlink:href="#stroke0_1_1905" transform="translate(248.302 347.029) scale(0.0340222) rotate(-31.8959)"/>
<use xlink:href="#stroke0_1_1905" transform="translate(243.91 352.583) scale(0.0426827) rotate(-69.5497)"/>
<use xlink:href="#stroke0_1_1905" transform="translate(255.356 351.37) scale(0.0302365) rotate(146.579)"/>
<use xlink:href="#stroke0_1_1905" transform="translate(243.004 356.161) scale(0.0355244) rotate(-106.845)"/>
<use xlink:href="#stroke0_1_1905" transform="translate(249.942 344.88) scale(0.0382582) rotate(89.9236)"/>
<use xlink:href="#stroke0_1_1905" transform="translate(247.038 352.97) scale(0.0304894) rotate(157.974)"/>
<use xlink:href="#stroke0_1_1905" transform="translate(234.822 354.58) scale(0.0299312) rotate(-94.3847)"/>
<use xlink:href="#stroke0_1_1905" transform="translate(237.69 357.588) scale(0.0367605) rotate(-147.047)"/>
<use xlink:href="#stroke0_1_1905" transform="translate(232.199 358.343) scale(0.0413549) rotate(-129.094)"/>
<use xlink:href="#stroke0_1_1905" transform="translate(233.078 356.065) scale(0.0327829) rotate(-158.43)"/>
<use xlink:href="#stroke0_1_1905" transform="translate(235.353 348.704) scale(0.0347961) rotate(125.526)"/>
<use xlink:href="#stroke0_1_1905" transform="translate(220.376 354.662) scale(0.0369404) rotate(-96.0134)"/>
<use xlink:href="#stroke0_1_1905" transform="translate(216.731 354.345) scale(0.0400626) rotate(-92.9559)"/>
<use xlink:href="#stroke0_1_1905" transform="translate(226.111 348.893) scale(0.0299174) rotate(139.134)"/>
<use xlink:href="#stroke0_1_1905" transform="translate(209.445 348.74) scale(0.0393014) rotate(-57.5106)"/>
<use xlink:href="#stroke0_1_1905" transform="translate(220.788 345.754) scale(0.029048) rotate(120.861)"/>
<use xlink:href="#stroke0_1_1905" transform="translate(210.139 339.721) scale(0.0337067) rotate(20.5611)"/>
<use xlink:href="#stroke0_1_1905" transform="translate(205.751 337.402) scale(0.043299) rotate(14.3561)"/>
<use xlink:href="#stroke0_1_1905" transform="translate(200.895 342.455) scale(0.0316252) rotate(-31.0277)"/>
<use xlink:href="#stroke0_1_1905" transform="translate(199.022 346.455) scale(0.0315245) rotate(-74.8386)"/>
<use xlink:href="#stroke0_1_1905" transform="translate(209.358 336.789) scale(0.04475) rotate(92.9897)"/>
<use xlink:href="#stroke0_1_1905" transform="translate(199.907 334.766) scale(0.0320779) rotate(45.3536)"/>
<use xlink:href="#stroke0_1_1905" transform="translate(202.651 334.85) scale(0.0378062) rotate(87.6194)"/>
<use xlink:href="#stroke0_1_1905" transform="translate(188.693 331.909) scale(0.0432978) rotate(2.6985)"/>
<use xlink:href="#stroke0_1_1905" transform="translate(197.62 333.951) scale(0.0336177) rotate(100.639)"/>
<use xlink:href="#stroke0_1_1905" transform="translate(180.496 338.893) scale(0.0440386) rotate(-66.9745)"/>
<use xlink:href="#stroke0_1_1905" transform="translate(182.893 341.8) scale(0.0397513) rotate(-113.519)"/>
<use xlink:href="#stroke0_1_1905" transform="translate(192.213 332.269) scale(0.0411179) rotate(128.265)"/>
<use xlink:href="#stroke0_1_1905" transform="translate(178.688 325.83) scale(0.0296244) rotate(13.6519)"/>
<use xlink:href="#stroke0_1_1905" transform="translate(175.025 337.124) scale(0.0418328) rotate(-108.802)"/>
<use xlink:href="#stroke0_1_1905" transform="translate(184.54 328.596) scale(0.0373874) rotate(136.951)"/>
<use xlink:href="#stroke0_1_1905" transform="translate(171.468 319.313) scale(0.036526) rotate(16.267)"/>
<use xlink:href="#stroke0_1_1905" transform="translate(180.518 326.162) scale(0.0405935) rotate(144.598)"/>
<use xlink:href="#stroke0_1_1905" transform="translate(178.426 323.96) scale(0.0417903) rotate(143.138)"/>
<use xlink:href="#stroke0_1_1905" transform="translate(161.892 326.956) scale(0.0435736) rotate(-99.1425)"/>
<use xlink:href="#stroke0_1_1905" transform="translate(169.637 309.951) scale(0.0436248) rotate(71.1803)"/>
<use xlink:href="#stroke0_1_1905" transform="translate(163.854 322.144) scale(0.0313541) rotate(-144.863)"/>
<use xlink:href="#stroke0_1_1905" transform="translate(157.504 308.494) scale(0.0328144) rotate(5.66409)"/>
<use xlink:href="#stroke0_1_1905" transform="translate(166.916 314.571) scale(0.0375905) rotate(150.716)"/>
<use xlink:href="#stroke0_1_1905" transform="translate(158.154 317.33) scale(0.0360222) rotate(-141.784)"/>
<use xlink:href="#stroke0_1_1905" transform="translate(146.993 306.429) scale(0.043063) rotate(-40.6982)"/>
<use xlink:href="#stroke0_1_1905" transform="translate(148.222 302.136) scale(0.0320898) rotate(-18.5908)"/>
<use xlink:href="#stroke0_1_1905" transform="translate(158.742 304.612) scale(0.0310335) rotate(140.859)"/>
<use xlink:href="#stroke0_1_1905" transform="translate(152.802 308.866) scale(0.0369695) rotate(-153.416)"/>
<use xlink:href="#stroke0_1_1905" transform="translate(140.697 296.797) scale(0.0421234) rotate(-33.238)"/>
<use xlink:href="#stroke0_1_1905" transform="translate(149.125 302.584) scale(0.0287548) rotate(-154.687)"/>
<use xlink:href="#stroke0_1_1905" transform="translate(147.082 302.877) scale(0.0398778) rotate(-146.199)"/>
<use xlink:href="#stroke0_1_1905" transform="translate(145.109 286.453) scale(0.0297093) rotate(46.8747)"/>
<use xlink:href="#stroke0_1_1905" transform="translate(148.82 296.326) scale(0.0404898) rotate(177.843)"/>
<use xlink:href="#stroke0_1_1905" transform="translate(138.947 280.318) scale(0.0381401) rotate(22.4225)"/>
<use xlink:href="#stroke0_1_1905" transform="translate(131.467 287.976) scale(0.0433977) rotate(-67.5778)"/>
<use xlink:href="#stroke0_1_1905" transform="translate(143.465 277.116) scale(0.0356774) rotate(84.818)"/>
<use xlink:href="#stroke0_1_1905" transform="translate(139.058 274.256) scale(0.0304486) rotate(58.5851)"/>
<use xlink:href="#stroke0_1_1905" transform="translate(133.475 284.198) scale(0.0320754) rotate(-115.271)"/>
<use xlink:href="#stroke0_1_1905" transform="translate(138.616 271.242) scale(0.0292075) rotate(78.1136)"/>
<use xlink:href="#stroke0_1_1905" transform="translate(133.78 268.55) scale(0.0296824) rotate(40.3814)"/>
<use xlink:href="#stroke0_1_1905" transform="translate(123.495 274.89) scale(0.0408719) rotate(-38.754)"/>
<use xlink:href="#stroke0_1_1905" transform="translate(122.757 274.779) scale(0.036114) rotate(-22.3182)"/>
<use xlink:href="#stroke0_1_1905" transform="translate(135.269 277.882) scale(0.0412347) rotate(118.812)"/>
<use xlink:href="#stroke0_1_1905" transform="translate(130.941 284.03) scale(0.0337745) rotate(154.935)"/>
<use xlink:href="#stroke0_1_1905" transform="translate(121.7 274.441) scale(0.0400059) rotate(38.3793)"/>
<use xlink:href="#stroke0_1_1905" transform="translate(119.522 291.198) scale(0.0349838) rotate(-137.911)"/>
<use xlink:href="#stroke0_1_1905" transform="translate(120.757 280.172) scale(0.0287377) rotate(75.7384)"/>
<use xlink:href="#stroke0_1_1905" transform="translate(121.36 280.812) scale(0.0401643) rotate(91.5052)"/>
<use xlink:href="#stroke0_1_1905" transform="translate(119.831 287.633) scale(0.0366849) rotate(134.787)"/>
<use xlink:href="#stroke0_1_1905" transform="translate(104.678 285.057) scale(0.0292598) rotate(-19.1533)"/>
<use xlink:href="#stroke0_1_1905" transform="translate(101.605 289.3) scale(0.0300677) rotate(-54.2818)"/>
<use xlink:href="#stroke0_1_1905" transform="translate(99.2651 286.271) scale(0.0334211) rotate(-22.2379)"/>
<use xlink:href="#stroke0_1_1905" transform="translate(108.223 293.36) scale(0.0302372) rotate(165.434)"/>
<use xlink:href="#stroke0_1_1905" transform="translate(98.5214 297.678) scale(0.0368726) rotate(-123.042)"/>
<use xlink:href="#stroke0_1_1905" transform="translate(100.34 298.928) scale(0.041606) rotate(-157.264)"/>
<use xlink:href="#stroke0_1_1905" transform="translate(94.7324 284.799) scale(0.0306666) rotate(40.2387)"/>
<use xlink:href="#stroke0_1_1905" transform="translate(99.6615 293.502) scale(0.0375142) rotate(148.132)"/>
<use xlink:href="#stroke0_1_1905" transform="translate(86.2853 298.499) scale(0.0378827) rotate(-115.084)"/>
<use xlink:href="#stroke0_1_1905" transform="translate(88.5508 284.026) scale(0.0366431) rotate(56.7904)"/>
<use xlink:href="#stroke0_1_1905" transform="translate(82.8035 285.084) scale(0.0300312) rotate(30.096)"/>
<use xlink:href="#stroke0_1_1905" transform="translate(78.4314 285.656) scale(0.0302011) rotate(9.34699)"/>
<use xlink:href="#stroke0_1_1905" transform="translate(72.0923 294.498) scale(0.0390915) rotate(-77.8205)"/>
<use xlink:href="#stroke0_1_1905" transform="translate(76.8107 296.365) scale(0.0304261) rotate(-141.383)"/>
<use xlink:href="#stroke0_1_1905" transform="translate(70.4458 296.217) scale(0.0366489) rotate(-110.423)"/>
<use xlink:href="#stroke0_1_1905" transform="translate(66.1231 291.997) scale(0.0302365) rotate(-78.0972)"/>
<use xlink:href="#stroke0_1_1905" transform="translate(72.0175 282.574) scale(0.0306481) rotate(66.7824)"/>
<use xlink:href="#stroke0_1_1905" transform="translate(75.6935 286.382) scale(0.0444126) rotate(125.287)"/>
<use xlink:href="#stroke0_1_1905" transform="translate(63.9457 294.265) scale(0.0392047) rotate(-140.805)"/>
<use xlink:href="#stroke0_1_1905" transform="translate(65.7481 279.069) scale(0.0371344) rotate(80.1052)"/>
<use xlink:href="#stroke0_1_1905" transform="translate(52.264 287.683) scale(0.0355627) rotate(-80.4471)"/>
<use xlink:href="#stroke0_1_1905" transform="translate(52.4138 290.389) scale(0.0422072) rotate(-115.157)"/>
<use xlink:href="#stroke0_1_1905" transform="translate(47.3634 277.061) scale(0.0346166) rotate(-15.6737)"/>
<use xlink:href="#stroke0_1_1905" transform="translate(50.8588 288.002) scale(0.0419993) rotate(-138.401)"/>
<use xlink:href="#stroke0_1_1905" transform="translate(50.4763 283.625) scale(0.0296618) rotate(-156.069)"/>
<use xlink:href="#stroke0_1_1905" transform="translate(38.9508 275.308) scale(0.0374175) rotate(-41.3703)"/>
<use xlink:href="#stroke0_1_1905" transform="translate(37.0596 272.778) scale(0.0365902) rotate(-35.2028)"/>
<use xlink:href="#stroke0_1_1905" transform="translate(48.0044 277.149) scale(0.0349718) rotate(169.053)"/>
<use xlink:href="#stroke0_1_1905" transform="translate(38.1661 264.081) scale(0.0350461) rotate(23.9476)"/>
<use xlink:href="#stroke0_1_1905" transform="translate(32.5393 274.159) scale(0.0375806) rotate(-90.0253)"/>
<use xlink:href="#stroke0_1_1905" transform="translate(28.5749 269.149) scale(0.0390246) rotate(-64.5221)"/>
<use xlink:href="#stroke0_1_1905" transform="translate(36.2763 271.025) scale(0.0305328) rotate(-154.915)"/>
<use xlink:href="#stroke0_1_1905" transform="translate(38.1818 269.929) scale(0.0435925) rotate(-176.565)"/>
<use xlink:href="#stroke0_1_1905" transform="translate(38.4115 258.287) scale(0.0389734) rotate(116.045)"/>
<use xlink:href="#stroke0_1_1905" transform="translate(23.1648 264.167) scale(0.0407328) rotate(-95.9851)"/>
<use xlink:href="#stroke0_1_1905" transform="translate(27.3097 249.038) scale(0.0325042) rotate(42.234)"/>
<use xlink:href="#stroke0_1_1905" transform="translate(19.1879 255.246) scale(0.0330886) rotate(-62.0724)"/>
<use xlink:href="#stroke0_1_1905" transform="translate(28.8143 256.612) scale(0.032415) rotate(-179.366)"/>
<use xlink:href="#stroke0_1_1905" transform="translate(29.0467 254.454) scale(0.038595) rotate(172.352)"/>
<use xlink:href="#stroke0_1_1905" transform="translate(13.9793 247.319) scale(0.0371725) rotate(-52.8742)"/>
<use xlink:href="#stroke0_1_1905" transform="translate(28.6192 245.755) scale(0.041821) rotate(142.522)"/>
<use xlink:href="#stroke0_1_1905" transform="translate(12.4937 240.089) scale(0.0319852) rotate(-35.4045)"/>
<use xlink:href="#stroke0_1_1905" transform="translate(8.77003 239.144) scale(0.0432406) rotate(-49.5085)"/>
<use xlink:href="#stroke0_1_1905" transform="translate(15.5648 242.682) scale(0.0307399) rotate(-129.943)"/>
<use xlink:href="#stroke0_1_1905" transform="translate(7.56584 229.959) scale(0.0426614) rotate(-22.2905)"/>
<use xlink:href="#stroke0_1_1905" transform="translate(20.6934 230.861) scale(0.0305555) rotate(127.893)"/>
<use xlink:href="#stroke0_1_1905" transform="translate(8.48437 224.166) scale(0.0339165) rotate(-5.39109)"/>
<use xlink:href="#stroke0_1_1905" transform="translate(12.4836 232.722) scale(0.0295197) rotate(-135.769)"/>
<use xlink:href="#stroke0_1_1905" transform="translate(9.40443 216.586) scale(0.0389502) rotate(22.625)"/>
<use xlink:href="#stroke0_1_1905" transform="translate(6.24293 224.969) scale(0.0290552) rotate(-81.8964)"/>
<use xlink:href="#stroke0_1_1905" transform="translate(19.3739 220.244) scale(0.043492) rotate(139.219)"/>
<use xlink:href="#stroke0_1_1905" transform="translate(12.4201 222.421) scale(0.0328051) rotate(-161.491)"/>
<use xlink:href="#stroke0_1_1905" transform="translate(16.9382 212.851) scale(0.037801) rotate(126)"/>
<use xlink:href="#stroke0_1_1905" transform="translate(4.32693 216.923) scale(0.0362738) rotate(-103.491)"/>
<use xlink:href="#stroke0_1_1905" transform="translate(13.1372 201.411) scale(0.0401479) rotate(79.034)"/>
<use xlink:href="#stroke0_1_1905" transform="translate(15.5679 208.794) scale(0.0433334) rotate(157.92)"/>
<use xlink:href="#stroke0_1_1905" transform="translate(11.0712 197.442) scale(0.0292865) rotate(81.2441)"/>
<use xlink:href="#stroke0_1_1905" transform="translate(9.60759 206.962) scale(0.0385401) rotate(-158.491)"/>
<use xlink:href="#stroke0_1_1905" transform="translate(9.54122 203.962) scale(0.0385869) rotate(-160.14)"/>
<use xlink:href="#stroke0_1_1905" transform="translate(3.58401 188.099) scale(0.0314534) rotate(15.3947)"/>
<use xlink:href="#stroke0_1_1905" transform="translate(13.8636 196.22) scale(0.0447766) rotate(165.816)"/>
<use xlink:href="#stroke0_1_1905" transform="translate(2.54793 182.899) scale(0.0309054) rotate(6.78282)"/>
<use xlink:href="#stroke0_1_1905" transform="translate(-0.12121 186.812) scale(0.0307604) rotate(-57.9737)"/>
<use xlink:href="#stroke0_1_1905" transform="translate(-0.448612 183.985) scale(0.0320942) rotate(-53.9056)"/>
<use xlink:href="#stroke0_1_1905" transform="translate(13.4733 186.044) scale(0.0446258) rotate(168.915)"/>
<use xlink:href="#stroke0_1_1905" transform="translate(8.25911 168.403) scale(0.0432915) rotate(53.8896)"/>
<use xlink:href="#stroke0_1_1905" transform="translate(4.0742 180.124) scale(0.0307261) rotate(-115.863)"/>
<use xlink:href="#stroke0_1_1905" transform="translate(-1.41148 174.124) scale(0.0416225) rotate(-66.1553)"/>
<use xlink:href="#stroke0_1_1905" transform="translate(13.2962 169.845) scale(0.0307809) rotate(140.881)"/>
<use xlink:href="#stroke0_1_1905" transform="translate(6.06132 159.208) scale(0.0350662) rotate(31.0054)"/>
<use xlink:href="#stroke0_1_1905" transform="translate(7.06851 156.03) scale(0.0369233) rotate(36.1737)"/>
<use xlink:href="#stroke0_1_1905" transform="translate(2.4938 167.47) scale(0.0437836) rotate(-98.6835)"/>
<use xlink:href="#stroke0_1_1905" transform="translate(5.04342 162.612) scale(0.0296021) rotate(-100.503)"/>
<use xlink:href="#stroke0_1_1905" transform="translate(6.58494 161.588) scale(0.0323725) rotate(-114.599)"/>
<use xlink:href="#stroke0_1_1905" transform="translate(1.60892 155.777) scale(0.0431921) rotate(-68.833)"/>
<use xlink:href="#stroke0_1_1905" transform="translate(17.4023 147.081) scale(0.03517) rotate(109.288)"/>
<use xlink:href="#stroke0_1_1905" transform="translate(3.46063 148.719) scale(0.0397618) rotate(-60.2991)"/>
<use xlink:href="#stroke0_1_1905" transform="translate(15.7595 151.044) scale(0.0368987) rotate(-165.418)"/>
<use xlink:href="#stroke0_1_1905" transform="translate(6.82836 143.681) scale(0.032155) rotate(-65.394)"/>
<use xlink:href="#stroke0_1_1905" transform="translate(17.9041 131.047) scale(0.0430912) rotate(66.6098)"/>
<use xlink:href="#stroke0_1_1905" transform="translate(13.7107 128.347) scale(0.0386857) rotate(30.2581)"/>
<use xlink:href="#stroke0_1_1905" transform="translate(20.9476 140.663) scale(0.0418753) rotate(-170.24)"/>
<use xlink:href="#stroke0_1_1905" transform="translate(15.8089 125.083) scale(0.0292274) rotate(24.8023)"/>
<use xlink:href="#stroke0_1_1905" transform="translate(22.6172 136.29) scale(0.0429661) rotate(-164.867)"/>
<use xlink:href="#stroke0_1_1905" transform="translate(24.2163 130.511) scale(0.0306445) rotate(178.99)"/>
<use xlink:href="#stroke0_1_1905" transform="translate(27.3247 122.42) scale(0.0311047) rotate(119.188)"/>
<use xlink:href="#stroke0_1_1905" transform="translate(20.2343 127.422) scale(0.0290231) rotate(-119.535)"/>
<use xlink:href="#stroke0_1_1905" transform="translate(26.0433 127.613) scale(0.0414288) rotate(-155.61)"/>
<use xlink:href="#stroke0_1_1905" transform="translate(27.2178 109.199) scale(0.038626) rotate(56.3897)"/>
<use xlink:href="#stroke0_1_1905" transform="translate(23.6257 106.25) scale(0.0422173) rotate(19.455)"/>
<use xlink:href="#stroke0_1_1905" transform="translate(34.6693 105.276) scale(0.0424004) rotate(84.1876)"/>
<use xlink:href="#stroke0_1_1905" transform="translate(27.6942 117.318) scale(0.0424761) rotate(-118.503)"/>
<use xlink:href="#stroke0_1_1905" transform="translate(38.6708 110.067) scale(0.0336981) rotate(159.042)"/>
<use xlink:href="#stroke0_1_1905" transform="translate(38.8548 98.2929) scale(0.0384061) rotate(76.4252)"/>
<use xlink:href="#stroke0_1_1905" transform="translate(36.8668 109.533) scale(0.0331235) rotate(-144.609)"/>
<use xlink:href="#stroke0_1_1905" transform="translate(38.2748 109.669) scale(0.0438565) rotate(-139.086)"/>
<use xlink:href="#stroke0_1_1905" transform="translate(38.4167 93.0399) scale(0.0288931) rotate(24.0771)"/>
<use xlink:href="#stroke0_1_1905" transform="translate(47.6923 99.0724) scale(0.0298501) rotate(149.108)"/>
<use xlink:href="#stroke0_1_1905" transform="translate(48.821 92.1984) scale(0.0306115) rotate(97.7003)"/>
<use xlink:href="#stroke0_1_1905" transform="translate(38.7346 96.576) scale(0.0350623) rotate(-68.5923)"/>
<use xlink:href="#stroke0_1_1905" transform="translate(55.0682 91.2727) scale(0.0363702) rotate(122.362)"/>
<use xlink:href="#stroke0_1_1905" transform="translate(57.9636 90.7325) scale(0.0386904) rotate(131.008)"/>
<use xlink:href="#stroke0_1_1905" transform="translate(56.3778 96.0725) scale(0.0385926) rotate(-168.152)"/>
<use xlink:href="#stroke0_1_1905" transform="translate(59.5988 94.025) scale(0.0383229) rotate(-174.563)"/>
<use xlink:href="#stroke0_1_1905" transform="translate(63.4744 85.1619) scale(0.0307376) rotate(120.48)"/>
<use xlink:href="#stroke0_1_1905" transform="translate(56.1815 80.1409) scale(0.029343) rotate(10.3074)"/>
<use xlink:href="#stroke0_1_1905" transform="translate(57.7928 78.5948) scale(0.0328867) rotate(8.77758)"/>
<use xlink:href="#stroke0_1_1905" transform="translate(57.4425 79.1055) scale(0.0372214) rotate(-15.9749)"/>
<use xlink:href="#stroke0_1_1905" transform="translate(64.4771 88.2582) scale(0.0302473) rotate(-121.65)"/>
<use xlink:href="#stroke0_1_1905" transform="translate(62.9806 84.1411) scale(0.0293266) rotate(-73.956)"/>
<use xlink:href="#stroke0_1_1905" transform="translate(77.5463 76.7555) scale(0.0378784) rotate(100.163)"/>
<use xlink:href="#stroke0_1_1905" transform="translate(65.4627 81.8765) scale(0.0415279) rotate(-61.1095)"/>
<use xlink:href="#stroke0_1_1905" transform="translate(73.815 84.8602) scale(0.0292366) rotate(-112.712)"/>
<use xlink:href="#stroke0_1_1905" transform="translate(74.5603 73.9466) scale(0.0319827) rotate(2.02988)"/>
<use xlink:href="#stroke0_1_1905" transform="translate(77.5071 83.5175) scale(0.0290064) rotate(-102.326)"/>
<use xlink:href="#stroke0_1_1905" transform="translate(89.2764 74.1499) scale(0.0351116) rotate(94.9259)"/>
<use xlink:href="#stroke0_1_1905" transform="translate(92.5108 79.9923) scale(0.0325426) rotate(146.297)"/>
<use xlink:href="#stroke0_1_1905" transform="translate(92.1149 83.1667) scale(0.0300693) rotate(-175.204)"/>
<use xlink:href="#stroke0_1_1905" transform="translate(88.8032 83.9157) scale(0.0291934) rotate(-120.324)"/>
<use xlink:href="#stroke0_1_1905" transform="translate(91.0574 85.1065) scale(0.0345056) rotate(-121.771)"/>
<use xlink:href="#stroke0_1_1905" transform="translate(90.1758 81.7022) scale(0.0305321) rotate(-79.2114)"/>
<use xlink:href="#stroke0_1_1905" transform="translate(96.8311 70.6602) scale(0.0402434) rotate(31.4553)"/>
<use xlink:href="#stroke0_1_1905" transform="translate(105.183 71.2228) scale(0.0434616) rotate(66.3512)"/>
<use xlink:href="#stroke0_1_1905" transform="translate(111.611 81.7111) scale(0.0361574) rotate(144.99)"/>
<use xlink:href="#stroke0_1_1905" transform="translate(113.419 80.4871) scale(0.0317551) rotate(130.351)"/>
<use xlink:href="#stroke0_1_1905" transform="translate(104.897 87.774) scale(0.0381396) rotate(-103.265)"/>
<use xlink:href="#stroke0_1_1905" transform="translate(103.971 86.0119) scale(0.0446298) rotate(-71.7364)"/>
<use xlink:href="#stroke0_1_1905" transform="translate(120.921 85.759) scale(0.0305083) rotate(152.924)"/>
<use xlink:href="#stroke0_1_1905" transform="translate(115.841 92.5725) scale(0.0398845) rotate(-126.695)"/>
<use xlink:href="#stroke0_1_1905" transform="translate(114.915 92.6547) scale(0.0420146) rotate(-99.7857)"/>
<use xlink:href="#stroke0_1_1905" transform="translate(118.25 82.2146) scale(0.0332942) rotate(-0.842232)"/>
<use xlink:href="#stroke0_1_1905" transform="translate(116.847 92.0707) scale(0.0445163) rotate(-69.4951)"/>
<use xlink:href="#stroke0_1_1905" transform="translate(125.33 84.6296) scale(0.0302774) rotate(18.0698)"/>
<use xlink:href="#stroke0_1_1905" transform="translate(136.544 85.9463) scale(0.0428546) rotate(88.5205)"/>
<use xlink:href="#stroke0_1_1905" transform="translate(127.199 88.0245) scale(0.0383003) rotate(-1.35382)"/>
<use xlink:href="#stroke0_1_1905" transform="translate(127.946 94.8896) scale(0.0318927) rotate(-48.2209)"/>
<use xlink:href="#stroke0_1_1905" transform="translate(130.129 99.3381) scale(0.0437404) rotate(-99.4218)"/>
<use xlink:href="#stroke0_1_1905" transform="translate(143.548 86.1027) scale(0.0353422) rotate(101.81)"/>
<use xlink:href="#stroke0_1_1905" transform="translate(146.512 87.9335) scale(0.038685) rotate(136.506)"/>
<use xlink:href="#stroke0_1_1905" transform="translate(142.466 91.241) scale(0.0334385) rotate(-160.054)"/>
<use xlink:href="#stroke0_1_1905" transform="translate(135.971 87.6062) scale(0.03556) rotate(-92.0016)"/>
<use xlink:href="#stroke0_1_1905" transform="translate(138.092 76.3121) scale(0.029715) rotate(-5.95576)"/>
<use xlink:href="#stroke0_1_1905" transform="translate(150.247 72.1898) scale(0.0417893) rotate(87.4803)"/>
<use xlink:href="#stroke0_1_1905" transform="translate(141.339 82.061) scale(0.0378443) rotate(-104.322)"/>
<use xlink:href="#stroke0_1_1905" transform="translate(140.438 74.4455) scale(0.0335898) rotate(-57.4723)"/>
<use xlink:href="#stroke0_1_1905" transform="translate(147.365 64.9929) scale(0.0316052) rotate(29.5005)"/>
<use xlink:href="#stroke0_1_1905" transform="translate(155.904 70.9695) scale(0.0291987) rotate(145.691)"/>
<use xlink:href="#stroke0_1_1905" transform="translate(151.009 75.151) scale(0.0374599) rotate(-134.082)"/>
<use xlink:href="#stroke0_1_1905" transform="translate(144.978 65.2794) scale(0.0412941) rotate(-49.7566)"/>
<use xlink:href="#stroke0_1_1905" transform="translate(149.811 59.7832) scale(0.0305102) rotate(-17.8845)"/>
<use xlink:href="#stroke0_1_1905" transform="translate(164.192 57.0891) scale(0.039892) rotate(103.356)"/>
<use xlink:href="#stroke0_1_1905" transform="translate(166.428 53.3615) scale(0.0437987) rotate(96.1843)"/>
<use xlink:href="#stroke0_1_1905" transform="translate(170.326 54.755) scale(0.044131) rotate(122.869)"/>
<use xlink:href="#stroke0_1_1905" transform="translate(157.488 55.6119) scale(0.0291136) rotate(-63.2038)"/>
<use xlink:href="#stroke0_1_1905" transform="translate(173.723 54.9694) scale(0.0433846) rotate(149.776)"/>
<use xlink:href="#stroke0_1_1905" transform="translate(163.366 42.5475) scale(0.0413528) rotate(11.6125)"/>
<use xlink:href="#stroke0_1_1905" transform="translate(175.741 44.6357) scale(0.0335954) rotate(102.122)"/>
<use xlink:href="#stroke0_1_1905" transform="translate(165.513 43.6621) scale(0.032411) rotate(-24.6671)"/>
<use xlink:href="#stroke0_1_1905" transform="translate(173.468 35.2697) scale(0.0448191) rotate(38.8812)"/>
<use xlink:href="#stroke0_1_1905" transform="translate(176.724 50.6489) scale(0.0396928) rotate(-140.878)"/>
<use xlink:href="#stroke0_1_1905" transform="translate(171.285 39.1979) scale(0.0369454) rotate(-36.9558)"/>
<use xlink:href="#stroke0_1_1905" transform="translate(176.36 45.9528) scale(0.0410145) rotate(-104.014)"/>
<use xlink:href="#stroke0_1_1905" transform="translate(177.223 35.7385) scale(0.0312971) rotate(-33.1353)"/>
<use xlink:href="#stroke0_1_1905" transform="translate(178.64 34.3769) scale(0.0345288) rotate(-34.6171)"/>
<use xlink:href="#stroke0_1_1905" transform="translate(194.109 32.4515) scale(0.0329483) rotate(111.648)"/>
<use xlink:href="#stroke0_1_1905" transform="translate(186.78 27.1191) scale(0.0343717) rotate(14.875)"/>
<use xlink:href="#stroke0_1_1905" transform="translate(200.324 33.8897) scale(0.0394774) rotate(144.245)"/>
<use xlink:href="#stroke0_1_1905" transform="translate(200.023 34.9885) scale(0.0323627) rotate(170.175)"/>
<use xlink:href="#stroke0_1_1905" transform="translate(196.099 22.7552) scale(0.0341043) rotate(33.1789)"/>
<use xlink:href="#stroke0_1_1905" transform="translate(196.723 34.3796) scale(0.0305308) rotate(-113.988)"/>
<use xlink:href="#stroke0_1_1905" transform="translate(208.413 32.446) scale(0.0398396) rotate(167.636)"/>
<use xlink:href="#stroke0_1_1905" transform="translate(213.747 24.7447) scale(0.0443294) rotate(120.906)"/>
<use xlink:href="#stroke0_1_1905" transform="translate(212.671 21.4182) scale(0.0317432) rotate(93.7588)"/>
<use xlink:href="#stroke0_1_1905" transform="translate(202.547 22.5996) scale(0.0374432) rotate(-33.802)"/>
<use xlink:href="#stroke0_1_1905" transform="translate(212.497 17.4019) scale(0.0310814) rotate(41.4383)"/>
<use xlink:href="#stroke0_1_1905" transform="translate(223.637 26.1944) scale(0.0436154) rotate(152.014)"/>
<use xlink:href="#stroke0_1_1905" transform="translate(220.21 28.9268) scale(0.033674) rotate(-156.368)"/>
<use xlink:href="#stroke0_1_1905" transform="translate(226.397 25.4814) scale(0.0334381) rotate(163.921)"/>
<use xlink:href="#stroke0_1_1905" transform="translate(217.892 28.4699) scale(0.044538) rotate(-100.762)"/>
<use xlink:href="#stroke0_1_1905" transform="translate(221.157 25.928) scale(0.0363481) rotate(-92.3724)"/>
<use xlink:href="#stroke0_1_1905" transform="translate(224.772 14.3809) scale(0.0366687) rotate(4.35153)"/>
<use xlink:href="#stroke0_1_1905" transform="translate(225.145 23.4574) scale(0.0376372) rotate(-74.0415)"/>
<use xlink:href="#stroke0_1_1905" transform="translate(236.784 14.2625) scale(0.0294636) rotate(61.629)"/>
<use xlink:href="#stroke0_1_1905" transform="translate(231.972 16.1347) scale(0.030231) rotate(-11.9177)"/>
<use xlink:href="#stroke0_1_1905" transform="translate(232.53 22.0255) scale(0.0353748) rotate(-66.3905)"/>
<use xlink:href="#stroke0_1_1905" transform="translate(243.28 12.8102) scale(0.0345019) rotate(50.7261)"/>
<use xlink:href="#stroke0_1_1905" transform="translate(247.642 25.4852) scale(0.0308685) rotate(-167.014)"/>
<use xlink:href="#stroke0_1_1905" transform="translate(252.682 23.9351) scale(0.0332424) rotate(166.119)"/>
<use xlink:href="#stroke0_1_1905" transform="translate(241.735 19.7257) scale(0.039352) rotate(-44.7237)"/>
<use xlink:href="#stroke0_1_1905" transform="translate(244.689 18.0764) scale(0.0416995) rotate(-31.3163)"/>
<use xlink:href="#stroke0_1_1905" transform="translate(260.752 28.2708) scale(0.0417609) rotate(-171.926)"/>
<use xlink:href="#stroke0_1_1905" transform="translate(253.205 24.3778) scale(0.0300868) rotate(-75.5423)"/>
<use xlink:href="#stroke0_1_1905" transform="translate(254.482 24.3928) scale(0.0341986) rotate(-67.8963)"/>
<use xlink:href="#stroke0_1_1905" transform="translate(265.744 15.0694) scale(0.0382224) rotate(55.6216)"/>
<use xlink:href="#stroke0_1_1905" transform="translate(274.714 26.0533) scale(0.0408126) rotate(149.351)"/>
<use xlink:href="#stroke0_1_1905" transform="translate(277.557 26.6616) scale(0.0399303) rotate(147.796)"/>
<use xlink:href="#stroke0_1_1905" transform="translate(281.721 23.3563) scale(0.0447321) rotate(118.845)"/>
<use xlink:href="#stroke0_1_1905" transform="translate(279.623 21.9788) scale(0.0294826) rotate(85.6183)"/>
<use xlink:href="#stroke0_1_1905" transform="translate(274.082 21.7177) scale(0.0314384) rotate(8.95807)"/>
<use xlink:href="#stroke0_1_1905" transform="translate(276.153 22.9392) scale(0.0304668) rotate(6.63938)"/>
<use xlink:href="#stroke0_1_1905" transform="translate(285.955 23.0403) scale(0.0351709) rotate(74.4121)"/>
<use xlink:href="#stroke0_1_1905" transform="translate(278.088 28.762) scale(0.0309175) rotate(-35.6079)"/>
<use xlink:href="#stroke0_1_1905" transform="translate(279.209 30.4282) scale(0.0360155) rotate(-41.5314)"/>
<use xlink:href="#stroke0_1_1905" transform="translate(281.762 31.7623) scale(0.0352188) rotate(-41.8028)"/>
<use xlink:href="#stroke0_1_1905" transform="translate(286.124 38.1603) scale(0.0322383) rotate(-88.7031)"/>
<use xlink:href="#stroke0_1_1905" transform="translate(293.426 41.9577) scale(0.0330422) rotate(-139.369)"/>
<use xlink:href="#stroke0_1_1905" transform="translate(303.318 37.638) scale(0.0377497) rotate(139.155)"/>
<use xlink:href="#stroke0_1_1905" transform="translate(299.945 46.7341) scale(0.042042) rotate(-150.517)"/>
<use xlink:href="#stroke0_1_1905" transform="translate(296.784 47.9229) scale(0.0426475) rotate(-111.342)"/>
<use xlink:href="#stroke0_1_1905" transform="translate(311.361 41.4963) scale(0.0391956) rotate(128.006)"/>
<use xlink:href="#stroke0_1_1905" transform="translate(307.152 37.7509) scale(0.0296152) rotate(58.3108)"/>
<use xlink:href="#stroke0_1_1905" transform="translate(304.041 51.3071) scale(0.0339501) rotate(-111.123)"/>
<use xlink:href="#stroke0_1_1905" transform="translate(309.899 39.7365) scale(0.0343936) rotate(46.6327)"/>
<use xlink:href="#stroke0_1_1905" transform="translate(307.219 54.57) scale(0.0352533) rotate(-104.86)"/>
<use xlink:href="#stroke0_1_1905" transform="translate(306.282 49.5664) scale(0.0337699) rotate(-42.4242)"/>
<use xlink:href="#stroke0_1_1905" transform="translate(318.709 47.2861) scale(0.0292221) rotate(80.328)"/>
<use xlink:href="#stroke0_1_1905" transform="translate(323.78 52.4445) scale(0.0350372) rotate(121.511)"/>
<use xlink:href="#stroke0_1_1905" transform="translate(314.972 60.3421) scale(0.0290743) rotate(-103.794)"/>
<use xlink:href="#stroke0_1_1905" transform="translate(327.077 54.72) scale(0.0360649) rotate(111.633)"/>
<use xlink:href="#stroke0_1_1905" transform="translate(315.504 64.3772) scale(0.0400145) rotate(-85.995)"/>
<use xlink:href="#stroke0_1_1905" transform="translate(330.242 66.0813) scale(0.0373935) rotate(167.047)"/>
<use xlink:href="#stroke0_1_1905" transform="translate(334.355 66.2037) scale(0.0423595) rotate(146.564)"/>
<use xlink:href="#stroke0_1_1905" transform="translate(328.985 58.9413) scale(0.0359654) rotate(50.5203)"/>
<use xlink:href="#stroke0_1_1905" transform="translate(323.276 75.2857) scale(0.0447319) rotate(-94.3993)"/>
<use xlink:href="#stroke0_1_1905" transform="translate(327.929 79.2863) scale(0.0425913) rotate(-113.316)"/>
<use xlink:href="#stroke0_1_1905" transform="translate(338.049 79.5672) scale(0.0359785) rotate(-177.457)"/>
<use xlink:href="#stroke0_1_1905" transform="translate(337.241 69.3584) scale(0.0342607) rotate(60.6852)"/>
<use xlink:href="#stroke0_1_1905" transform="translate(330.846 82.7707) scale(0.0347645) rotate(-88.1872)"/>
<use xlink:href="#stroke0_1_1905" transform="translate(330.959 79.1127) scale(0.0336305) rotate(-37.7966)"/>
<use xlink:href="#stroke0_1_1905" transform="translate(333.618 86.8669) scale(0.0337632) rotate(-86.4642)"/>
<use xlink:href="#stroke0_1_1905" transform="translate(338.806 93.8809) scale(0.0434046) rotate(-127.014)"/>
<defs>
<g id="stroke0_1_1905" data-figma-scatter-ref="stroke0_1_1905_ref" data-figma-scatter="f0.28_w0_aj180_sj0.25_r0_s7166259504722092330_sw11.085">
<path d="M103.731 283.547C110.352 281.363 112.807 281.348 116.121 283.468C130.109 292.418 124.85 308.718 107.972 308.727C90.3768 308.737 87.0606 289.046 103.731 283.547ZM139.837 35.4146C140.937 35.1787 142.512 35.114 143.337 35.271C144.162 35.4281 146.516 35.8391 148.567 36.1851C155.802 37.4051 160.179 46.6969 156.734 53.5249C152.924 61.0769 144.715 67.5811 140.859 66.1021C135.872 64.1881 137.625 69.8792 144.066 76.5152C148.306 80.8841 150.337 81.2685 150.337 77.7066C150.337 76.6574 151.622 74.3218 153.193 72.5161C154.823 70.6412 156.597 66.9201 157.324 63.8501C158.925 57.0892 160.788 55.2289 167.369 53.8169C177.32 51.6829 185.581 56.9263 183.752 64.2153C183.293 66.0423 183.901 67.6656 186.09 70.4585C196.859 84.1975 193.875 104.273 180.596 107.418C177.049 108.258 176.832 108.532 176.773 112.27C176.739 114.448 176.365 116.987 175.943 117.912C175.255 119.417 175.946 119.564 182.506 119.31C190.415 119.003 192.674 119.705 195.953 123.487C199.054 127.064 201.598 126.114 202.609 121.002C203.503 116.483 209.096 110.731 212.596 110.731C214.841 110.731 215.934 108.156 214.449 106.367C206.1 96.3056 222.234 73.6632 235.605 76.6792C241.572 78.0252 246.302 83.6302 246.367 89.4312C246.384 90.9712 247.505 94.4811 248.858 97.231C255.362 110.453 243.304 126.225 232.777 118.263C229.924 116.105 229.837 116.226 229.837 122.341C229.837 128.93 225.932 133.292 219.049 134.393C216.068 134.87 214.933 135.67 213.775 138.116C212.964 139.829 211.55 142.415 210.63 143.863C208.984 146.456 209.02 146.565 213.147 151.254C215.451 153.871 217.337 156.555 217.337 157.218C217.337 157.882 218.074 159.901 218.974 161.706C222.148 168.067 221.073 181.731 217.4 181.731C217.052 181.731 215.97 183.081 214.995 184.731C214.02 186.381 212.573 187.731 211.779 187.731C209.595 187.731 210.044 189.817 212.863 192.76C216.384 196.435 217.425 204.867 214.728 207.858C209.503 213.649 203.05 218.01 198.064 219.122C193.944 220.041 192.83 220.705 192.804 222.259C192.669 230.389 188.242 235.387 179.682 237.077C172.845 238.427 172.072 240.31 177.577 242.203C190.358 246.597 192.892 257.693 182.442 263.506C176.521 266.799 172.426 266.758 167.515 263.354C163.894 260.845 163.161 260.686 159.679 261.653C153.737 263.303 147.363 262.934 141.337 260.593C135.874 258.47 130.724 257.068 124.689 256.061C118.715 255.064 115.151 249.943 114.592 241.551C114.184 235.417 113.671 233.745 111.425 231.231C109.951 229.581 107.986 226.544 107.058 224.481C105.42 220.844 105.211 220.731 100.164 220.731C93.7935 220.731 89.0798 217.922 86.2168 212.42C83.0468 206.327 78.9427 207.336 78.8477 214.231C78.8097 216.981 78.4233 220.817 77.9883 222.755C77.2354 226.113 77.3507 226.324 80.4366 227.255C90.5004 230.29 90.3981 247.946 80.2881 252.934C55.9904 264.92 26.2411 240.473 47.875 226.298C49.556 225.196 50.1805 223.494 50.6895 218.626C51.0495 215.185 52.1298 211.262 53.0908 209.91C54.0507 208.557 55.2736 206.856 55.8086 206.127C56.5016 205.184 56.0161 204.003 54.1221 202.017C50.6273 198.355 49.3112 194.657 49.9981 190.428C50.3281 188.392 50.1033 186.705 49.4463 186.299C48.8364 185.922 48.337 184.345 48.3369 182.794C48.3369 181.244 47.6012 179.366 46.7032 178.621C43.9996 176.376 34.3369 162.856 34.3369 161.317C34.3368 160.529 32.7627 157.822 30.8389 155.302C28.915 152.781 27.3998 150.384 27.4727 149.975C28.4457 144.478 24.6467 141.425 20.4727 144.348C18.2547 145.902 11.2222 145.776 6.86624 144.104C-3.23648 140.227 -1.78745 115.126 8.56839 114.62C14.8594 114.313 23.3369 117.551 23.3369 120.261C23.3372 122.018 26.1103 124.731 27.9073 124.731C28.6933 124.731 29.3369 124.041 29.3369 123.198C29.3372 109.814 50.1851 94.3087 69.8369 93.0767C82.9305 92.2547 88.2617 93.4969 97.1895 99.4468C101.45 102.287 108.337 96.8837 108.337 90.7007C108.337 88.6598 109.172 86.4706 110.483 85.0747C112.734 82.6789 111.804 79.7313 108.796 79.731C106.403 79.731 103.556 73.5422 104.077 69.4702C105.046 61.8843 117.633 57.7673 123.289 63.1861C125.639 65.4379 126.708 65.8083 129.245 65.2515C133.054 64.4145 133.128 63.4739 129.587 60.895C121.36 54.902 128.195 37.9086 139.837 35.4146ZM227.337 203.429C239.094 199.654 252.722 207.291 252.722 217.653C252.722 228.495 231.921 239.44 223.927 232.806C221.665 230.929 220.403 232.363 221.012 236.118C222.097 242.802 213.511 254.731 207.616 254.731C194.246 254.731 188.8 246.232 194.457 234.198C198.202 226.231 204.453 223.784 213.238 226.847C217.536 228.345 217.88 227.687 215.921 221.697C213.052 212.925 216.89 206.783 227.337 203.429ZM179.7 192.695C179.049 192.044 178.051 192.413 176.774 193.779C168.37 202.768 165.063 203.713 156.506 199.571C149.746 196.298 146.45 201.459 151.961 206.689C154.209 208.822 154.482 209.744 154.038 213.682C153.54 218.098 153.664 218.344 158.682 222.967C163.836 227.716 163.837 227.716 164.351 222.867C164.987 216.872 169.522 209.969 174.077 208.066C177.094 206.805 177.337 206.359 177.337 202.046C177.337 199.092 177.95 196.711 179.013 195.536C180.117 194.315 180.352 193.347 179.7 192.695ZM13.7354 183.697C21.2304 180.362 25.9355 181.225 32.1055 187.066C40.5644 195.074 37.0287 205.612 24.6309 209.343C9.40689 213.925 -0.704596 190.124 13.7354 183.697ZM252.956 148.251C262.129 145.732 267.81 147.203 270.983 152.921C277.397 164.478 257.352 180.919 247.179 172.445C237.093 164.044 240.016 151.805 252.956 148.251ZM175.822 162.709C174.842 161.123 172.482 161.589 171.417 163.579C170.283 165.699 171.384 170.913 173.086 171.481C174.366 171.905 176.761 164.229 175.822 162.709ZM150.152 111.481C150.492 108.526 149.534 108.177 145.513 109.79C142.108 111.155 143.035 114.231 146.851 114.231C149.365 114.231 149.886 113.796 150.152 111.481ZM156.837 98.731C156.012 98.731 155.337 99.406 155.337 100.231C155.337 101.056 156.012 101.731 156.837 101.731C157.662 101.731 158.337 101.056 158.337 100.231C158.337 99.4061 157.662 98.7312 156.837 98.731ZM131.337 85.6382C131.337 82.8002 129.491 81.4004 127.429 82.6743C126.501 83.2473 126.685 84.2905 128.185 86.9605C129.273 88.9003 130.316 91.46 130.5 92.6489C130.685 93.8379 131.287 94.905 131.837 95.021C133.25 95.317 133.729 90.7224 132.422 89.4155C131.825 88.8185 131.337 87.1191 131.337 85.6382ZM79.8369 36.9214C89.8819 31.2487 102.893 46.8492 95.6582 55.8921C92.2024 60.211 91.2042 63.981 91.8701 70.1997C92.5322 76.3837 92.4821 76.5638 89.0371 80.3628C76.0391 94.6997 55.1533 78.5005 64.8242 61.5825C66.3391 58.9327 67.3172 55.6452 67.3242 53.1753C67.3402 47.7053 72.4159 41.1124 79.8369 36.9214ZM120.896 78.731C120.653 78.731 120.177 79.1811 119.837 79.731C119.497 80.2809 119.695 80.7309 120.277 80.731C120.859 80.731 121.337 80.281 121.337 79.731C121.337 79.181 121.139 78.731 120.896 78.731ZM205.485 39.4898C219.631 37.0418 227.598 50.9151 220.597 65.8081C213.393 81.13 190.339 77.7861 190.091 61.3823C189.98 54.0764 199.509 40.5238 205.485 39.4898ZM51.8369 14.5542C64.4449 5.86451 75.68 19.3671 68.6241 34.731C62.385 48.3167 41.3372 43.775 41.3369 28.8423C41.3369 26.0333 47.6529 17.4382 51.8369 14.5542ZM108.212 2.17043C121.43 -6.81137 141.546 14.0924 133.237 28.1743C132.084 30.1297 130.819 31.7302 130.427 31.731C130.035 31.731 128.813 32.5703 127.713 33.5962C119.456 41.2872 107.786 35.7761 103.367 22.0991C100.152 12.1461 101.463 6.75643 108.212 2.17043Z" fill="white"/>
</g>
<path id="stroke0_1_1905_ref" d="M341.263 86.2852C372.512 35.701 424.03 3.39547 480.372 5.67773C536.501 7.95153 583.812 44.0015 609.014 96.5449C622.041 85.6655 637.594 79.3438 654.299 79.3438C700.194 79.3438 737.399 127.06 737.399 185.922C737.399 244.783 700.194 292.5 654.299 292.5C637.553 292.5 621.964 286.146 608.917 275.217C579.948 337.776 522.274 379.644 458.398 377.057C405.444 374.911 360.339 342.703 334.243 294.943C311.161 328.833 277.577 350.171 240.188 350.171C195.721 350.171 156.633 319.989 134.197 274.404C121.233 285.126 105.795 291.351 89.2217 291.351C43.3265 291.351 6.12114 243.634 6.12109 184.772C6.12109 125.911 43.3265 78.1944 89.2217 78.1943C105.858 78.1943 121.351 84.4653 134.346 95.2627C156.805 49.8463 195.819 19.7979 240.188 19.7979C281.565 19.7979 318.283 45.9289 341.263 86.2852Z"/>
</defs>
</svg>
