<svg width="106" height="106" viewBox="0 0 106 106" fill="none" xmlns="http://www.w3.org/2000/svg">
<path d="M24.2917 11.042C28.8187 11.042 32.701 13.7671 34.4058 17.667H72.875C78.1462 17.667 83.2015 19.761 86.9287 23.4882C90.656 27.2155 92.75 32.2708 92.75 37.542C92.75 42.8132 90.656 47.8685 86.9287 51.5957C83.2015 55.323 78.1462 57.417 72.875 57.417H33.125C30.1966 57.417 27.3881 58.5803 25.3174 60.651C23.2466 62.7217 22.0833 65.5302 22.0833 68.4587C22.0833 71.3871 23.2466 74.1956 25.3174 76.2663C27.3881 78.337 30.1966 79.5003 33.125 79.5003H71.5942C72.6075 77.1745 74.3911 75.2687 76.6449 74.1039C78.8986 72.939 81.4849 72.5861 83.9683 73.1045C86.4518 73.623 88.6808 74.9812 90.2803 76.9505C91.8797 78.9198 92.7519 81.38 92.75 83.917C92.747 86.4514 91.8723 88.9076 90.2726 90.8733C88.6729 92.8391 86.4457 94.1947 83.9648 94.7126C81.4839 95.2306 78.9004 94.8793 76.6478 93.7177C74.3953 92.5562 72.6109 90.6552 71.5942 88.3337H33.125C27.8538 88.3337 22.7985 86.2397 19.0713 82.5124C15.344 78.7851 13.25 73.7298 13.25 68.4587C13.25 63.1875 15.344 58.1322 19.0713 54.4049C22.7985 50.6776 27.8538 48.5837 33.125 48.5837H72.875C75.8034 48.5837 78.6119 47.4203 80.6826 45.3496C82.7533 43.2789 83.9167 40.4704 83.9167 37.542C83.9167 34.6136 82.7533 31.8051 80.6826 29.7344C78.6119 27.6636 75.8034 26.5003 72.875 26.5003H34.4058C33.6089 28.3233 32.334 29.897 30.7161 31.0549C29.0981 32.2127 27.1973 32.9117 25.2147 33.0779C23.232 33.2441 21.2414 32.8713 19.4532 31.9989C17.6651 31.1266 16.1461 29.7871 15.0567 28.1222C13.9674 26.4573 13.3484 24.529 13.2651 22.5411C13.1819 20.5533 13.6375 18.5799 14.5838 16.8298C15.53 15.0797 16.9317 13.6178 18.6407 12.599C20.3496 11.5802 22.3021 11.0422 24.2917 11.042Z" fill="#48ADFF"/>
</svg>
