<svg width="156" height="44" viewBox="0 0 156 44" fill="none" xmlns="http://www.w3.org/2000/svg">
<rect x="1" y="1" width="154" height="42" rx="21" fill="#1F1F1F"/>
<rect x="1" y="1" width="154" height="42" rx="21" stroke="#25B544" stroke-width="2"/>
<path d="M28.3721 17.94V28.9H26.9321V17.94H28.3721ZM26.6921 15.78V13.86H28.6121V15.78H26.6921ZM31.3848 17.9H32.8248V19.9C33.6648 18.52 35.3248 17.6 36.8048 17.6C38.7248 17.6 39.9648 18.4 40.6848 19.76C41.0848 20.5 41.1848 21.46 41.1848 22.6V28.9H39.7448V22.6C39.7448 21.8 39.6048 21.06 39.3848 20.52C38.9248 19.46 38.0648 18.84 36.8048 18.84C35.0048 18.84 33.3848 20.2 33.0248 21.84C32.8848 22.32 32.8248 23.14 32.8248 24.34V28.9H31.3848V17.9ZM44.962 19.14H42.702V17.9H44.962V14.9H46.402V17.9H49.682V19.14H46.402V25.5C46.402 27.06 46.602 28 48.642 28C48.982 28 49.322 27.98 49.682 27.94V29.14C49.262 29.2 48.862 29.2 48.522 29.2C45.802 29.2 44.962 27.68 44.962 25.5V19.14ZM61.2848 24H52.1848C52.4048 26.28 53.7848 27.96 56.1848 27.96C57.8648 27.96 59.2048 26.98 60.0648 25.7L61.0248 26.46C60.0048 28 58.2048 29.2 56.1848 29.2C52.9848 29.2 50.6848 26.8 50.6848 23.4C50.6848 20 53.1048 17.6 55.9848 17.6C59.0248 17.6 61.2848 20.02 61.2848 23.2V24ZM52.1448 22.8H59.8448C59.6248 20.52 58.1848 18.84 55.9848 18.84C54.0448 18.84 52.4048 20.48 52.1448 22.8ZM63.5918 17.9H65.0318V19.9C65.9118 18.52 67.5118 17.6 69.2918 17.6V18.86C67.2318 18.86 65.6118 20.18 65.2318 21.84C65.0918 22.32 65.0318 23.14 65.0318 24.34V28.9H63.5918V17.9ZM79.2534 23.4C79.2534 20.56 77.3934 18.84 75.0934 18.84C72.7934 18.84 70.9334 20.74 70.9334 23.4C70.9334 26.06 72.7934 27.96 75.0934 27.96C77.3934 27.96 79.2534 26.06 79.2534 23.4ZM79.2734 17.9H80.7134V28.9H79.2734V26.94C78.4134 28.38 76.7534 29.2 75.0934 29.2C71.9134 29.2 69.4934 26.8 69.4934 23.4C69.4934 20 71.9134 17.6 75.0934 17.6C76.8534 17.6 78.4134 18.4 79.2734 19.68V17.9ZM93.029 20L91.869 20.74C91.129 19.54 89.869 18.86 88.509 18.86C86.309 18.86 84.449 20.76 84.449 23.4C84.449 26.06 86.309 27.96 88.509 27.96C90.049 27.96 91.449 27.1 92.189 25.58L93.309 26.36C92.369 28.12 90.589 29.2 88.509 29.2C85.429 29.2 83.009 26.8 83.009 23.4C83.009 20 85.429 17.62 88.509 17.62C90.429 17.62 92.049 18.5 93.029 20ZM95.9776 19.14H93.7176V17.9H95.9776V14.9H97.4176V17.9H100.698V19.14H97.4176V25.5C97.4176 27.06 97.6176 28 99.6576 28C99.9976 28 100.338 27.98 100.698 27.94V29.14C100.278 29.2 99.8776 29.2 99.5376 29.2C96.8176 29.2 95.9776 27.68 95.9776 25.5V19.14ZM103.86 17.94V28.9H102.42V17.94H103.86ZM102.18 15.78V13.86H104.1V15.78H102.18ZM115.733 23.4C115.733 20.76 113.853 18.86 111.673 18.86C109.473 18.86 107.613 20.76 107.613 23.4C107.613 26.06 109.473 27.96 111.673 27.96C113.853 27.96 115.733 26.06 115.733 23.4ZM106.173 23.4C106.173 20 108.593 17.62 111.673 17.62C114.753 17.62 117.173 20 117.173 23.4C117.173 26.8 114.753 29.2 111.673 29.2C108.593 29.2 106.173 26.8 106.173 23.4ZM119.471 17.9H120.911V19.9C121.751 18.52 123.411 17.6 124.891 17.6C126.811 17.6 128.051 18.4 128.771 19.76C129.171 20.5 129.271 21.46 129.271 22.6V28.9H127.831V22.6C127.831 21.8 127.691 21.06 127.471 20.52C127.011 19.46 126.151 18.84 124.891 18.84C123.091 18.84 121.471 20.2 121.111 21.84C120.971 22.32 120.911 23.14 120.911 24.34V28.9H119.471V17.9Z" fill="#25B544"/>
</svg>
