<svg width="168" height="44" viewBox="0 0 168 44" fill="none" xmlns="http://www.w3.org/2000/svg">
<rect x="1" y="1" width="166" height="42" rx="21" fill="#1F1F1F"/>
<rect x="1" y="1" width="166" height="42" rx="21" stroke="white" stroke-width="2"/>
<path d="M38.6221 24.8L39.7621 25.62C38.4821 27.94 36.1621 29.3 33.3621 29.3C29.1621 29.3 25.9421 26.12 25.9421 21.4C25.9421 16.68 29.1621 13.5 33.3621 13.5C36.0621 13.5 38.3221 14.76 39.6221 16.92L38.4221 17.7C37.3621 15.88 35.5021 14.78 33.3621 14.78C30.0621 14.78 27.4221 17.4 27.4221 21.4C27.4221 25.4 30.0621 28.02 33.3621 28.02C35.6221 28.02 37.5621 26.88 38.6221 24.8ZM51.0495 23.4C51.0495 20.76 49.1695 18.86 46.9895 18.86C44.7895 18.86 42.9295 20.76 42.9295 23.4C42.9295 26.06 44.7895 27.96 46.9895 27.96C49.1695 27.96 51.0495 26.06 51.0495 23.4ZM41.4895 23.4C41.4895 20 43.9095 17.62 46.9895 17.62C50.0695 17.62 52.4895 20 52.4895 23.4C52.4895 26.8 50.0695 29.2 46.9895 29.2C43.9095 29.2 41.4895 26.8 41.4895 23.4ZM54.7871 28.9V17.9H56.2271V19.72C56.9471 18.46 58.2671 17.58 59.8471 17.6C61.4471 17.66 62.5471 18.58 63.0471 20.1C63.6871 18.88 64.9471 17.6 67.0871 17.6C68.5271 17.6 69.7271 18.54 70.2071 19.72C70.5071 20.42 70.6071 21.46 70.6071 22.82V28.9H69.1671V22.82C69.1671 21.64 69.0671 20.84 68.8871 20.38C68.5071 19.48 67.7871 18.84 66.7271 18.84C65.2871 18.84 64.2471 19.88 63.8071 21.12C63.5671 21.82 63.4271 22.92 63.4271 24.54V28.9H61.9871V23.2C61.9871 21.84 61.8671 20.92 61.6871 20.44C61.3071 19.48 60.6471 18.84 59.5271 18.84C58.0871 18.84 57.1271 19.96 56.6471 21.1C56.3471 21.8 56.2271 22.76 56.2271 24.18V28.9H54.7871ZM74.8604 23.4C74.8604 26.06 76.7204 27.96 79.0204 27.96C81.3204 27.96 83.1804 26.06 83.1804 23.4C83.1804 20.74 81.3204 18.84 79.0204 18.84C76.7204 18.84 74.8604 20.56 74.8604 23.4ZM73.4004 17.9H74.8404V19.68C75.7004 18.4 77.2604 17.6 79.0204 17.6C82.2004 17.6 84.6204 20 84.6204 23.4C84.6204 26.8 82.2004 29.2 79.0204 29.2C77.3604 29.2 75.7004 28.38 74.8404 26.94V32.9H73.4004V17.9ZM95.776 23.4C95.776 20.76 93.896 18.86 91.716 18.86C89.516 18.86 87.656 20.76 87.656 23.4C87.656 26.06 89.516 27.96 91.716 27.96C93.896 27.96 95.776 26.06 95.776 23.4ZM86.216 23.4C86.216 20 88.636 17.62 91.716 17.62C94.796 17.62 97.216 20 97.216 23.4C97.216 26.8 94.796 29.2 91.716 29.2C88.636 29.2 86.216 26.8 86.216 23.4ZM99.5137 17.9H100.954V19.9C101.794 18.52 103.454 17.6 104.934 17.6C106.854 17.6 108.094 18.4 108.814 19.76C109.214 20.5 109.314 21.46 109.314 22.6V28.9H107.874V22.6C107.874 21.8 107.734 21.06 107.514 20.52C107.054 19.46 106.194 18.84 104.934 18.84C103.134 18.84 101.514 20.2 101.154 21.84C101.014 22.32 100.954 23.14 100.954 24.34V28.9H99.5137V17.9ZM122.031 24H112.931C113.151 26.28 114.531 27.96 116.931 27.96C118.611 27.96 119.951 26.98 120.811 25.7L121.771 26.46C120.751 28 118.951 29.2 116.931 29.2C113.731 29.2 111.431 26.8 111.431 23.4C111.431 20 113.851 17.6 116.731 17.6C119.771 17.6 122.031 20.02 122.031 23.2V24ZM112.891 22.8H120.591C120.371 20.52 118.931 18.84 116.731 18.84C114.791 18.84 113.151 20.48 112.891 22.8ZM124.338 17.9H125.778V19.9C126.618 18.52 128.278 17.6 129.758 17.6C131.678 17.6 132.918 18.4 133.638 19.76C134.038 20.5 134.138 21.46 134.138 22.6V28.9H132.698V22.6C132.698 21.8 132.558 21.06 132.338 20.52C131.878 19.46 131.018 18.84 129.758 18.84C127.958 18.84 126.338 20.2 125.978 21.84C125.838 22.32 125.778 23.14 125.778 24.34V28.9H124.338V17.9ZM137.915 19.14H135.655V17.9H137.915V14.9H139.355V17.9H142.635V19.14H139.355V25.5C139.355 27.06 139.555 28 141.595 28C141.935 28 142.275 27.98 142.635 27.94V29.14C142.215 29.2 141.815 29.2 141.475 29.2C138.755 29.2 137.915 27.68 137.915 25.5V19.14Z" fill="white"/>
</svg>
