<svg width="119" height="119" viewBox="0 0 119 119" fill="none" xmlns="http://www.w3.org/2000/svg" xmlns:xlink="http://www.w3.org/1999/xlink">
<path d="M50.0965 43.1383H54.8082V59.9507C54.8082 67.3396 51.1316 70.9448 45.2062 70.9448C41.6724 70.9448 38.8525 69.2671 37.3176 66.6971L40.3517 64.02C41.601 66.1617 43.3858 66.947 45.2062 66.947C48.3117 66.947 50.0965 64.6982 50.0965 59.9507V43.1383ZM74.9199 50.2773H79.4889V77.4056H74.9199V68.3748C73.6349 69.9097 71.3147 70.802 69.173 70.802C63.2119 70.802 58.8928 66.5543 58.8928 60.272C58.8928 53.9896 63.2119 49.7419 69.173 49.7419C71.3147 49.7419 73.4921 50.5272 74.9199 51.9193V50.2773ZM74.8842 60.272C74.8842 56.0599 72.457 53.597 69.173 53.597C65.8891 53.597 63.4618 56.3098 63.4618 60.272C63.4618 64.2341 65.8891 66.947 69.173 66.947C72.457 66.947 74.8842 64.484 74.8842 60.272Z" fill="#25B544"/>
<use xlink:href="#stroke0_1_1990" transform="translate(69.7117 7.01474) scale(0.0481751) rotate(134.311)"/>
<use xlink:href="#stroke0_1_1990" transform="translate(63.5997 -0.339686) scale(0.0481751) rotate(86.8626)"/>
<use xlink:href="#stroke0_1_1990" transform="translate(62.9129 4.61867) scale(0.0481751) rotate(117.97)"/>
<use xlink:href="#stroke0_1_1990" transform="translate(56.3901 15.0404) scale(0.0481751) rotate(-178.486)"/>
<use xlink:href="#stroke0_1_1990" transform="translate(41.4933 16.5005) scale(0.0481751) rotate(-106.015)"/>
<use xlink:href="#stroke0_1_1990" transform="translate(43.8469 -0.855417) scale(0.0481751) rotate(42.3506)"/>
<use xlink:href="#stroke0_1_1990" transform="translate(47.3727 2.92612) scale(0.0481751) rotate(84.5101)"/>
<use xlink:href="#stroke0_1_1990" transform="translate(44.9697 4.84431) scale(0.0481751) rotate(89.5283)"/>
<use xlink:href="#stroke0_1_1990" transform="translate(27.3271 19.6143) scale(0.0481751) rotate(-90.86)"/>
<use xlink:href="#stroke0_1_1990" transform="translate(28.3953 23.9069) scale(0.0481751) rotate(-118.265)"/>
<use xlink:href="#stroke0_1_1990" transform="translate(20.0868 20.523) scale(0.0481751) rotate(-72.8682)"/>
<use xlink:href="#stroke0_1_1990" transform="translate(35.7164 22.181) scale(0.0481751) rotate(153.505)"/>
<use xlink:href="#stroke0_1_1990" transform="translate(14.4966 18.0207) scale(0.0481751) rotate(-33.4386)"/>
<use xlink:href="#stroke0_1_1990" transform="translate(14.6485 29.8514) scale(0.0481751) rotate(-92.9114)"/>
<use xlink:href="#stroke0_1_1990" transform="translate(16.9416 34.9383) scale(0.0481751) rotate(-123.236)"/>
<use xlink:href="#stroke0_1_1990" transform="translate(11.2466 20.3098) scale(0.0481751) rotate(1.9216)"/>
<use xlink:href="#stroke0_1_1990" transform="translate(6.12146 28.1064) scale(0.0481751) rotate(-33.626)"/>
<use xlink:href="#stroke0_1_1990" transform="translate(8.62992 41.8038) scale(0.0481751) rotate(-105.654)"/>
<use xlink:href="#stroke0_1_1990" transform="translate(18.4049 28.4177) scale(0.0481751) rotate(77.7962)"/>
<use xlink:href="#stroke0_1_1990" transform="translate(1.33759 40.3248) scale(0.0481751) rotate(-53.9335)"/>
<use xlink:href="#stroke0_1_1990" transform="translate(16.0217 50.4238) scale(0.0481751) rotate(-175.369)"/>
<use xlink:href="#stroke0_1_1990" transform="translate(5.98218 36.2343) scale(0.0481751) rotate(22.7192)"/>
<use xlink:href="#stroke0_1_1990" transform="translate(1.60028 41.6345) scale(0.0481751) rotate(-2.12955)"/>
<use xlink:href="#stroke0_1_1990" transform="translate(10.357 61.6632) scale(0.0481751) rotate(-152.935)"/>
<use xlink:href="#stroke0_1_1990" transform="translate(13.7151 47.5333) scale(0.0481751) rotate(79.6534)"/>
<use xlink:href="#stroke0_1_1990" transform="translate(16.9663 61.4033) scale(0.0481751) rotate(147.857)"/>
<use xlink:href="#stroke0_1_1990" transform="translate(0.677006 54.7204) scale(0.0481751) rotate(-2.42868)"/>
<use xlink:href="#stroke0_1_1990" transform="translate(14.7461 72.2455) scale(0.0481751) rotate(177.205)"/>
<use xlink:href="#stroke0_1_1990" transform="translate(15.8645 61.9356) scale(0.0481751) rotate(90.8761)"/>
<use xlink:href="#stroke0_1_1990" transform="translate(16.3347 64.8834) scale(0.0481751) rotate(88.9046)"/>
<use xlink:href="#stroke0_1_1990" transform="translate(1.23375 69.9559) scale(0.0481751) rotate(-19.7767)"/>
<use xlink:href="#stroke0_1_1990" transform="translate(1.20393 79.2793) scale(0.0481751) rotate(-57.023)"/>
<use xlink:href="#stroke0_1_1990" transform="translate(2.52156 82.5171) scale(0.0481751) rotate(-58.3156)"/>
<use xlink:href="#stroke0_1_1990" transform="translate(3.90558 84.842) scale(0.0481751) rotate(-54.7805)"/>
<use xlink:href="#stroke0_1_1990" transform="translate(6.46852 90.887) scale(0.0481751) rotate(-74.1714)"/>
<use xlink:href="#stroke0_1_1990" transform="translate(27.1161 90.1425) scale(0.0481751) rotate(136.099)"/>
<use xlink:href="#stroke0_1_1990" transform="translate(22.0015 101.454) scale(0.0481751) rotate(-154.858)"/>
<use xlink:href="#stroke0_1_1990" transform="translate(28.1123 101.684) scale(0.0481751) rotate(178.593)"/>
<use xlink:href="#stroke0_1_1990" transform="translate(32.4885 92.207) scale(0.0481751) rotate(104.152)"/>
<use xlink:href="#stroke0_1_1990" transform="translate(23.1789 89.4648) scale(0.0481751) rotate(24.1724)"/>
<use xlink:href="#stroke0_1_1990" transform="translate(19.8766 96.423) scale(0.0481751) rotate(-21.3337)"/>
<use xlink:href="#stroke0_1_1990" transform="translate(24.2702 109.734) scale(0.0481751) rotate(-92.7318)"/>
<use xlink:href="#stroke0_1_1990" transform="translate(43.1091 100.186) scale(0.0481751) rotate(105.472)"/>
<use xlink:href="#stroke0_1_1990" transform="translate(28.7406 100.706) scale(0.0481751) rotate(-16.0761)"/>
<use xlink:href="#stroke0_1_1990" transform="translate(49.2319 111.219) scale(0.0481751) rotate(154.282)"/>
<use xlink:href="#stroke0_1_1990" transform="translate(43.8775 118.393) scale(0.0481751) rotate(-142.68)"/>
<use xlink:href="#stroke0_1_1990" transform="translate(55.5302 105.8) scale(0.0481751) rotate(109.822)"/>
<use xlink:href="#stroke0_1_1990" transform="translate(59.1978 108.118) scale(0.0481751) rotate(119.325)"/>
<use xlink:href="#stroke0_1_1990" transform="translate(42.9069 109.435) scale(0.0481751) rotate(-41.0444)"/>
<use xlink:href="#stroke0_1_1990" transform="translate(62.618 118.457) scale(0.0481751) rotate(179.497)"/>
<use xlink:href="#stroke0_1_1990" transform="translate(53.0251 103.515) scale(0.0481751) rotate(2.35699)"/>
<use xlink:href="#stroke0_1_1990" transform="translate(61.7581 121.029) scale(0.0481751) rotate(-134.023)"/>
<use xlink:href="#stroke0_1_1990" transform="matrix(0.0455 0.0158302 -0.0158302 0.0455 62.0655 101.694)"/>
<use xlink:href="#stroke0_1_1990" transform="translate(73.4653 119.276) scale(0.0481751) rotate(-164.988)"/>
<use xlink:href="#stroke0_1_1990" transform="translate(66.0543 101.986) scale(0.0481751) rotate(2.61902)"/>
<use xlink:href="#stroke0_1_1990" transform="translate(70.7858 117.599) scale(0.0481751) rotate(-110.71)"/>
<use xlink:href="#stroke0_1_1990" transform="translate(69.4603 103.733) scale(0.0481751) rotate(-24.6271)"/>
<use xlink:href="#stroke0_1_1990" transform="translate(91.0157 103.566) scale(0.0481751) rotate(114.23)"/>
<use xlink:href="#stroke0_1_1990" transform="translate(74.6854 106.568) scale(0.0481751) rotate(-57.4628)"/>
<use xlink:href="#stroke0_1_1990" transform="translate(81.4662 111.405) scale(0.0481751) rotate(-102.387)"/>
<use xlink:href="#stroke0_1_1990" transform="translate(84.3889 109.731) scale(0.0481751) rotate(-103.73)"/>
<use xlink:href="#stroke0_1_1990" transform="translate(101.563 104.007) scale(0.0481751) rotate(157.67)"/>
<use xlink:href="#stroke0_1_1990" transform="translate(85.5251 95.1356) scale(0.0481751) rotate(-34.9003)"/>
<use xlink:href="#stroke0_1_1990" transform="translate(93.7114 86.035) scale(0.0481751) rotate(18.9055)"/>
<use xlink:href="#stroke0_1_1990" transform="translate(109.288 90.2221) scale(0.0481751) rotate(116.546)"/>
<use xlink:href="#stroke0_1_1990" transform="translate(101.604 80.2876) scale(0.0481751) rotate(40.5674)"/>
<use xlink:href="#stroke0_1_1990" transform="translate(106.26 77.9563) scale(0.0481751) rotate(56.8017)"/>
<use xlink:href="#stroke0_1_1990" transform="translate(111.65 77.0737) scale(0.0481751) rotate(80.9732)"/>
<use xlink:href="#stroke0_1_1990" transform="translate(99.8274 74.8315) scale(0.0481751) rotate(-3.80349)"/>
<use xlink:href="#stroke0_1_1990" transform="translate(98.3207 79.5666) scale(0.0481751) rotate(-52.8746)"/>
<use xlink:href="#stroke0_1_1990" transform="translate(109.979 85.6541) scale(0.0481751) rotate(-142.16)"/>
<use xlink:href="#stroke0_1_1990" transform="translate(100.505 71.2417) scale(0.0481751) rotate(-40.5784)"/>
<use xlink:href="#stroke0_1_1990" transform="translate(116.148 60.9121) scale(0.0481751) rotate(72.1164)"/>
<use xlink:href="#stroke0_1_1990" transform="translate(121.171 68.9556) scale(0.0481751) rotate(147.503)"/>
<defs>
<g id="stroke0_1_1990" data-figma-scatter-ref="stroke0_1_1990_ref" data-figma-scatter="f0.25_w0_aj180_sj0_r-180_s4888654585107868299_sw14.873">
<path d="M103.731 283.547C110.352 281.363 112.807 281.348 116.121 283.468C130.109 292.418 124.85 308.718 107.972 308.727C90.3768 308.737 87.0606 289.046 103.731 283.547ZM139.837 35.4146C140.937 35.1787 142.512 35.114 143.337 35.271C144.162 35.4281 146.516 35.8391 148.567 36.1851C155.802 37.4051 160.179 46.6969 156.734 53.5249C152.924 61.0769 144.715 67.5811 140.859 66.1021C135.872 64.1881 137.625 69.8792 144.066 76.5152C148.306 80.8841 150.337 81.2685 150.337 77.7066C150.337 76.6574 151.622 74.3218 153.193 72.5161C154.823 70.6412 156.597 66.9201 157.324 63.8501C158.925 57.0892 160.788 55.2289 167.369 53.8169C177.32 51.6829 185.581 56.9263 183.752 64.2153C183.293 66.0423 183.901 67.6656 186.09 70.4585C196.859 84.1975 193.875 104.273 180.596 107.418C177.049 108.258 176.832 108.532 176.773 112.27C176.739 114.448 176.365 116.987 175.943 117.912C175.255 119.417 175.946 119.564 182.506 119.31C190.415 119.003 192.674 119.705 195.953 123.487C199.054 127.064 201.598 126.114 202.609 121.002C203.503 116.483 209.096 110.731 212.596 110.731C214.841 110.731 215.934 108.156 214.449 106.367C206.1 96.3056 222.234 73.6632 235.605 76.6792C241.572 78.0252 246.302 83.6302 246.367 89.4312C246.384 90.9712 247.505 94.4811 248.858 97.231C255.362 110.453 243.304 126.225 232.777 118.263C229.924 116.105 229.837 116.226 229.837 122.341C229.837 128.93 225.932 133.292 219.049 134.393C216.068 134.87 214.933 135.67 213.775 138.116C212.964 139.829 211.55 142.415 210.63 143.863C208.984 146.456 209.02 146.565 213.147 151.254C215.451 153.871 217.337 156.555 217.337 157.218C217.337 157.882 218.074 159.901 218.974 161.706C222.148 168.067 221.073 181.731 217.4 181.731C217.052 181.731 215.97 183.081 214.995 184.731C214.02 186.381 212.573 187.731 211.779 187.731C209.595 187.731 210.044 189.817 212.863 192.76C216.384 196.435 217.425 204.867 214.728 207.858C209.503 213.649 203.05 218.01 198.064 219.122C193.944 220.041 192.83 220.705 192.804 222.259C192.669 230.389 188.242 235.387 179.682 237.077C172.845 238.427 172.072 240.31 177.577 242.203C190.358 246.597 192.892 257.693 182.442 263.506C176.521 266.799 172.426 266.758 167.515 263.354C163.894 260.845 163.161 260.686 159.679 261.653C153.737 263.303 147.363 262.934 141.337 260.593C135.874 258.47 130.724 257.068 124.689 256.061C118.715 255.064 115.151 249.943 114.592 241.551C114.184 235.417 113.671 233.745 111.425 231.231C109.951 229.581 107.986 226.544 107.058 224.481C105.42 220.844 105.211 220.731 100.164 220.731C93.7935 220.731 89.0798 217.922 86.2168 212.42C83.0468 206.327 78.9427 207.336 78.8477 214.231C78.8097 216.981 78.4233 220.817 77.9883 222.755C77.2354 226.113 77.3507 226.324 80.4366 227.255C90.5004 230.29 90.3981 247.946 80.2881 252.934C55.9904 264.92 26.2411 240.473 47.875 226.298C49.556 225.196 50.1805 223.494 50.6895 218.626C51.0495 215.185 52.1298 211.262 53.0908 209.91C54.0507 208.557 55.2736 206.856 55.8086 206.127C56.5016 205.184 56.0161 204.003 54.1221 202.017C50.6273 198.355 49.3112 194.657 49.9981 190.428C50.3281 188.392 50.1033 186.705 49.4463 186.299C48.8364 185.922 48.337 184.345 48.3369 182.794C48.3369 181.244 47.6012 179.366 46.7032 178.621C43.9996 176.376 34.3369 162.856 34.3369 161.317C34.3368 160.529 32.7627 157.822 30.8389 155.302C28.915 152.781 27.3998 150.384 27.4727 149.975C28.4457 144.478 24.6467 141.425 20.4727 144.348C18.2547 145.902 11.2222 145.776 6.86624 144.104C-3.23648 140.227 -1.78745 115.126 8.56839 114.62C14.8594 114.313 23.3369 117.551 23.3369 120.261C23.3372 122.018 26.1103 124.731 27.9073 124.731C28.6933 124.731 29.3369 124.041 29.3369 123.198C29.3372 109.814 50.1851 94.3087 69.8369 93.0767C82.9305 92.2547 88.2617 93.4969 97.1895 99.4468C101.45 102.287 108.337 96.8837 108.337 90.7007C108.337 88.6598 109.172 86.4706 110.483 85.0747C112.734 82.6789 111.804 79.7313 108.796 79.731C106.403 79.731 103.556 73.5422 104.077 69.4702C105.046 61.8843 117.633 57.7673 123.289 63.1861C125.639 65.4379 126.708 65.8083 129.245 65.2515C133.054 64.4145 133.128 63.4739 129.587 60.895C121.36 54.902 128.195 37.9086 139.837 35.4146ZM227.337 203.429C239.094 199.654 252.722 207.291 252.722 217.653C252.722 228.495 231.921 239.44 223.927 232.806C221.665 230.929 220.403 232.363 221.012 236.118C222.097 242.802 213.511 254.731 207.616 254.731C194.246 254.731 188.8 246.232 194.457 234.198C198.202 226.231 204.453 223.784 213.238 226.847C217.536 228.345 217.88 227.687 215.921 221.697C213.052 212.925 216.89 206.783 227.337 203.429ZM179.7 192.695C179.049 192.044 178.051 192.413 176.774 193.779C168.37 202.768 165.063 203.713 156.506 199.571C149.746 196.298 146.45 201.459 151.961 206.689C154.209 208.822 154.482 209.744 154.038 213.682C153.54 218.098 153.664 218.344 158.682 222.967C163.836 227.716 163.837 227.716 164.351 222.867C164.987 216.872 169.522 209.969 174.077 208.066C177.094 206.805 177.337 206.359 177.337 202.046C177.337 199.092 177.95 196.711 179.013 195.536C180.117 194.315 180.352 193.347 179.7 192.695ZM13.7354 183.697C21.2304 180.362 25.9355 181.225 32.1055 187.066C40.5644 195.074 37.0287 205.612 24.6309 209.343C9.40689 213.925 -0.704596 190.124 13.7354 183.697ZM252.956 148.251C262.129 145.732 267.81 147.203 270.983 152.921C277.397 164.478 257.352 180.919 247.179 172.445C237.093 164.044 240.016 151.805 252.956 148.251ZM175.822 162.709C174.842 161.123 172.482 161.589 171.417 163.579C170.283 165.699 171.384 170.913 173.086 171.481C174.366 171.905 176.761 164.229 175.822 162.709ZM150.152 111.481C150.492 108.526 149.534 108.177 145.513 109.79C142.108 111.155 143.035 114.231 146.851 114.231C149.365 114.231 149.886 113.796 150.152 111.481ZM156.837 98.731C156.012 98.731 155.337 99.406 155.337 100.231C155.337 101.056 156.012 101.731 156.837 101.731C157.662 101.731 158.337 101.056 158.337 100.231C158.337 99.4061 157.662 98.7312 156.837 98.731ZM131.337 85.6382C131.337 82.8002 129.491 81.4004 127.429 82.6743C126.501 83.2473 126.685 84.2905 128.185 86.9605C129.273 88.9003 130.316 91.46 130.5 92.6489C130.685 93.8379 131.287 94.905 131.837 95.021C133.25 95.317 133.729 90.7224 132.422 89.4155C131.825 88.8185 131.337 87.1191 131.337 85.6382ZM79.8369 36.9214C89.8819 31.2487 102.893 46.8492 95.6582 55.8921C92.2024 60.211 91.2042 63.981 91.8701 70.1997C92.5322 76.3837 92.4821 76.5638 89.0371 80.3628C76.0391 94.6997 55.1533 78.5005 64.8242 61.5825C66.3391 58.9327 67.3172 55.6452 67.3242 53.1753C67.3402 47.7053 72.4159 41.1124 79.8369 36.9214ZM120.896 78.731C120.653 78.731 120.177 79.1811 119.837 79.731C119.497 80.2809 119.695 80.7309 120.277 80.731C120.859 80.731 121.337 80.281 121.337 79.731C121.337 79.181 121.139 78.731 120.896 78.731ZM205.485 39.4898C219.631 37.0418 227.598 50.9151 220.597 65.8081C213.393 81.13 190.339 77.7861 190.091 61.3823C189.98 54.0764 199.509 40.5238 205.485 39.4898ZM51.8369 14.5542C64.4449 5.86451 75.68 19.3671 68.6241 34.731C62.385 48.3167 41.3372 43.775 41.3369 28.8423C41.3369 26.0333 47.6529 17.4382 51.8369 14.5542ZM108.212 2.17043C121.43 -6.81137 141.546 14.0924 133.237 28.1743C132.084 30.1297 130.819 31.7302 130.427 31.731C130.035 31.731 128.813 32.5703 127.713 33.5962C119.456 41.2872 107.786 35.7761 103.367 22.0991C100.152 12.1461 101.463 6.75643 108.212 2.17043Z" fill="#25B544"/>
</g>
<path id="stroke0_1_1990_ref" d="M59.8099 6.51208C49.7155 6.51208 39.8364 9.43037 31.3623 14.9155C22.8882 20.4006 16.1805 28.2186 12.0472 37.4279C7.91382 46.6372 6.53101 56.8452 8.0653 66.8223C9.59958 76.7994 13.9855 86.1201 20.6949 93.6621C27.4043 101.204 36.151 106.645 45.8816 109.331C55.6122 112.017 65.9116 111.832 75.5396 108.799C85.1676 105.766 93.7135 100.014 100.148 92.2365C106.582 84.4587 110.631 74.9866 111.807 64.9609"/>
</defs>
</svg>
