<svg width="378" height="31" viewBox="0 0 378 31" fill="none" xmlns="http://www.w3.org/2000/svg">
<path fill-rule="evenodd" clip-rule="evenodd" d="M344.59 14.1078C279.321 10.1293 212.937 12.6559 147.498 12.1103C104.226 11.7437 60.9518 10.6667 17.711 10.3976C16.4146 10.3909 15.3471 11.11 15.3275 12.0102C15.3087 12.9104 16.3455 13.6445 17.6411 13.6512C60.8772 13.9204 104.146 14.9974 147.414 15.364C212.736 15.91 278.995 13.3784 344.146 17.3518C345.438 17.429 346.582 16.7693 346.709 15.8742C346.828 14.9791 345.874 14.1905 344.59 14.1078Z" fill="#FFFAE0"/>
<path fill-rule="evenodd" clip-rule="evenodd" d="M374.601 4.90371C300.286 4.78175 224.887 11.258 150.475 14.5933C101.27 16.7929 52.0433 18.2792 2.8765 20.5749C1.40244 20.645 0.209132 21.4305 0.212283 22.3356C0.216324 23.2406 1.41575 23.9163 2.88892 23.8462C52.0504 21.5508 101.272 20.0648 150.472 17.8655C224.75 14.5375 300.007 8.06366 374.188 8.18752C375.658 8.18842 376.94 7.45807 377.059 6.55173C377.169 5.64588 376.063 4.91055 374.601 4.90371Z" fill="#FFFAE0"/>
</svg>
