<svg width="106" height="106" viewBox="0 0 106 106" fill="none" xmlns="http://www.w3.org/2000/svg">
<path d="M92.75 39.7497V92.7188C92.7541 93.2988 92.6439 93.8739 92.4257 94.4113C92.2075 94.9487 91.8855 95.4379 91.4783 95.8509C91.071 96.2639 90.5864 96.5926 90.0521 96.8183C89.5178 97.0441 88.9443 97.1623 88.3643 97.1664H17.6357C16.4733 97.1664 15.3585 96.7049 14.5361 95.8834C13.7138 95.0618 13.2512 93.9474 13.25 92.785V13.2143C13.25 10.8426 15.2242 8.83301 17.6578 8.83301H61.8333V35.333C61.8333 36.5044 62.2987 37.6278 63.1269 38.4561C63.9552 39.2843 65.0786 39.7497 66.25 39.7497H92.75ZM92.75 30.9163H70.6667V8.84626L92.75 30.9163Z" fill="#FFC41B"/>
</svg>
