<svg width="106" height="468" viewBox="0 0 106 468" fill="none" xmlns="http://www.w3.org/2000/svg">
<path d="M85 105L85 438" stroke="#FFC41B" stroke-width="4" stroke-linecap="round" stroke-dasharray="5 18"/>
<path d="M82.4639 432.013C83.6413 430.15 86.3587 430.15 87.5361 432.013L91.2441 437.881C91.6718 438.558 92.3522 439.036 93.134 439.208L99.9073 440.702C102.16 441.199 103.033 443.948 101.478 445.653L97.0748 450.484C96.5075 451.107 96.228 451.939 96.3044 452.777L96.8977 459.288C97.1013 461.523 94.8687 463.182 92.7875 462.342L86.1225 459.653C85.4024 459.362 84.5976 459.362 83.8775 459.653L77.2125 462.342C75.1313 463.182 72.8987 461.523 73.1024 459.288L73.6956 452.777C73.772 451.939 73.4925 451.107 72.9252 450.484L68.5217 445.653C66.9675 443.948 67.8396 441.199 70.0927 440.702L76.866 439.208C77.6478 439.036 78.3282 438.558 78.7559 437.881L82.4639 432.013Z" fill="url(#paint0_linear_304_1918)"/>
<path d="M21 2L21 262" stroke="#FFC41B" stroke-width="4" stroke-linecap="round" stroke-dasharray="5 18"/>
<path d="M20.5771 257.349C20.7734 257.038 21.2266 257.038 21.4229 257.349L25.1309 263.217C25.9149 264.458 27.1624 265.333 28.5957 265.649L35.3691 267.144C35.7444 267.227 35.8896 267.685 35.6309 267.969L31.2275 272.8C30.1876 273.941 29.6744 275.467 29.8145 277.004L30.4082 283.515C30.4421 283.887 30.0695 284.163 29.7227 284.023L23.0576 281.335C21.7374 280.802 20.2626 280.802 18.9424 281.335L12.2773 284.023C11.9305 284.163 11.5579 283.887 11.5918 283.515L12.1855 277.004C12.3256 275.466 11.8124 273.941 10.7725 272.8L6.36914 267.969C6.11041 267.685 6.25564 267.227 6.63086 267.144L13.4043 265.649C14.8376 265.333 16.0851 264.458 16.8691 263.217L20.5771 257.349Z" fill="#FFC41B" stroke="#FFC41B" stroke-width="5"/>
<defs>
<linearGradient id="paint0_linear_304_1918" x1="85" y1="428" x2="85" y2="468" gradientUnits="userSpaceOnUse">
<stop stop-color="#FFC41B"/>
<stop offset="1" stop-color="#FFBD00"/>
</linearGradient>
</defs>
</svg>
