<svg width="34" height="34" viewBox="0 0 34 34" fill="none" xmlns="http://www.w3.org/2000/svg">
<mask id="path-1-outside-1_442_252" maskUnits="userSpaceOnUse" x="-0.400391" y="-0.400391" width="34" height="34" fill="black">
<rect fill="white" x="-0.400391" y="-0.400391" width="34" height="34"/>
<path d="M24.5996 11.1553C27.5093 11.1553 30.204 12.0803 32.4043 13.6514C32.5283 13.7399 32.5996 13.8847 32.5996 14.0371C32.5993 14.4458 32.1159 14.6748 31.7822 14.4385C29.7532 13.0015 27.2751 12.1553 24.5996 12.1553C22.4854 12.1554 20.4945 12.6847 18.751 13.6152C18.597 13.6972 18.4191 13.6788 18.2764 13.5938C18.4129 13.9779 18.4883 14.3913 18.4883 14.8223C18.488 16.847 16.847 18.488 14.8223 18.4883C14.3913 18.4883 13.9779 18.4129 13.5938 18.2764C13.6788 18.4191 13.6972 18.597 13.6152 18.751C12.6847 20.4945 12.1554 22.4854 12.1553 24.5996C12.1553 27.2751 13.0015 29.7532 14.4385 31.7822C14.6748 32.1159 14.4458 32.5993 14.0371 32.5996C13.8847 32.5996 13.7399 32.5283 13.6514 32.4043C12.0803 30.204 11.1553 27.5093 11.1553 24.5996C11.1554 22.2999 11.7331 20.1341 12.751 18.2412C12.8135 18.1253 12.9214 18.0536 13.042 18.0273C11.9169 17.4014 11.1554 16.201 11.1553 14.8223C11.1553 12.7972 12.7972 11.1553 14.8223 11.1553C16.201 11.1554 17.4014 11.9169 18.0273 13.042C18.0536 12.9214 18.1253 12.8135 18.2412 12.751C20.1341 11.7331 22.2999 11.1554 24.5996 11.1553ZM12.5088 17.8428L7.67578 22.6748C7.69777 22.7572 7.71091 22.8433 7.71094 22.9326V28.0439L7.70508 28.1455C7.65745 28.6165 7.28345 28.9904 6.8125 29.0381L6.71094 29.0439H1.59961L1.49707 29.0381C1.02644 28.9901 0.652066 28.6163 0.604492 28.1455L0.599609 28.0439V22.9326C0.599786 22.3805 1.04743 21.9326 1.59961 21.9326H6.71094L6.8125 21.9375C6.8663 21.9429 6.91879 21.9532 6.96973 21.9668L11.8018 17.1357L12.5088 17.8428ZM1.59961 28.0439H6.71094V22.9326H1.59961V28.0439ZM14.8223 12.1553C13.3495 12.1553 12.1553 13.3495 12.1553 14.8223L12.1689 15.0947C12.2965 16.3495 13.2941 17.347 14.5488 17.4746L14.8223 17.4883C16.2027 17.4881 17.3379 16.4391 17.4746 15.0947L17.4883 14.8223C17.4883 13.4416 16.4393 12.3056 15.0947 12.1689L14.8223 12.1553ZM28.1455 0.604492C28.65 0.655477 29.0439 1.08168 29.0439 1.59961V6.71094L29.0381 6.8125C28.9904 7.28345 28.6165 7.65745 28.1455 7.70508L28.0439 7.71094H22.9326L22.8301 7.70508C22.7769 7.69964 22.7252 7.68921 22.6748 7.67578L17.8428 12.5088L17.1357 11.8018L21.9668 6.96973C21.9532 6.91879 21.9429 6.86631 21.9375 6.8125L21.9326 6.71094V1.59961C21.9326 1.04743 22.3805 0.599786 22.9326 0.599609H28.0439L28.1455 0.604492ZM22.9326 6.71094H28.0439V1.59961H22.9326V6.71094Z"/>
</mask>
<path d="M24.5996 11.1553C27.5093 11.1553 30.204 12.0803 32.4043 13.6514C32.5283 13.7399 32.5996 13.8847 32.5996 14.0371C32.5993 14.4458 32.1159 14.6748 31.7822 14.4385C29.7532 13.0015 27.2751 12.1553 24.5996 12.1553C22.4854 12.1554 20.4945 12.6847 18.751 13.6152C18.597 13.6972 18.4191 13.6788 18.2764 13.5938C18.4129 13.9779 18.4883 14.3913 18.4883 14.8223C18.488 16.847 16.847 18.488 14.8223 18.4883C14.3913 18.4883 13.9779 18.4129 13.5938 18.2764C13.6788 18.4191 13.6972 18.597 13.6152 18.751C12.6847 20.4945 12.1554 22.4854 12.1553 24.5996C12.1553 27.2751 13.0015 29.7532 14.4385 31.7822C14.6748 32.1159 14.4458 32.5993 14.0371 32.5996C13.8847 32.5996 13.7399 32.5283 13.6514 32.4043C12.0803 30.204 11.1553 27.5093 11.1553 24.5996C11.1554 22.2999 11.7331 20.1341 12.751 18.2412C12.8135 18.1253 12.9214 18.0536 13.042 18.0273C11.9169 17.4014 11.1554 16.201 11.1553 14.8223C11.1553 12.7972 12.7972 11.1553 14.8223 11.1553C16.201 11.1554 17.4014 11.9169 18.0273 13.042C18.0536 12.9214 18.1253 12.8135 18.2412 12.751C20.1341 11.7331 22.2999 11.1554 24.5996 11.1553ZM12.5088 17.8428L7.67578 22.6748C7.69777 22.7572 7.71091 22.8433 7.71094 22.9326V28.0439L7.70508 28.1455C7.65745 28.6165 7.28345 28.9904 6.8125 29.0381L6.71094 29.0439H1.59961L1.49707 29.0381C1.02644 28.9901 0.652066 28.6163 0.604492 28.1455L0.599609 28.0439V22.9326C0.599786 22.3805 1.04743 21.9326 1.59961 21.9326H6.71094L6.8125 21.9375C6.8663 21.9429 6.91879 21.9532 6.96973 21.9668L11.8018 17.1357L12.5088 17.8428ZM1.59961 28.0439H6.71094V22.9326H1.59961V28.0439ZM14.8223 12.1553C13.3495 12.1553 12.1553 13.3495 12.1553 14.8223L12.1689 15.0947C12.2965 16.3495 13.2941 17.347 14.5488 17.4746L14.8223 17.4883C16.2027 17.4881 17.3379 16.4391 17.4746 15.0947L17.4883 14.8223C17.4883 13.4416 16.4393 12.3056 15.0947 12.1689L14.8223 12.1553ZM28.1455 0.604492C28.65 0.655477 29.0439 1.08168 29.0439 1.59961V6.71094L29.0381 6.8125C28.9904 7.28345 28.6165 7.65745 28.1455 7.70508L28.0439 7.71094H22.9326L22.8301 7.70508C22.7769 7.69964 22.7252 7.68921 22.6748 7.67578L17.8428 12.5088L17.1357 11.8018L21.9668 6.96973C21.9532 6.91879 21.9429 6.86631 21.9375 6.8125L21.9326 6.71094V1.59961C21.9326 1.04743 22.3805 0.599786 22.9326 0.599609H28.0439L28.1455 0.604492ZM22.9326 6.71094H28.0439V1.59961H22.9326V6.71094Z" fill="#25B544"/>
<path d="M24.5996 11.1553L24.5996 10.5553H24.5996L24.5996 11.1553ZM32.4043 13.6514L32.753 13.1631L32.753 13.1631L32.4043 13.6514ZM32.5996 14.0371L33.1996 14.0376V14.0371H32.5996ZM31.7822 14.4385L32.129 13.9488L32.129 13.9488L31.7822 14.4385ZM24.5996 12.1553L24.5996 11.5553H24.5996L24.5996 12.1553ZM18.751 13.6152L19.0331 14.1448L19.0335 14.1446L18.751 13.6152ZM18.2764 13.5938L18.5833 13.0782L17.1537 12.2269L17.711 13.7947L18.2764 13.5938ZM18.4883 14.8223L19.0883 14.8223V14.8223H18.4883ZM14.8223 18.4883V19.0883H14.8223L14.8223 18.4883ZM13.5938 18.2764L13.7947 17.711L12.2269 17.1537L13.0782 18.5833L13.5938 18.2764ZM13.6152 18.751L14.1446 19.0335L14.1448 19.0331L13.6152 18.751ZM12.1553 24.5996L11.5553 24.5996V24.5996L12.1553 24.5996ZM14.4385 31.7822L13.9488 32.129L13.9488 32.129L14.4385 31.7822ZM14.0371 32.5996V33.1996H14.0376L14.0371 32.5996ZM13.6514 32.4043L13.1631 32.753L13.1631 32.753L13.6514 32.4043ZM11.1553 24.5996L10.5553 24.5996V24.5996L11.1553 24.5996ZM12.751 18.2412L12.2228 17.9566L12.2225 17.9571L12.751 18.2412ZM13.042 18.0273L13.1696 18.6136L14.7225 18.2756L13.3337 17.503L13.042 18.0273ZM11.1553 14.8223H10.5553V14.8223L11.1553 14.8223ZM14.8223 11.1553L14.8223 10.5553H14.8223V11.1553ZM18.0273 13.042L17.503 13.3337L18.2756 14.7225L18.6136 13.1696L18.0273 13.042ZM18.2412 12.751L17.9571 12.2225L17.9566 12.2228L18.2412 12.751ZM12.5088 17.8428L12.933 18.2671L13.3574 17.8428L12.9331 17.4185L12.5088 17.8428ZM7.67578 22.6748L7.25156 22.2505L7.00683 22.4952L7.09608 22.8295L7.67578 22.6748ZM7.71094 22.9326H8.31094V22.9324L7.71094 22.9326ZM7.71094 28.0439L8.30994 28.0785L8.31094 28.0612V28.0439H7.71094ZM7.70508 28.1455L8.30203 28.2059L8.30334 28.193L8.30408 28.1801L7.70508 28.1455ZM6.8125 29.0381L6.84706 29.6371L6.86 29.6363L6.87289 29.635L6.8125 29.0381ZM6.71094 29.0439V29.6439H6.72823L6.7455 29.643L6.71094 29.0439ZM1.59961 29.0439L1.56538 29.643L1.58248 29.6439H1.59961V29.0439ZM1.49707 29.0381L1.43623 29.635L1.44951 29.6363L1.46284 29.6371L1.49707 29.0381ZM0.604492 28.1455L0.00518435 28.1743L0.00594348 28.1901L0.00753295 28.2058L0.604492 28.1455ZM0.599609 28.0439H-0.000390649V28.0584L0.00030154 28.0728L0.599609 28.0439ZM0.599609 22.9326L-0.000390649 22.9324V22.9326H0.599609ZM1.59961 21.9326V21.3326V21.9326ZM6.71094 21.9326L6.73975 21.3333L6.72535 21.3326H6.71094V21.9326ZM6.8125 21.9375L6.87283 21.3405L6.8571 21.339L6.84131 21.3382L6.8125 21.9375ZM6.96973 21.9668L6.81467 22.5464L7.14912 22.6359L7.39395 22.3911L6.96973 21.9668ZM11.8018 17.1357L12.226 16.7115L11.8018 16.2873L11.3775 16.7114L11.8018 17.1357ZM1.59961 28.0439H0.999609V28.6439H1.59961V28.0439ZM6.71094 28.0439V28.6439H7.31094V28.0439H6.71094ZM6.71094 22.9326H7.31094V22.3326H6.71094V22.9326ZM1.59961 22.9326V22.3326H0.999609V22.9326H1.59961ZM14.8223 12.1553L14.8523 11.556L14.8373 11.5553H14.8223V12.1553ZM12.1553 14.8223H11.5553V14.8373L11.556 14.8523L12.1553 14.8223ZM12.1689 15.0947L11.5697 15.1248L11.5705 15.1401L11.572 15.1554L12.1689 15.0947ZM14.5488 17.4746L14.4881 18.0715L14.5035 18.0731L14.5189 18.0739L14.5488 17.4746ZM14.8223 17.4883L14.7923 18.0875L14.8073 18.0883L14.8224 18.0883L14.8223 17.4883ZM17.4746 15.0947L18.0715 15.1554L18.0731 15.1401L18.0739 15.1248L17.4746 15.0947ZM17.4883 14.8223L18.0875 14.8523L18.0883 14.8373V14.8223H17.4883ZM15.0947 12.1689L15.1554 11.572L15.1401 11.5705L15.1248 11.5697L15.0947 12.1689ZM28.1455 0.604492L28.2058 0.00753289L28.1901 0.00594348L28.1743 0.00518435L28.1455 0.604492ZM29.0439 1.59961H29.6439H29.0439ZM29.0439 6.71094L29.643 6.7455L29.6439 6.72823V6.71094H29.0439ZM29.0381 6.8125L29.635 6.87289L29.6363 6.86L29.6371 6.84706L29.0381 6.8125ZM28.1455 7.70508L28.1801 8.30408L28.193 8.30334L28.2059 8.30203L28.1455 7.70508ZM28.0439 7.71094V8.31094H28.0612L28.0785 8.30994L28.0439 7.71094ZM22.9326 7.71094L22.8984 8.30996L22.9155 8.31094H22.9326V7.71094ZM22.8301 7.70508L22.7691 8.30197L22.7824 8.30333L22.7958 8.3041L22.8301 7.70508ZM22.6748 7.67578L22.8293 7.09601L22.4951 7.00695L22.2505 7.25156L22.6748 7.67578ZM17.8428 12.5088L17.4185 12.9331L17.8428 13.3574L18.2671 12.933L17.8428 12.5088ZM17.1357 11.8018L16.7114 11.3775L16.2873 11.8018L16.7115 12.226L17.1357 11.8018ZM21.9668 6.96973L22.3911 7.39395L22.6359 7.14908L22.5464 6.8146L21.9668 6.96973ZM21.9375 6.8125L21.3382 6.84131L21.339 6.8571L21.3405 6.87283L21.9375 6.8125ZM21.9326 6.71094H21.3326V6.72535L21.3333 6.73975L21.9326 6.71094ZM22.9326 0.599609V-0.000390708L22.9324 -0.000390589L22.9326 0.599609ZM28.0439 0.599609L28.0728 0.00030154L28.0584 -0.000390649H28.0439V0.599609ZM22.9326 6.71094H22.3326V7.31094H22.9326V6.71094ZM28.0439 6.71094V7.31094H28.6439V6.71094H28.0439ZM28.0439 1.59961H28.6439V0.999609H28.0439V1.59961ZM22.9326 1.59961V0.999609H22.3326V1.59961H22.9326ZM24.5996 11.1553L24.5996 11.7553C27.3801 11.7553 29.9537 12.6388 32.0556 14.1397L32.4043 13.6514L32.753 13.1631C30.4543 11.5218 27.6384 10.5553 24.5996 10.5553L24.5996 11.1553ZM32.4043 13.6514L32.0556 14.1397C32.0149 14.1106 31.9996 14.0697 31.9996 14.0371H32.5996H33.1996C33.1996 13.6997 33.0418 13.3693 32.753 13.1631L32.4043 13.6514ZM32.5996 14.0371L31.9996 14.0366C31.9996 14.0165 32.0067 13.9917 32.0207 13.9708C32.0331 13.9524 32.0462 13.9436 32.0543 13.9397C32.0678 13.9332 32.0993 13.9278 32.129 13.9488L31.7822 14.4385L31.4354 14.9281C32.1296 15.4198 33.1988 14.9773 33.1996 14.0376L32.5996 14.0371ZM31.7822 14.4385L32.129 13.9488C30.0021 12.4425 27.4036 11.5553 24.5996 11.5553L24.5996 12.1553L24.5996 12.7553C27.1465 12.7553 29.5042 13.5604 31.4354 14.9281L31.7822 14.4385ZM24.5996 12.1553L24.5996 11.5553C22.3841 11.5554 20.2964 12.1103 18.4685 13.0859L18.751 13.6152L19.0335 14.1446C20.6925 13.2592 22.5867 12.7554 24.5997 12.7553L24.5996 12.1553ZM18.751 13.6152L18.4689 13.0857C18.4957 13.0714 18.5241 13.0669 18.5462 13.0682C18.5662 13.0695 18.5781 13.0751 18.5833 13.0782L18.2764 13.5938L17.9694 14.1093C18.2621 14.2835 18.6646 14.3411 19.0331 14.1448L18.751 13.6152ZM18.2764 13.5938L17.711 13.7947C17.8253 14.1162 17.8883 14.4617 17.8883 14.8223H18.4883H19.0883C19.0883 14.3209 19.0005 13.8396 18.8417 13.3928L18.2764 13.5938ZM18.4883 14.8223L17.8883 14.8222C17.8881 16.5156 16.5156 17.8881 14.8222 17.8883L14.8223 18.4883L14.8223 19.0883C17.1784 19.088 19.088 17.1784 19.0883 14.8223L18.4883 14.8223ZM14.8223 18.4883V17.8883C14.4617 17.8883 14.1162 17.8253 13.7947 17.711L13.5938 18.2764L13.3928 18.8417C13.8396 19.0005 14.3209 19.0883 14.8223 19.0883V18.4883ZM13.5938 18.2764L13.0782 18.5833C13.0751 18.5781 13.0695 18.5662 13.0682 18.5462C13.0669 18.5241 13.0714 18.4957 13.0857 18.4689L13.6152 18.751L14.1448 19.0331C14.3411 18.6646 14.2835 18.2621 14.1093 17.9694L13.5938 18.2764ZM13.6152 18.751L13.0859 18.4685C12.1103 20.2964 11.5554 22.3841 11.5553 24.5996L12.1553 24.5996L12.7553 24.5997C12.7554 22.5867 13.2592 20.6925 14.1446 19.0335L13.6152 18.751ZM12.1553 24.5996L11.5553 24.5996C11.5553 27.4036 12.4425 30.0021 13.9488 32.129L14.4385 31.7822L14.9281 31.4354C13.5604 29.5042 12.7553 27.1465 12.7553 24.5996L12.1553 24.5996ZM14.4385 31.7822L13.9488 32.129C13.9278 32.0993 13.9332 32.0678 13.9397 32.0543C13.9436 32.0462 13.9524 32.0331 13.9708 32.0207C13.9917 32.0067 14.0165 31.9996 14.0366 31.9996L14.0371 32.5996L14.0376 33.1996C14.9773 33.1988 15.4198 32.1296 14.9281 31.4354L14.4385 31.7822ZM14.0371 32.5996V31.9996C14.0697 31.9996 14.1106 32.0149 14.1397 32.0556L13.6514 32.4043L13.1631 32.753C13.3693 33.0418 13.6997 33.1996 14.0371 33.1996V32.5996ZM13.6514 32.4043L14.1397 32.0556C12.6388 29.9537 11.7553 27.3801 11.7553 24.5996L11.1553 24.5996L10.5553 24.5996C10.5553 27.6384 11.5218 30.4543 13.1631 32.753L13.6514 32.4043ZM11.1553 24.5996L11.7553 24.5997C11.7554 22.4016 12.3074 20.3331 13.2794 18.5254L12.751 18.2412L12.2225 17.9571C11.1589 19.9352 10.5554 22.1983 10.5553 24.5996L11.1553 24.5996ZM12.751 18.2412L13.2792 18.5258C13.2656 18.551 13.2459 18.5728 13.2239 18.5885C13.2028 18.6036 13.1835 18.6106 13.1696 18.6136L13.042 18.0273L12.9144 17.4411C12.644 17.4999 12.3782 17.6682 12.2228 17.9566L12.751 18.2412ZM13.042 18.0273L13.3337 17.503C12.391 16.9786 11.7554 15.9744 11.7553 14.8222L11.1553 14.8223L10.5553 14.8223C10.5555 16.4277 11.4428 17.8242 12.7503 18.5517L13.042 18.0273ZM11.1553 14.8223H11.7553C11.7553 13.1286 13.1286 11.7553 14.8223 11.7553V11.1553V10.5553C12.4659 10.5553 10.5553 12.4659 10.5553 14.8223H11.1553ZM14.8223 11.1553L14.8222 11.7553C15.9744 11.7554 16.9786 12.391 17.503 13.3337L18.0273 13.042L18.5517 12.7503C17.8242 11.4428 16.4277 10.5555 14.8223 10.5553L14.8223 11.1553ZM18.0273 13.042L18.6136 13.1696C18.6106 13.1835 18.6036 13.2028 18.5885 13.2239C18.5728 13.2459 18.551 13.2656 18.5258 13.2792L18.2412 12.751L17.9566 12.2228C17.6682 12.3782 17.4999 12.644 17.4411 12.9144L18.0273 13.042ZM18.2412 12.751L18.5254 13.2794C20.3331 12.3074 22.4016 11.7554 24.5997 11.7553L24.5996 11.1553L24.5996 10.5553C22.1983 10.5554 19.9352 11.1589 17.9571 12.2225L18.2412 12.751ZM12.5088 17.8428L12.0846 17.4185L7.25156 22.2505L7.67578 22.6748L8.1 23.0991L12.933 18.2671L12.5088 17.8428ZM7.67578 22.6748L7.09608 22.8295C7.10652 22.8687 7.11093 22.9027 7.11094 22.9328L7.71094 22.9326L8.31094 22.9324C8.31089 22.784 8.28901 22.6457 8.25549 22.5201L7.67578 22.6748ZM7.71094 22.9326H7.11094V28.0439H7.71094H8.31094V22.9326H7.71094ZM7.71094 28.0439L7.11193 28.0094L7.10607 28.111L7.70508 28.1455L8.30408 28.1801L8.30994 28.0785L7.71094 28.0439ZM7.70508 28.1455L7.10812 28.0851C7.08918 28.2725 6.93948 28.4222 6.75211 28.4411L6.8125 29.0381L6.87289 29.635C7.62743 29.5587 8.22571 28.9605 8.30203 28.2059L7.70508 28.1455ZM6.8125 29.0381L6.77794 28.4391L6.67638 28.4449L6.71094 29.0439L6.7455 29.643L6.84706 29.6371L6.8125 29.0381ZM6.71094 29.0439V28.4439H1.59961V29.0439V29.6439H6.71094V29.0439ZM1.59961 29.0439L1.63384 28.4449L1.5313 28.4391L1.49707 29.0381L1.46284 29.6371L1.56538 29.643L1.59961 29.0439ZM1.49707 29.0381L1.55791 28.4412C1.37007 28.422 1.22031 28.2718 1.20145 28.0852L0.604492 28.1455L0.00753295 28.2058C0.0838198 28.9607 0.682818 29.5582 1.43623 29.635L1.49707 29.0381ZM0.604492 28.1455L1.2038 28.1167L1.19892 28.0151L0.599609 28.0439L0.00030154 28.0728L0.00518435 28.1743L0.604492 28.1455ZM0.599609 28.0439H1.19961V22.9326H0.599609H-0.000390649V28.0439H0.599609ZM0.599609 22.9326L1.19961 22.9328C1.19968 22.7117 1.37899 22.5326 1.59961 22.5326V21.9326V21.3326C0.715872 21.3326 -0.000108719 22.0493 -0.000390589 22.9324L0.599609 22.9326ZM1.59961 21.9326V22.5326H6.71094V21.9326V21.3326H1.59961V21.9326ZM6.71094 21.9326L6.68212 22.5319L6.78369 22.5368L6.8125 21.9375L6.84131 21.3382L6.73975 21.3333L6.71094 21.9326ZM6.8125 21.9375L6.75217 22.5345C6.76992 22.5363 6.79059 22.54 6.81467 22.5464L6.96973 21.9668L7.12478 21.3872C7.04699 21.3664 6.96267 21.3496 6.87283 21.3405L6.8125 21.9375ZM6.96973 21.9668L7.39395 22.3911L12.226 17.56L11.8018 17.1357L11.3775 16.7114L6.54551 21.5425L6.96973 21.9668ZM11.8018 17.1357L11.3775 17.56L12.0845 18.267L12.5088 17.8428L12.9331 17.4185L12.226 16.7115L11.8018 17.1357ZM1.59961 28.0439V28.6439H6.71094V28.0439V27.4439H1.59961V28.0439ZM6.71094 28.0439H7.31094V22.9326H6.71094H6.11094V28.0439H6.71094ZM6.71094 22.9326V22.3326H1.59961V22.9326V23.5326H6.71094V22.9326ZM1.59961 22.9326H0.999609V28.0439H1.59961H2.19961V22.9326H1.59961ZM14.8223 12.1553V11.5553C13.0181 11.5553 11.5553 13.0181 11.5553 14.8223H12.1553H12.7553C12.7553 13.6809 13.6809 12.7553 14.8223 12.7553V12.1553ZM12.1553 14.8223L11.556 14.8523L11.5697 15.1248L12.1689 15.0947L12.7682 15.0647L12.7545 14.7922L12.1553 14.8223ZM12.1689 15.0947L11.572 15.1554C11.7284 16.6936 12.9501 17.9151 14.4881 18.0715L14.5488 17.4746L14.6096 16.8777C13.6381 16.7789 12.8646 16.0054 12.7659 15.0341L12.1689 15.0947ZM14.5488 17.4746L14.5189 18.0739L14.7923 18.0875L14.8223 17.4883L14.8522 16.889L14.5788 16.8754L14.5488 17.4746ZM14.8223 17.4883L14.8224 18.0883C16.5137 18.088 17.9041 16.803 18.0715 15.1554L17.4746 15.0947L16.8777 15.034C16.7718 16.0753 15.8917 16.8881 14.8222 16.8883L14.8223 17.4883ZM17.4746 15.0947L18.0739 15.1248L18.0875 14.8523L17.4883 14.8223L16.889 14.7922L16.8754 15.0647L17.4746 15.0947ZM17.4883 14.8223H18.0883C18.0883 13.1308 16.8033 11.7395 15.1554 11.572L15.0947 12.1689L15.0341 12.7659C16.0753 12.8717 16.8883 13.7525 16.8883 14.8223H17.4883ZM15.0947 12.1689L15.1248 11.5697L14.8523 11.556L14.8223 12.1553L14.7922 12.7545L15.0647 12.7682L15.0947 12.1689ZM28.1455 0.604492L28.0852 1.20145C28.2863 1.22178 28.4439 1.39279 28.4439 1.59961H29.0439H29.6439C29.6439 0.77056 29.0137 0.0891743 28.2058 0.00753289L28.1455 0.604492ZM29.0439 1.59961H28.4439V6.71094H29.0439H29.6439V1.59961H29.0439ZM29.0439 6.71094L28.4449 6.67638L28.4391 6.77794L29.0381 6.8125L29.6371 6.84706L29.643 6.7455L29.0439 6.71094ZM29.0381 6.8125L28.4411 6.75211C28.4222 6.93948 28.2725 7.08918 28.0851 7.10812L28.1455 7.70508L28.2059 8.30203C28.9605 8.22571 29.5587 7.62743 29.635 6.87289L29.0381 6.8125ZM28.1455 7.70508L28.111 7.10607L28.0094 7.11193L28.0439 7.71094L28.0785 8.30994L28.1801 8.30408L28.1455 7.70508ZM28.0439 7.71094V7.11094H22.9326V7.71094V8.31094H28.0439V7.71094ZM22.9326 7.71094L22.9668 7.11191L22.8643 7.10606L22.8301 7.70508L22.7958 8.3041L22.8984 8.30996L22.9326 7.71094ZM22.8301 7.70508L22.8911 7.10819C22.8759 7.10664 22.856 7.10312 22.8293 7.09601L22.6748 7.67578L22.5203 8.25555C22.5944 8.27529 22.6779 8.29265 22.7691 8.30197L22.8301 7.70508ZM22.6748 7.67578L22.2505 7.25156L17.4185 12.0846L17.8428 12.5088L18.2671 12.933L23.0991 8.1L22.6748 7.67578ZM17.8428 12.5088L18.267 12.0845L17.56 11.3775L17.1357 11.8018L16.7115 12.226L17.4185 12.9331L17.8428 12.5088ZM17.1357 11.8018L17.56 12.226L22.3911 7.39395L21.9668 6.96973L21.5425 6.54551L16.7114 11.3775L17.1357 11.8018ZM21.9668 6.96973L22.5464 6.8146C22.54 6.79062 22.5363 6.76997 22.5345 6.75217L21.9375 6.8125L21.3405 6.87283C21.3496 6.96264 21.3664 7.04697 21.3872 7.12485L21.9668 6.96973ZM21.9375 6.8125L22.5368 6.78369L22.5319 6.68212L21.9326 6.71094L21.3333 6.73975L21.3382 6.84131L21.9375 6.8125ZM21.9326 6.71094H22.5326V1.59961H21.9326H21.3326V6.71094H21.9326ZM21.9326 1.59961H22.5326C22.5326 1.37899 22.7117 1.19968 22.9328 1.19961L22.9326 0.599609L22.9324 -0.000390589C22.0493 -0.000108719 21.3326 0.715872 21.3326 1.59961H21.9326ZM22.9326 0.599609V1.19961H28.0439V0.599609V-0.000390649H22.9326V0.599609ZM28.0439 0.599609L28.0151 1.19892L28.1167 1.2038L28.1455 0.604492L28.1743 0.00518435L28.0728 0.00030154L28.0439 0.599609ZM22.9326 6.71094V7.31094H28.0439V6.71094V6.11094H22.9326V6.71094ZM28.0439 6.71094H28.6439V1.59961H28.0439H27.4439V6.71094H28.0439ZM28.0439 1.59961V0.999609H22.9326V1.59961V2.19961H28.0439V1.59961ZM22.9326 1.59961H22.3326V6.71094H22.9326H23.5326V1.59961H22.9326Z" fill="#25B544" mask="url(#path-1-outside-1_442_252)"/>
</svg>
