<svg width="470" height="265" viewBox="0 0 470 265" fill="none" xmlns="http://www.w3.org/2000/svg" xmlns:xlink="http://www.w3.org/1999/xlink">
<path d="M158.377 8.28125C183.228 8.28125 205.143 29.6924 218.12 62.2793C236.016 28.811 265.639 7.47439 298.101 9.06348C331.569 10.702 359.653 36.2997 373.815 73.1309C382.899 60.4215 394.933 52.6828 408.133 52.6826C436.428 52.6826 459.365 88.236 459.365 132.093C459.365 175.95 436.428 211.503 408.133 211.503C394.092 211.503 381.371 202.747 372.117 188.567C355.413 229.331 322.536 256.469 286.076 254.684C256.892 253.255 231.801 233.608 216.465 204.181C203.326 234.518 182.201 254.195 158.377 254.195C130.838 254.195 106.903 227.903 94.7432 189.244C85.5858 202.52 73.2839 210.648 59.7559 210.648C31.4611 210.648 8.52344 175.095 8.52344 131.238C8.52349 87.3815 31.4612 51.8291 59.7559 51.8291C73.2839 51.8291 85.5867 59.9563 94.7441 73.2324C106.904 34.5743 130.838 8.2813 158.377 8.28125Z" fill="white"/>
<use xlink:href="#stroke0_315_215" transform="translate(169.91 6.91002) scale(0.0564343) rotate(124.624)"/>
<use xlink:href="#stroke0_315_215" transform="translate(171.7 11.5425) scale(0.0478442) rotate(149.622)"/>
<use xlink:href="#stroke0_315_215" transform="translate(155.944 2.1114) scale(0.0612011) rotate(-15.199)"/>
<use xlink:href="#stroke0_315_215" transform="translate(165.616 -1.08563) scale(0.0604329) rotate(15.9555)"/>
<use xlink:href="#stroke0_315_215" transform="translate(161.661 9.83298) scale(0.0682837) rotate(-40.5631)"/>
<use xlink:href="#stroke0_315_215" transform="translate(167.638 14.1258) scale(0.0600424) rotate(-49.6681)"/>
<use xlink:href="#stroke0_315_215" transform="translate(195.27 13.3026) scale(0.0572327) rotate(117.367)"/>
<use xlink:href="#stroke0_315_215" transform="translate(198.839 16.1246) scale(0.0568596) rotate(118.976)"/>
<use xlink:href="#stroke0_315_215" transform="translate(180.53 21.2022) scale(0.0487142) rotate(-48.8535)"/>
<use xlink:href="#stroke0_315_215" transform="translate(206.97 19.7804) scale(0.0672565) rotate(113.122)"/>
<use xlink:href="#stroke0_315_215" transform="translate(206.412 33.3592) scale(0.0538492) rotate(163.794)"/>
<use xlink:href="#stroke0_315_215" transform="translate(199.415 40.0639) scale(0.0473643) rotate(-137.49)"/>
<use xlink:href="#stroke0_315_215" transform="translate(191.968 38.4446) scale(0.0548658) rotate(-75.3913)"/>
<use xlink:href="#stroke0_315_215" transform="translate(212.323 31.5477) scale(0.0455472) rotate(100.023)"/>
<use xlink:href="#stroke0_315_215" transform="translate(213.566 31.5164) scale(0.0520742) rotate(83.2289)"/>
<use xlink:href="#stroke0_315_215" transform="translate(206.97 31.6649) scale(0.055516) rotate(33.1696)"/>
<use xlink:href="#stroke0_315_215" transform="translate(209.86 60.0271) scale(0.0639276) rotate(-134.129)"/>
<use xlink:href="#stroke0_315_215" transform="translate(223.55 42.3761) scale(0.0664129) rotate(90.6143)"/>
<use xlink:href="#stroke0_315_215" transform="translate(207.716 47.8898) scale(0.051125) rotate(-3.51049)"/>
<use xlink:href="#stroke0_315_215" transform="translate(210.549 48.184) scale(0.0621609) rotate(11.6777)"/>
<use xlink:href="#stroke0_315_215" transform="translate(221.375 52.5627) scale(0.0455796) rotate(59.0066)"/>
<use xlink:href="#stroke0_315_215" transform="translate(216.431 67.0662) scale(0.045684) rotate(-114.709)"/>
<use xlink:href="#stroke0_315_215" transform="translate(215.833 43.9396) scale(0.0621411) rotate(10.77)"/>
<use xlink:href="#stroke0_315_215" transform="translate(217.53 57.7965) scale(0.0460049) rotate(-90.4606)"/>
<use xlink:href="#stroke0_315_215" transform="translate(219.203 58.2146) scale(0.0618124) rotate(-101.268)"/>
<use xlink:href="#stroke0_315_215" transform="translate(218.864 36.4448) scale(0.065271) rotate(-13.2263)"/>
<use xlink:href="#stroke0_315_215" transform="translate(224.601 46.7865) scale(0.0481335) rotate(-85.323)"/>
<use xlink:href="#stroke0_315_215" transform="translate(244.329 45.3378) scale(0.0574653) rotate(170.79)"/>
<use xlink:href="#stroke0_315_215" transform="translate(228.463 38.6158) scale(0.049755) rotate(-70.1075)"/>
<use xlink:href="#stroke0_315_215" transform="translate(239.248 43.5525) scale(0.0566014) rotate(-130.532)"/>
<use xlink:href="#stroke0_315_215" transform="translate(247.696 17.2695) scale(0.0597302) rotate(58.0621)"/>
<use xlink:href="#stroke0_315_215" transform="translate(245.827 12.2644) scale(0.0673854) rotate(32.7449)"/>
<use xlink:href="#stroke0_315_215" transform="translate(241.023 24.3223) scale(0.051428) rotate(-54.2476)"/>
<use xlink:href="#stroke0_315_215" transform="translate(250.944 10.1781) scale(0.0561083) rotate(21.0451)"/>
<use xlink:href="#stroke0_315_215" transform="translate(256.907 5.05489) scale(0.0666099) rotate(32.715)"/>
<use xlink:href="#stroke0_315_215" transform="translate(256.777 8.8434) scale(0.0477443) rotate(3.34099)"/>
<use xlink:href="#stroke0_315_215" transform="translate(278 15.3513) scale(0.0562395) rotate(133.534)"/>
<use xlink:href="#stroke0_315_215" transform="translate(264.494 23.2823) scale(0.0562463) rotate(-107.814)"/>
<use xlink:href="#stroke0_315_215" transform="translate(279.66 19.5261) scale(0.0451111) rotate(-175.551)"/>
<use xlink:href="#stroke0_315_215" transform="translate(265.039 12.5826) scale(0.0638286) rotate(-55.5054)"/>
<use xlink:href="#stroke0_315_215" transform="translate(296.548 9.9455) scale(0.0661744) rotate(131.217)"/>
<use xlink:href="#stroke0_315_215" transform="translate(294.024 15.5076) scale(0.0448095) rotate(172.891)"/>
<use xlink:href="#stroke0_315_215" transform="translate(282.783 0.849627) scale(0.0563765) rotate(-3.39679)"/>
<use xlink:href="#stroke0_315_215" transform="translate(305.211 15.3278) scale(0.0572317) rotate(164)"/>
<use xlink:href="#stroke0_315_215" transform="translate(291.712 0.990155) scale(0.055035) rotate(-2.49967)"/>
<use xlink:href="#stroke0_315_215" transform="translate(302.685 -0.770483) scale(0.0503159) rotate(36.5545)"/>
<use xlink:href="#stroke0_315_215" transform="translate(316.281 1.89471) scale(0.0582166) rotate(87.5339)"/>
<use xlink:href="#stroke0_315_215" transform="translate(322.553 18.2239) scale(0.0612609) rotate(165.291)"/>
<use xlink:href="#stroke0_315_215" transform="translate(312.122 24.4794) scale(0.0620214) rotate(-118.098)"/>
<use xlink:href="#stroke0_315_215" transform="translate(318.827 25.6123) scale(0.0568686) rotate(-128.667)"/>
<use xlink:href="#stroke0_315_215" transform="translate(334.978 16.4476) scale(0.0505585) rotate(135.418)"/>
<use xlink:href="#stroke0_315_215" transform="translate(338.27 25.0007) scale(0.0600463) rotate(168.108)"/>
<use xlink:href="#stroke0_315_215" transform="translate(322.383 14.5191) scale(0.0537769) rotate(-20.2263)"/>
<use xlink:href="#stroke0_315_215" transform="translate(329.361 14.1156) scale(0.0476947) rotate(3.6582)"/>
<use xlink:href="#stroke0_315_215" transform="translate(343.252 34.3065) scale(0.0544496) rotate(-163.485)"/>
<use xlink:href="#stroke0_315_215" transform="translate(331.766 19.368) scale(0.0617341) rotate(-12.3003)"/>
<use xlink:href="#stroke0_315_215" transform="translate(337.817 35.2499) scale(0.0447774) rotate(-86.7378)"/>
<use xlink:href="#stroke0_315_215" transform="translate(359.006 39.8339) scale(0.0641819) rotate(165.514)"/>
<use xlink:href="#stroke0_315_215" transform="translate(358.617 41.274) scale(0.0465702) rotate(168.67)"/>
<use xlink:href="#stroke0_315_215" transform="translate(365.289 40.7133) scale(0.05775) rotate(142.381)"/>
<use xlink:href="#stroke0_315_215" transform="translate(348.738 48.458) scale(0.0492052) rotate(-91.1487)"/>
<use xlink:href="#stroke0_315_215" transform="translate(361.029 53.9201) scale(0.0472974) rotate(-154.158)"/>
<use xlink:href="#stroke0_315_215" transform="translate(348.957 43.2371) scale(0.0619951) rotate(-26.9018)"/>
<use xlink:href="#stroke0_315_215" transform="translate(372.444 52.968) scale(0.046241) rotate(140.816)"/>
<use xlink:href="#stroke0_315_215" transform="translate(358.586 62.1866) scale(0.0483905) rotate(-99.1132)"/>
<use xlink:href="#stroke0_315_215" transform="translate(378.008 54.3394) scale(0.0569211) rotate(113.193)"/>
<use xlink:href="#stroke0_315_215" transform="translate(369.481 74.7381) scale(0.0618387) rotate(-140.959)"/>
<use xlink:href="#stroke0_315_215" transform="translate(376.802 75.9974) scale(0.0560979) rotate(-169.473)"/>
<use xlink:href="#stroke0_315_215" transform="translate(373.266 56.5341) scale(0.067493) rotate(43.5847)"/>
<use xlink:href="#stroke0_315_215" transform="translate(381.088 63.5453) scale(0.0507549) rotate(78.741)"/>
<use xlink:href="#stroke0_315_215" transform="translate(378.646 56.6869) scale(0.0582713) rotate(47.6006)"/>
<use xlink:href="#stroke0_315_215" transform="translate(391.367 61.043) scale(0.057526) rotate(109.981)"/>
<use xlink:href="#stroke0_315_215" transform="translate(373.447 59.8419) scale(0.0499006) rotate(-33.1261)"/>
<use xlink:href="#stroke0_315_215" transform="translate(384.293 48.9017) scale(0.0554235) rotate(30.2802)"/>
<use xlink:href="#stroke0_315_215" transform="translate(382.582 49.0343) scale(0.0558415) rotate(0.92328)"/>
<use xlink:href="#stroke0_315_215" transform="translate(392.07 44.2446) scale(0.0568489) rotate(32.6219)"/>
<use xlink:href="#stroke0_315_215" transform="translate(401.684 66.478) scale(0.0621255) rotate(-154.891)"/>
<use xlink:href="#stroke0_315_215" transform="translate(397.169 45.1025) scale(0.0461875) rotate(10.132)"/>
<use xlink:href="#stroke0_315_215" transform="translate(404.767 62.9745) scale(0.0498128) rotate(-133.199)"/>
<use xlink:href="#stroke0_315_215" transform="translate(399.582 59.3805) scale(0.0596681) rotate(-81.3908)"/>
<use xlink:href="#stroke0_315_215" transform="translate(408.745 64.4129) scale(0.0607926) rotate(-111.43)"/>
<use xlink:href="#stroke0_315_215" transform="translate(427.711 54.6543) scale(0.0453826) rotate(133.756)"/>
<use xlink:href="#stroke0_315_215" transform="translate(418.689 64.599) scale(0.0465995) rotate(-120.515)"/>
<use xlink:href="#stroke0_315_215" transform="translate(415.776 59.2214) scale(0.0452715) rotate(-62.4422)"/>
<use xlink:href="#stroke0_315_215" transform="translate(415.127 57.3106) scale(0.0652835) rotate(-40.677)"/>
<use xlink:href="#stroke0_315_215" transform="translate(438.234 68.9954) scale(0.0470162) rotate(-179.7)"/>
<use xlink:href="#stroke0_315_215" transform="translate(444.284 65.9558) scale(0.0479202) rotate(142.326)"/>
<use xlink:href="#stroke0_315_215" transform="translate(426.312 67.0732) scale(0.0535221) rotate(-49.8874)"/>
<use xlink:href="#stroke0_315_215" transform="translate(433.934 82.8119) scale(0.068137) rotate(-111.383)"/>
<use xlink:href="#stroke0_315_215" transform="translate(449.773 84.6709) scale(0.0597285) rotate(-170.699)"/>
<use xlink:href="#stroke0_315_215" transform="translate(437.453 73.1249) scale(0.044245) rotate(-19.2592)"/>
<use xlink:href="#stroke0_315_215" transform="translate(457.936 77.9179) scale(0.0537731) rotate(116.184)"/>
<use xlink:href="#stroke0_315_215" transform="translate(441.63 78.7803) scale(0.0441779) rotate(-12.4659)"/>
<use xlink:href="#stroke0_315_215" transform="translate(447.037 77.9051) scale(0.0488617) rotate(21.4552)"/>
<use xlink:href="#stroke0_315_215" transform="translate(442.279 101.192) scale(0.0674022) rotate(-93.19)"/>
<use xlink:href="#stroke0_315_215" transform="translate(464.119 86.6956) scale(0.0682675) rotate(88.1538)"/>
<use xlink:href="#stroke0_315_215" transform="translate(452.136 110.09) scale(0.0484895) rotate(-120.873)"/>
<use xlink:href="#stroke0_315_215" transform="translate(458.212 117.747) scale(0.0639355) rotate(-147.197)"/>
<use xlink:href="#stroke0_315_215" transform="translate(445.434 109.386) scale(0.0572387) rotate(-49.2669)"/>
<use xlink:href="#stroke0_315_215" transform="translate(448.102 115.662) scale(0.0491031) rotate(-62.4667)"/>
<use xlink:href="#stroke0_315_215" transform="translate(460.081 103.92) scale(0.0670115) rotate(47.9166)"/>
<use xlink:href="#stroke0_315_215" transform="translate(455.662 130.631) scale(0.0453986) rotate(-118.017)"/>
<use xlink:href="#stroke0_315_215" transform="translate(454.476 136.523) scale(0.0570362) rotate(-114.835)"/>
<use xlink:href="#stroke0_315_215" transform="translate(471.143 123.024) scale(0.0679283) rotate(98.8782)"/>
<use xlink:href="#stroke0_315_215" transform="translate(468.7 128.598) scale(0.055912) rotate(95.9647)"/>
<use xlink:href="#stroke0_315_215" transform="translate(450.309 130.802) scale(0.0609503) rotate(-3.29785)"/>
<use xlink:href="#stroke0_315_215" transform="translate(454.208 156.111) scale(0.0612366) rotate(-117.435)"/>
<use xlink:href="#stroke0_315_215" transform="translate(450.394 154.836) scale(0.0490025) rotate(-87.2828)"/>
<use xlink:href="#stroke0_315_215" transform="translate(463.345 142.671) scale(0.0549395) rotate(71.5505)"/>
<use xlink:href="#stroke0_315_215" transform="translate(458.209 145.707) scale(0.0527355) rotate(48.3147)"/>
<use xlink:href="#stroke0_315_215" transform="translate(443.395 163.974) scale(0.0628164) rotate(-62.9177)"/>
<use xlink:href="#stroke0_315_215" transform="translate(447.727 171.116) scale(0.0462391) rotate(-90.2662)"/>
<use xlink:href="#stroke0_315_215" transform="translate(450.781 156.419) scale(0.0612216) rotate(28.4292)"/>
<use xlink:href="#stroke0_315_215" transform="translate(443.121 169.411) scale(0.0467971) rotate(-29.4522)"/>
<use xlink:href="#stroke0_315_215" transform="translate(454.635 167.373) scale(0.0447904) rotate(65.2316)"/>
<use xlink:href="#stroke0_315_215" transform="translate(440.507 171.078) scale(0.0587749) rotate(-5.13368)"/>
<use xlink:href="#stroke0_315_215" transform="translate(454.641 189.617) scale(0.047456) rotate(173.988)"/>
<use xlink:href="#stroke0_315_215" transform="translate(447.41 174.282) scale(0.0605657) rotate(50.6815)"/>
<use xlink:href="#stroke0_315_215" transform="translate(433.963 191.787) scale(0.0457339) rotate(-59.6345)"/>
<use xlink:href="#stroke0_315_215" transform="translate(453.45 197.615) scale(0.0652411) rotate(149.742)"/>
<use xlink:href="#stroke0_315_215" transform="translate(447.03 189.984) scale(0.0565227) rotate(94.6613)"/>
<use xlink:href="#stroke0_315_215" transform="translate(439.554 191.696) scale(0.0447105) rotate(70.934)"/>
<use xlink:href="#stroke0_315_215" transform="translate(436.493 191.936) scale(0.0540738) rotate(64.053)"/>
<use xlink:href="#stroke0_315_215" transform="translate(425.992 213.918) scale(0.0479289) rotate(-120.154)"/>
<use xlink:href="#stroke0_315_215" transform="translate(415.985 203.748) scale(0.0503427) rotate(-32.8083)"/>
<use xlink:href="#stroke0_315_215" transform="translate(411.355 208.528) scale(0.0537744) rotate(-49.3926)"/>
<use xlink:href="#stroke0_315_215" transform="translate(431.01 207.984) scale(0.0625871) rotate(122.646)"/>
<use xlink:href="#stroke0_315_215" transform="translate(423.088 205.767) scale(0.0504806) rotate(101.346)"/>
<use xlink:href="#stroke0_315_215" transform="translate(401.595 218.393) scale(0.0536016) rotate(-87.654)"/>
<use xlink:href="#stroke0_315_215" transform="translate(403.193 220.614) scale(0.0470351) rotate(-119.722)"/>
<use xlink:href="#stroke0_315_215" transform="translate(403.077 202.012) scale(0.0441194) rotate(42.7045)"/>
<use xlink:href="#stroke0_315_215" transform="translate(406.057 219.187) scale(0.054558) rotate(-176.261)"/>
<use xlink:href="#stroke0_315_215" transform="translate(401.365 219.667) scale(0.0607392) rotate(-168.999)"/>
<use xlink:href="#stroke0_315_215" transform="translate(404.318 206.963) scale(0.0662508) rotate(132.18)"/>
<use xlink:href="#stroke0_315_215" transform="translate(382.341 214.796) scale(0.0553931) rotate(-115.709)"/>
<use xlink:href="#stroke0_315_215" transform="translate(382.103 213.124) scale(0.0559837) rotate(-131.973)"/>
<use xlink:href="#stroke0_315_215" transform="translate(366.848 195.415) scale(0.0658467) rotate(-35.3938)"/>
<use xlink:href="#stroke0_315_215" transform="translate(381.222 183.76) scale(0.0585641) rotate(62.6252)"/>
<use xlink:href="#stroke0_315_215" transform="translate(387.283 188.342) scale(0.0663217) rotate(119.173)"/>
<use xlink:href="#stroke0_315_215" transform="translate(384.572 190.579) scale(0.0637846) rotate(133.208)"/>
<use xlink:href="#stroke0_315_215" transform="translate(370.723 183.529) scale(0.0521336) rotate(47.0692)"/>
<use xlink:href="#stroke0_315_215" transform="translate(372.512 188.644) scale(0.0491078) rotate(67.9229)"/>
<use xlink:href="#stroke0_315_215" transform="translate(369.814 215.01) scale(0.0676072) rotate(-154.668)"/>
<use xlink:href="#stroke0_315_215" transform="translate(355.114 201.356) scale(0.0468163) rotate(-23.4612)"/>
<use xlink:href="#stroke0_315_215" transform="translate(373.003 206.935) scale(0.0549666) rotate(122.043)"/>
<use xlink:href="#stroke0_315_215" transform="translate(348.62 211.705) scale(0.0534509) rotate(-45.7554)"/>
<use xlink:href="#stroke0_315_215" transform="translate(370.581 217.12) scale(0.0661745) rotate(136.147)"/>
<use xlink:href="#stroke0_315_215" transform="translate(364.837 215.238) scale(0.05604) rotate(108.558)"/>
<use xlink:href="#stroke0_315_215" transform="translate(342.66 212.49) scale(0.0672571) rotate(3.12888)"/>
<use xlink:href="#stroke0_315_215" transform="translate(349.156 216.456) scale(0.0499456) rotate(46.3562)"/>
<use xlink:href="#stroke0_315_215" transform="translate(338.228 221.742) scale(0.0519306) rotate(-2.06714)"/>
<use xlink:href="#stroke0_315_215" transform="translate(349.919 238.483) scale(0.046111) rotate(173.684)"/>
<use xlink:href="#stroke0_315_215" transform="translate(340.979 245.494) scale(0.0529893) rotate(-143.264)"/>
<use xlink:href="#stroke0_315_215" transform="translate(335.701 227.824) scale(0.0452869) rotate(32.0706)"/>
<use xlink:href="#stroke0_315_215" transform="translate(342.928 233.413) scale(0.0505328) rotate(97.2956)"/>
<use xlink:href="#stroke0_315_215" transform="translate(323.677 232.751) scale(0.055732) rotate(1.69075)"/>
<use xlink:href="#stroke0_315_215" transform="translate(334.466 232.825) scale(0.0651553) rotate(74.6722)"/>
<use xlink:href="#stroke0_315_215" transform="translate(332.995 247.019) scale(0.0468948) rotate(136.72)"/>
<use xlink:href="#stroke0_315_215" transform="translate(317.776 259.18) scale(0.0559055) rotate(-128.07)"/>
<use xlink:href="#stroke0_315_215" transform="translate(302.71 246.228) scale(0.0650689) rotate(-33.6054)"/>
<use xlink:href="#stroke0_315_215" transform="translate(321.273 242.469) scale(0.0663303) rotate(90.662)"/>
<use xlink:href="#stroke0_315_215" transform="translate(311.299 244.279) scale(0.0457368) rotate(69.7674)"/>
<use xlink:href="#stroke0_315_215" transform="translate(309.441 246.226) scale(0.0451926) rotate(81.5002)"/>
<use xlink:href="#stroke0_315_215" transform="translate(309.983 257.688) scale(0.0527406) rotate(151.301)"/>
<use xlink:href="#stroke0_315_215" transform="translate(303.929 249.008) scale(0.0466819) rotate(96.8594)"/>
<use xlink:href="#stroke0_315_215" transform="translate(300.354 264.391) scale(0.0625087) rotate(-179.887)"/>
<use xlink:href="#stroke0_315_215" transform="translate(297.542 252.694) scale(0.0492939) rotate(119.762)"/>
<use xlink:href="#stroke0_315_215" transform="translate(282.2 267.304) scale(0.062482) rotate(-133.465)"/>
<use xlink:href="#stroke0_315_215" transform="translate(280.307 242.279) scale(0.0571393) rotate(48.6518)"/>
<use xlink:href="#stroke0_315_215" transform="translate(273.486 262.883) scale(0.0474622) rotate(-130.242)"/>
<use xlink:href="#stroke0_315_215" transform="translate(273.555 263.724) scale(0.0569733) rotate(-150.984)"/>
<use xlink:href="#stroke0_315_215" transform="translate(259.591 240.52) scale(0.0613647) rotate(6.96509)"/>
<use xlink:href="#stroke0_315_215" transform="translate(252.044 254.303) scale(0.0564125) rotate(-73.9123)"/>
<use xlink:href="#stroke0_315_215" transform="translate(249.1 244.105) scale(0.0503477) rotate(-28.4682)"/>
<use xlink:href="#stroke0_315_215" transform="translate(248.061 253.782) scale(0.0522415) rotate(-95.8965)"/>
<use xlink:href="#stroke0_315_215" transform="translate(240.967 243.996) scale(0.0530495) rotate(-49.2878)"/>
<use xlink:href="#stroke0_315_215" transform="translate(253.581 229.59) scale(0.0632709) rotate(65.9345)"/>
<use xlink:href="#stroke0_315_215" transform="translate(244.722 248.286) scale(0.0451317) rotate(-137.858)"/>
<use xlink:href="#stroke0_315_215" transform="translate(243.722 224.43) scale(0.0594177) rotate(50.7408)"/>
<use xlink:href="#stroke0_315_215" transform="translate(226.5 232.602) scale(0.0579707) rotate(-44.1452)"/>
<use xlink:href="#stroke0_315_215" transform="translate(247.638 227.691) scale(0.06214) rotate(119.521)"/>
<use xlink:href="#stroke0_315_215" transform="translate(237.43 216.214) scale(0.0584993) rotate(68.244)"/>
<use xlink:href="#stroke0_315_215" transform="translate(240.034 223.301) scale(0.052411) rotate(129.09)"/>
<use xlink:href="#stroke0_315_215" transform="translate(214.209 220.159) scale(0.0602652) rotate(-47.6892)"/>
<use xlink:href="#stroke0_315_215" transform="translate(228.417 206.123) scale(0.0559231) rotate(63.8451)"/>
<use xlink:href="#stroke0_315_215" transform="translate(226.267 223.427) scale(0.0541116) rotate(-162.766)"/>
<use xlink:href="#stroke0_315_215" transform="translate(213.768 217.177) scale(0.0451623) rotate(-98.7341)"/>
<use xlink:href="#stroke0_315_215" transform="translate(209.425 196.047) scale(0.0643377) rotate(2.95213)"/>
<use xlink:href="#stroke0_315_215" transform="translate(224.533 212.734) scale(0.0541223) rotate(168.621)"/>
<use xlink:href="#stroke0_315_215" transform="translate(202.059 204.935) scale(0.0620562) rotate(-25.2179)"/>
<use xlink:href="#stroke0_315_215" transform="translate(217.389 204.094) scale(0.055359) rotate(71.1175)"/>
<use xlink:href="#stroke0_315_215" transform="translate(199.078 217.144) scale(0.0519293) rotate(-46.3746)"/>
<use xlink:href="#stroke0_315_215" transform="translate(209.154 210.57) scale(0.0507357) rotate(49.1954)"/>
<use xlink:href="#stroke0_315_215" transform="translate(191.32 224.722) scale(0.0677664) rotate(-48.7264)"/>
<use xlink:href="#stroke0_315_215" transform="translate(191.222 236.152) scale(0.0646805) rotate(-82.2106)"/>
<use xlink:href="#stroke0_315_215" transform="translate(189.628 222.604) scale(0.0674117) rotate(-1.90198)"/>
<use xlink:href="#stroke0_315_215" transform="translate(198.751 245.298) scale(0.0470955) rotate(-153.716)"/>
<use xlink:href="#stroke0_315_215" transform="translate(184.518 240.471) scale(0.0458113) rotate(-60.9709)"/>
<use xlink:href="#stroke0_315_215" transform="translate(181.981 236.878) scale(0.0482767) rotate(-24.9177)"/>
<use xlink:href="#stroke0_315_215" transform="translate(200.945 245.68) scale(0.064995) rotate(140.39)"/>
<use xlink:href="#stroke0_315_215" transform="translate(192.289 240.624) scale(0.047192) rotate(97.3711)"/>
<use xlink:href="#stroke0_315_215" transform="translate(169.726 241.884) scale(0.061501) rotate(-18.6615)"/>
<use xlink:href="#stroke0_315_215" transform="translate(186.812 253.948) scale(0.0519096) rotate(152.307)"/>
<use xlink:href="#stroke0_315_215" transform="translate(184.08 252.744) scale(0.0536189) rotate(137.184)"/>
<use xlink:href="#stroke0_315_215" transform="matrix(-0.014 0.0563288 -0.0563288 -0.014 179.63 247.359)"/>
<use xlink:href="#stroke0_315_215" transform="translate(154.094 254.623) scale(0.0526755) rotate(-53.4763)"/>
<use xlink:href="#stroke0_315_215" transform="translate(166.694 263.037) scale(0.0515539) rotate(-171.399)"/>
<use xlink:href="#stroke0_315_215" transform="translate(157.212 240.166) scale(0.0680653) rotate(44.7796)"/>
<use xlink:href="#stroke0_315_215" transform="translate(155.346 244.438) scale(0.0479602) rotate(61.2904)"/>
<use xlink:href="#stroke0_315_215" transform="translate(156.778 243.681) scale(0.0622961) rotate(85.4215)"/>
<use xlink:href="#stroke0_315_215" transform="translate(132.218 245.826) scale(0.0609094) rotate(-21.5036)"/>
<use xlink:href="#stroke0_315_215" transform="translate(143.085 260.479) scale(0.0547993) rotate(-158.181)"/>
<use xlink:href="#stroke0_315_215" transform="translate(146.489 245.392) scale(0.0543013) rotate(118.18)"/>
<use xlink:href="#stroke0_315_215" transform="translate(139.799 256.876) scale(0.0680638) rotate(-174.171)"/>
<use xlink:href="#stroke0_315_215" transform="translate(127.241 231.894) scale(0.0528764) rotate(37.7116)"/>
<use xlink:href="#stroke0_315_215" transform="translate(115.855 246.841) scale(0.0544488) rotate(-85.5032)"/>
<use xlink:href="#stroke0_315_215" transform="translate(130.166 243.575) scale(0.0501083) rotate(168.369)"/>
<use xlink:href="#stroke0_315_215" transform="translate(127.24 226.707) scale(0.0544272) rotate(87.4229)"/>
<use xlink:href="#stroke0_315_215" transform="translate(105.434 228.88) scale(0.0548847) rotate(-36.0725)"/>
<use xlink:href="#stroke0_315_215" transform="translate(114.761 238.833) scale(0.052207) rotate(-142.958)"/>
<use xlink:href="#stroke0_315_215" transform="translate(120.925 229.519) scale(0.0501723) rotate(157.659)"/>
<use xlink:href="#stroke0_315_215" transform="translate(119.479 228.23) scale(0.0591028) rotate(165.149)"/>
<use xlink:href="#stroke0_315_215" transform="translate(95.2652 218.677) scale(0.0575345) rotate(-53.4399)"/>
<use xlink:href="#stroke0_315_215" transform="translate(99.4721 226.312) scale(0.0672774) rotate(-116.149)"/>
<use xlink:href="#stroke0_315_215" transform="translate(112.663 212.987) scale(0.0512455) rotate(150.818)"/>
<use xlink:href="#stroke0_315_215" transform="translate(91.2544 206.024) scale(0.0479233) rotate(-48.3946)"/>
<use xlink:href="#stroke0_315_215" transform="translate(104.327 192.629) scale(0.053313) rotate(67.0361)"/>
<use xlink:href="#stroke0_315_215" transform="translate(99.2488 209.166) scale(0.05041) rotate(-144.922)"/>
<use xlink:href="#stroke0_315_215" transform="translate(95.6072 183.87) scale(0.0548123) rotate(35.8075)"/>
<use xlink:href="#stroke0_315_215" transform="translate(86.885 198.478) scale(0.0544019) rotate(-89.4083)"/>
<use xlink:href="#stroke0_315_215" transform="translate(86.833 184.696) scale(0.0443512) rotate(-7.64204)"/>
<use xlink:href="#stroke0_315_215" transform="translate(98.6163 184.621) scale(0.0564994) rotate(79.914)"/>
<use xlink:href="#stroke0_315_215" transform="translate(97.565 193.55) scale(0.0450156) rotate(111.979)"/>
<use xlink:href="#stroke0_315_215" transform="translate(94.3376 206.566) scale(0.0531327) rotate(173.207)"/>
<use xlink:href="#stroke0_315_215" transform="translate(88.2379 213.158) scale(0.0596963) rotate(-164.21)"/>
<use xlink:href="#stroke0_315_215" transform="translate(65.2307 202.939) scale(0.0674244) rotate(-40.5828)"/>
<use xlink:href="#stroke0_315_215" transform="translate(79.1282 220.188) scale(0.066489) rotate(-158.397)"/>
<use xlink:href="#stroke0_315_215" transform="translate(79.4529 214.463) scale(0.0518935) rotate(162.388)"/>
<use xlink:href="#stroke0_315_215" transform="translate(73.1897 202.793) scale(0.0470317) rotate(83.8646)"/>
<use xlink:href="#stroke0_315_215" transform="translate(69.6495 203.898) scale(0.0447432) rotate(85.8551)"/>
<use xlink:href="#stroke0_315_215" transform="translate(56.781 201.512) scale(0.0466387) rotate(23.5512)"/>
<use xlink:href="#stroke0_315_215" transform="translate(66.8985 208.388) scale(0.0544607) rotate(120.935)"/>
<use xlink:href="#stroke0_315_215" transform="translate(38.7732 215.615) scale(0.0676114) rotate(-74.3277)"/>
<use xlink:href="#stroke0_315_215" transform="translate(39.368 216.931) scale(0.0561791) rotate(-98.4068)"/>
<use xlink:href="#stroke0_315_215" transform="translate(50.4504 199.147) scale(0.0499216) rotate(86.546)"/>
<use xlink:href="#stroke0_315_215" transform="translate(35.373 191.572) scale(0.064258) rotate(23.5161)"/>
<use xlink:href="#stroke0_315_215" transform="translate(25.2996 200.768) scale(0.0516013) rotate(-44.5013)"/>
<use xlink:href="#stroke0_315_215" transform="translate(22.8911 201.445) scale(0.0504792) rotate(-62.5007)"/>
<use xlink:href="#stroke0_315_215" transform="translate(38.1191 190.729) scale(0.0463413) rotate(95.5163)"/>
<use xlink:href="#stroke0_315_215" transform="translate(36.0793 188.337) scale(0.0466836) rotate(97.8851)"/>
<use xlink:href="#stroke0_315_215" transform="translate(23.2627 181.618) scale(0.0465617) rotate(25.4662)"/>
<use xlink:href="#stroke0_315_215" transform="translate(16.542 176.46) scale(0.0630026) rotate(8.81414)"/>
<use xlink:href="#stroke0_315_215" transform="translate(13.6742 189.662) scale(0.0469303) rotate(-85.9023)"/>
<use xlink:href="#stroke0_315_215" transform="translate(9.28978 176.948) scale(0.0527219) rotate(-29.6681)"/>
<use xlink:href="#stroke0_315_215" transform="translate(19.3267 163.624) scale(0.0630271) rotate(48.838)"/>
<use xlink:href="#stroke0_315_215" transform="translate(18.3422 162.252) scale(0.0510014) rotate(54.5009)"/>
<use xlink:href="#stroke0_315_215" transform="translate(22.4954 176.235) scale(0.052839) rotate(174.798)"/>
<use xlink:href="#stroke0_315_215" transform="translate(6.86303 176.751) scale(0.0674142) rotate(-111.453)"/>
<use xlink:href="#stroke0_315_215" transform="translate(9.69646 169.923) scale(0.0489024) rotate(-125.247)"/>
<use xlink:href="#stroke0_315_215" transform="translate(19.9082 151.805) scale(0.0482339) rotate(103.01)"/>
<use xlink:href="#stroke0_315_215" transform="translate(1.34214 152.183) scale(0.04461) rotate(-43.1392)"/>
<use xlink:href="#stroke0_315_215" transform="translate(22.3017 149.27) scale(0.0606329) rotate(132.19)"/>
<use xlink:href="#stroke0_315_215" transform="translate(1.34941 149.895) scale(0.0451125) rotate(-79.6661)"/>
<use xlink:href="#stroke0_315_215" transform="translate(0.174963 144.198) scale(0.0443904) rotate(-64.4103)"/>
<use xlink:href="#stroke0_315_215" transform="translate(-0.458661 140.888) scale(0.0464002) rotate(-64.5944)"/>
<use xlink:href="#stroke0_315_215" transform="translate(9.06809 124.861) scale(0.0477218) rotate(44.3092)"/>
<use xlink:href="#stroke0_315_215" transform="translate(10.3648 118.738) scale(0.0584153) rotate(50.2076)"/>
<use xlink:href="#stroke0_315_215" transform="translate(19.0488 129.176) scale(0.0524603) rotate(146.342)"/>
<use xlink:href="#stroke0_315_215" transform="translate(7.73528 135.172) scale(0.0645265) rotate(-133.69)"/>
<use xlink:href="#stroke0_315_215" transform="translate(13.5098 128.979) scale(0.0608164) rotate(-158.137)"/>
<use xlink:href="#stroke0_315_215" transform="translate(21.6366 119.669) scale(0.0668433) rotate(163.474)"/>
<use xlink:href="#stroke0_315_215" transform="translate(22.5803 109.969) scale(0.0582371) rotate(142.433)"/>
<use xlink:href="#stroke0_315_215" transform="translate(13.8244 93.028) scale(0.0522043) rotate(52.6975)"/>
<use xlink:href="#stroke0_315_215" transform="translate(1.81732 95.5678) scale(0.0566054) rotate(-28.6153)"/>
<use xlink:href="#stroke0_315_215" transform="translate(3.15103 100.376) scale(0.0582541) rotate(-73.339)"/>
<use xlink:href="#stroke0_315_215" transform="translate(2.82307 85.5553) scale(0.0673623) rotate(-26.1558)"/>
<use xlink:href="#stroke0_315_215" transform="translate(4.0828 89.6382) scale(0.0679521) rotate(-63.3281)"/>
<use xlink:href="#stroke0_315_215" transform="translate(9.71639 81.5047) scale(0.0476561) rotate(-45.0954)"/>
<use xlink:href="#stroke0_315_215" transform="translate(10.6445 74.777) scale(0.0553991) rotate(-28.7502)"/>
<use xlink:href="#stroke0_315_215" transform="translate(33.8466 70.2168) scale(0.0552468) rotate(106.258)"/>
<use xlink:href="#stroke0_315_215" transform="translate(36.3705 74.2638) scale(0.0525022) rotate(145.352)"/>
<use xlink:href="#stroke0_315_215" transform="translate(30.782 56.3251) scale(0.0592512) rotate(52.1538)"/>
<use xlink:href="#stroke0_315_215" transform="translate(24.3234 71.7804) scale(0.0457167) rotate(-91.8912)"/>
<use xlink:href="#stroke0_315_215" transform="translate(40.725 54.116) scale(0.0533181) rotate(80.0196)"/>
<use xlink:href="#stroke0_315_215" transform="translate(26.6614 63.8138) scale(0.053376) rotate(-68.4727)"/>
<use xlink:href="#stroke0_315_215" transform="translate(45.4546 50.6091) scale(0.0442847) rotate(77.955)"/>
<use xlink:href="#stroke0_315_215" transform="translate(49.5259 45.8873) scale(0.057408) rotate(72.7774)"/>
<use xlink:href="#stroke0_315_215" transform="translate(43.288 64.2916) scale(0.0523686) rotate(-117.443)"/>
<use xlink:href="#stroke0_315_215" transform="translate(51.0017 41.171) scale(0.0572168) rotate(40.7002)"/>
<use xlink:href="#stroke0_315_215" transform="translate(50.8598 43.9381) scale(0.0446809) rotate(14.9962)"/>
<use xlink:href="#stroke0_315_215" transform="translate(65.8283 43.807) scale(0.0524297) rotate(83.2284)"/>
<use xlink:href="#stroke0_315_215" transform="translate(72.7382 57.4863) scale(0.055481) rotate(160.339)"/>
<use xlink:href="#stroke0_315_215" transform="translate(61.4258 44.1256) scale(0.0481292) rotate(9.58088)"/>
<use xlink:href="#stroke0_315_215" transform="translate(79.3859 60.6074) scale(0.0552786) rotate(169.665)"/>
<use xlink:href="#stroke0_315_215" transform="translate(81.4487 46.4094) scale(0.0545223) rotate(80.682)"/>
<use xlink:href="#stroke0_315_215" transform="translate(67.6038 60.797) scale(0.0537504) rotate(-68.6122)"/>
<use xlink:href="#stroke0_315_215" transform="translate(79.3756 47.2184) scale(0.0601998) rotate(30.9707)"/>
<use xlink:href="#stroke0_315_215" transform="translate(73.4246 62.2887) scale(0.0566616) rotate(-49.0403)"/>
<use xlink:href="#stroke0_315_215" transform="translate(92.5579 73.046) scale(0.0456399) rotate(-168.258)"/>
<use xlink:href="#stroke0_315_215" transform="translate(89.5797 81.7158) scale(0.0666619) rotate(-133.541)"/>
<use xlink:href="#stroke0_315_215" transform="translate(83.8373 74.1219) scale(0.0486979) rotate(-63.754)"/>
<use xlink:href="#stroke0_315_215" transform="translate(105.848 62.6344) scale(0.0652827) rotate(92.2721)"/>
<use xlink:href="#stroke0_315_215" transform="translate(105.893 66.0796) scale(0.0445477) rotate(124.659)"/>
<use xlink:href="#stroke0_315_215" transform="translate(104.016 51.0255) scale(0.065561) rotate(66.6606)"/>
<use xlink:href="#stroke0_315_215" transform="translate(100.38 48.783) scale(0.0503673) rotate(43.9124)"/>
<use xlink:href="#stroke0_315_215" transform="translate(96.7554 45.5654) scale(0.0536126) rotate(15.7638)"/>
<use xlink:href="#stroke0_315_215" transform="translate(96.4871 61.5171) scale(0.0584368) rotate(-103.656)"/>
<use xlink:href="#stroke0_315_215" transform="translate(102.106 35.7026) scale(0.0602873) rotate(25.6955)"/>
<use xlink:href="#stroke0_315_215" transform="translate(110.942 55.777) scale(0.0610145) rotate(-153.318)"/>
<use xlink:href="#stroke0_315_215" transform="translate(115.414 51.0043) scale(0.0604775) rotate(-163.337)"/>
<use xlink:href="#stroke0_315_215" transform="translate(120.736 29.5319) scale(0.0510836) rotate(92.0956)"/>
<use xlink:href="#stroke0_315_215" transform="translate(110.917 24.0793) scale(0.0481024) rotate(17.9649)"/>
<use xlink:href="#stroke0_315_215" transform="translate(113.57 18.4651) scale(0.0590417) rotate(22.8795)"/>
<use xlink:href="#stroke0_315_215" transform="translate(109.435 18.3301) scale(0.0671582) rotate(-12.7963)"/>
<use xlink:href="#stroke0_315_215" transform="translate(119.327 32.5533) scale(0.0501311) rotate(-112.736)"/>
<use xlink:href="#stroke0_315_215" transform="translate(122.895 11.321) scale(0.049398) rotate(19.6108)"/>
<use xlink:href="#stroke0_315_215" transform="translate(118.884 19.5978) scale(0.0530931) rotate(-55.1651)"/>
<use xlink:href="#stroke0_315_215" transform="translate(139.011 3.42334) scale(0.0658439) rotate(65.4772)"/>
<use xlink:href="#stroke0_315_215" transform="translate(131.087 25.1457) scale(0.0662298) rotate(-108.771)"/>
<use xlink:href="#stroke0_315_215" transform="translate(140.122 22.2992) scale(0.053517) rotate(-128.631)"/>
<use xlink:href="#stroke0_315_215" transform="translate(156.632 3.8724) scale(0.0593664) rotate(101)"/>
<use xlink:href="#stroke0_315_215" transform="translate(143.687 17.4281) scale(0.0515182) rotate(-100.692)"/>
<use xlink:href="#stroke0_315_215" transform="translate(145.936 14.0047) scale(0.0470662) rotate(-83.137)"/>
<use xlink:href="#stroke0_315_215" transform="translate(156.465 20.7389) scale(0.0609985) rotate(-131.453)"/>
<defs>
<g id="stroke0_315_215" data-figma-scatter-ref="stroke0_315_215_ref" data-figma-scatter="f0.28_w0_aj180_sj0.25_r0_s7166259504722092330_sw17">
<path d="M103.731 283.547C110.352 281.363 112.807 281.348 116.121 283.468C130.109 292.418 124.85 308.718 107.972 308.727C90.3768 308.737 87.0606 289.046 103.731 283.547ZM139.837 35.4146C140.937 35.1787 142.512 35.114 143.337 35.271C144.162 35.4281 146.516 35.8391 148.567 36.1851C155.802 37.4051 160.179 46.6969 156.734 53.5249C152.924 61.0769 144.715 67.5811 140.859 66.1021C135.872 64.1881 137.625 69.8792 144.066 76.5152C148.306 80.8841 150.337 81.2685 150.337 77.7066C150.337 76.6574 151.622 74.3218 153.193 72.5161C154.823 70.6412 156.597 66.9201 157.324 63.8501C158.925 57.0892 160.788 55.2289 167.369 53.8169C177.32 51.6829 185.581 56.9263 183.752 64.2153C183.293 66.0423 183.901 67.6656 186.09 70.4585C196.859 84.1975 193.875 104.273 180.596 107.418C177.049 108.258 176.832 108.532 176.773 112.27C176.739 114.448 176.365 116.987 175.943 117.912C175.255 119.417 175.946 119.564 182.506 119.31C190.415 119.003 192.674 119.705 195.953 123.487C199.054 127.064 201.598 126.114 202.609 121.002C203.503 116.483 209.096 110.731 212.596 110.731C214.841 110.731 215.934 108.156 214.449 106.367C206.1 96.3056 222.234 73.6632 235.605 76.6792C241.572 78.0252 246.302 83.6302 246.367 89.4312C246.384 90.9712 247.505 94.4811 248.858 97.231C255.362 110.453 243.304 126.225 232.777 118.263C229.924 116.105 229.837 116.226 229.837 122.341C229.837 128.93 225.932 133.292 219.049 134.393C216.068 134.87 214.933 135.67 213.775 138.116C212.964 139.829 211.55 142.415 210.63 143.863C208.984 146.456 209.02 146.565 213.147 151.254C215.451 153.871 217.337 156.555 217.337 157.218C217.337 157.882 218.074 159.901 218.974 161.706C222.148 168.067 221.073 181.731 217.4 181.731C217.052 181.731 215.97 183.081 214.995 184.731C214.02 186.381 212.573 187.731 211.779 187.731C209.595 187.731 210.044 189.817 212.863 192.76C216.384 196.435 217.425 204.867 214.728 207.858C209.503 213.649 203.05 218.01 198.064 219.122C193.944 220.041 192.83 220.705 192.804 222.259C192.669 230.389 188.242 235.387 179.682 237.077C172.845 238.427 172.072 240.31 177.577 242.203C190.358 246.597 192.892 257.693 182.442 263.506C176.521 266.799 172.426 266.758 167.515 263.354C163.894 260.845 163.161 260.686 159.679 261.653C153.737 263.303 147.363 262.934 141.337 260.593C135.874 258.47 130.724 257.068 124.689 256.061C118.715 255.064 115.151 249.943 114.592 241.551C114.184 235.417 113.671 233.745 111.425 231.231C109.951 229.581 107.986 226.544 107.058 224.481C105.42 220.844 105.211 220.731 100.164 220.731C93.7935 220.731 89.0798 217.922 86.2168 212.42C83.0468 206.327 78.9427 207.336 78.8477 214.231C78.8097 216.981 78.4233 220.817 77.9883 222.755C77.2354 226.113 77.3507 226.324 80.4366 227.255C90.5004 230.29 90.3981 247.946 80.2881 252.934C55.9904 264.92 26.2411 240.473 47.875 226.298C49.556 225.196 50.1805 223.494 50.6895 218.626C51.0495 215.185 52.1298 211.262 53.0908 209.91C54.0507 208.557 55.2736 206.856 55.8086 206.127C56.5016 205.184 56.0161 204.003 54.1221 202.017C50.6273 198.355 49.3112 194.657 49.9981 190.428C50.3281 188.392 50.1033 186.705 49.4463 186.299C48.8364 185.922 48.337 184.345 48.3369 182.794C48.3369 181.244 47.6012 179.366 46.7032 178.621C43.9996 176.376 34.3369 162.856 34.3369 161.317C34.3368 160.529 32.7627 157.822 30.8389 155.302C28.915 152.781 27.3998 150.384 27.4727 149.975C28.4457 144.478 24.6467 141.425 20.4727 144.348C18.2547 145.902 11.2222 145.776 6.86624 144.104C-3.23648 140.227 -1.78745 115.126 8.56839 114.62C14.8594 114.313 23.3369 117.551 23.3369 120.261C23.3372 122.018 26.1103 124.731 27.9073 124.731C28.6933 124.731 29.3369 124.041 29.3369 123.198C29.3372 109.814 50.1851 94.3087 69.8369 93.0767C82.9305 92.2547 88.2617 93.4969 97.1895 99.4468C101.45 102.287 108.337 96.8837 108.337 90.7007C108.337 88.6598 109.172 86.4706 110.483 85.0747C112.734 82.6789 111.804 79.7313 108.796 79.731C106.403 79.731 103.556 73.5422 104.077 69.4702C105.046 61.8843 117.633 57.7673 123.289 63.1861C125.639 65.4379 126.708 65.8083 129.245 65.2515C133.054 64.4145 133.128 63.4739 129.587 60.895C121.36 54.902 128.195 37.9086 139.837 35.4146ZM227.337 203.429C239.094 199.654 252.722 207.291 252.722 217.653C252.722 228.495 231.921 239.44 223.927 232.806C221.665 230.929 220.403 232.363 221.012 236.118C222.097 242.802 213.511 254.731 207.616 254.731C194.246 254.731 188.8 246.232 194.457 234.198C198.202 226.231 204.453 223.784 213.238 226.847C217.536 228.345 217.88 227.687 215.921 221.697C213.052 212.925 216.89 206.783 227.337 203.429ZM179.7 192.695C179.049 192.044 178.051 192.413 176.774 193.779C168.37 202.768 165.063 203.713 156.506 199.571C149.746 196.298 146.45 201.459 151.961 206.689C154.209 208.822 154.482 209.744 154.038 213.682C153.54 218.098 153.664 218.344 158.682 222.967C163.836 227.716 163.837 227.716 164.351 222.867C164.987 216.872 169.522 209.969 174.077 208.066C177.094 206.805 177.337 206.359 177.337 202.046C177.337 199.092 177.95 196.711 179.013 195.536C180.117 194.315 180.352 193.347 179.7 192.695ZM13.7354 183.697C21.2304 180.362 25.9355 181.225 32.1055 187.066C40.5644 195.074 37.0287 205.612 24.6309 209.343C9.40689 213.925 -0.704596 190.124 13.7354 183.697ZM252.956 148.251C262.129 145.732 267.81 147.203 270.983 152.921C277.397 164.478 257.352 180.919 247.179 172.445C237.093 164.044 240.016 151.805 252.956 148.251ZM175.822 162.709C174.842 161.123 172.482 161.589 171.417 163.579C170.283 165.699 171.384 170.913 173.086 171.481C174.366 171.905 176.761 164.229 175.822 162.709ZM150.152 111.481C150.492 108.526 149.534 108.177 145.513 109.79C142.108 111.155 143.035 114.231 146.851 114.231C149.365 114.231 149.886 113.796 150.152 111.481ZM156.837 98.731C156.012 98.731 155.337 99.406 155.337 100.231C155.337 101.056 156.012 101.731 156.837 101.731C157.662 101.731 158.337 101.056 158.337 100.231C158.337 99.4061 157.662 98.7312 156.837 98.731ZM131.337 85.6382C131.337 82.8002 129.491 81.4004 127.429 82.6743C126.501 83.2473 126.685 84.2905 128.185 86.9605C129.273 88.9003 130.316 91.46 130.5 92.6489C130.685 93.8379 131.287 94.905 131.837 95.021C133.25 95.317 133.729 90.7224 132.422 89.4155C131.825 88.8185 131.337 87.1191 131.337 85.6382ZM79.8369 36.9214C89.8819 31.2487 102.893 46.8492 95.6582 55.8921C92.2024 60.211 91.2042 63.981 91.8701 70.1997C92.5322 76.3837 92.4821 76.5638 89.0371 80.3628C76.0391 94.6997 55.1533 78.5005 64.8242 61.5825C66.3391 58.9327 67.3172 55.6452 67.3242 53.1753C67.3402 47.7053 72.4159 41.1124 79.8369 36.9214ZM120.896 78.731C120.653 78.731 120.177 79.1811 119.837 79.731C119.497 80.2809 119.695 80.7309 120.277 80.731C120.859 80.731 121.337 80.281 121.337 79.731C121.337 79.181 121.139 78.731 120.896 78.731ZM205.485 39.4898C219.631 37.0418 227.598 50.9151 220.597 65.8081C213.393 81.13 190.339 77.7861 190.091 61.3823C189.98 54.0764 199.509 40.5238 205.485 39.4898ZM51.8369 14.5542C64.4449 5.86451 75.68 19.3671 68.6241 34.731C62.385 48.3167 41.3372 43.775 41.3369 28.8423C41.3369 26.0333 47.6529 17.4382 51.8369 14.5542ZM108.212 2.17043C121.43 -6.81137 141.546 14.0924 133.237 28.1743C132.084 30.1297 130.819 31.7302 130.427 31.731C130.035 31.731 128.813 32.5703 127.713 33.5962C119.456 41.2872 107.786 35.7761 103.367 22.0991C100.152 12.1461 101.463 6.75643 108.212 2.17043Z" fill="white"/>
</g>
<path id="stroke0_315_215_ref" d="M158.377 8.28125C183.228 8.28125 205.143 29.6924 218.12 62.2793C236.016 28.811 265.639 7.47439 298.101 9.06348C331.569 10.702 359.653 36.2997 373.815 73.1309C382.899 60.4215 394.933 52.6828 408.133 52.6826C436.428 52.6826 459.365 88.236 459.365 132.093C459.365 175.95 436.428 211.503 408.133 211.503C394.092 211.503 381.371 202.747 372.117 188.567C355.413 229.331 322.536 256.469 286.076 254.684C256.892 253.255 231.801 233.608 216.465 204.181C203.326 234.518 182.201 254.195 158.377 254.195C130.838 254.195 106.903 227.903 94.7432 189.244C85.5858 202.52 73.2839 210.648 59.7559 210.648C31.4611 210.648 8.52344 175.095 8.52344 131.238C8.52349 87.3815 31.4612 51.8291 59.7559 51.8291C73.2839 51.8291 85.5867 59.9563 94.7441 73.2324C106.904 34.5743 130.838 8.2813 158.377 8.28125Z"/>
</defs>
</svg>
