<svg width="655" height="408" viewBox="0 0 655 408" fill="none" xmlns="http://www.w3.org/2000/svg" xmlns:xlink="http://www.w3.org/1999/xlink">
<path d="M300.457 94.1433C327.526 41.1852 372.152 7.36333 420.958 9.75265C469.578 12.133 510.56 49.8729 532.39 104.88C543.675 93.4876 557.149 86.8679 571.621 86.8679C611.376 86.8681 643.604 136.822 643.604 198.442C643.604 260.063 611.376 310.016 571.621 310.016C557.114 310.016 543.61 303.364 532.308 291.921C507.215 357.416 457.255 401.25 401.924 398.541C356.053 396.295 316.981 362.575 294.377 312.575C274.383 348.056 245.29 370.395 212.902 370.395C174.384 370.395 140.526 338.8 121.092 291.08C109.863 302.303 96.4902 308.816 82.1357 308.816C42.3806 308.816 10.1523 258.862 10.1523 197.242C10.1524 135.621 42.3806 85.6679 82.1357 85.6677C96.5453 85.6677 109.965 92.2317 121.221 103.534C140.676 55.9906 174.47 24.5349 212.902 24.5349C248.744 24.5351 280.552 51.8928 300.457 94.1433Z" fill="white"/>
<use xlink:href="#stroke0_315_237" transform="translate(304.485 83.2501) scale(0.0564343) rotate(61.6971)"/>
<use xlink:href="#stroke0_315_237" transform="translate(308.769 83.1929) scale(0.0478442) rotate(82.4701)"/>
<use xlink:href="#stroke0_315_237" transform="translate(294.386 94.7435) scale(0.0612011) rotate(-86.7062)"/>
<use xlink:href="#stroke0_315_237" transform="translate(294.423 85.4541) scale(0.0604329) rotate(-60.2044)"/>
<use xlink:href="#stroke0_315_237" transform="translate(304.965 92.1732) scale(0.0682837) rotate(-121.283)"/>
<use xlink:href="#stroke0_315_237" transform="translate(310.894 86.9633) scale(0.0600424) rotate(-134.474)"/>
<use xlink:href="#stroke0_315_237" transform="translate(311.801 59.4185) scale(0.0572327) rotate(29.2619)"/>
<use xlink:href="#stroke0_315_237" transform="translate(314.092 55.9958) scale(0.0568596) rotate(28.0595)"/>
<use xlink:href="#stroke0_315_237" transform="translate(319.793 74.156) scale(0.0487142) rotate(-142.038)"/>
<use xlink:href="#stroke0_315_237" transform="translate(316.363 47.978) scale(0.0672565) rotate(17.797)"/>
<use xlink:href="#stroke0_315_237" transform="translate(329.548 47.0637) scale(0.0538492) rotate(66.5865)"/>
<use xlink:href="#stroke0_315_237" transform="translate(337.014 52.9142) scale(0.0473643) rotate(123.981)"/>
<use xlink:href="#stroke0_315_237" transform="translate(336.667 60.3625) scale(0.0548658) rotate(-175.04)"/>
<use xlink:href="#stroke0_315_237" transform="translate(326.326 41.5242) scale(0.0455472) rotate(-0.532048)"/>
<use xlink:href="#stroke0_315_237" transform="translate(325.98 40.4078) scale(0.0520742) rotate(-18.0444)"/>
<use xlink:href="#stroke0_315_237" transform="translate(327.439 46.9488) scale(0.055516) rotate(-68.7214)"/>
<use xlink:href="#stroke0_315_237" transform="translate(354.569 38.15) scale(0.0639276) rotate(123.494)"/>
<use xlink:href="#stroke0_315_237" transform="translate(334.339 28.6107) scale(0.0664129) rotate(-12.0785)"/>
<use xlink:href="#stroke0_315_237" transform="translate(343.209 42.8533) scale(0.051125) rotate(-106.309)"/>
<use xlink:href="#stroke0_315_237" transform="translate(342.859 40.0205) scale(0.0621609) rotate(-91.0764)"/>
<use xlink:href="#stroke0_315_237" transform="translate(362.314 22.4157) scale(0.0455796) rotate(86.5369)"/>
<use xlink:href="#stroke0_315_237" transform="translate(351.224 32.9866) scale(0.045684) rotate(-87.1373)"/>
<use xlink:href="#stroke0_315_237" transform="translate(361.41 12.2114) scale(0.0621411) rotate(38.3956)"/>
<use xlink:href="#stroke0_315_237" transform="translate(356.486 25.268) scale(0.0460049) rotate(-62.7763)"/>
<use xlink:href="#stroke0_315_237" transform="translate(357.769 26.4058) scale(0.0618124) rotate(-73.5247)"/>
<use xlink:href="#stroke0_315_237" transform="translate(367.617 6.97623) scale(0.065271) rotate(14.5797)"/>
<use xlink:href="#stroke0_315_237" transform="translate(367.866 18.7952) scale(0.0481334) rotate(-57.4758)"/>
<use xlink:href="#stroke0_315_237" transform="translate(385.983 26.7321) scale(0.0574653) rotate(-161.342)"/>
<use xlink:href="#stroke0_315_237" transform="translate(375.1 13.3734) scale(0.049755) rotate(-42.2451)"/>
<use xlink:href="#stroke0_315_237" transform="translate(382.333 22.7823) scale(0.0566014) rotate(-102.711)"/>
<use xlink:href="#stroke0_315_237" transform="translate(402.054 3.4628) scale(0.0597302) rotate(85.7878)"/>
<use xlink:href="#stroke0_315_237" transform="translate(402.689 -1.858) scale(0.0673854) rotate(60.2933)"/>
<use xlink:href="#stroke0_315_237" transform="translate(392.833 6.6454) scale(0.051428) rotate(-26.9518)"/>
<use xlink:href="#stroke0_315_237" transform="translate(408.074 -1.39226) scale(0.0561083) rotate(48.0313)"/>
<use xlink:href="#stroke0_315_237" transform="translate(415.604 -3.30422) scale(0.0666099) rotate(59.2376)"/>
<use xlink:href="#stroke0_315_237" transform="translate(413.705 0.0265837) scale(0.0477443) rotate(29.3183)"/>
<use xlink:href="#stroke0_315_237" transform="translate(429.989 15.0457) scale(0.0562395) rotate(158.911)"/>
<use xlink:href="#stroke0_315_237" transform="translate(414.48 16.5209) scale(0.0562463) rotate(-83.1857)"/>
<use xlink:href="#stroke0_315_237" transform="translate(429.954 19.375) scale(0.0451111) rotate(-151.675)"/>
<use xlink:href="#stroke0_315_237" transform="translate(419.341 7.27117) scale(0.0638286) rotate(-32.5147)"/>
<use xlink:href="#stroke0_315_237" transform="translate(449.49 16.849) scale(0.0661744) rotate(153.057)"/>
<use xlink:href="#stroke0_315_237" transform="translate(445.238 20.9584) scale(0.0448095) rotate(-166.319)"/>
<use xlink:href="#stroke0_315_237" transform="translate(439.756 3.31693) scale(0.0563765) rotate(16.3904)"/>
<use xlink:href="#stroke0_315_237" transform="translate(456.159 24.3434) scale(0.0572317) rotate(-177.374)"/>
<use xlink:href="#stroke0_315_237" transform="translate(447.75 6.50413) scale(0.0550349) rotate(14.9548)"/>
<use xlink:href="#stroke0_315_237" transform="translate(458.56 8.03654) scale(0.0503159) rotate(52.8632)"/>
<use xlink:href="#stroke0_315_237" transform="translate(470.759 14.1469) scale(0.0582166) rotate(102.614)"/>
<use xlink:href="#stroke0_315_237" transform="translate(472.82 31.2935) scale(0.0612609) rotate(178.983)"/>
<use xlink:href="#stroke0_315_237" transform="translate(461.503 35.0284) scale(0.0620214) rotate(-105.848)"/>
<use xlink:href="#stroke0_315_237" transform="translate(468.108 37.6154) scale(0.0568686) rotate(-117.8)"/>
<use xlink:href="#stroke0_315_237" transform="translate(485.777 31.4089) scale(0.0505585) rotate(145.06)"/>
<use xlink:href="#stroke0_315_237" transform="translate(487.806 40.1708) scale(0.0600463) rotate(176.522)"/>
<use xlink:href="#stroke0_315_237" transform="translate(473.514 27.6306) scale(0.0537769) rotate(-13.0298)"/>
<use xlink:href="#stroke0_315_237" transform="translate(480.355 28.1676) scale(0.0476947) rotate(9.81213)"/>
<use xlink:href="#stroke0_315_237" transform="translate(492.21 49.6407) scale(0.0544496) rotate(-158.334)"/>
<use xlink:href="#stroke0_315_237" transform="translate(481.984 33.8836) scale(0.0617341) rotate(-8.23382)"/>
<use xlink:href="#stroke0_315_237" transform="translate(487.004 50.256) scale(0.0447774) rotate(-83.6143)"/>
<use xlink:href="#stroke0_315_237" transform="translate(508.062 55.7965) scale(0.0641819) rotate(167.723)"/>
<use xlink:href="#stroke0_315_237" transform="translate(507.738 57.0878) scale(0.0465702) rotate(170.001)"/>
<use xlink:href="#stroke0_315_237" transform="translate(514.473 56.5023) scale(0.05775) rotate(142.924)"/>
<use xlink:href="#stroke0_315_237" transform="translate(497.962 64.1706) scale(0.0492052) rotate(-91.3717)"/>
<use xlink:href="#stroke0_315_237" transform="translate(510.398 69.5407) scale(0.0472974) rotate(-155.04)"/>
<use xlink:href="#stroke0_315_237" transform="translate(498.129 59.1788) scale(0.0619951) rotate(-28.4957)"/>
<use xlink:href="#stroke0_315_237" transform="translate(521.915 68.1317) scale(0.046241) rotate(138.551)"/>
<use xlink:href="#stroke0_315_237" transform="translate(508.523 77.9365) scale(0.0483905) rotate(-101.945)"/>
<use xlink:href="#stroke0_315_237" transform="translate(527.507 69.0129) scale(0.0569211) rotate(109.756)"/>
<use xlink:href="#stroke0_315_237" transform="translate(520.386 89.8578) scale(0.0618387) rotate(-145.053)"/>
<use xlink:href="#stroke0_315_237" transform="translate(527.903 90.5059) scale(0.0560979) rotate(-174.195)"/>
<use xlink:href="#stroke0_315_237" transform="translate(522.648 71.3986) scale(0.067493) rotate(38.2283)"/>
<use xlink:href="#stroke0_315_237" transform="translate(530.019 98.6807) scale(0.0507549) rotate(-164.469)"/>
<use xlink:href="#stroke0_315_237" transform="translate(537.602 99.0996) scale(0.0582713) rotate(161.852)"/>
<use xlink:href="#stroke0_315_237" transform="translate(529.154 108.876) scale(0.057526) rotate(-138.875)"/>
<use xlink:href="#stroke0_315_237" transform="translate(536.359 92.2137) scale(0.0499006) rotate(74.7049)"/>
<use xlink:href="#stroke0_315_237" transform="translate(543.635 105.112) scale(0.0554235) rotate(134.411)"/>
<use xlink:href="#stroke0_315_237" transform="translate(526.047 95.2205) scale(0.0558415) rotate(-11.1111)"/>
<use xlink:href="#stroke0_315_237" transform="translate(533.756 88.6882) scale(0.0568489) rotate(17.8902)"/>
<use xlink:href="#stroke0_315_237" transform="translate(549.223 107.271) scale(0.0621255) rotate(-172.747)"/>
<use xlink:href="#stroke0_315_237" transform="translate(538.005 88.5987) scale(0.0461875) rotate(-10.6887)"/>
<use xlink:href="#stroke0_315_237" transform="translate(551.863 102.397) scale(0.0498128) rotate(-156.602)"/>
<use xlink:href="#stroke0_315_237" transform="translate(546.126 101.38) scale(0.0596681) rotate(-107.522)"/>
<use xlink:href="#stroke0_315_237" transform="translate(557.123 101.755) scale(0.0607926) rotate(-140.256)"/>
<use xlink:href="#stroke0_315_237" transform="translate(568.867 83.7063) scale(0.0453826) rotate(102.962)"/>
<use xlink:href="#stroke0_315_237" transform="translate(566.416 96.7758) scale(0.0465995) rotate(-152.614)"/>
<use xlink:href="#stroke0_315_237" transform="translate(561.196 93.8405) scale(0.0452715) rotate(-95.4546)"/>
<use xlink:href="#stroke0_315_237" transform="translate(559.67 92.6956) scale(0.0652835) rotate(-74.2991)"/>
<use xlink:href="#stroke0_315_237" transform="translate(585.389 89.6124) scale(0.0470162) rotate(146.601)"/>
<use xlink:href="#stroke0_315_237" transform="translate(588.75 83.7823) scale(0.0479202) rotate(108.931)"/>
<use xlink:href="#stroke0_315_237" transform="translate(574.292 94.5295) scale(0.0535221) rotate(-82.6658)"/>
<use xlink:href="#stroke0_315_237" transform="translate(588.968 103.692) scale(0.068137) rotate(-143.181)"/>
<use xlink:href="#stroke0_315_237" transform="translate(603.279 97.2003) scale(0.0597285) rotate(158.687)"/>
<use xlink:href="#stroke0_315_237" transform="translate(586.779 93.412) scale(0.044245) rotate(-48.8884)"/>
<use xlink:href="#stroke0_315_237" transform="translate(607.058 87.6) scale(0.0537731) rotate(87.4554)"/>
<use xlink:href="#stroke0_315_237" transform="translate(593.174 96.082) scale(0.0441779) rotate(-40.3471)"/>
<use xlink:href="#stroke0_315_237" transform="translate(597.615 92.7004) scale(0.0488617) rotate(-5.68319)"/>
<use xlink:href="#stroke0_315_237" transform="translate(603.792 115.556) scale(0.0674022) rotate(-119.492)"/>
<use xlink:href="#stroke0_315_237" transform="translate(617.117 92.9888) scale(0.0682675) rotate(62.687)"/>
<use xlink:href="#stroke0_315_237" transform="translate(616.235 119.288) scale(0.0484895) rotate(-145.75)"/>
<use xlink:href="#stroke0_315_237" transform="translate(624.862 123.746) scale(0.0639355) rotate(-171.606)"/>
<use xlink:href="#stroke0_315_237" transform="translate(609.724 121.349) scale(0.0572387) rotate(-73.2731)"/>
<use xlink:href="#stroke0_315_237" transform="translate(614.678 125.968) scale(0.0491031) rotate(-86.2006)"/>
<use xlink:href="#stroke0_315_237" transform="translate(620.961 110.389) scale(0.0670115) rotate(24.3978)"/>
<use xlink:href="#stroke0_315_237" transform="translate(627.543 136.649) scale(0.0453986) rotate(-141.403)"/>
<use xlink:href="#stroke0_315_237" transform="translate(628.776 142.523) scale(0.0570362) rotate(-138.16)"/>
<use xlink:href="#stroke0_315_237" transform="translate(638.736 123.529) scale(0.0679283) rotate(75.5629)"/>
<use xlink:href="#stroke0_315_237" transform="translate(638.684 129.597) scale(0.055912) rotate(72.5743)"/>
<use xlink:href="#stroke0_315_237" transform="translate(622.671 138.954) scale(0.0609503) rotate(-26.8597)"/>
<use xlink:href="#stroke0_315_237" transform="translate(636.436 160.588) scale(0.0612366) rotate(-141.284)"/>
<use xlink:href="#stroke0_315_237" transform="translate(632.499 160.988) scale(0.0490025) rotate(-111.487)"/>
<use xlink:href="#stroke0_315_237" transform="translate(639.256 144.575) scale(0.0549395) rotate(46.9289)"/>
<use xlink:href="#stroke0_315_237" transform="translate(635.777 149.503) scale(0.0527355) rotate(23.1716)"/>
<use xlink:href="#stroke0_315_237" transform="translate(630.247 172.438) scale(0.0628164) rotate(-88.7299)"/>
<use xlink:href="#stroke0_315_237" transform="translate(637.395 177.019) scale(0.0462391) rotate(-116.817)"/>
<use xlink:href="#stroke0_315_237" transform="translate(633.445 162.622) scale(0.0612216) rotate(1.03963)"/>
<use xlink:href="#stroke0_315_237" transform="translate(632.681 177.845) scale(0.0467971) rotate(-57.8077)"/>
<use xlink:href="#stroke0_315_237" transform="translate(641.723 170.588) scale(0.0447904) rotate(35.9428)"/>
<use xlink:href="#stroke0_315_237" transform="translate(631.194 180.974) scale(0.0587749) rotate(-35.6103)"/>
<use xlink:href="#stroke0_315_237" transform="translate(652.873 189.55) scale(0.047456) rotate(142.121)"/>
<use xlink:href="#stroke0_315_237" transform="translate(638.369 180.478) scale(0.0605657) rotate(17.1934)"/>
<use xlink:href="#stroke0_315_237" transform="translate(637.09 202.702) scale(0.0457339) rotate(-94.9477)"/>
<use xlink:href="#stroke0_315_237" transform="translate(656.28 195.732) scale(0.0652411) rotate(112.253)"/>
<use xlink:href="#stroke0_315_237" transform="translate(646.105 193.437) scale(0.0565227) rotate(54.3942)"/>
<use xlink:href="#stroke0_315_237" transform="translate(641.18 199.677) scale(0.0447105) rotate(28.0296)"/>
<use xlink:href="#stroke0_315_237" transform="translate(638.669 202.157) scale(0.0540738) rotate(18.2319)"/>
<use xlink:href="#stroke0_315_237" transform="translate(647.741 224.728) scale(0.0479289) rotate(-169.383)"/>
<use xlink:href="#stroke0_315_237" transform="translate(634.003 226.228) scale(0.0503427) rotate(-85.7128)"/>
<use xlink:href="#stroke0_315_237" transform="translate(635.862 233.3) scale(0.0537744) rotate(-106.635)"/>
<use xlink:href="#stroke0_315_237" transform="translate(645.123 216.083) scale(0.0625871) rotate(60.0726)"/>
<use xlink:href="#stroke0_315_237" transform="translate(638.705 222.232) scale(0.0504806) rotate(33.2101)"/>
<use xlink:href="#stroke0_315_237" transform="translate(643.552 246.58) scale(0.0536016) rotate(-161.069)"/>
<use xlink:href="#stroke0_315_237" transform="translate(646.767 245.009) scale(0.0470351) rotate(161.77)"/>
<use xlink:href="#stroke0_315_237" transform="translate(628.516 242.171) scale(0.0441194) rotate(-40.3805)"/>
<use xlink:href="#stroke0_315_237" transform="translate(645.564 240.537) scale(0.054558) rotate(95.8593)"/>
<use xlink:href="#stroke0_315_237" transform="translate(645.477 244.343) scale(0.0607392) rotate(97.9229)"/>
<use xlink:href="#stroke0_315_237" transform="translate(631.635 242.261) scale(0.0662508) rotate(34.0382)"/>
<use xlink:href="#stroke0_315_237" transform="translate(642.838 262.181) scale(0.0553931) rotate(142.032)"/>
<use xlink:href="#stroke0_315_237" transform="translate(641.282 262.195) scale(0.0559837) rotate(122.621)"/>
<use xlink:href="#stroke0_315_237" transform="translate(629.026 281.621) scale(0.0658467) rotate(-143.596)"/>
<use xlink:href="#stroke0_315_237" transform="translate(613.532 272.12) scale(0.0585641) rotate(-47.797)"/>
<use xlink:href="#stroke0_315_237" transform="translate(615.446 265.094) scale(0.0663217) rotate(7.10743)"/>
<use xlink:href="#stroke0_315_237" transform="translate(633.144 283.634) scale(0.0637846) rotate(145.224)"/>
<use xlink:href="#stroke0_315_237" transform="translate(621.194 273.887) scale(0.0521336) rotate(59.9527)"/>
<use xlink:href="#stroke0_315_237" transform="translate(621.892 279.355) scale(0.0491078) rotate(81.6793)"/>
<use xlink:href="#stroke0_315_237" transform="translate(612.69 304.302) scale(0.0676072) rotate(-139.762)"/>
<use xlink:href="#stroke0_315_237" transform="translate(602.107 287.126) scale(0.0468163) rotate(-7.25806)"/>
<use xlink:href="#stroke0_315_237" transform="translate(617.665 297.7) scale(0.0549666) rotate(139.557)"/>
<use xlink:href="#stroke0_315_237" transform="translate(593.05 294.585) scale(0.0534509) rotate(-26.6692)"/>
<use xlink:href="#stroke0_315_237" transform="translate(611.795 307.243) scale(0.0661745) rotate(157.189)"/>
<use xlink:href="#stroke0_315_237" transform="translate(607.066 303.803) scale(0.05604) rotate(131.853)"/>
<use xlink:href="#stroke0_315_237" transform="translate(588.33 292.273) scale(0.0672571) rotate(28.9391)"/>
<use xlink:href="#stroke0_315_237" transform="translate(592.81 298.825) scale(0.0499456) rotate(74.7592)"/>
<use xlink:href="#stroke0_315_237" transform="translate(581.091 298.094) scale(0.0519306) rotate(28.7131)"/>
<use xlink:href="#stroke0_315_237" transform="translate(582.179 318.49) scale(0.046111) rotate(-153.186)"/>
<use xlink:href="#stroke0_315_237" transform="translate(570.455 319.172) scale(0.0529893) rotate(-107.75)"/>
<use xlink:href="#stroke0_315_237" transform="translate(576.753 301.82) scale(0.0452869) rotate(69.8934)"/>
<use xlink:href="#stroke0_315_237" transform="translate(578.999 310.991) scale(0.0505328) rotate(137.294)"/>
<use xlink:href="#stroke0_315_237" transform="translate(565.149 298.039) scale(0.055732) rotate(44.0084)"/>
<use xlink:href="#stroke0_315_237" transform="translate(573.228 305.813) scale(0.0651553) rotate(119.418)"/>
<use xlink:href="#stroke0_315_237" transform="translate(561.955 314.996) scale(0.0468948) rotate(-176.561)"/>
<use xlink:href="#stroke0_315_237" transform="translate(542.525 311.944) scale(0.0559055) rotate(-79.827)"/>
<use xlink:href="#stroke0_315_237" transform="translate(542.473 291.88) scale(0.065069) rotate(16.0437)"/>
<use xlink:href="#stroke0_315_237" transform="translate(557.343 303.795) scale(0.0663303) rotate(141.344)"/>
<use xlink:href="#stroke0_315_237" transform="translate(549.649 297.287) scale(0.0457368) rotate(120.937)"/>
<use xlink:href="#stroke0_315_237" transform="translate(546.97 297.08) scale(0.0451926) rotate(132.816)"/>
<use xlink:href="#stroke0_315_237" transform="translate(538.374 304.664) scale(0.0527406) rotate(-157.454)"/>
<use xlink:href="#stroke0_315_237" transform="translate(530.872 282.626) scale(0.0466819) rotate(33.313)"/>
<use xlink:href="#stroke0_315_237" transform="translate(542.979 292.195) scale(0.0625087) rotate(114.129)"/>
<use xlink:href="#stroke0_315_237" transform="translate(530.804 289.956) scale(0.0492939) rotate(51.2972)"/>
<use xlink:href="#stroke0_315_237" transform="translate(539.086 309.121) scale(0.062482) rotate(155.614)"/>
<use xlink:href="#stroke0_315_237" transform="translate(514.681 303.268) scale(0.0571393) rotate(-24.8919)"/>
<use xlink:href="#stroke0_315_237" transform="translate(532.735 315.328) scale(0.0474622) rotate(153.943)"/>
<use xlink:href="#stroke0_315_237" transform="translate(533.643 315.042) scale(0.0569733) rotate(130.973)"/>
<use xlink:href="#stroke0_315_237" transform="translate(508.349 324.443) scale(0.0613647) rotate(-73.5269)"/>
<use xlink:href="#stroke0_315_237" transform="translate(521.229 334.071) scale(0.0564125) rotate(-156.743)"/>
<use xlink:href="#stroke0_315_237" transform="translate(511.135 335.914) scale(0.0503477) rotate(-113.318)"/>
<use xlink:href="#stroke0_315_237" transform="translate(520.982 337.62) scale(0.0522415) rotate(177.419)"/>
<use xlink:href="#stroke0_315_237" transform="translate(511.191 344.182) scale(0.0530495) rotate(-137.744)"/>
<use xlink:href="#stroke0_315_237" transform="translate(497.016 331.595) scale(0.0632709) rotate(-24.3432)"/>
<use xlink:href="#stroke0_315_237" transform="translate(515.797 340.148) scale(0.0451317) rotate(130.305)"/>
<use xlink:href="#stroke0_315_237" transform="translate(491.989 342.235) scale(0.0594177) rotate(-42.4778)"/>
<use xlink:href="#stroke0_315_237" transform="translate(501.452 359.007) scale(0.0579707) rotate(-138.77)"/>
<use xlink:href="#stroke0_315_237" transform="translate(494.623 338.449) scale(0.06214) rotate(23.6122)"/>
<use xlink:href="#stroke0_315_237" transform="translate(484.206 350.041) scale(0.0584993) rotate(-28.7958)"/>
<use xlink:href="#stroke0_315_237" transform="translate(490.776 346.642) scale(0.052411) rotate(31.1441)"/>
<use xlink:href="#stroke0_315_237" transform="translate(491.427 372.651) scale(0.0602652) rotate(-146.429)"/>
<use xlink:href="#stroke0_315_237" transform="translate(475.387 360.892) scale(0.0559231) rotate(-35.5845)"/>
<use xlink:href="#stroke0_315_237" transform="translate(492.761 360.111) scale(0.0541116) rotate(97.2743)"/>
<use xlink:href="#stroke0_315_237" transform="translate(488.806 373.459) scale(0.0451623) rotate(160.923)"/>
<use xlink:href="#stroke0_315_237" transform="translate(468.865 381.581) scale(0.0643377) rotate(-97.7123)"/>
<use xlink:href="#stroke0_315_237" transform="translate(478.624 384.508) scale(0.0541223) rotate(-163.13)"/>
<use xlink:href="#stroke0_315_237" transform="translate(462.511 367.006) scale(0.0620562) rotate(3.01595)"/>
<use xlink:href="#stroke0_315_237" transform="translate(476.41 373.507) scale(0.055359) rotate(99.2861)"/>
<use xlink:href="#stroke0_315_237" transform="translate(454.094 376.392) scale(0.0519293) rotate(-18.3163)"/>
<use xlink:href="#stroke0_315_237" transform="translate(466.061 375.313) scale(0.0507357) rotate(77.0824)"/>
<use xlink:href="#stroke0_315_237" transform="translate(443.651 379.552) scale(0.0677664) rotate(-21.123)"/>
<use xlink:href="#stroke0_315_237" transform="translate(438.291 389.757) scale(0.0646805) rotate(-55.0702)"/>
<use xlink:href="#stroke0_315_237" transform="translate(442.914 377.043) scale(0.0674117) rotate(24.5887)"/>
<use xlink:href="#stroke0_315_237" transform="translate(441.089 401.474) scale(0.0470955) rotate(-127.975)"/>
<use xlink:href="#stroke0_315_237" transform="translate(430.342 391.089) scale(0.0458113) rotate(-35.9903)"/>
<use xlink:href="#stroke0_315_237" transform="translate(429.448 386.895) scale(0.0482767) rotate(-0.868614)"/>
<use xlink:href="#stroke0_315_237" transform="translate(443.361 402.441) scale(0.064995) rotate(163.077)"/>
<use xlink:href="#stroke0_315_237" transform="translate(437.28 394.222) scale(0.047192) rotate(118.414)"/>
<use xlink:href="#stroke0_315_237" transform="translate(415.461 387.631) scale(0.061501) rotate(0.489777)"/>
<use xlink:href="#stroke0_315_237" transform="translate(427.925 404.382) scale(0.0519096) rotate(169.158)"/>
<use xlink:href="#stroke0_315_237" transform="translate(425.837 402.086) scale(0.0536189) rotate(151.603)"/>
<use xlink:href="#stroke0_315_237" transform="translate(422.724 395.291) scale(0.0580425) rotate(115.531)"/>
<use xlink:href="#stroke0_315_237" transform="translate(396.195 397.967) scale(0.0526755) rotate(-44.9364)"/>
<use xlink:href="#stroke0_315_237" transform="translate(407.9 408.022) scale(0.0515539) rotate(-165.829)"/>
<use xlink:href="#stroke0_315_237" transform="translate(399.837 384.369) scale(0.0680653) rotate(46.9258)"/>
<use xlink:href="#stroke0_315_237" transform="translate(397.262 388.497) scale(0.0479602) rotate(60.1339)"/>
<use xlink:href="#stroke0_315_237" transform="translate(398.15 387.374) scale(0.0622961) rotate(81.2369)"/>
<use xlink:href="#stroke0_315_237" transform="translate(373.534 392.074) scale(0.0609094) rotate(-28.8323)"/>
<use xlink:href="#stroke0_315_237" transform="translate(386.611 405.075) scale(0.0547993) rotate(-168.151)"/>
<use xlink:href="#stroke0_315_237" transform="translate(387.152 389.315) scale(0.0543013) rotate(106.024)"/>
<use xlink:href="#stroke0_315_237" transform="translate(383.34 401.649) scale(0.0680638) rotate(171.58)"/>
<use xlink:href="#stroke0_315_237" transform="translate(364.683 380.695) scale(0.0528764) rotate(21.7574)"/>
<use xlink:href="#stroke0_315_237" transform="translate(358.024 398.384) scale(0.0544488) rotate(-102.706)"/>
<use xlink:href="#stroke0_315_237" transform="translate(370.768 390.893) scale(0.0501083) rotate(150.172)"/>
<use xlink:href="#stroke0_315_237" transform="translate(362.567 375.736) scale(0.0544272) rotate(68.4142)"/>
<use xlink:href="#stroke0_315_237" transform="translate(342.661 385.048) scale(0.0548847) rotate(-55.7584)"/>
<use xlink:href="#stroke0_315_237" transform="translate(354.873 391.252) scale(0.052207) rotate(-163.162)"/>
<use xlink:href="#stroke0_315_237" transform="translate(357.442 380.326) scale(0.0501723) rotate(137.069)"/>
<use xlink:href="#stroke0_315_237" transform="translate(355.648 379.575) scale(0.0591028) rotate(144.244)"/>
<use xlink:href="#stroke0_315_237" transform="translate(329.63 379.339) scale(0.0575345) rotate(-74.5811)"/>
<use xlink:href="#stroke0_315_237" transform="translate(336.344 384.95) scale(0.0672774) rotate(-137.461)"/>
<use xlink:href="#stroke0_315_237" transform="translate(343.79 367.73) scale(0.0512455) rotate(129.405)"/>
<use xlink:href="#stroke0_315_237" transform="translate(321.318 369.072) scale(0.0479233) rotate(-69.8522)"/>
<use xlink:href="#stroke0_315_237" transform="translate(328.58 351.823) scale(0.053313) rotate(45.5605)"/>
<use xlink:href="#stroke0_315_237" transform="translate(329.907 369.071) scale(0.05041) rotate(-166.394)"/>
<use xlink:href="#stroke0_315_237" transform="translate(317.263 346.859) scale(0.0548123) rotate(14.3585)"/>
<use xlink:href="#stroke0_315_237" transform="translate(314.479 363.639) scale(0.0544019) rotate(-110.821)"/>
<use xlink:href="#stroke0_315_237" transform="translate(324.96 345.789) scale(0.0443512) rotate(98.0862)"/>
<use xlink:href="#stroke0_315_237" transform="translate(322.113 356.949) scale(0.0564994) rotate(-176.364)"/>
<use xlink:href="#stroke0_315_237" transform="translate(314.003 353.811) scale(0.0450156) rotate(-146.64)"/>
<use xlink:href="#stroke0_315_237" transform="translate(302.117 348.515) scale(0.0531327) rotate(-88.0196)"/>
<use xlink:href="#stroke0_315_237" transform="translate(296.661 342.253) scale(0.0596963) rotate(-68.9068)"/>
<use xlink:href="#stroke0_315_237" transform="translate(307.715 320.172) scale(0.0674244) rotate(50.1496)"/>
<use xlink:href="#stroke0_315_237" transform="translate(290.574 335.208) scale(0.066489) rotate(-73.2802)"/>
<use xlink:href="#stroke0_315_237" transform="translate(297.073 335.556) scale(0.0518935) rotate(-118.109)"/>
<use xlink:href="#stroke0_315_237" transform="translate(307.678 326.597) scale(0.0470317) rotate(158.297)"/>
<use xlink:href="#stroke0_315_237" transform="translate(305.881 322.844) scale(0.0447432) rotate(155.382)"/>
<use xlink:href="#stroke0_315_237" transform="translate(302.936 309.387) scale(0.0466387) rotate(88.1309)"/>
<use xlink:href="#stroke0_315_237" transform="translate(296.716 301.73) scale(0.0544607) rotate(53.7584)"/>
<use xlink:href="#stroke0_315_237" transform="translate(294.185 330.439) scale(0.0676114) rotate(-147.735)"/>
<use xlink:href="#stroke0_315_237" transform="translate(296.774 329.685) scale(0.0561791) rotate(-177.679)"/>
<use xlink:href="#stroke0_315_237" transform="translate(280.844 316.06) scale(0.0499216) rotate(2.76916)"/>
<use xlink:href="#stroke0_315_237" transform="translate(272.048 331.277) scale(0.064258) rotate(-64.5153)"/>
<use xlink:href="#stroke0_315_237" transform="translate(281.686 341.799) scale(0.0516013) rotate(-136.203)"/>
<use xlink:href="#stroke0_315_237" transform="translate(282.982 344.102) scale(0.0504792) rotate(-156.929)"/>
<use xlink:href="#stroke0_315_237" transform="translate(270.902 330.037) scale(0.0463413) rotate(-1.08382)"/>
<use xlink:href="#stroke0_315_237" transform="translate(268.58 332.569) scale(0.0466836) rotate(-0.463543)"/>
<use xlink:href="#stroke0_315_237" transform="translate(263.929 346.476) scale(0.0465617) rotate(-74.3303)"/>
<use xlink:href="#stroke0_315_237" transform="translate(260.239 354.232) scale(0.0630026) rotate(-92.3317)"/>
<use xlink:href="#stroke0_315_237" transform="translate(273.878 354.399) scale(0.0469303) rotate(171.957)"/>
<use xlink:href="#stroke0_315_237" transform="translate(262.504 361.39) scale(0.0527219) rotate(-132.44)"/>
<use xlink:href="#stroke0_315_237" transform="translate(247.313 354.658) scale(0.0630271) rotate(-54.3656)"/>
<use xlink:href="#stroke0_315_237" transform="translate(246.209 355.958) scale(0.0510014) rotate(-48.8399)"/>
<use xlink:href="#stroke0_315_237" transform="translate(258.874 348.699) scale(0.052839) rotate(71.5679)"/>
<use xlink:href="#stroke0_315_237" transform="translate(262.92 363.88) scale(0.0674142) rotate(145.705)"/>
<use xlink:href="#stroke0_315_237" transform="translate(255.621 362.723) scale(0.0489024) rotate(132.526)"/>
<use xlink:href="#stroke0_315_237" transform="translate(235.834 356.484) scale(0.0482339) rotate(1.46483)"/>
<use xlink:href="#stroke0_315_237" transform="translate(239.786 374.589) scale(0.04461) rotate(-143.899)"/>
<use xlink:href="#stroke0_315_237" transform="translate(233.22 354.472) scale(0.0606329) rotate(32.4592)"/>
<use xlink:href="#stroke0_315_237" transform="translate(237.222 375.101) scale(0.0451125) rotate(-178.231)"/>
<use xlink:href="#stroke0_315_237" transform="translate(231.6 377.149) scale(0.0443904) rotate(-161.901)"/>
<use xlink:href="#stroke0_315_237" transform="translate(228.218 378.249) scale(0.0464002) rotate(-160.93)"/>
<use xlink:href="#stroke0_315_237" transform="translate(211.224 370.296) scale(0.0477218) rotate(-50.7758)"/>
<use xlink:href="#stroke0_315_237" transform="translate(205.037 369.193) scale(0.0584153) rotate(-43.4284)"/>
<use xlink:href="#stroke0_315_237" transform="translate(215.178 359.868) scale(0.0524603) rotate(54.2144)"/>
<use xlink:href="#stroke0_315_237" transform="translate(221.569 371.251) scale(0.0645265) rotate(135.743)"/>
<use xlink:href="#stroke0_315_237" transform="translate(215.446 365.806) scale(0.0608164) rotate(112.924)"/>
<use xlink:href="#stroke0_315_237" transform="translate(206.609 357.651) scale(0.0668433) rotate(76.0985)"/>
<use xlink:href="#stroke0_315_237" transform="translate(197.256 356.278) scale(0.0582371) rotate(56.451)"/>
<use xlink:href="#stroke0_315_237" transform="translate(179.813 363.593) scale(0.0522043) rotate(-32.2075)"/>
<use xlink:href="#stroke0_315_237" transform="translate(181.126 375.67) scale(0.0566054) rotate(-112.626)"/>
<use xlink:href="#stroke0_315_237" transform="translate(185.913 374.867) scale(0.0582541) rotate(-156.611)"/>
<use xlink:href="#stroke0_315_237" transform="translate(171.054 373.371) scale(0.0673623) rotate(-108.893)"/>
<use xlink:href="#stroke0_315_237" transform="translate(175.22 372.634) scale(0.0679521) rotate(-145.851)"/>
<use xlink:href="#stroke0_315_237" transform="translate(167.912 365.998) scale(0.0476561) rotate(-127.762)"/>
<use xlink:href="#stroke0_315_237" transform="translate(161.422 364.265) scale(0.0553991) rotate(-111.824)"/>
<use xlink:href="#stroke0_315_237" transform="translate(159.529 340.746) scale(0.0552468) rotate(22.4271)"/>
<use xlink:href="#stroke0_315_237" transform="translate(163.608 338.634) scale(0.0525022) rotate(60.4215)"/>
<use xlink:href="#stroke0_315_237" transform="translate(145.121 342.972) scale(0.0592512) rotate(-34.3222)"/>
<use xlink:href="#stroke0_315_237" transform="translate(160.334 350.208) scale(0.0457167) rotate(179.765)"/>
<use xlink:href="#stroke0_315_237" transform="translate(142.841 333.68) scale(0.0533181) rotate(-10.5103)"/>
<use xlink:href="#stroke0_315_237" transform="translate(153.099 347.514) scale(0.053376) rotate(-161.84)"/>
<use xlink:href="#stroke0_315_237" transform="translate(138.48 330.006) scale(0.0442847) rotate(-18.4849)"/>
<use xlink:href="#stroke0_315_237" transform="translate(132.937 327.27) scale(0.057408) rotate(-27.3712)"/>
<use xlink:href="#stroke0_315_237" transform="translate(152.148 329.412) scale(0.0523686) rotate(137.852)"/>
<use xlink:href="#stroke0_315_237" transform="translate(127.996 328.913) scale(0.0572168) rotate(-69.077)"/>
<use xlink:href="#stroke0_315_237" transform="translate(131.113 328.735) scale(0.0446809) rotate(-99.8383)"/>
<use xlink:href="#stroke0_315_237" transform="translate(124.334 316.193) scale(0.0524297) rotate(-36.584)"/>
<use xlink:href="#stroke0_315_237" transform="translate(131.483 303.568) scale(0.055481) rotate(34.9386)"/>
<use xlink:href="#stroke0_315_237" transform="translate(127.851 320.931) scale(0.0481292) rotate(-121.182)"/>
<use xlink:href="#stroke0_315_237" transform="translate(127.422 296.734) scale(0.0552786) rotate(33.7256)"/>
<use xlink:href="#stroke0_315_237" transform="translate(116.055 306.579) scale(0.0545223) rotate(-60.4092)"/>
<use xlink:href="#stroke0_315_237" transform="translate(135.967 303.292) scale(0.0537504) rotate(145.66)"/>
<use xlink:href="#stroke0_315_237" transform="translate(119.315 308.299) scale(0.0601998) rotate(-119.127)"/>
<use xlink:href="#stroke0_315_237" transform="translate(132.213 297.546) scale(0.0566616) rotate(156.905)"/>
<use xlink:href="#stroke0_315_237" transform="translate(111.156 297.191) scale(0.0456399) rotate(-77.0978)"/>
<use xlink:href="#stroke0_315_237" transform="translate(102.551 294.245) scale(0.0666619) rotate(-43.1484)"/>
<use xlink:href="#stroke0_315_237" transform="translate(110.166 288.569) scale(0.0486979) rotate(26.494)"/>
<use xlink:href="#stroke0_315_237" transform="translate(95.7155 300.576) scale(0.0652827) rotate(-48.1018)"/>
<use xlink:href="#stroke0_315_237" transform="translate(98.0635 297.47) scale(0.0445477) rotate(-13.125)"/>
<use xlink:href="#stroke0_315_237" transform="translate(89.0546 309.175) scale(0.065561) rotate(-68.3231)"/>
<use xlink:href="#stroke0_315_237" transform="translate(89.6212 312.792) scale(0.0503673) rotate(-87.9289)"/>
<use xlink:href="#stroke0_315_237" transform="translate(89.097 317.31) scale(0.0536126) rotate(-113.133)"/>
<use xlink:href="#stroke0_315_237" transform="translate(101.686 308.064) scale(0.0584368) rotate(130.692)"/>
<use xlink:href="#stroke0_315_237" transform="translate(76.8538 317.931) scale(0.0602873) rotate(-96.534)"/>
<use xlink:href="#stroke0_315_237" transform="translate(89.6368 300.134) scale(0.0610145) rotate(87.8278)"/>
<use xlink:href="#stroke0_315_237" transform="translate(83.8659 298.82) scale(0.0604775) rotate(81.0257)"/>
<use xlink:href="#stroke0_315_237" transform="translate(62.4446 302.761) scale(0.0510836) rotate(-20.8036)"/>
<use xlink:href="#stroke0_315_237" transform="translate(60.9904 313.591) scale(0.0481024) rotate(-92.7583)"/>
<use xlink:href="#stroke0_315_237" transform="translate(54.5671 312.696) scale(0.0590417) rotate(-85.8466)"/>
<use xlink:href="#stroke0_315_237" transform="translate(55.3848 316.447) scale(0.0671582) rotate(-119.715)"/>
<use xlink:href="#stroke0_315_237" transform="translate(66.1097 303) scale(0.0501311) rotate(141.427)"/>
<use xlink:href="#stroke0_315_237" transform="translate(44.67 305.284) scale(0.049398) rotate(-85.7835)"/>
<use xlink:href="#stroke0_315_237" transform="translate(53.7197 306.95) scale(0.0530931) rotate(-160.584)"/>
<use xlink:href="#stroke0_315_237" transform="translate(32.7399 292.016) scale(0.0658439) rotate(-40.593)"/>
<use xlink:href="#stroke0_315_237" transform="translate(55.8432 293.311) scale(0.0662298) rotate(143.659)"/>
<use xlink:href="#stroke0_315_237" transform="translate(50.2841 285.219) scale(0.053517) rotate(121.764)"/>
<use xlink:href="#stroke0_315_237" transform="translate(26.9877 276.311) scale(0.0593664) rotate(-11.0569)"/>
<use xlink:href="#stroke0_315_237" transform="translate(44.4605 282.771) scale(0.0515182) rotate(144.421)"/>
<use xlink:href="#stroke0_315_237" transform="translate(40.5637 281.813) scale(0.0470662) rotate(159.198)"/>
<use xlink:href="#stroke0_315_237" transform="translate(41.2764 268.769) scale(0.0609985) rotate(107.667)"/>
<use xlink:href="#stroke0_315_237" transform="translate(16.5966 267.424) scale(0.0547623) rotate(-35.3374)"/>
<use xlink:href="#stroke0_315_237" transform="translate(13.66 263.793) scale(0.0588602) rotate(-37.2064)"/>
<use xlink:href="#stroke0_315_237" transform="translate(26.6957 273.266) scale(0.0554963) rotate(-154.154)"/>
<use xlink:href="#stroke0_315_237" transform="translate(20.787 268.119) scale(0.0460691) rotate(-130.895)"/>
<use xlink:href="#stroke0_315_237" transform="translate(29.6716 258.095) scale(0.0452233) rotate(147.581)"/>
<use xlink:href="#stroke0_315_237" transform="translate(12.6886 262.505) scale(0.0615322) rotate(-107.152)"/>
<use xlink:href="#stroke0_315_237" transform="translate(29.46 247.681) scale(0.056501) rotate(132.555)"/>
<use xlink:href="#stroke0_315_237" transform="translate(17.8234 256.625) scale(0.0667342) rotate(-144.321)"/>
<use xlink:href="#stroke0_315_237" transform="translate(9.17896 245.951) scale(0.0456993) rotate(-97.8452)"/>
<use xlink:href="#stroke0_315_237" transform="translate(11.5233 246.504) scale(0.0576022) rotate(-124.66)"/>
<use xlink:href="#stroke0_315_237" transform="translate(5.92699 237.536) scale(0.0485159) rotate(-89.1299)"/>
<use xlink:href="#stroke0_315_237" transform="translate(2.58484 227.932) scale(0.0497489) rotate(-51.7211)"/>
<use xlink:href="#stroke0_315_237" transform="translate(15.2211 232.482) scale(0.0445194) rotate(-157.79)"/>
<use xlink:href="#stroke0_315_237" transform="translate(0.273567 217.567) scale(0.056553) rotate(-36.4685)"/>
<use xlink:href="#stroke0_315_237" transform="translate(14.9414 225.648) scale(0.0504939) rotate(-159.923)"/>
<use xlink:href="#stroke0_315_237" transform="translate(14.2958 221.373) scale(0.0474605) rotate(-159.578)"/>
<use xlink:href="#stroke0_315_237" transform="translate(8.99114 194.05) scale(0.0675696) rotate(35.2787)"/>
<use xlink:href="#stroke0_315_237" transform="translate(6.27603 195.326) scale(0.0446552) rotate(15.6631)"/>
<use xlink:href="#stroke0_315_237" transform="translate(4.57837 207.944) scale(0.0467135) rotate(-102.987)"/>
<use xlink:href="#stroke0_315_237" transform="translate(0.369091 205.314) scale(0.0663101) rotate(-92.7617)"/>
<use xlink:href="#stroke0_315_237" transform="translate(15.1008 201.948) scale(0.0578069) rotate(-162.604)"/>
<use xlink:href="#stroke0_315_237" transform="translate(21.744 189.119) scale(0.0559972) rotate(143.289)"/>
<use xlink:href="#stroke0_315_237" transform="translate(-1.87419 177.437) scale(0.0656861) rotate(-28.3396)"/>
<use xlink:href="#stroke0_315_237" transform="translate(5.12165 168.262) scale(0.0542002) rotate(7.97021)"/>
<use xlink:href="#stroke0_315_237" transform="translate(13.5679 186.375) scale(0.0652513) rotate(-145.953)"/>
<use xlink:href="#stroke0_315_237" transform="translate(19.7808 174.756) scale(0.0454356) rotate(170.235)"/>
<use xlink:href="#stroke0_315_237" transform="translate(3.22211 167.597) scale(0.0494311) rotate(-61.4645)"/>
<use xlink:href="#stroke0_315_237" transform="translate(25.5123 163.57) scale(0.0571702) rotate(142.288)"/>
<use xlink:href="#stroke0_315_237" transform="translate(27.0603 159.39) scale(0.0598532) rotate(142.559)"/>
<use xlink:href="#stroke0_315_237" transform="translate(22.8841 142.785) scale(0.0581475) rotate(75.7762)"/>
<use xlink:href="#stroke0_315_237" transform="translate(30.3823 151.783) scale(0.0651476) rotate(147.073)"/>
<use xlink:href="#stroke0_315_237" transform="translate(12.1002 151.622) scale(0.0493847) rotate(-96.9626)"/>
<use xlink:href="#stroke0_315_237" transform="translate(16.6943 151.292) scale(0.0564342) rotate(-120.794)"/>
<use xlink:href="#stroke0_315_237" transform="translate(29.4125 130.741) scale(0.0469342) rotate(94.2546)"/>
<use xlink:href="#stroke0_315_237" transform="translate(25.8494 118.907) scale(0.0674496) rotate(51.2921)"/>
<use xlink:href="#stroke0_315_237" transform="translate(39.496 124.811) scale(0.0685756) rotate(118.684)"/>
<use xlink:href="#stroke0_315_237" transform="translate(30.3713 109.597) scale(0.0676676) rotate(50.3804)"/>
<use xlink:href="#stroke0_315_237" transform="translate(22.4147 127.586) scale(0.0567694) rotate(-93.8628)"/>
<use xlink:href="#stroke0_315_237" transform="translate(40.0394 104.41) scale(0.0632882) rotate(73.2778)"/>
<use xlink:href="#stroke0_315_237" transform="translate(46.1108 120.494) scale(0.0654838) rotate(173.183)"/>
<use xlink:href="#stroke0_315_237" transform="translate(43.6185 97.9395) scale(0.0538826) rotate(66.4009)"/>
<use xlink:href="#stroke0_315_237" transform="translate(51.0397 110.594) scale(0.0531474) rotate(162.409)"/>
<use xlink:href="#stroke0_315_237" transform="translate(57.852 107.197) scale(0.0681894) rotate(154.475)"/>
<use xlink:href="#stroke0_315_237" transform="translate(52.32 90.7825) scale(0.0441735) rotate(68.701)"/>
<use xlink:href="#stroke0_315_237" transform="translate(59.9921 100.584) scale(0.0480359) rotate(154.628)"/>
<use xlink:href="#stroke0_315_237" transform="translate(64.3848 99.3321) scale(0.0552342) rotate(156.966)"/>
<use xlink:href="#stroke0_315_237" transform="translate(47.7695 92.0951) scale(0.0471109) rotate(-46.817)"/>
<use xlink:href="#stroke0_315_237" transform="translate(68.6992 97.0633) scale(0.0496105) rotate(170.056)"/>
<use xlink:href="#stroke0_315_237" transform="translate(73.4997 97.1459) scale(0.0588144) rotate(173.477)"/>
<use xlink:href="#stroke0_315_237" transform="translate(58.4285 90.1032) scale(0.0500311) rotate(-62.1737)"/>
<use xlink:href="#stroke0_315_237" transform="translate(61.9439 85.8084) scale(0.0496256) rotate(-43.358)"/>
<use xlink:href="#stroke0_315_237" transform="translate(72.0952 77.4577) scale(0.0455144) rotate(18.8799)"/>
<use xlink:href="#stroke0_315_237" transform="translate(70.7621 91.1104) scale(0.0488025) rotate(-80.8152)"/>
<use xlink:href="#stroke0_315_237" transform="translate(85.4351 76.8635) scale(0.044647) rotate(57.9192)"/>
<use xlink:href="#stroke0_315_237" transform="translate(79.7767 93.5876) scale(0.0494618) rotate(-97.9769)"/>
<use xlink:href="#stroke0_315_237" transform="translate(100.524 83.7207) scale(0.0516717) rotate(117.009)"/>
<use xlink:href="#stroke0_315_237" transform="translate(101.467 93.4475) scale(0.0477115) rotate(171.238)"/>
<use xlink:href="#stroke0_315_237" transform="translate(87.2737 85.6974) scale(0.0514168) rotate(-34.7387)"/>
<use xlink:href="#stroke0_315_237" transform="translate(107.879 97.5129) scale(0.05036) rotate(-178.922)"/>
<use xlink:href="#stroke0_315_237" transform="translate(111.538 83.2635) scale(0.051157) rotate(82.0795)"/>
<use xlink:href="#stroke0_315_237" transform="translate(98.8609 83.4869) scale(0.067869) rotate(-2.97602)"/>
<use xlink:href="#stroke0_315_237" transform="translate(118.66 103.665) scale(0.0485904) rotate(-177.903)"/>
<use xlink:href="#stroke0_315_237" transform="translate(104.479 99.3779) scale(0.053403) rotate(-54.3079)"/>
<use xlink:href="#stroke0_315_237" transform="translate(117.871 89.1381) scale(0.0580176) rotate(37.75)"/>
<use xlink:href="#stroke0_315_237" transform="translate(121.477 113.207) scale(0.049288) rotate(-138.954)"/>
<use xlink:href="#stroke0_315_237" transform="translate(112.67 108.002) scale(0.0671938) rotate(-89.3222)"/>
<use xlink:href="#stroke0_315_237" transform="translate(134.164 98.8033) scale(0.0484421) rotate(154.059)"/>
<use xlink:href="#stroke0_315_237" transform="translate(129.913 100.434) scale(0.0454166) rotate(-159.976)"/>
<use xlink:href="#stroke0_315_237" transform="translate(116.816 86.6089) scale(0.0560965) rotate(-40.3194)"/>
<use xlink:href="#stroke0_315_237" transform="translate(120.953 88.8279) scale(0.0487182) rotate(-72.6615)"/>
<use xlink:href="#stroke0_315_237" transform="translate(139.305 74.2085) scale(0.0501752) rotate(86.8891)"/>
<use xlink:href="#stroke0_315_237" transform="translate(131.615 64.2716) scale(0.0661031) rotate(30.4937)"/>
<use xlink:href="#stroke0_315_237" transform="translate(143.031 67.6605) scale(0.0446532) rotate(87.3487)"/>
<use xlink:href="#stroke0_315_237" transform="translate(131.467 61.3074) scale(0.057623) rotate(4.58298)"/>
<use xlink:href="#stroke0_315_237" transform="translate(148.269 56.7537) scale(0.0609676) rotate(75.8689)"/>
<use xlink:href="#stroke0_315_237" transform="translate(154.026 68.5051) scale(0.055127) rotate(157.28)"/>
<use xlink:href="#stroke0_315_237" transform="translate(135.602 62.2273) scale(0.0532241) rotate(-58.6079)"/>
<use xlink:href="#stroke0_315_237" transform="translate(136.415 55.0695) scale(0.0630645) rotate(-40.2943)"/>
<use xlink:href="#stroke0_315_237" transform="translate(161.348 54.5182) scale(0.0453563) rotate(135.302)"/>
<use xlink:href="#stroke0_315_237" transform="translate(165.212 49.2332) scale(0.0523423) rotate(120.837)"/>
<use xlink:href="#stroke0_315_237" transform="translate(163.431 41.2913) scale(0.046267) rotate(81.3346)"/>
<use xlink:href="#stroke0_315_237" transform="translate(162.584 36.9156) scale(0.0469235) rotate(57.26)"/>
<use xlink:href="#stroke0_315_237" transform="translate(150.103 45.8475) scale(0.0646647) rotate(-58.939)"/>
<use xlink:href="#stroke0_315_237" transform="translate(177.834 45.1113) scale(0.0575522) rotate(153.765)"/>
<use xlink:href="#stroke0_315_237" transform="translate(160.894 39.4093) scale(0.0448681) rotate(-55.1657)"/>
<use xlink:href="#stroke0_315_237" transform="translate(161.202 32.1956) scale(0.062824) rotate(-30.8809)"/>
<use xlink:href="#stroke0_315_237" transform="translate(166.558 27.6624) scale(0.0613765) rotate(-19.6993)"/>
<use xlink:href="#stroke0_315_237" transform="translate(171.424 40.2997) scale(0.0664933) rotate(-88.2028)"/>
<use xlink:href="#stroke0_315_237" transform="translate(182.903 41.2144) scale(0.0584396) rotate(-121.988)"/>
<use xlink:href="#stroke0_315_237" transform="translate(197.836 20.8289) scale(0.0514904) rotate(86.9242)"/>
<use xlink:href="#stroke0_315_237" transform="translate(196.769 40.6686) scale(0.0674743) rotate(-147.514)"/>
<use xlink:href="#stroke0_315_237" transform="translate(189.362 21.4253) scale(0.0518571) rotate(-23.7164)"/>
<use xlink:href="#stroke0_315_237" transform="translate(190.82 21.8856) scale(0.0630073) rotate(-33.8472)"/>
<use xlink:href="#stroke0_315_237" transform="translate(215.123 19.0132) scale(0.046331) rotate(94.4684)"/>
<use xlink:href="#stroke0_315_237" transform="translate(222.502 24.8684) scale(0.0543036) rotate(133.023)"/>
<use xlink:href="#stroke0_315_237" transform="translate(212.433 37.7409) scale(0.0660636) rotate(-123.727)"/>
<use xlink:href="#stroke0_315_237" transform="translate(232.54 21.0189) scale(0.0605126) rotate(112.893)"/>
<use xlink:href="#stroke0_315_237" transform="translate(213.732 20.7294) scale(0.0611474) rotate(-25.6217)"/>
<use xlink:href="#stroke0_315_237" transform="translate(243.957 24.7845) scale(0.0678445) rotate(123.626)"/>
<use xlink:href="#stroke0_315_237" transform="translate(247.347 24.5496) scale(0.0627937) rotate(115.693)"/>
<use xlink:href="#stroke0_315_237" transform="translate(227.874 32.3665) scale(0.0566387) rotate(-62.4147)"/>
<use xlink:href="#stroke0_315_237" transform="translate(246.588 19.8131) scale(0.0581176) rotate(57.7766)"/>
<use xlink:href="#stroke0_315_237" transform="translate(240.739 25.7593) scale(0.0459102) rotate(1.64977)"/>
<use xlink:href="#stroke0_315_237" transform="translate(260.872 36.551) scale(0.0530437) rotate(140.486)"/>
<use xlink:href="#stroke0_315_237" transform="translate(244.142 37.279) scale(0.0444561) rotate(-51.9422)"/>
<use xlink:href="#stroke0_315_237" transform="translate(245.616 30.6943) scale(0.0682706) rotate(-11.7358)"/>
<use xlink:href="#stroke0_315_237" transform="translate(265.429 51.4032) scale(0.0521748) rotate(-165.584)"/>
<use xlink:href="#stroke0_315_237" transform="translate(276.141 50.5796) scale(0.0654561) rotate(157.541)"/>
<use xlink:href="#stroke0_315_237" transform="translate(262.904 38.9596) scale(0.0463692) rotate(14.2913)"/>
<use xlink:href="#stroke0_315_237" transform="translate(281.089 48.1298) scale(0.0544785) rotate(121.334)"/>
<use xlink:href="#stroke0_315_237" transform="translate(261.102 51.6597) scale(0.0586709) rotate(-41.4674)"/>
<use xlink:href="#stroke0_315_237" transform="translate(273.399 46.7949) scale(0.046757) rotate(26.8999)"/>
<use xlink:href="#stroke0_315_237" transform="translate(287.556 59.3264) scale(0.0459011) rotate(134.754)"/>
<use xlink:href="#stroke0_315_237" transform="translate(288.189 53.0111) scale(0.0563741) rotate(82.2606)"/>
<use xlink:href="#stroke0_315_237" transform="translate(294.569 58.6658) scale(0.0634199) rotate(100.324)"/>
<use xlink:href="#stroke0_315_237" transform="translate(291.041 59.9183) scale(0.0502742) rotate(71.013)"/>
<use xlink:href="#stroke0_315_237" transform="translate(280.192 64.6138) scale(0.0533616) rotate(-5.06602)"/>
<use xlink:href="#stroke0_315_237" transform="translate(302.078 76.0866) scale(0.05665) rotate(133.299)"/>
<use xlink:href="#stroke0_315_237" transform="translate(305.36 80.6036) scale(0.0614381) rotate(136.199)"/>
<use xlink:href="#stroke0_315_237" transform="translate(289.609 75.2046) scale(0.0458799) rotate(8.10363)"/>
<use xlink:href="#stroke0_315_237" transform="translate(306.247 94.5992) scale(0.0602707) rotate(171.238)"/>
<use xlink:href="#stroke0_315_237" transform="translate(291.319 84.5696) scale(0.0445466) rotate(-10.6366)"/>
<use xlink:href="#stroke0_315_237" transform="translate(295.256 102.946) scale(0.051691) rotate(-111.187)"/>
<defs>
<g id="stroke0_315_237" data-figma-scatter-ref="stroke0_315_237_ref" data-figma-scatter="f0.28_w0_aj180_sj0.25_r0_s7166259504722092330_sw17">
<path d="M103.731 283.547C110.352 281.363 112.807 281.348 116.121 283.468C130.109 292.418 124.85 308.718 107.972 308.727C90.3768 308.737 87.0606 289.046 103.731 283.547ZM139.837 35.4146C140.937 35.1787 142.512 35.114 143.337 35.271C144.162 35.4281 146.516 35.8391 148.567 36.1851C155.802 37.4051 160.179 46.6969 156.734 53.5249C152.924 61.0769 144.715 67.5811 140.859 66.1021C135.872 64.1881 137.625 69.8792 144.066 76.5152C148.306 80.8841 150.337 81.2685 150.337 77.7066C150.337 76.6574 151.622 74.3218 153.193 72.5161C154.823 70.6412 156.597 66.9201 157.324 63.8501C158.925 57.0892 160.788 55.2289 167.369 53.8169C177.32 51.6829 185.581 56.9263 183.752 64.2153C183.293 66.0423 183.901 67.6656 186.09 70.4585C196.859 84.1975 193.875 104.273 180.596 107.418C177.049 108.258 176.832 108.532 176.773 112.27C176.739 114.448 176.365 116.987 175.943 117.912C175.255 119.417 175.946 119.564 182.506 119.31C190.415 119.003 192.674 119.705 195.953 123.487C199.054 127.064 201.598 126.114 202.609 121.002C203.503 116.483 209.096 110.731 212.596 110.731C214.841 110.731 215.934 108.156 214.449 106.367C206.1 96.3056 222.234 73.6632 235.605 76.6792C241.572 78.0252 246.302 83.6302 246.367 89.4312C246.384 90.9712 247.505 94.4811 248.858 97.231C255.362 110.453 243.304 126.225 232.777 118.263C229.924 116.105 229.837 116.226 229.837 122.341C229.837 128.93 225.932 133.292 219.049 134.393C216.068 134.87 214.933 135.67 213.775 138.116C212.964 139.829 211.55 142.415 210.63 143.863C208.984 146.456 209.02 146.565 213.147 151.254C215.451 153.871 217.337 156.555 217.337 157.218C217.337 157.882 218.074 159.901 218.974 161.706C222.148 168.067 221.073 181.731 217.4 181.731C217.052 181.731 215.97 183.081 214.995 184.731C214.02 186.381 212.573 187.731 211.779 187.731C209.595 187.731 210.044 189.817 212.863 192.76C216.384 196.435 217.425 204.867 214.728 207.858C209.503 213.649 203.05 218.01 198.064 219.122C193.944 220.041 192.83 220.705 192.804 222.259C192.669 230.389 188.242 235.387 179.682 237.077C172.845 238.427 172.072 240.31 177.577 242.203C190.358 246.597 192.892 257.693 182.442 263.506C176.521 266.799 172.426 266.758 167.515 263.354C163.894 260.845 163.161 260.686 159.679 261.653C153.737 263.303 147.363 262.934 141.337 260.593C135.874 258.47 130.724 257.068 124.689 256.061C118.715 255.064 115.151 249.943 114.592 241.551C114.184 235.417 113.671 233.745 111.425 231.231C109.951 229.581 107.986 226.544 107.058 224.481C105.42 220.844 105.211 220.731 100.164 220.731C93.7935 220.731 89.0798 217.922 86.2168 212.42C83.0468 206.327 78.9427 207.336 78.8477 214.231C78.8097 216.981 78.4233 220.817 77.9883 222.755C77.2354 226.113 77.3507 226.324 80.4366 227.255C90.5004 230.29 90.3981 247.946 80.2881 252.934C55.9904 264.92 26.2411 240.473 47.875 226.298C49.556 225.196 50.1805 223.494 50.6895 218.626C51.0495 215.185 52.1298 211.262 53.0908 209.91C54.0507 208.557 55.2736 206.856 55.8086 206.127C56.5016 205.184 56.0161 204.003 54.1221 202.017C50.6273 198.355 49.3112 194.657 49.9981 190.428C50.3281 188.392 50.1033 186.705 49.4463 186.299C48.8364 185.922 48.337 184.345 48.3369 182.794C48.3369 181.244 47.6012 179.366 46.7032 178.621C43.9996 176.376 34.3369 162.856 34.3369 161.317C34.3368 160.529 32.7627 157.822 30.8389 155.302C28.915 152.781 27.3998 150.384 27.4727 149.975C28.4457 144.478 24.6467 141.425 20.4727 144.348C18.2547 145.902 11.2222 145.776 6.86624 144.104C-3.23648 140.227 -1.78745 115.126 8.56839 114.62C14.8594 114.313 23.3369 117.551 23.3369 120.261C23.3372 122.018 26.1103 124.731 27.9073 124.731C28.6933 124.731 29.3369 124.041 29.3369 123.198C29.3372 109.814 50.1851 94.3087 69.8369 93.0767C82.9305 92.2547 88.2617 93.4969 97.1895 99.4468C101.45 102.287 108.337 96.8837 108.337 90.7007C108.337 88.6598 109.172 86.4706 110.483 85.0747C112.734 82.6789 111.804 79.7313 108.796 79.731C106.403 79.731 103.556 73.5422 104.077 69.4702C105.046 61.8843 117.633 57.7673 123.289 63.1861C125.639 65.4379 126.708 65.8083 129.245 65.2515C133.054 64.4145 133.128 63.4739 129.587 60.895C121.36 54.902 128.195 37.9086 139.837 35.4146ZM227.337 203.429C239.094 199.654 252.722 207.291 252.722 217.653C252.722 228.495 231.921 239.44 223.927 232.806C221.665 230.929 220.403 232.363 221.012 236.118C222.097 242.802 213.511 254.731 207.616 254.731C194.246 254.731 188.8 246.232 194.457 234.198C198.202 226.231 204.453 223.784 213.238 226.847C217.536 228.345 217.88 227.687 215.921 221.697C213.052 212.925 216.89 206.783 227.337 203.429ZM179.7 192.695C179.049 192.044 178.051 192.413 176.774 193.779C168.37 202.768 165.063 203.713 156.506 199.571C149.746 196.298 146.45 201.459 151.961 206.689C154.209 208.822 154.482 209.744 154.038 213.682C153.54 218.098 153.664 218.344 158.682 222.967C163.836 227.716 163.837 227.716 164.351 222.867C164.987 216.872 169.522 209.969 174.077 208.066C177.094 206.805 177.337 206.359 177.337 202.046C177.337 199.092 177.95 196.711 179.013 195.536C180.117 194.315 180.352 193.347 179.7 192.695ZM13.7354 183.697C21.2304 180.362 25.9355 181.225 32.1055 187.066C40.5644 195.074 37.0287 205.612 24.6309 209.343C9.40689 213.925 -0.704596 190.124 13.7354 183.697ZM252.956 148.251C262.129 145.732 267.81 147.203 270.983 152.921C277.397 164.478 257.352 180.919 247.179 172.445C237.093 164.044 240.016 151.805 252.956 148.251ZM175.822 162.709C174.842 161.123 172.482 161.589 171.417 163.579C170.283 165.699 171.384 170.913 173.086 171.481C174.366 171.905 176.761 164.229 175.822 162.709ZM150.152 111.481C150.492 108.526 149.534 108.177 145.513 109.79C142.108 111.155 143.035 114.231 146.851 114.231C149.365 114.231 149.886 113.796 150.152 111.481ZM156.837 98.731C156.012 98.731 155.337 99.406 155.337 100.231C155.337 101.056 156.012 101.731 156.837 101.731C157.662 101.731 158.337 101.056 158.337 100.231C158.337 99.4061 157.662 98.7312 156.837 98.731ZM131.337 85.6382C131.337 82.8002 129.491 81.4004 127.429 82.6743C126.501 83.2473 126.685 84.2905 128.185 86.9605C129.273 88.9003 130.316 91.46 130.5 92.6489C130.685 93.8379 131.287 94.905 131.837 95.021C133.25 95.317 133.729 90.7224 132.422 89.4155C131.825 88.8185 131.337 87.1191 131.337 85.6382ZM79.8369 36.9214C89.8819 31.2487 102.893 46.8492 95.6582 55.8921C92.2024 60.211 91.2042 63.981 91.8701 70.1997C92.5322 76.3837 92.4821 76.5638 89.0371 80.3628C76.0391 94.6997 55.1533 78.5005 64.8242 61.5825C66.3391 58.9327 67.3172 55.6452 67.3242 53.1753C67.3402 47.7053 72.4159 41.1124 79.8369 36.9214ZM120.896 78.731C120.653 78.731 120.177 79.1811 119.837 79.731C119.497 80.2809 119.695 80.7309 120.277 80.731C120.859 80.731 121.337 80.281 121.337 79.731C121.337 79.181 121.139 78.731 120.896 78.731ZM205.485 39.4898C219.631 37.0418 227.598 50.9151 220.597 65.8081C213.393 81.13 190.339 77.7861 190.091 61.3823C189.98 54.0764 199.509 40.5238 205.485 39.4898ZM51.8369 14.5542C64.4449 5.86451 75.68 19.3671 68.6241 34.731C62.385 48.3167 41.3372 43.775 41.3369 28.8423C41.3369 26.0333 47.6529 17.4382 51.8369 14.5542ZM108.212 2.17043C121.43 -6.81137 141.546 14.0924 133.237 28.1743C132.084 30.1297 130.819 31.7302 130.427 31.731C130.035 31.731 128.813 32.5703 127.713 33.5962C119.456 41.2872 107.786 35.7761 103.367 22.0991C100.152 12.1461 101.463 6.75643 108.212 2.17043Z" fill="white"/>
</g>
<path id="stroke0_315_237_ref" d="M300.457 94.1436C327.525 41.1854 372.152 7.36361 420.958 9.75293C469.578 12.1333 510.56 49.873 532.39 104.88C543.675 93.4878 557.149 86.8682 571.621 86.8682C611.376 86.8684 643.604 136.822 643.604 198.442C643.604 260.063 611.376 310.016 571.621 310.017C557.114 310.017 543.61 303.363 532.308 291.92C507.215 357.415 457.256 401.249 401.924 398.54C356.053 396.294 316.981 362.574 294.377 312.574C274.383 348.055 245.291 370.395 212.902 370.396C174.384 370.396 140.526 338.8 121.092 291.079C109.863 302.302 96.4904 308.816 82.1357 308.816C42.3806 308.816 10.1524 258.863 10.1523 197.242C10.1523 135.622 42.3806 85.6682 82.1357 85.668C96.5454 85.668 109.965 92.2319 121.221 103.534C140.676 55.9907 174.469 24.5352 212.902 24.5352C248.744 24.5353 280.552 51.893 300.457 94.1436Z"/>
</defs>
</svg>
