<svg width="161" height="166" viewBox="0 0 161 166" fill="none" xmlns="http://www.w3.org/2000/svg" xmlns:xlink="http://www.w3.org/1999/xlink">
<path d="M136.49 63.985L125.577 74.1451L122.302 68.5711L136.49 63.985Z" fill="#552D00"/>
<path d="M52.6331 40.3761C58.8943 37.3166 67.4204 40.7806 75.2284 48.5517C79.0781 40.3713 85.4353 35.0068 92.6751 34.9355C104.63 34.818 114.463 49.1771 114.639 67.0078C114.812 84.573 105.549 98.9546 93.8441 99.4921C92.774 104.534 90.394 108.331 86.7167 110.128C76.7473 114.999 61.0359 103.334 51.6241 84.0729C42.2122 64.8117 42.6637 45.2476 52.6331 40.3761Z" fill="#98D1FF"/>
<use xlink:href="#stroke0_304_798" transform="translate(54.0794 36.7157) scale(0.019124) rotate(62.9657)"/>
<use xlink:href="#stroke0_304_798" transform="translate(50.2181 38.7644) scale(0.0189874) rotate(-32.7781)"/>
<use xlink:href="#stroke0_304_798" transform="translate(58.9081 41.0884) scale(0.018883) rotate(155.998)"/>
<use xlink:href="#stroke0_304_798" transform="translate(59.5713 39.4652) scale(0.0143209) rotate(134.498)"/>
<use xlink:href="#stroke0_304_798" transform="translate(59.8385 35.8127) scale(0.0192569) rotate(70.5723)"/>
<use xlink:href="#stroke0_304_798" transform="translate(61.6496 41.3813) scale(0.0153272) rotate(171.069)"/>
<use xlink:href="#stroke0_304_798" transform="translate(58.4945 36.8866) scale(0.0159223) rotate(5.89359)"/>
<use xlink:href="#stroke0_304_798" transform="translate(59.7319 42.5246) scale(0.0158679) rotate(-104.208)"/>
<use xlink:href="#stroke0_304_798" transform="translate(61.4693 36.6968) scale(0.0183018) rotate(20.3698)"/>
<use xlink:href="#stroke0_304_798" transform="translate(60.8761 39.7118) scale(0.0161143) rotate(-31.6719)"/>
<use xlink:href="#stroke0_304_798" transform="translate(67.0221 39.2905) scale(0.0130362) rotate(88.2767)"/>
<use xlink:href="#stroke0_304_798" transform="translate(63.1806 42.6387) scale(0.014662) rotate(-68.8991)"/>
<use xlink:href="#stroke0_304_798" transform="translate(64.9966 39.2826) scale(0.0173343) rotate(5.63219)"/>
<use xlink:href="#stroke0_304_798" transform="translate(70.4273 40.0377) scale(0.0174266) rotate(79.4933)"/>
<use xlink:href="#stroke0_304_798" transform="translate(67.1137 45.3197) scale(0.0134243) rotate(-89.6055)"/>
<use xlink:href="#stroke0_304_798" transform="translate(69.3745 40.6238) scale(0.0177656) rotate(28.8566)"/>
<use xlink:href="#stroke0_304_798" transform="translate(68.2926 44.3268) scale(0.0141275) rotate(-36.718)"/>
<use xlink:href="#stroke0_304_798" transform="translate(72.4522 48.7575) scale(0.0153512) rotate(-146.567)"/>
<use xlink:href="#stroke0_304_798" transform="translate(70.8239 49.0838) scale(0.0165487) rotate(-100.15)"/>
<use xlink:href="#stroke0_304_798" transform="translate(71.0141 50.2565) scale(0.020173) rotate(-92.9858)"/>
<use xlink:href="#stroke0_304_798" transform="translate(71.7857 48.5359) scale(0.0154891) rotate(-53.011)"/>
<use xlink:href="#stroke0_304_798" transform="translate(76.5636 50.7021) scale(0.0146797) rotate(-157.829)"/>
<use xlink:href="#stroke0_304_798" transform="translate(77.2763 43.5472) scale(0.0167162) rotate(61.0261)"/>
<use xlink:href="#stroke0_304_798" transform="translate(75.7319 49.5773) scale(0.0201878) rotate(-123.433)"/>
<use xlink:href="#stroke0_304_798" transform="translate(77.3451 47.8395) scale(0.0168786) rotate(-134.816)"/>
<use xlink:href="#stroke0_304_798" transform="translate(81.1126 45.6644) scale(0.0177671) rotate(171.879)"/>
<use xlink:href="#stroke0_304_798" transform="translate(76.8799 44.0845) scale(0.0135402) rotate(-87.2067)"/>
<use xlink:href="#stroke0_304_798" transform="translate(76.0408 42.1062) scale(0.01884) rotate(-59.0616)"/>
<use xlink:href="#stroke0_304_798" transform="translate(82.7402 38.816) scale(0.0129753) rotate(91.9034)"/>
<use xlink:href="#stroke0_304_798" transform="translate(79.888 43.1019) scale(0.0184574) rotate(-112.827)"/>
<use xlink:href="#stroke0_304_798" transform="translate(86.4135 39.028) scale(0.0185382) rotate(135.417)"/>
<use xlink:href="#stroke0_304_798" transform="translate(86.224 37.4842) scale(0.0131618) rotate(119.739)"/>
<use xlink:href="#stroke0_304_798" transform="translate(82.2552 35.7935) scale(0.013257) rotate(-10.6463)"/>
<use xlink:href="#stroke0_304_798" transform="translate(82.3201 38.1599) scale(0.0160167) rotate(-70.9961)"/>
<use xlink:href="#stroke0_304_798" transform="translate(84.6295 33.3618) scale(0.017064) rotate(9.33826)"/>
<use xlink:href="#stroke0_304_798" transform="translate(86.3295 38.4415) scale(0.0138174) rotate(-112.485)"/>
<use xlink:href="#stroke0_304_798" transform="translate(88.6544 32.0096) scale(0.0170578) rotate(40.6898)"/>
<use xlink:href="#stroke0_304_798" transform="translate(92.6518 36.6356) scale(0.0150722) rotate(158.377)"/>
<use xlink:href="#stroke0_304_798" transform="translate(89.8114 31.7946) scale(0.0169349) rotate(19.8582)"/>
<use xlink:href="#stroke0_304_798" transform="translate(89.4352 35.3434) scale(0.0138678) rotate(-56.6129)"/>
<use xlink:href="#stroke0_304_798" transform="translate(91.1909 37.3152) scale(0.0157084) rotate(-95.7286)"/>
<use xlink:href="#stroke0_304_798" transform="translate(92.6147 38.5256) scale(0.0197447) rotate(-107.135)"/>
<use xlink:href="#stroke0_304_798" transform="translate(95.6831 32.5868) scale(0.0131304) rotate(35.3191)"/>
<use xlink:href="#stroke0_304_798" transform="translate(97.463 39.5905) scale(0.019504) rotate(-142.742)"/>
<use xlink:href="#stroke0_304_798" transform="translate(99.8521 39.8338) scale(0.0192745) rotate(-157.541)"/>
<use xlink:href="#stroke0_304_798" transform="translate(96.8313 37.975) scale(0.015728) rotate(-73.0512)"/>
<use xlink:href="#stroke0_304_798" transform="translate(99.7132 34.5406) scale(0.0137721) rotate(19.6259)"/>
<use xlink:href="#stroke0_304_798" transform="translate(101.758 41.4407) scale(0.0176383) rotate(-138.291)"/>
<use xlink:href="#stroke0_304_798" transform="translate(104.007 35.6656) scale(0.0151779) rotate(64.305)"/>
<use xlink:href="#stroke0_304_798" transform="translate(100.193 39.5302) scale(0.0173107) rotate(-51.8612)"/>
<use xlink:href="#stroke0_304_798" transform="translate(102.749 43.8227) scale(0.0198295) rotate(-108.586)"/>
<use xlink:href="#stroke0_304_798" transform="translate(102.764 38.8923) scale(0.0190613) rotate(-9.63037)"/>
<use xlink:href="#stroke0_304_798" transform="translate(110.543 42.0569) scale(0.0185622) rotate(125.503)"/>
<use xlink:href="#stroke0_304_798" transform="translate(110.533 45.0438) scale(0.0163022) rotate(158.735)"/>
<use xlink:href="#stroke0_304_798" transform="translate(104.468 43.73) scale(0.0192319) rotate(-35.6779)"/>
<use xlink:href="#stroke0_304_798" transform="translate(111.803 43.802) scale(0.0164176) rotate(95.9216)"/>
<use xlink:href="#stroke0_304_798" transform="translate(108.775 44.064) scale(0.013733) rotate(23.8483)"/>
<use xlink:href="#stroke0_304_798" transform="translate(111.571 44.1947) scale(0.018995) rotate(61.7216)"/>
<use xlink:href="#stroke0_304_798" transform="translate(107.816 49.2922) scale(0.0144229) rotate(-54.1101)"/>
<use xlink:href="#stroke0_304_798" transform="translate(111.472 53.2569) scale(0.0156182) rotate(-142.808)"/>
<use xlink:href="#stroke0_304_798" transform="translate(110.383 55.1748) scale(0.0199312) rotate(-119.183)"/>
<use xlink:href="#stroke0_304_798" transform="translate(110.903 54.9159) scale(0.0133076) rotate(-110.736)"/>
<use xlink:href="#stroke0_304_798" transform="translate(113.741 56.5617) scale(0.0157813) rotate(-160.394)"/>
<use xlink:href="#stroke0_304_798" transform="translate(114.117 57.4445) scale(0.0148052) rotate(-162.671)"/>
<use xlink:href="#stroke0_304_798" transform="translate(114.868 52.1566) scale(0.0200764) rotate(64.8727)"/>
<use xlink:href="#stroke0_304_798" transform="translate(110.318 59.325) scale(0.0183964) rotate(-79.6306)"/>
<use xlink:href="#stroke0_304_798" transform="translate(116.764 57.8941) scale(0.0147449) rotate(117.779)"/>
<use xlink:href="#stroke0_304_798" transform="translate(116.43 57.4015) scale(0.0164402) rotate(86.7722)"/>
<use xlink:href="#stroke0_304_798" transform="translate(114.946 58.2789) scale(0.0132422) rotate(57.4721)"/>
<use xlink:href="#stroke0_304_798" transform="translate(113.304 58.824) scale(0.0162947) rotate(23.5523)"/>
<use xlink:href="#stroke0_304_798" transform="translate(112.998 60.1664) scale(0.016637) rotate(16.1589)"/>
<use xlink:href="#stroke0_304_798" transform="translate(116.436 67.5094) scale(0.0170693) rotate(-171.011)"/>
<use xlink:href="#stroke0_304_798" transform="translate(111.457 63.9019) scale(0.0181186) rotate(-16.487)"/>
<use xlink:href="#stroke0_304_798" transform="translate(112.112 68.5482) scale(0.01412) rotate(-78.1443)"/>
<use xlink:href="#stroke0_304_798" transform="translate(117.461 68.5379) scale(0.013834) rotate(138.59)"/>
<use xlink:href="#stroke0_304_798" transform="translate(112.306 71.4648) scale(0.0153709) rotate(-91.907)"/>
<use xlink:href="#stroke0_304_798" transform="translate(112.4 67.3065) scale(0.0191175) rotate(8.42391)"/>
<use xlink:href="#stroke0_304_798" transform="translate(114.315 68.5723) scale(0.0164599) rotate(39.3724)"/>
<use xlink:href="#stroke0_304_798" transform="translate(110.445 72.2211) scale(0.0194211) rotate(-32.6775)"/>
<use xlink:href="#stroke0_304_798" transform="translate(111.069 74.4397) scale(0.0148072) rotate(-45.3754)"/>
<use xlink:href="#stroke0_304_798" transform="translate(116.176 78.0621) scale(0.0156631) rotate(177.044)"/>
<use xlink:href="#stroke0_304_798" transform="translate(111.614 74.0392) scale(0.0175518) rotate(6.46368)"/>
<use xlink:href="#stroke0_304_798" transform="translate(116.605 77.9795) scale(0.0155796) rotate(126.887)"/>
<use xlink:href="#stroke0_304_798" transform="translate(113.742 82.4135) scale(0.0151141) rotate(-150.07)"/>
<use xlink:href="#stroke0_304_798" transform="translate(110.319 82.3453) scale(0.0151309) rotate(-85.48)"/>
<use xlink:href="#stroke0_304_798" transform="translate(115.645 80.7017) scale(0.0161275) rotate(115.452)"/>
<use xlink:href="#stroke0_304_798" transform="translate(114.561 84.8474) scale(0.015831) rotate(171.136)"/>
<use xlink:href="#stroke0_304_798" transform="translate(111.217 80.5462) scale(0.0164839) rotate(34.6373)"/>
<use xlink:href="#stroke0_304_798" transform="translate(111.155 81.9785) scale(0.0147379) rotate(41.3659)"/>
<use xlink:href="#stroke0_304_798" transform="translate(107.481 85.0825) scale(0.0162241) rotate(-31.1449)"/>
<use xlink:href="#stroke0_304_798" transform="translate(110.54 83.8679) scale(0.0162896) rotate(48.7513)"/>
<use xlink:href="#stroke0_304_798" transform="translate(111.684 90.1659) scale(0.0140429) rotate(174.036)"/>
<use xlink:href="#stroke0_304_798" transform="translate(105.317 87.3969) scale(0.0197424) rotate(-20.4278)"/>
<use xlink:href="#stroke0_304_798" transform="translate(106.344 87.3423) scale(0.0176125) rotate(12.13)"/>
<use xlink:href="#stroke0_304_798" transform="translate(108.197 94.8962) scale(0.0167172) rotate(-152.884)"/>
<use xlink:href="#stroke0_304_798" transform="translate(109.881 93.9176) scale(0.0175243) rotate(153.18)"/>
<use xlink:href="#stroke0_304_798" transform="translate(105.941 96.7899) scale(0.0158817) rotate(-143.063)"/>
<use xlink:href="#stroke0_304_798" transform="translate(103.658 91.7075) scale(0.0141486) rotate(16.497)"/>
<use xlink:href="#stroke0_304_798" transform="translate(103.061 98.985) scale(0.0189022) rotate(-125.29)"/>
<use xlink:href="#stroke0_304_798" transform="translate(98.6969 95.3776) scale(0.0202433) rotate(-38.119)"/>
<use xlink:href="#stroke0_304_798" transform="translate(103.335 94.4079) scale(0.0144137) rotate(74.6437)"/>
<use xlink:href="#stroke0_304_798" transform="translate(98.1843 100.486) scale(0.0186192) rotate(-98.98)"/>
<use xlink:href="#stroke0_304_798" transform="translate(97.3301 95.3036) scale(0.0170984) rotate(5.163)"/>
<use xlink:href="#stroke0_304_798" transform="translate(101.012 99.9835) scale(0.0148711) rotate(158.288)"/>
<use xlink:href="#stroke0_304_798" transform="translate(97.4226 102.473) scale(0.0170853) rotate(-143.498)"/>
<use xlink:href="#stroke0_304_798" transform="translate(98.4592 100.609) scale(0.0137778) rotate(160.314)"/>
<use xlink:href="#stroke0_304_798" transform="translate(97.0846 102.34) scale(0.0180855) rotate(-176.913)"/>
<use xlink:href="#stroke0_304_798" transform="translate(91.7718 101.566) scale(0.0132082) rotate(-90.6794)"/>
<use xlink:href="#stroke0_304_798" transform="translate(90.4411 99.6409) scale(0.0160419) rotate(-27.5519)"/>
<use xlink:href="#stroke0_304_798" transform="translate(93.386 98.721) scale(0.0159361) rotate(45.161)"/>
<use xlink:href="#stroke0_304_798" transform="translate(94.6879 105.387) scale(0.0145486) rotate(-178.333)"/>
<use xlink:href="#stroke0_304_798" transform="translate(95.7997 104.421) scale(0.0170842) rotate(135.184)"/>
<use xlink:href="#stroke0_304_798" transform="translate(90.0116 102.897) scale(0.014159) rotate(5.04896)"/>
<use xlink:href="#stroke0_304_798" transform="translate(92.7248 103.723) scale(0.0140277) rotate(73.9465)"/>
<use xlink:href="#stroke0_304_798" transform="translate(87.3172 108.517) scale(0.0168078) rotate(-72.76)"/>
<use xlink:href="#stroke0_304_798" transform="translate(87.41 109.904) scale(0.0144324) rotate(-88.7719)"/>
<use xlink:href="#stroke0_304_798" transform="translate(91.8152 107.509) scale(0.015725) rotate(108.6)"/>
<use xlink:href="#stroke0_304_798" transform="translate(85.229 111.544) scale(0.0162083) rotate(-86.7464)"/>
<use xlink:href="#stroke0_304_798" transform="translate(85.4716 107.606) scale(0.013686) rotate(11.7245)"/>
<use xlink:href="#stroke0_304_798" transform="translate(84.6836 113.027) scale(0.0137369) rotate(-112.846)"/>
<use xlink:href="#stroke0_304_798" transform="translate(83.6937 114.905) scale(0.0201607) rotate(-124.801)"/>
<use xlink:href="#stroke0_304_798" transform="translate(86.4362 110.301) scale(0.0155369) rotate(116.328)"/>
<use xlink:href="#stroke0_304_798" transform="translate(82.6131 107.327) scale(0.0191824) rotate(49.8973)"/>
<use xlink:href="#stroke0_304_798" transform="translate(83.4982 112.198) scale(0.0141704) rotate(151.479)"/>
<use xlink:href="#stroke0_304_798" transform="translate(76.7614 108.73) scale(0.0176588) rotate(-8.79273)"/>
<use xlink:href="#stroke0_304_798" transform="translate(74.4212 110.412) scale(0.0184724) rotate(-42.9653)"/>
<use xlink:href="#stroke0_304_798" transform="translate(78.6864 113.716) scale(0.0184024) rotate(-167.515)"/>
<use xlink:href="#stroke0_304_798" transform="translate(78.8016 111.865) scale(0.0184675) rotate(162.143)"/>
<use xlink:href="#stroke0_304_798" transform="translate(71.12 110.064) scale(0.0159353) rotate(-60.2567)"/>
<use xlink:href="#stroke0_304_798" transform="translate(75.8321 106.072) scale(0.0186317) rotate(85.7431)"/>
<use xlink:href="#stroke0_304_798" transform="translate(75.3043 106.078) scale(0.0192924) rotate(100.665)"/>
<use xlink:href="#stroke0_304_798" transform="translate(68.7541 110.78) scale(0.0191212) rotate(-109.789)"/>
<use xlink:href="#stroke0_304_798" transform="translate(72.402 105.7) scale(0.014328) rotate(113.385)"/>
<use xlink:href="#stroke0_304_798" transform="translate(66.2381 103.131) scale(0.0176888) rotate(0.663133)"/>
<use xlink:href="#stroke0_304_798" transform="translate(70.7731 105.167) scale(0.0153071) rotate(132.417)"/>
<use xlink:href="#stroke0_304_798" transform="translate(64.8785 106.866) scale(0.0151125) rotate(-101.998)"/>
<use xlink:href="#stroke0_304_798" transform="translate(68.4046 102.641) scale(0.0130162) rotate(108.954)"/>
<use xlink:href="#stroke0_304_798" transform="translate(68.2941 103.446) scale(0.0156061) rotate(140.752)"/>
<use xlink:href="#stroke0_304_798" transform="translate(67.3986 104.173) scale(0.0188475) rotate(165.298)"/>
<use xlink:href="#stroke0_304_798" transform="translate(62.5072 97.1627) scale(0.0188505) rotate(31.5159)"/>
<use xlink:href="#stroke0_304_798" transform="translate(63.8 102.464) scale(0.0135971) rotate(-170.24)"/>
<use xlink:href="#stroke0_304_798" transform="translate(62.5173 102.557) scale(0.0168966) rotate(-154.62)"/>
<use xlink:href="#stroke0_304_798" transform="translate(59.7866 101.897) scale(0.0185434) rotate(-125.085)"/>
<use xlink:href="#stroke0_304_798" transform="translate(62.089 94.574) scale(0.0166423) rotate(82.6681)"/>
<use xlink:href="#stroke0_304_798" transform="translate(58.2547 98.8776) scale(0.0134601) rotate(-120.316)"/>
<use xlink:href="#stroke0_304_798" transform="translate(62.1298 96.6205) scale(0.0194683) rotate(151.499)"/>
<use xlink:href="#stroke0_304_798" transform="translate(53.5908 94.5364) scale(0.0191617) rotate(-55.7062)"/>
<use xlink:href="#stroke0_304_798" transform="translate(54.4131 95.0121) scale(0.0151092) rotate(-89.4965)"/>
<use xlink:href="#stroke0_304_798" transform="translate(55.5101 95.011) scale(0.0148134) rotate(-126.827)"/>
<use xlink:href="#stroke0_304_798" transform="translate(55.1526 93.9578) scale(0.0140079) rotate(-130.922)"/>
<use xlink:href="#stroke0_304_798" transform="translate(51.9967 91.4011) scale(0.0155706) rotate(-71.6834)"/>
<use xlink:href="#stroke0_304_798" transform="translate(57.2327 88.6108) scale(0.0142191) rotate(120.425)"/>
<use xlink:href="#stroke0_304_798" transform="translate(56.2858 90.4803) scale(0.0166494) rotate(174.231)"/>
<use xlink:href="#stroke0_304_798" transform="translate(50.6014 87.9236) scale(0.0132519) rotate(-64.9647)"/>
<use xlink:href="#stroke0_304_798" transform="translate(55.6171 83.3914) scale(0.0194523) rotate(89.6885)"/>
<use xlink:href="#stroke0_304_798" transform="translate(54.4714 82.1838) scale(0.0175449) rotate(84.9158)"/>
<use xlink:href="#stroke0_304_798" transform="translate(47.6848 85.0467) scale(0.0193272) rotate(-70.9184)"/>
<use xlink:href="#stroke0_304_798" transform="translate(53.1042 79.7663) scale(0.0166776) rotate(83.9451)"/>
<use xlink:href="#stroke0_304_798" transform="translate(47.2325 79.0722) scale(0.0176553) rotate(-14.7107)"/>
<use xlink:href="#stroke0_304_798" transform="translate(49.7852 82.9708) scale(0.0145927) rotate(-138.944)"/>
<use xlink:href="#stroke0_304_798" transform="translate(50.4788 82.2789) scale(0.0177108) rotate(-157.407)"/>
<use xlink:href="#stroke0_304_798" transform="translate(48.2249 80.7453) scale(0.0153312) rotate(-127.207)"/>
<use xlink:href="#stroke0_304_798" transform="translate(45.4201 74.2487) scale(0.0180632) rotate(-12.1276)"/>
<use xlink:href="#stroke0_304_798" transform="translate(51.9074 75.5993) scale(0.0194046) rotate(138.43)"/>
<use xlink:href="#stroke0_304_798" transform="translate(48.9375 77.3734) scale(0.0191324) rotate(-160.127)"/>
<use xlink:href="#stroke0_304_798" transform="translate(50.7317 72.725) scale(0.0177893) rotate(137.104)"/>
<use xlink:href="#stroke0_304_798" transform="translate(46.705 74.3802) scale(0.015801) rotate(-137.855)"/>
<use xlink:href="#stroke0_304_798" transform="translate(43.6777 67.6206) scale(0.0173939) rotate(-8.94015)"/>
<use xlink:href="#stroke0_304_798" transform="translate(45.0064 65.6042) scale(0.0158778) rotate(21.0405)"/>
<use xlink:href="#stroke0_304_798" transform="translate(48.9629 69.302) scale(0.0175544) rotate(162.781)"/>
<use xlink:href="#stroke0_304_798" transform="translate(48.7935 64.6958) scale(0.016866) rotate(106.927)"/>
<use xlink:href="#stroke0_304_798" transform="translate(48.0388 66.5476) scale(0.0148627) rotate(163.083)"/>
<use xlink:href="#stroke0_304_798" transform="translate(43.1066 67.1499) scale(0.0200522) rotate(-107.344)"/>
<use xlink:href="#stroke0_304_798" transform="translate(41.6641 63.8129) scale(0.0184281) rotate(-74.3571)"/>
<use xlink:href="#stroke0_304_798" transform="translate(47.831 61.8274) scale(0.0145948) rotate(149.168)"/>
<use xlink:href="#stroke0_304_798" transform="translate(40.9158 59.1892) scale(0.0194396) rotate(-42.4452)"/>
<use xlink:href="#stroke0_304_798" transform="translate(44.4569 61.6584) scale(0.0167103) rotate(-131.973)"/>
<use xlink:href="#stroke0_304_798" transform="translate(44.3137 53.7396) scale(0.0160302) rotate(31.922)"/>
<use xlink:href="#stroke0_304_798" transform="translate(46.7335 59.1098) scale(0.0189731) rotate(-166.502)"/>
<use xlink:href="#stroke0_304_798" transform="translate(47.2432 52.6221) scale(0.0139386) rotate(92.9279)"/>
<use xlink:href="#stroke0_304_798" transform="translate(46.9108 50.2969) scale(0.0167426) rotate(72.6093)"/>
<use xlink:href="#stroke0_304_798" transform="translate(47.8925 51.4202) scale(0.0130823) rotate(116.335)"/>
<use xlink:href="#stroke0_304_798" transform="translate(42.4508 51.2419) scale(0.0147855) rotate(-51.6709)"/>
<use xlink:href="#stroke0_304_798" transform="translate(44.7002 53.2353) scale(0.0170151) rotate(-120.876)"/>
<use xlink:href="#stroke0_304_798" transform="translate(43.8219 46.7985) scale(0.0145591) rotate(-8.09333)"/>
<use xlink:href="#stroke0_304_798" transform="translate(43.8822 44.6039) scale(0.0191791) rotate(-0.717115)"/>
<use xlink:href="#stroke0_304_798" transform="translate(45.6829 42.6966) scale(0.0184425) rotate(19.4125)"/>
<use xlink:href="#stroke0_304_798" transform="translate(44.8061 45.9473) scale(0.014644) rotate(-64.838)"/>
<use xlink:href="#stroke0_304_798" transform="translate(48.5739 40.4131) scale(0.0177837) rotate(44.5851)"/>
<use xlink:href="#stroke0_304_798" transform="translate(51.8004 43.3761) scale(0.0131858) rotate(136.434)"/>
<use xlink:href="#stroke0_304_798" transform="translate(49.5319 46.1821) scale(0.0192412) rotate(-132.559)"/>
<use xlink:href="#stroke0_304_798" transform="translate(53.9528 42.7684) scale(0.0159565) rotate(156.354)"/>
<use xlink:href="#stroke0_304_798" transform="translate(55.3396 39.6969) scale(0.0168457) rotate(114.582)"/>
<use xlink:href="#stroke0_304_798" transform="translate(54.9662 42.9358) scale(0.0168292) rotate(179.057)"/>
<ellipse cx="82.6556" cy="91.9881" rx="27.613" ry="49.531" transform="rotate(-117.509 82.6556 91.9881)" fill="#FFCC00"/>
<use xlink:href="#stroke1_304_798" transform="translate(72.693 65.0989) scale(0.0178809) rotate(90.7378)"/>
<use xlink:href="#stroke1_304_798" transform="translate(67.4776 65.3273) scale(0.0194083) rotate(-26.2049)"/>
<use xlink:href="#stroke1_304_798" transform="translate(74.1828 63.2323) scale(0.0169528) rotate(71.8984)"/>
<use xlink:href="#stroke1_304_798" transform="translate(70.3358 65.4359) scale(0.0156068) rotate(-43.7557)"/>
<use xlink:href="#stroke1_304_798" transform="translate(72.7208 63.1063) scale(0.013666) rotate(0.888866)"/>
<use xlink:href="#stroke1_304_798" transform="translate(73.1512 66.2832) scale(0.013411) rotate(-80.4775)"/>
<use xlink:href="#stroke1_304_798" transform="translate(73.723 63.6179) scale(0.0137894) rotate(-32.2178)"/>
<use xlink:href="#stroke1_304_798" transform="translate(79.4411 61.2024) scale(0.0164227) rotate(76.2181)"/>
<use xlink:href="#stroke1_304_798" transform="translate(78.2733 60.5791) scale(0.0144881) rotate(35.0163)"/>
<use xlink:href="#stroke1_304_798" transform="translate(78.1484 66.0909) scale(0.0162732) rotate(-110.968)"/>
<use xlink:href="#stroke1_304_798" transform="translate(83.3307 60.8619) scale(0.015137) rotate(94.9549)"/>
<use xlink:href="#stroke1_304_798" transform="translate(78.3171 62.6784) scale(0.0180978) rotate(-54.5058)"/>
<use xlink:href="#stroke1_304_798" transform="translate(80.0947 64.1257) scale(0.0194141) rotate(-83.3704)"/>
<use xlink:href="#stroke1_304_798" transform="translate(86.8235 63.7372) scale(0.0153441) rotate(177.774)"/>
<use xlink:href="#stroke1_304_798" transform="translate(82.4874 63.0306) scale(0.0190938) rotate(-78.3084)"/>
<use xlink:href="#stroke1_304_798" transform="translate(89.7853 57.4225) scale(0.0198454) rotate(78.2765)"/>
<use xlink:href="#stroke1_304_798" transform="translate(85.2427 60.5542) scale(0.0167684) rotate(-52.0443)"/>
<use xlink:href="#stroke1_304_798" transform="translate(86.1384 61.2097) scale(0.0198163) rotate(-65.4092)"/>
<use xlink:href="#stroke1_304_798" transform="translate(90.1608 62.8514) scale(0.0162459) rotate(-117.022)"/>
<use xlink:href="#stroke1_304_798" transform="translate(90.365 57.4478) scale(0.0145924) rotate(-5.00428)"/>
<use xlink:href="#stroke1_304_798" transform="translate(96.9488 57.0655) scale(0.0187704) rotate(96.1112)"/>
<use xlink:href="#stroke1_304_798" transform="translate(93.8553 62.8046) scale(0.0193139) rotate(-118.359)"/>
<use xlink:href="#stroke1_304_798" transform="translate(94.1296 60.481) scale(0.0137183) rotate(-82.4283)"/>
<use xlink:href="#stroke1_304_798" transform="translate(98.4141 55.9695) scale(0.0143334) rotate(58.6227)"/>
<use xlink:href="#stroke1_304_798" transform="translate(95.783 59.4031) scale(0.0142203) rotate(-62.836)"/>
<use xlink:href="#stroke1_304_798" transform="translate(103.255 56.5427) scale(0.0191246) rotate(100.119)"/>
<use xlink:href="#stroke1_304_798" transform="translate(98.2407 60.0916) scale(0.0164868) rotate(-76.2706)"/>
<use xlink:href="#stroke1_304_798" transform="translate(105.337 57.8336) scale(0.0144975) rotate(118.858)"/>
<use xlink:href="#stroke1_304_798" transform="translate(105.449 56.3148) scale(0.0140808) rotate(83.2278)"/>
<use xlink:href="#stroke1_304_798" transform="translate(105.704 55.0564) scale(0.017386) rotate(57.5274)"/>
<use xlink:href="#stroke1_304_798" transform="translate(103.445 60.2422) scale(0.0146436) rotate(-82.8707)"/>
<use xlink:href="#stroke1_304_798" transform="translate(108.91 61.7091) scale(0.0172458) rotate(-168.373)"/>
<use xlink:href="#stroke1_304_798" transform="translate(111.722 57.4739) scale(0.0170985) rotate(110.031)"/>
<use xlink:href="#stroke1_304_798" transform="translate(107.487 56.6678) scale(0.0152362) rotate(-2.77956)"/>
<use xlink:href="#stroke1_304_798" transform="translate(113.064 61.3575) scale(0.0154333) rotate(176.598)"/>
<use xlink:href="#stroke1_304_798" transform="translate(108.7 61.4139) scale(0.0194036) rotate(-79.5202)"/>
<use xlink:href="#stroke1_304_798" transform="translate(116.798 58.8479) scale(0.0167037) rotate(117.342)"/>
<use xlink:href="#stroke1_304_798" transform="translate(111.929 60.4949) scale(0.0129924) rotate(-59.4271)"/>
<use xlink:href="#stroke1_304_798" transform="translate(111.696 61.1249) scale(0.0200283) rotate(-58.9507)"/>
<use xlink:href="#stroke1_304_798" transform="translate(120.183 60.011) scale(0.0158881) rotate(116.149)"/>
<use xlink:href="#stroke1_304_798" transform="translate(121.644 59.9055) scale(0.0181757) rotate(107.925)"/>
<use xlink:href="#stroke1_304_798" transform="translate(117.862 59.0859) scale(0.0158861) rotate(13.935)"/>
<use xlink:href="#stroke1_304_798" transform="translate(123.055 61.2895) scale(0.0144498) rotate(105.9)"/>
<use xlink:href="#stroke1_304_798" transform="translate(123.358 60.2359) scale(0.0174747) rotate(74.6824)"/>
<use xlink:href="#stroke1_304_798" transform="translate(122.566 60.6374) scale(0.0164832) rotate(43.9871)"/>
<use xlink:href="#stroke1_304_798" transform="translate(121.69 67.0843) scale(0.0135932) rotate(-104.073)"/>
<use xlink:href="#stroke1_304_798" transform="translate(126.38 67.5006) scale(0.0148131) rotate(171.365)"/>
<use xlink:href="#stroke1_304_798" transform="translate(127.031 64.2583) scale(0.0150374) rotate(87.6894)"/>
<use xlink:href="#stroke1_304_798" transform="translate(123.462 70.841) scale(0.0194544) rotate(-106.573)"/>
<use xlink:href="#stroke1_304_798" transform="translate(123.864 71.4038) scale(0.0179743) rotate(-96.5864)"/>
<use xlink:href="#stroke1_304_798" transform="translate(128.688 67.5595) scale(0.0136926) rotate(80.9855)"/>
<use xlink:href="#stroke1_304_798" transform="translate(126.867 73.5785) scale(0.0141214) rotate(-129.87)"/>
<use xlink:href="#stroke1_304_798" transform="translate(124.868 71.3102) scale(0.0136812) rotate(-40.505)"/>
<use xlink:href="#stroke1_304_798" transform="translate(125.568 71.011) scale(0.0142319) rotate(-12.6201)"/>
<use xlink:href="#stroke1_304_798" transform="translate(128.85 70.5009) scale(0.0167896) rotate(52.7063)"/>
<use xlink:href="#stroke1_304_798" transform="translate(129.662 79.0011) scale(0.0193036) rotate(-157.964)"/>
<use xlink:href="#stroke1_304_798" transform="translate(125.654 75.7173) scale(0.0139425) rotate(-32.3898)"/>
<use xlink:href="#stroke1_304_798" transform="translate(131.543 79.9834) scale(0.0187315) rotate(166.561)"/>
<use xlink:href="#stroke1_304_798" transform="translate(131.839 77.1189) scale(0.0201728) rotate(100.659)"/>
<use xlink:href="#stroke1_304_798" transform="translate(131.094 80.3255) scale(0.0146928) rotate(126.999)"/>
<use xlink:href="#stroke1_304_798" transform="translate(127.192 78.044) scale(0.0184943) rotate(31.7953)"/>
<use xlink:href="#stroke1_304_798" transform="translate(124.927 81.3385) scale(0.0150188) rotate(-15.3727)"/>
<use xlink:href="#stroke1_304_798" transform="translate(129.893 82.3335) scale(0.0159264) rotate(97.5351)"/>
<use xlink:href="#stroke1_304_798" transform="translate(126.478 89.2506) scale(0.018712) rotate(-134.776)"/>
<use xlink:href="#stroke1_304_798" transform="translate(130.029 86.9441) scale(0.0186037) rotate(134.583)"/>
<use xlink:href="#stroke1_304_798" transform="translate(126.004 90.8694) scale(0.0145888) rotate(-144.545)"/>
<use xlink:href="#stroke1_304_798" transform="translate(122.503 87.8953) scale(0.0140012) rotate(-28.978)"/>
<use xlink:href="#stroke1_304_798" transform="translate(125.612 86.3029) scale(0.0183875) rotate(56.2601)"/>
<use xlink:href="#stroke1_304_798" transform="translate(120.693 92.2029) scale(0.0168274) rotate(-66.713)"/>
<use xlink:href="#stroke1_304_798" transform="translate(124.558 89.6948) scale(0.0129622) rotate(67.1717)"/>
<use xlink:href="#stroke1_304_798" transform="translate(122.271 90.0379) scale(0.0145797) rotate(30.6298)"/>
<use xlink:href="#stroke1_304_798" transform="translate(121.065 91.1768) scale(0.0143711) rotate(18.3978)"/>
<use xlink:href="#stroke1_304_798" transform="translate(119.802 97.7069) scale(0.0162379) rotate(-107.122)"/>
<use xlink:href="#stroke1_304_798" transform="translate(119.856 99.585) scale(0.0183717) rotate(-124.704)"/>
<use xlink:href="#stroke1_304_798" transform="translate(120.371 93.7928) scale(0.0153572) rotate(48.6177)"/>
<use xlink:href="#stroke1_304_798" transform="translate(120.942 95.2405) scale(0.0150596) rotate(74.7217)"/>
<use xlink:href="#stroke1_304_798" transform="translate(114.539 99.4804) scale(0.0190421) rotate(-58.336)"/>
<use xlink:href="#stroke1_304_798" transform="translate(114.632 101.422) scale(0.016019) rotate(-77.7135)"/>
<use xlink:href="#stroke1_304_798" transform="translate(114.298 99.3615) scale(0.0134427) rotate(-21.0296)"/>
<use xlink:href="#stroke1_304_798" transform="translate(112.711 99.9064) scale(0.0174609) rotate(-22.406)"/>
<use xlink:href="#stroke1_304_798" transform="translate(111.778 100.826) scale(0.0174812) rotate(-21.9883)"/>
<use xlink:href="#stroke1_304_798" transform="translate(117.075 103.779) scale(0.0145629) rotate(140.881)"/>
<use xlink:href="#stroke1_304_798" transform="translate(115.833 105.619) scale(0.0144564) rotate(163.38)"/>
<use xlink:href="#stroke1_304_798" transform="translate(111.792 108.684) scale(0.0186593) rotate(-129.841)"/>
<use xlink:href="#stroke1_304_798" transform="translate(109.403 102.236) scale(0.0197807) rotate(14.0983)"/>
<use xlink:href="#stroke1_304_798" transform="translate(112.194 104.195) scale(0.0154973) rotate(79.1427)"/>
<use xlink:href="#stroke1_304_798" transform="translate(106.767 106.863) scale(0.0130488) rotate(-36.9754)"/>
<use xlink:href="#stroke1_304_798" transform="translate(104.882 110.009) scale(0.0194067) rotate(-76.0203)"/>
<use xlink:href="#stroke1_304_798" transform="translate(109.748 106.662) scale(0.0162718) rotate(87.2477)"/>
<use xlink:href="#stroke1_304_798" transform="translate(103.443 110.244) scale(0.014607) rotate(-59.1444)"/>
<use xlink:href="#stroke1_304_798" transform="translate(108.911 111.387) scale(0.0177229) rotate(146.925)"/>
<use xlink:href="#stroke1_304_798" transform="translate(108.335 110.819) scale(0.0201543) rotate(125.67)"/>
<use xlink:href="#stroke1_304_798" transform="translate(102.699 115.435) scale(0.0167163) rotate(-132.878)"/>
<use xlink:href="#stroke1_304_798" transform="translate(98.7263 112.288) scale(0.0159808) rotate(-41.592)"/>
<use xlink:href="#stroke1_304_798" transform="translate(97.6045 111.888) scale(0.0175857) rotate(-24.5187)"/>
<use xlink:href="#stroke1_304_798" transform="translate(97.909 117.111) scale(0.0173718) rotate(-107.316)"/>
<use xlink:href="#stroke1_304_798" transform="translate(101.974 115.309) scale(0.0163818) rotate(141.763)"/>
<use xlink:href="#stroke1_304_798" transform="translate(94.8222 114.46) scale(0.0142481) rotate(-32.3825)"/>
<use xlink:href="#stroke1_304_798" transform="translate(98.9227 117.866) scale(0.014818) rotate(173.787)"/>
<use xlink:href="#stroke1_304_798" transform="translate(98.3373 115.242) scale(0.0138314) rotate(109.047)"/>
<use xlink:href="#stroke1_304_798" transform="translate(93.7761 113.596) scale(0.0164362) rotate(25.9845)"/>
<use xlink:href="#stroke1_304_798" transform="translate(94.3147 114.762) scale(0.0130036) rotate(55.2757)"/>
<use xlink:href="#stroke1_304_798" transform="translate(89.8531 120.354) scale(0.0180099) rotate(-90.5433)"/>
<use xlink:href="#stroke1_304_798" transform="translate(88.8242 120.772) scale(0.0169001) rotate(-90.699)"/>
<use xlink:href="#stroke1_304_798" transform="translate(93.4183 120.833) scale(0.018073) rotate(161.147)"/>
<use xlink:href="#stroke1_304_798" transform="translate(88.6899 123.03) scale(0.0171086) rotate(-134.216)"/>
<use xlink:href="#stroke1_304_798" transform="translate(86.8961 122.49) scale(0.0132006) rotate(-117.121)"/>
<use xlink:href="#stroke1_304_798" transform="translate(85.8648 117.082) scale(0.0167203) rotate(25.0785)"/>
<use xlink:href="#stroke1_304_798" transform="translate(88.5711 121.351) scale(0.0140193) rotate(142.319)"/>
<use xlink:href="#stroke1_304_798" transform="translate(84.7564 124.628) scale(0.0166269) rotate(-140.516)"/>
<use xlink:href="#stroke1_304_798" transform="translate(86.8428 120.421) scale(0.0177191) rotate(111.854)"/>
<use xlink:href="#stroke1_304_798" transform="translate(78.8749 120.946) scale(0.0168412) rotate(-29.8914)"/>
<use xlink:href="#stroke1_304_798" transform="translate(77.05 124.062) scale(0.0198745) rotate(-71.3808)"/>
<use xlink:href="#stroke1_304_798" transform="translate(83.0267 123.462) scale(0.0175797) rotate(140.648)"/>
<use xlink:href="#stroke1_304_798" transform="translate(76.217 125.16) scale(0.0138787) rotate(-91.8856)"/>
<use xlink:href="#stroke1_304_798" transform="translate(79.9381 124.389) scale(0.0136479) rotate(150.601)"/>
<use xlink:href="#stroke1_304_798" transform="translate(75.6403 120.931) scale(0.0138715) rotate(28.8217)"/>
<use xlink:href="#stroke1_304_798" transform="translate(76.6093 126.368) scale(0.013476) rotate(-167.934)"/>
<use xlink:href="#stroke1_304_798" transform="translate(76.9462 121.774) scale(0.018333) rotate(91.2808)"/>
<use xlink:href="#stroke1_304_798" transform="translate(69.4787 124.664) scale(0.016065) rotate(-52.1977)"/>
<use xlink:href="#stroke1_304_798" transform="translate(73.2035 126.987) scale(0.013587) rotate(-172.055)"/>
<use xlink:href="#stroke1_304_798" transform="translate(68.8135 122.44) scale(0.0144972) rotate(4.41796)"/>
<use xlink:href="#stroke1_304_798" transform="translate(70.5576 127.509) scale(0.0132384) rotate(-160.11)"/>
<use xlink:href="#stroke1_304_798" transform="translate(67.753 122.22) scale(0.0145046) rotate(26.6505)"/>
<use xlink:href="#stroke1_304_798" transform="translate(69.4191 127.122) scale(0.0132731) rotate(175.486)"/>
<use xlink:href="#stroke1_304_798" transform="translate(64.5576 122.897) scale(0.01477) rotate(4.19204)"/>
<use xlink:href="#stroke1_304_798" transform="translate(67.4862 127.116) scale(0.0134406) rotate(169.861)"/>
<use xlink:href="#stroke1_304_798" transform="translate(67.3 124.616) scale(0.0155076) rotate(116.174)"/>
<use xlink:href="#stroke1_304_798" transform="translate(64.9918 127.533) scale(0.0134812) rotate(178.832)"/>
<use xlink:href="#stroke1_304_798" transform="translate(64.0301 128.118) scale(0.0161306) rotate(-176.6)"/>
<use xlink:href="#stroke1_304_798" transform="translate(63.6243 123.933) scale(0.0157774) rotate(102.815)"/>
<use xlink:href="#stroke1_304_798" transform="translate(57.7454 123.106) scale(0.0145419) rotate(2.76101)"/>
<use xlink:href="#stroke1_304_798" transform="translate(56.1442 128.868) scale(0.0200163) rotate(-107.011)"/>
<use xlink:href="#stroke1_304_798" transform="translate(54.1203 124.043) scale(0.0150266) rotate(-25.9824)"/>
<use xlink:href="#stroke1_304_798" transform="translate(55.5154 120.938) scale(0.0200443) rotate(39.5968)"/>
<use xlink:href="#stroke1_304_798" transform="translate(51.4147 122.541) scale(0.0176116) rotate(-9.53227)"/>
<use xlink:href="#stroke1_304_798" transform="translate(51.9118 121.61) scale(0.0153403) rotate(21.227)"/>
<use xlink:href="#stroke1_304_798" transform="translate(52.8898 120.337) scale(0.0198919) rotate(58.2922)"/>
<use xlink:href="#stroke1_304_798" transform="translate(53.8272 125.353) scale(0.0187117) rotate(154.58)"/>
<use xlink:href="#stroke1_304_798" transform="translate(46.3374 126.31) scale(0.0190739) rotate(-97.3236)"/>
<use xlink:href="#stroke1_304_798" transform="translate(50.3895 121.589) scale(0.0142755) rotate(105.382)"/>
<use xlink:href="#stroke1_304_798" transform="translate(45.2293 119.953) scale(0.0141329) rotate(9.43565)"/>
<use xlink:href="#stroke1_304_798" transform="translate(49.1271 122.358) scale(0.0166521) rotate(139.498)"/>
<use xlink:href="#stroke1_304_798" transform="translate(41.6315 122.451) scale(0.0158994) rotate(-70.3995)"/>
<use xlink:href="#stroke1_304_798" transform="translate(45.8143 123.61) scale(0.0186415) rotate(-174.104)"/>
<use xlink:href="#stroke1_304_798" transform="translate(43.3141 116.225) scale(0.0170162) rotate(54.4148)"/>
<use xlink:href="#stroke1_304_798" transform="translate(39.589 117.128) scale(0.013183) rotate(-9.04006)"/>
<use xlink:href="#stroke1_304_798" transform="translate(41.8614 120.86) scale(0.0140858) rotate(-156.6)"/>
<use xlink:href="#stroke1_304_798" transform="translate(43.1098 116.656) scale(0.0140933) rotate(118.987)"/>
<use xlink:href="#stroke1_304_798" transform="translate(38.3047 114.126) scale(0.0130629) rotate(10.9421)"/>
<use xlink:href="#stroke1_304_798" transform="translate(37.7596 118.887) scale(0.0178437) rotate(-118.144)"/>
<use xlink:href="#stroke1_304_798" transform="translate(40.3787 117.289) scale(0.0175889) rotate(-171.379)"/>
<use xlink:href="#stroke1_304_798" transform="translate(41.0213 113.739) scale(0.0153243) rotate(143.291)"/>
<use xlink:href="#stroke1_304_798" transform="translate(33.8803 109.919) scale(0.0199354) rotate(-21.1261)"/>
<use xlink:href="#stroke1_304_798" transform="translate(34.6099 108.487) scale(0.0159209) rotate(-11.086)"/>
<use xlink:href="#stroke1_304_798" transform="translate(34.528 106.77) scale(0.0170459) rotate(-3.83991)"/>
<use xlink:href="#stroke1_304_798" transform="translate(33.1443 107.246) scale(0.0185792) rotate(-38.9679)"/>
<use xlink:href="#stroke1_304_798" transform="translate(38.415 109.523) scale(0.0161522) rotate(-165.579)"/>
<use xlink:href="#stroke1_304_798" transform="translate(40.8666 103.783) scale(0.0200227) rotate(111.491)"/>
<use xlink:href="#stroke1_304_798" transform="translate(40.0858 105.114) scale(0.0154892) rotate(154.867)"/>
<use xlink:href="#stroke1_304_798" transform="translate(39.2721 105.788) scale(0.0180216) rotate(-169.038)"/>
<use xlink:href="#stroke1_304_798" transform="translate(41.3704 102.484) scale(0.0187562) rotate(150.385)"/>
<use xlink:href="#stroke1_304_798" transform="translate(41.2303 102.27) scale(0.0191254) rotate(169.455)"/>
<use xlink:href="#stroke1_304_798" transform="translate(36.2948 100.662) scale(0.0148054) rotate(-90.6577)"/>
<use xlink:href="#stroke1_304_798" transform="translate(41.0588 95.5715) scale(0.0141639) rotate(87.479)"/>
<use xlink:href="#stroke1_304_798" transform="translate(35.8391 97.9161) scale(0.0190134) rotate(-70.8334)"/>
<use xlink:href="#stroke1_304_798" transform="translate(42.6095 93.0058) scale(0.01645) rotate(90.6815)"/>
<use xlink:href="#stroke1_304_798" transform="translate(42.924 90.6842) scale(0.01945) rotate(75.5234)"/>
<use xlink:href="#stroke1_304_798" transform="translate(43.1246 90.9087) scale(0.0132222) rotate(83.8437)"/>
<use xlink:href="#stroke1_304_798" transform="translate(40.1272 89.722) scale(0.0139074) rotate(5.1419)"/>
<use xlink:href="#stroke1_304_798" transform="translate(40.4351 88.9305) scale(0.0142791) rotate(-0.416629)"/>
<use xlink:href="#stroke1_304_798" transform="translate(44.1052 87.7189) scale(0.013431) rotate(65.4785)"/>
<use xlink:href="#stroke1_304_798" transform="translate(41.2804 86.6444) scale(0.0172195) rotate(-0.536788)"/>
<use xlink:href="#stroke1_304_798" transform="translate(45.9284 86.1088) scale(0.0133438) rotate(76.898)"/>
<use xlink:href="#stroke1_304_798" transform="translate(43.6426 90.2834) scale(0.0151245) rotate(-112.831)"/>
<use xlink:href="#stroke1_304_798" transform="translate(46.0389 89.4776) scale(0.0140186) rotate(-145.619)"/>
<use xlink:href="#stroke1_304_798" transform="translate(43.4783 85.7642) scale(0.0140536) rotate(-48.1054)"/>
<use xlink:href="#stroke1_304_798" transform="translate(43.2388 84.9683) scale(0.019257) rotate(-50.6158)"/>
<use xlink:href="#stroke1_304_798" transform="translate(47.834 80.3216) scale(0.0169796) rotate(36.6527)"/>
<use xlink:href="#stroke1_304_798" transform="translate(45.2673 82.5378) scale(0.0184401) rotate(-44.3579)"/>
<use xlink:href="#stroke1_304_798" transform="translate(52.039 84.9807) scale(0.0181839) rotate(-171.106)"/>
<use xlink:href="#stroke1_304_798" transform="translate(49.0925 83.1101) scale(0.0135581) rotate(-98.4279)"/>
<use xlink:href="#stroke1_304_798" transform="translate(50.6651 76.6229) scale(0.0179621) rotate(24.0901)"/>
<use xlink:href="#stroke1_304_798" transform="translate(52.5122 76.0455) scale(0.0157741) rotate(37.8455)"/>
<use xlink:href="#stroke1_304_798" transform="translate(50.5752 79.6875) scale(0.0159133) rotate(-70.143)"/>
<use xlink:href="#stroke1_304_798" transform="translate(58.394 76.0605) scale(0.0196768) rotate(108.959)"/>
<use xlink:href="#stroke1_304_798" transform="translate(52.5692 75.9428) scale(0.0156854) rotate(-34.1447)"/>
<use xlink:href="#stroke1_304_798" transform="translate(56.8489 71.794) scale(0.0199821) rotate(42.6777)"/>
<use xlink:href="#stroke1_304_798" transform="translate(60.2511 74.0537) scale(0.0131868) rotate(107.923)"/>
<use xlink:href="#stroke1_304_798" transform="translate(61.1985 76.6224) scale(0.0161818) rotate(171.715)"/>
<use xlink:href="#stroke1_304_798" transform="translate(62.1732 72.1304) scale(0.0147727) rotate(98.6289)"/>
<use xlink:href="#stroke1_304_798" transform="translate(61.2468 76.1983) scale(0.015337) rotate(-151.253)"/>
<use xlink:href="#stroke1_304_798" transform="translate(58.0731 72.2768) scale(0.0170427) rotate(-46.1986)"/>
<use xlink:href="#stroke1_304_798" transform="translate(59.6054 72.7432) scale(0.0153719) rotate(-66.991)"/>
<use xlink:href="#stroke1_304_798" transform="translate(65.3738 74.6296) scale(0.0192259) rotate(-163.296)"/>
<use xlink:href="#stroke1_304_798" transform="translate(65.1041 74.3381) scale(0.0198496) rotate(-140.219)"/>
<use xlink:href="#stroke1_304_798" transform="translate(67.3053 66.3969) scale(0.0162906) rotate(61.153)"/>
<use xlink:href="#stroke1_304_798" transform="translate(71.3601 69.237) scale(0.0195238) rotate(136.595)"/>
<use xlink:href="#stroke1_304_798" transform="translate(65.0965 68.2805) scale(0.0168911) rotate(-49.8628)"/>
<use xlink:href="#stroke1_304_798" transform="translate(72.3574 65.6752) scale(0.0160491) rotate(95.5078)"/>
<mask id="mask0_304_798" style="mask-type:alpha" maskUnits="userSpaceOnUse" x="36" y="58" width="93" height="68">
<ellipse cx="82.6576" cy="91.9862" rx="27.613" ry="49.531" transform="rotate(-117.509 82.6576 91.9862)" fill="#FEBC00"/>
</mask>
<g mask="url(#mask0_304_798)">
<path d="M91.8535 137.37L89.9733 133.343C78.9457 109.72 64.1887 88.0264 46.2681 69.0927L38.9816 61.3943L54.2994 50.7346L66.4444 64.2773C81.8197 81.4222 94.6798 100.666 104.639 121.43L107.171 126.711L91.8535 137.37Z" fill="#552D00"/>
<path d="M114.588 124.523L112.708 120.495C101.68 96.8727 86.9231 75.1787 69.0025 56.2451L61.716 48.5466L77.0338 37.8869L89.1787 51.4297C104.554 68.5745 117.414 87.818 127.373 108.583L129.906 113.863L114.588 124.523Z" fill="#552D00"/>
</g>
<ellipse cx="55.3291" cy="99.9375" rx="2.44375" ry="2.53493" transform="rotate(-32.7612 55.3291 99.9375)" fill="#552D00"/>
<defs>
<g id="stroke0_304_798" data-figma-scatter-ref="stroke0_304_798_ref" data-figma-scatter="f0.28_w0_aj180_sj0.25_r0_s7743350423074236660_sw5">
<path d="M103.731 283.547C110.352 281.363 112.807 281.348 116.121 283.468C130.109 292.418 124.85 308.718 107.972 308.727C90.3768 308.737 87.0606 289.046 103.731 283.547ZM139.837 35.4146C140.937 35.1787 142.512 35.114 143.337 35.271C144.162 35.4281 146.516 35.8391 148.567 36.1851C155.802 37.4051 160.179 46.6969 156.734 53.5249C152.924 61.0769 144.715 67.5811 140.859 66.1021C135.872 64.1881 137.625 69.8792 144.066 76.5152C148.306 80.8841 150.337 81.2685 150.337 77.7066C150.337 76.6574 151.622 74.3218 153.193 72.5161C154.823 70.6412 156.597 66.9201 157.324 63.8501C158.925 57.0892 160.788 55.2289 167.369 53.8169C177.32 51.6829 185.581 56.9263 183.752 64.2153C183.293 66.0423 183.901 67.6656 186.09 70.4585C196.859 84.1975 193.875 104.273 180.596 107.418C177.049 108.258 176.832 108.532 176.773 112.27C176.739 114.448 176.365 116.987 175.943 117.912C175.255 119.417 175.946 119.564 182.506 119.31C190.415 119.003 192.674 119.705 195.953 123.487C199.054 127.064 201.598 126.114 202.609 121.002C203.503 116.483 209.096 110.731 212.596 110.731C214.841 110.731 215.934 108.156 214.449 106.367C206.1 96.3056 222.234 73.6632 235.605 76.6792C241.572 78.0252 246.302 83.6302 246.367 89.4312C246.384 90.9712 247.505 94.4811 248.858 97.231C255.362 110.453 243.304 126.225 232.777 118.263C229.924 116.105 229.837 116.226 229.837 122.341C229.837 128.93 225.932 133.292 219.049 134.393C216.068 134.87 214.933 135.67 213.775 138.116C212.964 139.829 211.55 142.415 210.63 143.863C208.984 146.456 209.02 146.565 213.147 151.254C215.451 153.871 217.337 156.555 217.337 157.218C217.337 157.882 218.074 159.901 218.974 161.706C222.148 168.067 221.073 181.731 217.4 181.731C217.052 181.731 215.97 183.081 214.995 184.731C214.02 186.381 212.573 187.731 211.779 187.731C209.595 187.731 210.044 189.817 212.863 192.76C216.384 196.435 217.425 204.867 214.728 207.858C209.503 213.649 203.05 218.01 198.064 219.122C193.944 220.041 192.83 220.705 192.804 222.259C192.669 230.389 188.242 235.387 179.682 237.077C172.845 238.427 172.072 240.31 177.577 242.203C190.358 246.597 192.892 257.693 182.442 263.506C176.521 266.799 172.426 266.758 167.515 263.354C163.894 260.845 163.161 260.686 159.679 261.653C153.737 263.303 147.363 262.934 141.337 260.593C135.874 258.47 130.724 257.068 124.689 256.061C118.715 255.064 115.151 249.943 114.592 241.551C114.184 235.417 113.671 233.745 111.425 231.231C109.951 229.581 107.986 226.544 107.058 224.481C105.42 220.844 105.211 220.731 100.164 220.731C93.7935 220.731 89.0798 217.922 86.2168 212.42C83.0468 206.327 78.9427 207.336 78.8477 214.231C78.8097 216.981 78.4233 220.817 77.9883 222.755C77.2354 226.113 77.3507 226.324 80.4366 227.255C90.5004 230.29 90.3981 247.946 80.2881 252.934C55.9904 264.92 26.2411 240.473 47.875 226.298C49.556 225.196 50.1805 223.494 50.6895 218.626C51.0495 215.185 52.1298 211.262 53.0908 209.91C54.0507 208.557 55.2736 206.856 55.8086 206.127C56.5016 205.184 56.0161 204.003 54.1221 202.017C50.6273 198.355 49.3112 194.657 49.9981 190.428C50.3281 188.392 50.1033 186.705 49.4463 186.299C48.8364 185.922 48.337 184.345 48.3369 182.794C48.3369 181.244 47.6012 179.366 46.7032 178.621C43.9996 176.376 34.3369 162.856 34.3369 161.317C34.3368 160.529 32.7627 157.822 30.8389 155.302C28.915 152.781 27.3998 150.384 27.4727 149.975C28.4457 144.478 24.6467 141.425 20.4727 144.348C18.2547 145.902 11.2222 145.776 6.86624 144.104C-3.23648 140.227 -1.78745 115.126 8.56839 114.62C14.8594 114.313 23.3369 117.551 23.3369 120.261C23.3372 122.018 26.1103 124.731 27.9073 124.731C28.6933 124.731 29.3369 124.041 29.3369 123.198C29.3372 109.814 50.1851 94.3087 69.8369 93.0767C82.9305 92.2547 88.2617 93.4969 97.1895 99.4468C101.45 102.287 108.337 96.8837 108.337 90.7007C108.337 88.6598 109.172 86.4706 110.483 85.0747C112.734 82.6789 111.804 79.7313 108.796 79.731C106.403 79.731 103.556 73.5422 104.077 69.4702C105.046 61.8843 117.633 57.7673 123.289 63.1861C125.639 65.4379 126.708 65.8083 129.245 65.2515C133.054 64.4145 133.128 63.4739 129.587 60.895C121.36 54.902 128.195 37.9086 139.837 35.4146ZM227.337 203.429C239.094 199.654 252.722 207.291 252.722 217.653C252.722 228.495 231.921 239.44 223.927 232.806C221.665 230.929 220.403 232.363 221.012 236.118C222.097 242.802 213.511 254.731 207.616 254.731C194.246 254.731 188.8 246.232 194.457 234.198C198.202 226.231 204.453 223.784 213.238 226.847C217.536 228.345 217.88 227.687 215.921 221.697C213.052 212.925 216.89 206.783 227.337 203.429ZM179.7 192.695C179.049 192.044 178.051 192.413 176.774 193.779C168.37 202.768 165.063 203.713 156.506 199.571C149.746 196.298 146.45 201.459 151.961 206.689C154.209 208.822 154.482 209.744 154.038 213.682C153.54 218.098 153.664 218.344 158.682 222.967C163.836 227.716 163.837 227.716 164.351 222.867C164.987 216.872 169.522 209.969 174.077 208.066C177.094 206.805 177.337 206.359 177.337 202.046C177.337 199.092 177.95 196.711 179.013 195.536C180.117 194.315 180.352 193.347 179.7 192.695ZM13.7354 183.697C21.2304 180.362 25.9355 181.225 32.1055 187.066C40.5644 195.074 37.0287 205.612 24.6309 209.343C9.40689 213.925 -0.704596 190.124 13.7354 183.697ZM252.956 148.251C262.129 145.732 267.81 147.203 270.983 152.921C277.397 164.478 257.352 180.919 247.179 172.445C237.093 164.044 240.016 151.805 252.956 148.251ZM175.822 162.709C174.842 161.123 172.482 161.589 171.417 163.579C170.283 165.699 171.384 170.913 173.086 171.481C174.366 171.905 176.761 164.229 175.822 162.709ZM150.152 111.481C150.492 108.526 149.534 108.177 145.513 109.79C142.108 111.155 143.035 114.231 146.851 114.231C149.365 114.231 149.886 113.796 150.152 111.481ZM156.837 98.731C156.012 98.731 155.337 99.406 155.337 100.231C155.337 101.056 156.012 101.731 156.837 101.731C157.662 101.731 158.337 101.056 158.337 100.231C158.337 99.4061 157.662 98.7312 156.837 98.731ZM131.337 85.6382C131.337 82.8002 129.491 81.4004 127.429 82.6743C126.501 83.2473 126.685 84.2905 128.185 86.9605C129.273 88.9003 130.316 91.46 130.5 92.6489C130.685 93.8379 131.287 94.905 131.837 95.021C133.25 95.317 133.729 90.7224 132.422 89.4155C131.825 88.8185 131.337 87.1191 131.337 85.6382ZM79.8369 36.9214C89.8819 31.2487 102.893 46.8492 95.6582 55.8921C92.2024 60.211 91.2042 63.981 91.8701 70.1997C92.5322 76.3837 92.4821 76.5638 89.0371 80.3628C76.0391 94.6997 55.1533 78.5005 64.8242 61.5825C66.3391 58.9327 67.3172 55.6452 67.3242 53.1753C67.3402 47.7053 72.4159 41.1124 79.8369 36.9214ZM120.896 78.731C120.653 78.731 120.177 79.1811 119.837 79.731C119.497 80.2809 119.695 80.7309 120.277 80.731C120.859 80.731 121.337 80.281 121.337 79.731C121.337 79.181 121.139 78.731 120.896 78.731ZM205.485 39.4898C219.631 37.0418 227.598 50.9151 220.597 65.8081C213.393 81.13 190.339 77.7861 190.091 61.3823C189.98 54.0764 199.509 40.5238 205.485 39.4898ZM51.8369 14.5542C64.4449 5.86451 75.68 19.3671 68.6241 34.731C62.385 48.3167 41.3372 43.775 41.3369 28.8423C41.3369 26.0333 47.6529 17.4382 51.8369 14.5542ZM108.212 2.17043C121.43 -6.81137 141.546 14.0924 133.237 28.1743C132.084 30.1297 130.819 31.7302 130.427 31.731C130.035 31.731 128.813 32.5703 127.713 33.5962C119.456 41.2872 107.786 35.7761 103.367 22.0991C100.152 12.1461 101.463 6.75643 108.212 2.17043Z" fill="#98D1FF"/>
</g>
<path id="stroke0_304_798_ref" d="M52.6331 40.3761C58.8943 37.3166 67.4204 40.7806 75.2284 48.5517C79.0781 40.3713 85.4353 35.0068 92.6751 34.9355C104.63 34.818 114.463 49.1771 114.639 67.0078C114.812 84.573 105.549 98.9546 93.8441 99.4921C92.774 104.534 90.394 108.331 86.7167 110.128C76.7473 114.999 61.0359 103.334 51.6241 84.0729C42.2122 64.8117 42.6637 45.2476 52.6331 40.3761Z"/>
<g id="stroke1_304_798" data-figma-scatter-ref="stroke1_304_798_ref" data-figma-scatter="f0.28_w0_aj180_sj0.25_r0_s7667553284059026030_sw5">
<path d="M103.731 283.547C110.352 281.363 112.807 281.348 116.121 283.468C130.109 292.418 124.85 308.718 107.972 308.727C90.3768 308.737 87.0606 289.046 103.731 283.547ZM139.837 35.4146C140.937 35.1787 142.512 35.114 143.337 35.271C144.162 35.4281 146.516 35.8391 148.567 36.1851C155.802 37.4051 160.179 46.6969 156.734 53.5249C152.924 61.0769 144.715 67.5811 140.859 66.1021C135.872 64.1881 137.625 69.8792 144.066 76.5152C148.306 80.8841 150.337 81.2685 150.337 77.7066C150.337 76.6574 151.622 74.3218 153.193 72.5161C154.823 70.6412 156.597 66.9201 157.324 63.8501C158.925 57.0892 160.788 55.2289 167.369 53.8169C177.32 51.6829 185.581 56.9263 183.752 64.2153C183.293 66.0423 183.901 67.6656 186.09 70.4585C196.859 84.1975 193.875 104.273 180.596 107.418C177.049 108.258 176.832 108.532 176.773 112.27C176.739 114.448 176.365 116.987 175.943 117.912C175.255 119.417 175.946 119.564 182.506 119.31C190.415 119.003 192.674 119.705 195.953 123.487C199.054 127.064 201.598 126.114 202.609 121.002C203.503 116.483 209.096 110.731 212.596 110.731C214.841 110.731 215.934 108.156 214.449 106.367C206.1 96.3056 222.234 73.6632 235.605 76.6792C241.572 78.0252 246.302 83.6302 246.367 89.4312C246.384 90.9712 247.505 94.4811 248.858 97.231C255.362 110.453 243.304 126.225 232.777 118.263C229.924 116.105 229.837 116.226 229.837 122.341C229.837 128.93 225.932 133.292 219.049 134.393C216.068 134.87 214.933 135.67 213.775 138.116C212.964 139.829 211.55 142.415 210.63 143.863C208.984 146.456 209.02 146.565 213.147 151.254C215.451 153.871 217.337 156.555 217.337 157.218C217.337 157.882 218.074 159.901 218.974 161.706C222.148 168.067 221.073 181.731 217.4 181.731C217.052 181.731 215.97 183.081 214.995 184.731C214.02 186.381 212.573 187.731 211.779 187.731C209.595 187.731 210.044 189.817 212.863 192.76C216.384 196.435 217.425 204.867 214.728 207.858C209.503 213.649 203.05 218.01 198.064 219.122C193.944 220.041 192.83 220.705 192.804 222.259C192.669 230.389 188.242 235.387 179.682 237.077C172.845 238.427 172.072 240.31 177.577 242.203C190.358 246.597 192.892 257.693 182.442 263.506C176.521 266.799 172.426 266.758 167.515 263.354C163.894 260.845 163.161 260.686 159.679 261.653C153.737 263.303 147.363 262.934 141.337 260.593C135.874 258.47 130.724 257.068 124.689 256.061C118.715 255.064 115.151 249.943 114.592 241.551C114.184 235.417 113.671 233.745 111.425 231.231C109.951 229.581 107.986 226.544 107.058 224.481C105.42 220.844 105.211 220.731 100.164 220.731C93.7935 220.731 89.0798 217.922 86.2168 212.42C83.0468 206.327 78.9427 207.336 78.8477 214.231C78.8097 216.981 78.4233 220.817 77.9883 222.755C77.2354 226.113 77.3507 226.324 80.4366 227.255C90.5004 230.29 90.3981 247.946 80.2881 252.934C55.9904 264.92 26.2411 240.473 47.875 226.298C49.556 225.196 50.1805 223.494 50.6895 218.626C51.0495 215.185 52.1298 211.262 53.0908 209.91C54.0507 208.557 55.2736 206.856 55.8086 206.127C56.5016 205.184 56.0161 204.003 54.1221 202.017C50.6273 198.355 49.3112 194.657 49.9981 190.428C50.3281 188.392 50.1033 186.705 49.4463 186.299C48.8364 185.922 48.337 184.345 48.3369 182.794C48.3369 181.244 47.6012 179.366 46.7032 178.621C43.9996 176.376 34.3369 162.856 34.3369 161.317C34.3368 160.529 32.7627 157.822 30.8389 155.302C28.915 152.781 27.3998 150.384 27.4727 149.975C28.4457 144.478 24.6467 141.425 20.4727 144.348C18.2547 145.902 11.2222 145.776 6.86624 144.104C-3.23648 140.227 -1.78745 115.126 8.56839 114.62C14.8594 114.313 23.3369 117.551 23.3369 120.261C23.3372 122.018 26.1103 124.731 27.9073 124.731C28.6933 124.731 29.3369 124.041 29.3369 123.198C29.3372 109.814 50.1851 94.3087 69.8369 93.0767C82.9305 92.2547 88.2617 93.4969 97.1895 99.4468C101.45 102.287 108.337 96.8837 108.337 90.7007C108.337 88.6598 109.172 86.4706 110.483 85.0747C112.734 82.6789 111.804 79.7313 108.796 79.731C106.403 79.731 103.556 73.5422 104.077 69.4702C105.046 61.8843 117.633 57.7673 123.289 63.1861C125.639 65.4379 126.708 65.8083 129.245 65.2515C133.054 64.4145 133.128 63.4739 129.587 60.895C121.36 54.902 128.195 37.9086 139.837 35.4146ZM227.337 203.429C239.094 199.654 252.722 207.291 252.722 217.653C252.722 228.495 231.921 239.44 223.927 232.806C221.665 230.929 220.403 232.363 221.012 236.118C222.097 242.802 213.511 254.731 207.616 254.731C194.246 254.731 188.8 246.232 194.457 234.198C198.202 226.231 204.453 223.784 213.238 226.847C217.536 228.345 217.88 227.687 215.921 221.697C213.052 212.925 216.89 206.783 227.337 203.429ZM179.7 192.695C179.049 192.044 178.051 192.413 176.774 193.779C168.37 202.768 165.063 203.713 156.506 199.571C149.746 196.298 146.45 201.459 151.961 206.689C154.209 208.822 154.482 209.744 154.038 213.682C153.54 218.098 153.664 218.344 158.682 222.967C163.836 227.716 163.837 227.716 164.351 222.867C164.987 216.872 169.522 209.969 174.077 208.066C177.094 206.805 177.337 206.359 177.337 202.046C177.337 199.092 177.95 196.711 179.013 195.536C180.117 194.315 180.352 193.347 179.7 192.695ZM13.7354 183.697C21.2304 180.362 25.9355 181.225 32.1055 187.066C40.5644 195.074 37.0287 205.612 24.6309 209.343C9.40689 213.925 -0.704596 190.124 13.7354 183.697ZM252.956 148.251C262.129 145.732 267.81 147.203 270.983 152.921C277.397 164.478 257.352 180.919 247.179 172.445C237.093 164.044 240.016 151.805 252.956 148.251ZM175.822 162.709C174.842 161.123 172.482 161.589 171.417 163.579C170.283 165.699 171.384 170.913 173.086 171.481C174.366 171.905 176.761 164.229 175.822 162.709ZM150.152 111.481C150.492 108.526 149.534 108.177 145.513 109.79C142.108 111.155 143.035 114.231 146.851 114.231C149.365 114.231 149.886 113.796 150.152 111.481ZM156.837 98.731C156.012 98.731 155.337 99.406 155.337 100.231C155.337 101.056 156.012 101.731 156.837 101.731C157.662 101.731 158.337 101.056 158.337 100.231C158.337 99.4061 157.662 98.7312 156.837 98.731ZM131.337 85.6382C131.337 82.8002 129.491 81.4004 127.429 82.6743C126.501 83.2473 126.685 84.2905 128.185 86.9605C129.273 88.9003 130.316 91.46 130.5 92.6489C130.685 93.8379 131.287 94.905 131.837 95.021C133.25 95.317 133.729 90.7224 132.422 89.4155C131.825 88.8185 131.337 87.1191 131.337 85.6382ZM79.8369 36.9214C89.8819 31.2487 102.893 46.8492 95.6582 55.8921C92.2024 60.211 91.2042 63.981 91.8701 70.1997C92.5322 76.3837 92.4821 76.5638 89.0371 80.3628C76.0391 94.6997 55.1533 78.5005 64.8242 61.5825C66.3391 58.9327 67.3172 55.6452 67.3242 53.1753C67.3402 47.7053 72.4159 41.1124 79.8369 36.9214ZM120.896 78.731C120.653 78.731 120.177 79.1811 119.837 79.731C119.497 80.2809 119.695 80.7309 120.277 80.731C120.859 80.731 121.337 80.281 121.337 79.731C121.337 79.181 121.139 78.731 120.896 78.731ZM205.485 39.4898C219.631 37.0418 227.598 50.9151 220.597 65.8081C213.393 81.13 190.339 77.7861 190.091 61.3823C189.98 54.0764 199.509 40.5238 205.485 39.4898ZM51.8369 14.5542C64.4449 5.86451 75.68 19.3671 68.6241 34.731C62.385 48.3167 41.3372 43.775 41.3369 28.8423C41.3369 26.0333 47.6529 17.4382 51.8369 14.5542ZM108.212 2.17043C121.43 -6.81137 141.546 14.0924 133.237 28.1743C132.084 30.1297 130.819 31.7302 130.427 31.731C130.035 31.731 128.813 32.5703 127.713 33.5962C119.456 41.2872 107.786 35.7761 103.367 22.0991C100.152 12.1461 101.463 6.75643 108.212 2.17043Z" fill="#FFCC00"/>
</g>
<path id="stroke1_304_798_ref" d="M69.9017 67.497C94.1642 54.8621 119.543 55.5846 126.587 69.1107C133.631 82.6368 119.672 103.844 95.4096 116.479C71.1471 129.114 45.7684 128.392 38.7246 114.866C31.6807 101.339 45.6392 80.1318 69.9017 67.497Z"/>
</defs>
</svg>
