<svg width="843" height="557" viewBox="0 0 843 557" fill="none" xmlns="http://www.w3.org/2000/svg" xmlns:xlink="http://www.w3.org/1999/xlink">
<path d="M133 194L133 527" stroke="#FFC41B" stroke-width="4" stroke-linecap="round" stroke-dasharray="5 18"/>
<path d="M132.577 522.349C132.773 522.038 133.227 522.038 133.423 522.349L137.131 528.217C137.915 529.458 139.162 530.333 140.596 530.649L147.369 532.144C147.744 532.227 147.89 532.685 147.631 532.969L143.228 537.8C142.188 538.941 141.674 540.467 141.814 542.004L142.408 548.515C142.442 548.887 142.07 549.163 141.723 549.023L135.058 546.335C133.737 545.802 132.263 545.802 130.942 546.335L124.277 549.023C123.93 549.163 123.558 548.887 123.592 548.515L124.186 542.004C124.326 540.466 123.812 538.941 122.772 537.8L118.369 532.969C118.11 532.685 118.256 532.227 118.631 532.144L125.404 530.649C126.838 530.333 128.085 529.458 128.869 528.217L132.577 522.349Z" fill="#FFC41B" stroke="#FFC41B" stroke-width="5"/>
<path d="M200 242L200 440" stroke="#FFC41B" stroke-width="4" stroke-linecap="round" stroke-dasharray="5 18"/>
<path d="M197.464 434.013C198.641 432.15 201.359 432.15 202.536 434.013L206.244 439.881C206.672 440.558 207.352 441.036 208.134 441.208L214.907 442.702C217.16 443.199 218.033 445.948 216.478 447.653L212.075 452.484C211.508 453.107 211.228 453.939 211.304 454.777L211.898 461.288C212.101 463.523 209.869 465.182 207.788 464.342L201.123 461.653C200.402 461.362 199.598 461.362 198.877 461.653L192.212 464.342C190.131 465.182 187.899 463.523 188.102 461.288L188.696 454.777C188.772 453.939 188.492 453.107 187.925 452.484L183.522 447.653C181.967 445.948 182.84 443.199 185.093 442.702L191.866 441.208C192.648 441.036 193.328 440.558 193.756 439.881L197.464 434.013Z" fill="#FFC41B"/>
<mask id="mask0_315_243" style="mask-type:alpha" maskUnits="userSpaceOnUse" x="0" y="0" width="843" height="331">
<rect width="843" height="331" fill="#D9D9D9"/>
</mask>
<g mask="url(#mask0_315_243)">
<path d="M315.541 87C351.286 87 382.808 114.358 401.474 155.997C427.215 113.232 469.821 85.9684 516.513 87.999C564.652 90.0926 605.047 122.8 625.418 169.862C638.483 153.623 655.792 143.735 674.778 143.735C715.476 143.736 748.468 189.164 748.468 245.203C748.468 301.242 715.476 346.671 674.778 346.671C654.582 346.671 636.285 335.483 622.975 317.363C598.948 369.45 551.659 404.125 499.217 401.845C457.239 400.019 421.15 374.915 399.092 337.314C380.193 376.078 349.808 401.222 315.541 401.222C275.93 401.222 241.505 367.626 224.015 318.229C210.843 335.193 193.147 345.579 173.689 345.579C155.742 345.579 139.294 336.742 126.513 322.059C114.774 336.683 97.0369 346 77.1895 346C41.8432 346 13.1895 316.451 13.1895 280C13.1895 243.549 41.8432 214 77.1895 214C86.0758 214 94.5391 215.868 102.23 219.243C110.284 175.227 139.223 142.644 173.689 142.644C193.147 142.644 210.843 153.029 224.015 169.992C241.505 120.596 275.931 87.0002 315.541 87Z" fill="#C8E6FF"/>
<use xlink:href="#stroke0_315_243" transform="translate(327.074 85.6288) scale(0.0564343) rotate(124.624)"/>
<use xlink:href="#stroke0_315_243" transform="translate(328.97 89.8601) scale(0.0478442) rotate(147.604)"/>
<use xlink:href="#stroke0_315_243" transform="translate(312.673 81.3059) scale(0.0612011) rotate(-19.2782)"/>
<use xlink:href="#stroke0_315_243" transform="translate(321.707 77.579) scale(0.0604329) rotate(9.73308)"/>
<use xlink:href="#stroke0_315_243" transform="translate(318.973 89.2665) scale(0.0682837) rotate(-48.7827)"/>
<use xlink:href="#stroke0_315_243" transform="translate(325.587 92.9437) scale(0.0600424) rotate(-59.5495)"/>
<use xlink:href="#stroke0_315_243" transform="translate(352.582 87.1161) scale(0.0572327) rotate(106.263)"/>
<use xlink:href="#stroke0_315_243" transform="translate(356.564 88.9883) scale(0.0568596) rotate(106.934)"/>
<use xlink:href="#stroke0_315_243" transform="translate(339.752 97.8659) scale(0.0487142) rotate(-61.5663)"/>
<use xlink:href="#stroke0_315_243" transform="translate(365.179 90.5317) scale(0.0672565) rotate(99.8665)"/>
<use xlink:href="#stroke0_315_243" transform="translate(367.781 103.788) scale(0.0538492) rotate(150.139)"/>
<use xlink:href="#stroke0_315_243" transform="translate(362.605 111.939) scale(0.0473643) rotate(-151.368)"/>
<use xlink:href="#stroke0_315_243" transform="translate(355.007 112.169) scale(0.0548658) rotate(-89.4145)"/>
<use xlink:href="#stroke0_315_243" transform="translate(373.08 100.537) scale(0.0455472) rotate(85.9233)"/>
<use xlink:href="#stroke0_315_243" transform="translate(374.272 100.199) scale(0.0520742) rotate(69.0997)"/>
<use xlink:href="#stroke0_315_243" transform="translate(367.913 101.952) scale(0.055516) rotate(19.0498)"/>
<use xlink:href="#stroke0_315_243" transform="translate(377.626 128.76) scale(0.0639276) rotate(-148.197)"/>
<use xlink:href="#stroke0_315_243" transform="translate(386.625 108.321) scale(0.0664129) rotate(76.6286)"/>
<use xlink:href="#stroke0_315_243" transform="translate(372.599 117.485) scale(0.051125) rotate(-17.4011)"/>
<use xlink:href="#stroke0_315_243" transform="translate(375.431 117.074) scale(0.0621609) rotate(-2.11267)"/>
<use xlink:href="#stroke0_315_243" transform="translate(393.393 136.196) scale(0.0455796) rotate(175.431)"/>
<use xlink:href="#stroke0_315_243" transform="translate(382.593 125.323) scale(0.045684) rotate(1.60796)"/>
<use xlink:href="#stroke0_315_243" transform="translate(403.59 134.986) scale(0.0621411) rotate(126.863)"/>
<use xlink:href="#stroke0_315_243" transform="translate(390.357 130.424) scale(0.0460049) rotate(25.3051)"/>
<use xlink:href="#stroke0_315_243" transform="translate(389.181 131.787) scale(0.0618124) rotate(14.0681)"/>
<use xlink:href="#stroke0_315_243" transform="translate(408.952 140.654) scale(0.065271) rotate(101.469)"/>
<use xlink:href="#stroke0_315_243" transform="translate(397.064 141.56) scale(0.0481334) rotate(28.6763)"/>
<use xlink:href="#stroke0_315_243" transform="translate(390.458 160.3) scale(0.0574653) rotate(-75.9648)"/>
<use xlink:href="#stroke0_315_243" transform="translate(394.462 159.276) scale(0.049755) rotate(-82.4692)"/>
<use xlink:href="#stroke0_315_243" transform="translate(406.198 161.761) scale(0.0566014) rotate(-143.726)"/>
<use xlink:href="#stroke0_315_243" transform="translate(408.181 134.212) scale(0.0597302) rotate(43.882)"/>
<use xlink:href="#stroke0_315_243" transform="translate(404.845 129.899) scale(0.0673854) rotate(17.3929)"/>
<use xlink:href="#stroke0_315_243" transform="translate(403.448 142.976) scale(0.051428) rotate(-70.7923)"/>
<use xlink:href="#stroke0_315_243" transform="translate(408.715 126.707) scale(0.0561083) rotate(3.34032)"/>
<use xlink:href="#stroke0_315_243" transform="translate(412.49 120.131) scale(0.0666099) rotate(13.5871)"/>
<use xlink:href="#stroke0_315_243" transform="translate(413.441 123.922) scale(0.0477443) rotate(-17.2041)"/>
<use xlink:href="#stroke0_315_243" transform="translate(435.475 122.275) scale(0.0562395) rotate(111.624)"/>
<use xlink:href="#stroke0_315_243" transform="translate(426.173 134.675) scale(0.0562463) rotate(-131.274)"/>
<use xlink:href="#stroke0_315_243" transform="translate(438.671 124.949) scale(0.0451111) rotate(159.533)"/>
<use xlink:href="#stroke0_315_243" transform="translate(422.648 125.08) scale(0.0638286) rotate(-82.0377)"/>
<use xlink:href="#stroke0_315_243" transform="translate(449.389 108.161) scale(0.0661744) rotate(102.707)"/>
<use xlink:href="#stroke0_315_243" transform="translate(449.847 113.934) scale(0.0448095) rotate(142.672)"/>
<use xlink:href="#stroke0_315_243" transform="translate(432.648 107.188) scale(0.0563765) rotate(-35.1714)"/>
<use xlink:href="#stroke0_315_243" transform="translate(459.302 107.279) scale(0.0572317) rotate(130.504)"/>
<use xlink:href="#stroke0_315_243" transform="translate(440.03 103.041) scale(0.055035) rotate(-37.6494)"/>
<use xlink:href="#stroke0_315_243" transform="translate(447.754 95.417) scale(0.0503159) rotate(-0.125473)"/>
<use xlink:href="#stroke0_315_243" transform="translate(459.905 89.3336) scale(0.0582166) rotate(49.3032)"/>
<use xlink:href="#stroke0_315_243" transform="translate(474.874 97.858) scale(0.0612609) rotate(125.407)"/>
<use xlink:href="#stroke0_315_243" transform="translate(471.193 109.161) scale(0.0620214) rotate(-159.596)"/>
<use xlink:href="#stroke0_315_243" transform="translate(477.195 105.354) scale(0.0568686) rotate(-171.614)"/>
<use xlink:href="#stroke0_315_243" transform="translate(482.619 87.4324) scale(0.0505585) rotate(91.2679)"/>
<use xlink:href="#stroke0_315_243" transform="translate(490.893 90.9962) scale(0.0600463) rotate(122.835)"/>
<use xlink:href="#stroke0_315_243" transform="translate(472.316 95.0578) scale(0.0537769) rotate(-66.5261)"/>
<use xlink:href="#stroke0_315_243" transform="translate(476.825 89.8443) scale(0.0476947) rotate(-43.4458)"/>
<use xlink:href="#stroke0_315_243" transform="translate(501.109 93.2562) scale(0.0544496) rotate(148.708)"/>
<use xlink:href="#stroke0_315_243" transform="translate(482.355 91.852) scale(0.0617341) rotate(-60.7796)"/>
<use xlink:href="#stroke0_315_243" transform="translate(498.335 97.8356) scale(0.0447774) rotate(-135.723)"/>
<use xlink:href="#stroke0_315_243" transform="translate(515.671 84.7486) scale(0.0641819) rotate(116.114)"/>
<use xlink:href="#stroke0_315_243" transform="translate(516.501 85.9162) scale(0.0465702) rotate(118.951)"/>
<use xlink:href="#stroke0_315_243" transform="translate(520.358 80.4206) scale(0.05775) rotate(92.4422)"/>
<use xlink:href="#stroke0_315_243" transform="translate(515.658 98.0651) scale(0.0492052) rotate(-141.238)"/>
<use xlink:href="#stroke0_315_243" transform="translate(527.746 92.1286) scale(0.0472974) rotate(155.681)"/>
<use xlink:href="#stroke0_315_243" transform="translate(511.807 94.5542) scale(0.0619951) rotate(-77.0647)"/>
<use xlink:href="#stroke0_315_243" transform="translate(534.335 82.7648) scale(0.0462409) rotate(90.7314)"/>
<use xlink:href="#stroke0_315_243" transform="translate(532.491 99.3168) scale(0.0483905) rotate(-149.074)"/>
<use xlink:href="#stroke0_315_243" transform="translate(539.013 79.4197) scale(0.0569211) rotate(63.4249)"/>
<use xlink:href="#stroke0_315_243" transform="translate(549.038 99.1627) scale(0.0618387) rotate(169.548)"/>
<use xlink:href="#stroke0_315_243" transform="translate(554.734 94.4904) scale(0.0560979) rotate(141.358)"/>
<use xlink:href="#stroke0_315_243" transform="translate(537.756 84.3877) scale(0.067493) rotate(-5.20016)"/>
<use xlink:href="#stroke0_315_243" transform="translate(561.787 99.3391) scale(0.0507549) rotate(153.092)"/>
<use xlink:href="#stroke0_315_243" transform="translate(567.694 94.7515) scale(0.0582713) rotate(120.332)"/>
<use xlink:href="#stroke0_315_243" transform="translate(567.683 107.839) scale(0.057526) rotate(-179.419)"/>
<use xlink:href="#stroke0_315_243" transform="translate(562.472 90.5019) scale(0.0499006) rotate(35.0641)"/>
<use xlink:href="#stroke0_315_243" transform="translate(576.39 95.9604) scale(0.0554235) rotate(95.6505)"/>
<use xlink:href="#stroke0_315_243" transform="translate(574.975 94.0762) scale(0.0558415) rotate(62.7802)"/>
<use xlink:href="#stroke0_315_243" transform="translate(583.229 99.4034) scale(0.0568489) rotate(90.3466)"/>
<use xlink:href="#stroke0_315_243" transform="translate(570.538 119.944) scale(0.0621255) rotate(-102.12)"/>
<use xlink:href="#stroke0_315_243" transform="translate(584.164 103.014) scale(0.0461875) rotate(57.9772)"/>
<use xlink:href="#stroke0_315_243" transform="translate(576.622 121.164) scale(0.0498128) rotate(-89.9152)"/>
<use xlink:href="#stroke0_315_243" transform="translate(575.283 115.964) scale(0.0596681) rotate(-43.3645)"/>
<use xlink:href="#stroke0_315_243" transform="translate(580.151 126.526) scale(0.0607926) rotate(-79.1915)"/>
<use xlink:href="#stroke0_315_243" transform="translate(601.951 127.586) scale(0.0453826) rotate(161.066)"/>
<use xlink:href="#stroke0_315_243" transform="translate(589.951 132.66) scale(0.0465995) rotate(-97.2085)"/>
<use xlink:href="#stroke0_315_243" transform="translate(589.41 127.088) scale(0.0452715) rotate(-42.8244)"/>
<use xlink:href="#stroke0_315_243" transform="translate(589.151 125.817) scale(0.0652835) rotate(-25.0478)"/>
<use xlink:href="#stroke0_315_243" transform="translate(608.895 142.94) scale(0.0470162) rotate(-167.611)"/>
<use xlink:href="#stroke0_315_243" transform="translate(615.68 140.761) scale(0.0479202) rotate(151.79)"/>
<use xlink:href="#stroke0_315_243" transform="translate(597.782 139.33) scale(0.0535221) rotate(-42.881)"/>
<use xlink:href="#stroke0_315_243" transform="translate(604.038 156.16) scale(0.068137) rotate(-106.925)"/>
<use xlink:href="#stroke0_315_243" transform="translate(620.198 158.959) scale(0.0597285) rotate(-168.515)"/>
<use xlink:href="#stroke0_315_243" transform="translate(608.245 147.141) scale(0.044245) rotate(-18.6734)"/>
<use xlink:href="#stroke0_315_243" transform="translate(628.648 151.871) scale(0.0537731) rotate(115.435)"/>
<use xlink:href="#stroke0_315_243" transform="translate(612.28 153.081) scale(0.0441779) rotate(-14.4055)"/>
<use xlink:href="#stroke0_315_243" transform="translate(617.519 152.078) scale(0.0488617) rotate(18.4985)"/>
<use xlink:href="#stroke0_315_243" transform="translate(614.215 175.746) scale(0.0674022) rotate(-97.2878)"/>
<use xlink:href="#stroke0_315_243" transform="translate(611.893 166.371) scale(0.0682675) rotate(-34.8446)"/>
<use xlink:href="#stroke0_315_243" transform="translate(638.072 163.771) scale(0.0484895) rotate(116.598)"/>
<use xlink:href="#stroke0_315_243" transform="translate(641.379 154.67) scale(0.0639355) rotate(90.9626)"/>
<use xlink:href="#stroke0_315_243" transform="translate(640.871 170.072) scale(0.0572387) rotate(-170.104)"/>
<use xlink:href="#stroke0_315_243" transform="translate(644.778 164.727) scale(0.0491031) rotate(177.796)"/>
<use xlink:href="#stroke0_315_243" transform="translate(628.541 159.874) scale(0.0670115) rotate(-70.3862)"/>
<use xlink:href="#stroke0_315_243" transform="translate(654.218 151.412) scale(0.0453986) rotate(125.299)"/>
<use xlink:href="#stroke0_315_243" transform="translate(660.055 150.215) scale(0.0570362) rotate(130.149)"/>
<use xlink:href="#stroke0_315_243" transform="translate(641.12 140.443) scale(0.0679283) rotate(-13.866)"/>
<use xlink:href="#stroke0_315_243" transform="translate(647.503 140.223) scale(0.055912) rotate(-14.3138)"/>
<use xlink:href="#stroke0_315_243" transform="translate(655.49 156.563) scale(0.0609503) rotate(-111.118)"/>
<use xlink:href="#stroke0_315_243" transform="translate(678.367 145.79) scale(0.0612366) rotate(137.393)"/>
<use xlink:href="#stroke0_315_243" transform="translate(677.888 150.229) scale(0.0490025) rotate(169.946)"/>
<use xlink:href="#stroke0_315_243" transform="translate(663.303 139.949) scale(0.0549395) rotate(-28.9947)"/>
<use xlink:href="#stroke0_315_243" transform="translate(667.21 144.097) scale(0.0527355) rotate(-49.9808)"/>
<use xlink:href="#stroke0_315_243" transform="translate(686.917 156.405) scale(0.0628164) rotate(-158.859)"/>
<use xlink:href="#stroke0_315_243" transform="translate(693.316 151.689) scale(0.0462391) rotate(175.907)"/>
<use xlink:href="#stroke0_315_243" transform="translate(678.315 149.283) scale(0.0612217) rotate(-63.4771)"/>
<use xlink:href="#stroke0_315_243" transform="translate(691.261 156.477) scale(0.0467971) rotate(-119.64)"/>
<use xlink:href="#stroke0_315_243" transform="translate(689.253 144.822) scale(0.0447904) rotate(-23.7004)"/>
<use xlink:href="#stroke0_315_243" transform="translate(692.505 158.881) scale(0.0587749) rotate(-92.8987)"/>
<use xlink:href="#stroke0_315_243" transform="translate(711.668 145.614) scale(0.047456) rotate(87.1038)"/>
<use xlink:href="#stroke0_315_243" transform="translate(695.972 151.903) scale(0.0605657) rotate(-35.6665)"/>
<use xlink:href="#stroke0_315_243" transform="translate(712.556 166.447) scale(0.0457339) rotate(-145.836)"/>
<use xlink:href="#stroke0_315_243" transform="translate(719.611 147.362) scale(0.0652411) rotate(63.2574)"/>
<use xlink:href="#stroke0_315_243" transform="translate(711.467 153.375) scale(0.0565227) rotate(7.28547)"/>
<use xlink:href="#stroke0_315_243" transform="translate(712.763 161.065) scale(0.0447105) rotate(-17.667)"/>
<use xlink:href="#stroke0_315_243" transform="translate(712.84 164.394) scale(0.0540738) rotate(-26.213)"/>
<use xlink:href="#stroke0_315_243" transform="translate(735.04 174.379) scale(0.0479289) rotate(147.344)"/>
<use xlink:href="#stroke0_315_243" transform="translate(725.858 184.875) scale(0.0503427) rotate(-127.97)"/>
<use xlink:href="#stroke0_315_243" transform="translate(731.776 188.907) scale(0.0537744) rotate(-147.929)"/>
<use xlink:href="#stroke0_315_243" transform="translate(727.538 169.8) scale(0.0625871) rotate(19.7257)"/>
<use xlink:href="#stroke0_315_243" transform="translate(726.698 178.551) scale(0.0504806) rotate(-6.33829)"/>
<use xlink:href="#stroke0_315_243" transform="translate(745.863 194.362) scale(0.0536016) rotate(160.016)"/>
<use xlink:href="#stroke0_315_243" transform="translate(747.374 191.212) scale(0.0470351) rotate(123.375)"/>
<use xlink:href="#stroke0_315_243" transform="translate(731.261 200.269) scale(0.0441194) rotate(-78.3813)"/>
<use xlink:href="#stroke0_315_243" transform="translate(743.747 188.515) scale(0.054558) rotate(58.2116)"/>
<use xlink:href="#stroke0_315_243" transform="translate(746.054 191.605) scale(0.0607392) rotate(60.5825)"/>
<use xlink:href="#stroke0_315_243" transform="translate(733.812 198.313) scale(0.0662508) rotate(-3.09266)"/>
<use xlink:href="#stroke0_315_243" transform="translate(754.769 207.444) scale(0.0553931) rotate(104.971)"/>
<use xlink:href="#stroke0_315_243" transform="translate(753.53 208.383) scale(0.0559837) rotate(85.5095)"/>
<use xlink:href="#stroke0_315_243" transform="translate(755.517 231.238) scale(0.0658467) rotate(179.103)"/>
<use xlink:href="#stroke0_315_243" transform="translate(737.491 233.127) scale(0.0585641) rotate(-85.4444)"/>
<use xlink:href="#stroke0_315_243" transform="translate(734.698 226.512) scale(0.0663217) rotate(-31.0575)"/>
<use xlink:href="#stroke0_315_243" transform="translate(760.029 230.001) scale(0.0637846) rotate(106.322)"/>
<use xlink:href="#stroke0_315_243" transform="translate(744.492 229.978) scale(0.0521336) rotate(20.2053)"/>
<use xlink:href="#stroke0_315_243" transform="translate(748.395 233.726) scale(0.0491078) rotate(41.0274)"/>
<use xlink:href="#stroke0_315_243" transform="translate(757.932 258.463) scale(0.0676072) rotate(178.359)"/>
<use xlink:href="#stroke0_315_243" transform="translate(738.643 252.98) scale(0.0468163) rotate(-50.5457)"/>
<use xlink:href="#stroke0_315_243" transform="translate(757.099 249.78) scale(0.0549666) rotate(94.8316)"/>
<use xlink:href="#stroke0_315_243" transform="translate(737.615 265.197) scale(0.0534509) rotate(-73.1304)"/>
<use xlink:href="#stroke0_315_243" transform="translate(759.594 259.866) scale(0.0661745) rotate(108.558)"/>
<use xlink:href="#stroke0_315_243" transform="translate(753.601 260.828) scale(0.05604) rotate(80.7045)"/>
<use xlink:href="#stroke0_315_243" transform="translate(732.691 268.831) scale(0.0672571) rotate(-25.0407)"/>
<use xlink:href="#stroke0_315_243" transform="translate(740.246 269.29) scale(0.0499456) rotate(17.841)"/>
<use xlink:href="#stroke0_315_243" transform="translate(733.159 279.216) scale(0.0519306) rotate(-30.9213)"/>
<use xlink:href="#stroke0_315_243" transform="translate(751.502 288.18) scale(0.046111) rotate(144.467)"/>
<use xlink:href="#stroke0_315_243" transform="translate(747.198 298.622) scale(0.0529893) rotate(-172.883)"/>
<use xlink:href="#stroke0_315_243" transform="translate(733.835 285.919) scale(0.0452869) rotate(2.02004)"/>
<use xlink:href="#stroke0_315_243" transform="translate(742.827 287.112) scale(0.0505328) rotate(66.7933)"/>
<use xlink:href="#stroke0_315_243" transform="translate(725.884 296.424) scale(0.055732) rotate(-29.3489)"/>
<use xlink:href="#stroke0_315_243" transform="translate(735.037 290.93) scale(0.0651553) rotate(42.9778)"/>
<use xlink:href="#stroke0_315_243" transform="translate(741.216 303.696) scale(0.0468948) rotate(104.388)"/>
<use xlink:href="#stroke0_315_243" transform="translate(734.989 322.076) scale(0.0559055) rotate(-161.004)"/>
<use xlink:href="#stroke0_315_243" transform="translate(715.378 319.573) scale(0.0650689) rotate(-67.2545)"/>
<use xlink:href="#stroke0_315_243" transform="translate(728.6 306.129) scale(0.0663303) rotate(56.2482)"/>
<use xlink:href="#stroke0_315_243" transform="translate(721.312 313.285) scale(0.0457368) rotate(34.7417)"/>
<use xlink:href="#stroke0_315_243" transform="translate(720.845 315.95) scale(0.0451926) rotate(46.0241)"/>
<use xlink:href="#stroke0_315_243" transform="translate(727.926 324.903) scale(0.0527406) rotate(115.404)"/>
<use xlink:href="#stroke0_315_243" transform="translate(717.888 321.411) scale(0.0466819) rotate(60.6255)"/>
<use xlink:href="#stroke0_315_243" transform="translate(724.113 335.889) scale(0.0625087) rotate(143.644)"/>
<use xlink:href="#stroke0_315_243" transform="translate(714.892 328.15) scale(0.0492939) rotate(83.2284)"/>
<use xlink:href="#stroke0_315_243" transform="translate(711.239 349.031) scale(0.062482) rotate(-169.873)"/>
<use xlink:href="#stroke0_315_243" transform="translate(694.918 329.971) scale(0.0571393) rotate(12.5642)"/>
<use xlink:href="#stroke0_315_243" transform="translate(701.467 350.662) scale(0.0474622) rotate(-165.877)"/>
<use xlink:href="#stroke0_315_243" transform="translate(701.92 351.379) scale(0.0569733) rotate(174.001)"/>
<use xlink:href="#stroke0_315_243" transform="translate(677.23 340.169) scale(0.0613647) rotate(-27.1466)"/>
<use xlink:href="#stroke0_315_243" transform="translate(678.514 355.658) scale(0.0564125) rotate(-106.933)"/>
<use xlink:href="#stroke0_315_243" transform="translate(670.439 348.473) scale(0.0503477) rotate(-60.3581)"/>
<use xlink:href="#stroke0_315_243" transform="translate(674.452 357.155) scale(0.0522415) rotate(-126.607)"/>
<use xlink:href="#stroke0_315_243" transform="translate(663.223 352.107) scale(0.0530495) rotate(-78.7056)"/>
<use xlink:href="#stroke0_315_243" transform="translate(667.491 333.279) scale(0.0632709) rotate(38.0655)"/>
<use xlink:href="#stroke0_315_243" transform="translate(668.184 354.003) scale(0.0451317) rotate(-164.198)"/>
<use xlink:href="#stroke0_315_243" transform="translate(657.027 332.927) scale(0.0594177) rotate(25.9091)"/>
<use xlink:href="#stroke0_315_243" transform="translate(644.73 347.181) scale(0.0579707) rotate(-67.2854)"/>
<use xlink:href="#stroke0_315_243" transform="translate(662.474 334.607) scale(0.06214) rotate(98.0634)"/>
<use xlink:href="#stroke0_315_243" transform="translate(649.141 327.637) scale(0.0584993) rotate(48.3962)"/>
<use xlink:href="#stroke0_315_243" transform="translate(654.119 333.618) scale(0.052411) rotate(110.632)"/>
<use xlink:href="#stroke0_315_243" transform="translate(628.573 338.501) scale(0.0602652) rotate(-64.8325)"/>
<use xlink:href="#stroke0_315_243" transform="translate(638.292 320.888) scale(0.0559231) rotate(47.9509)"/>
<use xlink:href="#stroke0_315_243" transform="translate(640.825 338.221) scale(0.0541116) rotate(-177.575)"/>
<use xlink:href="#stroke0_315_243" transform="translate(627.035 335.291) scale(0.0451623) rotate(-112.645)"/>
<use xlink:href="#stroke0_315_243" transform="translate(617.894 315.636) scale(0.0643377) rotate(-10.0484)"/>
<use xlink:href="#stroke0_315_243" transform="translate(615.303 325.278) scale(0.0541223) rotate(-74.341)"/>
<use xlink:href="#stroke0_315_243" transform="translate(610.92 313.035) scale(0.0620562) rotate(-26.3784)"/>
<use xlink:href="#stroke0_315_243" transform="translate(626.157 311.839) scale(0.055359) rotate(69.4349)"/>
<use xlink:href="#stroke0_315_243" transform="translate(608.251 325.543) scale(0.0519293) rotate(-48.6246)"/>
<use xlink:href="#stroke0_315_243" transform="translate(617.965 318.575) scale(0.0507357) rotate(46.3005)"/>
<use xlink:href="#stroke0_315_243" transform="translate(600.909 333.842) scale(0.0677664) rotate(-52.4968)"/>
<use xlink:href="#stroke0_315_243" transform="translate(601.776 345.494) scale(0.0646805) rotate(-87.1613)"/>
<use xlink:href="#stroke0_315_243" transform="translate(598.844 332.426) scale(0.0674116) rotate(-8.27303)"/>
<use xlink:href="#stroke0_315_243" transform="translate(610.702 353.904) scale(0.0470955) rotate(-161.548)"/>
<use xlink:href="#stroke0_315_243" transform="translate(596.055 351.299) scale(0.0458113) rotate(-70.1628)"/>
<use xlink:href="#stroke0_315_243" transform="translate(592.949 348.451) scale(0.0482767) rotate(-35.6681)"/>
<use xlink:href="#stroke0_315_243" transform="translate(613.257 353.113) scale(0.064995) rotate(127.499)"/>
<use xlink:href="#stroke0_315_243" transform="translate(603.452 349.896) scale(0.047192) rotate(82.0472)"/>
<use xlink:href="#stroke0_315_243" transform="translate(581.959 357.712) scale(0.061501) rotate(-36.6515)"/>
<use xlink:href="#stroke0_315_243" transform="translate(602.029 363.412) scale(0.0519096) rotate(131.208)"/>
<use xlink:href="#stroke0_315_243" transform="translate(598.942 362.769) scale(0.0536189) rotate(112.906)"/>
<use xlink:href="#stroke0_315_243" transform="translate(592.152 359.341) scale(0.0580425) rotate(76.0582)"/>
<use xlink:href="#stroke0_315_243" transform="translate(573.478 378.404) scale(0.0526755) rotate(-85.1556)"/>
<use xlink:href="#stroke0_315_243" transform="translate(588.969 378.429) scale(0.0515539) rotate(153.284)"/>
<use xlink:href="#stroke0_315_243" transform="translate(567.268 365.949) scale(0.0680653) rotate(5.30308)"/>
<use xlink:href="#stroke0_315_243" transform="translate(567.991 370.814) scale(0.0479602) rotate(17.8263)"/>
<use xlink:href="#stroke0_315_243" transform="translate(567.765 369.412) scale(0.0622961) rotate(38.3097)"/>
<use xlink:href="#stroke0_315_243" transform="translate(553.012 389.771) scale(0.0609094) rotate(-72.4055)"/>
<use xlink:href="#stroke0_315_243" transform="translate(571.489 390.092) scale(0.0547993) rotate(147.724)"/>
<use xlink:href="#stroke0_315_243" transform="translate(560.828 378.387) scale(0.0543013) rotate(61.435)"/>
<use xlink:href="#stroke0_315_243" transform="translate(566.771 389.754) scale(0.0680638) rotate(126.544)"/>
<use xlink:href="#stroke0_315_243" transform="translate(538.737 388.223) scale(0.0528764) rotate(-23.6375)"/>
<use xlink:href="#stroke0_315_243" transform="translate(546.707 405.386) scale(0.0544488) rotate(-148.347)"/>
<use xlink:href="#stroke0_315_243" transform="translate(550.25 391.015) scale(0.0501083) rotate(104.361)"/>
<use xlink:href="#stroke0_315_243" transform="translate(533.648 386.341) scale(0.0544272) rotate(22.5013)"/>
<use xlink:href="#stroke0_315_243" transform="translate(526.492 407.123) scale(0.0548847) rotate(-101.703)"/>
<use xlink:href="#stroke0_315_243" transform="translate(539.439 402.668) scale(0.052207) rotate(150.934)"/>
<use xlink:href="#stroke0_315_243" transform="translate(533.391 393.23) scale(0.0501723) rotate(91.268)"/>
<use xlink:href="#stroke0_315_243" transform="translate(531.621 394.019) scale(0.0591028) rotate(98.6209)"/>
<use xlink:href="#stroke0_315_243" transform="translate(513.204 412.424) scale(0.0575345) rotate(-119.943)"/>
<use xlink:href="#stroke0_315_243" transform="translate(521.852 411.634) scale(0.0672774) rotate(177.533)"/>
<use xlink:href="#stroke0_315_243" transform="translate(514.992 394.228) scale(0.0512455) rotate(84.8038)"/>
<use xlink:href="#stroke0_315_243" transform="translate(499.87 410.924) scale(0.0479233) rotate(-114.07)"/>
<use xlink:href="#stroke0_315_243" transform="translate(493.109 393.43) scale(0.053313) rotate(1.76746)"/>
<use xlink:href="#stroke0_315_243" transform="translate(505.972 405.028) scale(0.05041) rotate(150.293)"/>
<use xlink:href="#stroke0_315_243" transform="translate(481.574 397.424) scale(0.0548123) rotate(-28.4177)"/>
<use xlink:href="#stroke0_315_243" transform="translate(490.816 411.639) scale(0.0544019) rotate(-152.986)"/>
<use xlink:href="#stroke0_315_243" transform="translate(486.697 391.379) scale(0.0443512) rotate(56.5143)"/>
<use xlink:href="#stroke0_315_243" transform="translate(491.95 401.723) scale(0.0564994) rotate(142.707)"/>
<use xlink:href="#stroke0_315_243" transform="translate(483.698 404.725) scale(0.0450156) rotate(173.108)"/>
<use xlink:href="#stroke0_315_243" transform="translate(471.084 408.318) scale(0.0531327) rotate(-127.593)"/>
<use xlink:href="#stroke0_315_243" transform="translate(462.751 406.852) scale(0.0596963) rotate(-107.676)"/>
<use xlink:href="#stroke0_315_243" transform="translate(457.751 382.566) scale(0.0674244) rotate(12.3111)"/>
<use xlink:href="#stroke0_315_243" transform="translate(453.245 404.802) scale(0.066489) rotate(-110.119)"/>
<use xlink:href="#stroke0_315_243" transform="translate(458.51 401.198) scale(0.0518935) rotate(-154.055)"/>
<use xlink:href="#stroke0_315_243" transform="translate(461.867 387.823) scale(0.0470317) rotate(123.1)"/>
<use xlink:href="#stroke0_315_243" transform="translate(458.264 385.882) scale(0.0447432) rotate(120.881)"/>
<use xlink:href="#stroke0_315_243" transform="translate(448.339 376.467) scale(0.0466387) rotate(54.321)"/>
<use xlink:href="#stroke0_315_243" transform="translate(453.714 386.804) scale(0.0544607) rotate(146.971)"/>
<use xlink:href="#stroke0_315_243" transform="translate(425.194 382.502) scale(0.0676114) rotate(-53.9187)"/>
<use xlink:href="#stroke0_315_243" transform="translate(425.729 385.035) scale(0.0561791) rotate(-83.3529)"/>
<use xlink:href="#stroke0_315_243" transform="translate(440.559 370.22) scale(0.0499216) rotate(97.4441)"/>
<use xlink:href="#stroke0_315_243" transform="translate(426.18 360.191) scale(0.064258) rotate(30.4398)"/>
<use xlink:href="#stroke0_315_243" transform="translate(414.872 368.844) scale(0.0516013) rotate(-41.0706)"/>
<use xlink:href="#stroke0_315_243" transform="translate(412.463 369.917) scale(0.0504792) rotate(-61.7351)"/>
<use xlink:href="#stroke0_315_243" transform="translate(427.562 359.157) scale(0.0463413) rotate(94.0831)"/>
<use xlink:href="#stroke0_315_243" transform="translate(425.237 356.604) scale(0.0466836) rotate(94.5964)"/>
<use xlink:href="#stroke0_315_243" transform="translate(411.759 350.759) scale(0.0465617) rotate(20.5389)"/>
<use xlink:href="#stroke0_315_243" transform="translate(404.277 346.481) scale(0.0630026) rotate(2.20121)"/>
<use xlink:href="#stroke0_315_243" transform="translate(403.075 360.128) scale(0.0469303) rotate(-93.9723)"/>
<use xlink:href="#stroke0_315_243" transform="translate(396.878 348.394) scale(0.0527219) rotate(-38.9003)"/>
<use xlink:href="#stroke0_315_243" transform="translate(404.34 333.673) scale(0.0630271) rotate(38.4143)"/>
<use xlink:href="#stroke0_315_243" transform="translate(402.904 332.521) scale(0.0510014) rotate(43.0409)"/>
<use xlink:href="#stroke0_315_243" transform="translate(409.809 345.278) scale(0.052839) rotate(162.498)"/>
<use xlink:href="#stroke0_315_243" transform="translate(411.332 334.299) scale(0.0674142) rotate(111.703)"/>
<use xlink:href="#stroke0_315_243" transform="translate(404.54 337.233) scale(0.0489024) rotate(97.0459)"/>
<use xlink:href="#stroke0_315_243" transform="translate(384.788 343.877) scale(0.0482339) rotate(-35.313)"/>
<use xlink:href="#stroke0_315_243" transform="translate(398.979 355.892) scale(0.04461) rotate(178.033)"/>
<use xlink:href="#stroke0_315_243" transform="translate(381.23 344.373) scale(0.0606329) rotate(-7.11532)"/>
<use xlink:href="#stroke0_315_243" transform="translate(397.545 357.508) scale(0.0451125) rotate(140.646)"/>
<use xlink:href="#stroke0_315_243" transform="translate(394.778 362.579) scale(0.0443904) rotate(155.652)"/>
<use xlink:href="#stroke0_315_243" transform="translate(393.151 365.494) scale(0.0464002) rotate(155.283)"/>
<use xlink:href="#stroke0_315_243" transform="translate(375.584 371.7) scale(0.0477218) rotate(-95.9336)"/>
<use xlink:href="#stroke0_315_243" transform="translate(370.683 375.582) scale(0.0584153) rotate(-90.0834)"/>
<use xlink:href="#stroke0_315_243" transform="translate(370.675 362.001) scale(0.0524603) rotate(6.07675)"/>
<use xlink:href="#stroke0_315_243" transform="translate(383.223 364.632) scale(0.0645265) rotate(86.1359)"/>
<use xlink:href="#stroke0_315_243" transform="translate(374.855 365.697) scale(0.0608164) rotate(61.8628)"/>
<use xlink:href="#stroke0_315_243" transform="translate(362.694 367.581) scale(0.0668433) rotate(23.7325)"/>
<use xlink:href="#stroke0_315_243" transform="translate(355.751 374.321) scale(0.0582371) rotate(3.01818)"/>
<use xlink:href="#stroke0_315_243" transform="translate(351.331 392.822) scale(0.0522043) rotate(-86.3724)"/>
<use xlink:href="#stroke0_315_243" transform="translate(361.992 398.795) scale(0.0566054) rotate(-167.302)"/>
<use xlink:href="#stroke0_315_243" transform="translate(364.132 394.375) scale(0.0582541) rotate(148.413)"/>
<use xlink:href="#stroke0_315_243" transform="translate(354.386 405.685) scale(0.0673623) rotate(-163.899)"/>
<use xlink:href="#stroke0_315_243" transform="translate(356.13 401.908) scale(0.0679521) rotate(159.46)"/>
<use xlink:href="#stroke0_315_243" transform="translate(346.417 404.082) scale(0.0476561) rotate(178.096)"/>
<use xlink:href="#stroke0_315_243" transform="translate(341.08 408.368) scale(0.0553991) rotate(-165.273)"/>
<use xlink:href="#stroke0_315_243" transform="translate(321.111 395.672) scale(0.0552468) rotate(-30.0824)"/>
<use xlink:href="#stroke0_315_243" transform="translate(322.083 391.001) scale(0.0525022) rotate(9.00078)"/>
<use xlink:href="#stroke0_315_243" transform="translate(313.78 407.892) scale(0.0592512) rotate(-84.4613)"/>
<use xlink:href="#stroke0_315_243" transform="translate(329.086 401.024) scale(0.0457167) rotate(130.945)"/>
<use xlink:href="#stroke0_315_243" transform="translate(305.079 403.015) scale(0.0533181) rotate(-58.0088)"/>
<use xlink:href="#stroke0_315_243" transform="translate(322.11 405.017) scale(0.053376) rotate(152.163)"/>
<use xlink:href="#stroke0_315_243" transform="translate(299.302 403.099) scale(0.0442847) rotate(-63.031)"/>
<use xlink:href="#stroke0_315_243" transform="translate(293.315 404.689) scale(0.057408) rotate(-70.3555)"/>
<use xlink:href="#stroke0_315_243" transform="translate(309.029 393.359) scale(0.0523686) rotate(96.5848)"/>
<use xlink:href="#stroke0_315_243" transform="translate(290.252 408.68) scale(0.0572168) rotate(-108.623)"/>
<use xlink:href="#stroke0_315_243" transform="translate(292.304 406.507) scale(0.0446809) rotate(-137.8)"/>
<use xlink:href="#stroke0_315_243" transform="translate(279.143 400.492) scale(0.0524297) rotate(-73.0652)"/>
<use xlink:href="#stroke0_315_243" transform="translate(277.644 385.823) scale(0.055481) rotate(0.0554061)"/>
<use xlink:href="#stroke0_315_243" transform="translate(284.375 402.172) scale(0.0481292) rotate(-154.588)"/>
<use xlink:href="#stroke0_315_243" transform="translate(270.935 381.987) scale(0.0552786) rotate(1.72919)"/>
<use xlink:href="#stroke0_315_243" transform="translate(266.348 396.11) scale(0.0545223) rotate(-90.9814)"/>
<use xlink:href="#stroke0_315_243" transform="translate(281.913 383.358) scale(0.0537504) rotate(116.415)"/>
<use xlink:href="#stroke0_315_243" transform="translate(269.577 395.864) scale(0.0601998) rotate(-147.059)"/>
<use xlink:href="#stroke0_315_243" transform="translate(275.974 380.54) scale(0.0566616) rotate(130.23)"/>
<use xlink:href="#stroke0_315_243" transform="translate(256.371 370.252) scale(0.0456399) rotate(8.97679)"/>
<use xlink:href="#stroke0_315_243" transform="translate(258.414 361.491) scale(0.0666619) rotate(41.7616)"/>
<use xlink:href="#stroke0_315_243" transform="translate(264.605 368.356) scale(0.0486979) rotate(109.842)"/>
<use xlink:href="#stroke0_315_243" transform="translate(250.506 355.496) scale(0.0652827) rotate(33.328)"/>
<use xlink:href="#stroke0_315_243" transform="translate(253.548 357.251) scale(0.0445477) rotate(66.1028)"/>
<use xlink:href="#stroke0_315_243" transform="translate(239.782 350.958) scale(0.065561) rotate(8.35662)"/>
<use xlink:href="#stroke0_315_243" transform="translate(235.979 352.852) scale(0.0503673) rotate(-14.276)"/>
<use xlink:href="#stroke0_315_243" transform="translate(231.333 354.242) scale(0.0536126) rotate(-42.4555)"/>
<use xlink:href="#stroke0_315_243" transform="translate(244.783 362.861) scale(0.0584368) rotate(-162.056)"/>
<use xlink:href="#stroke0_315_243" transform="translate(225.707 344.631) scale(0.0602873) rotate(-33.069)"/>
<use xlink:href="#stroke0_315_243" transform="translate(247.468 347.374) scale(0.0610145) rotate(147.35)"/>
<use xlink:href="#stroke0_315_243" transform="translate(245.635 340.941) scale(0.0604775) rotate(136.546)"/>
<use xlink:href="#stroke0_315_243" transform="translate(229.471 325.668) scale(0.0510836) rotate(31.0569)"/>
<use xlink:href="#stroke0_315_243" transform="translate(219.902 331.804) scale(0.0481024) rotate(-44.0729)"/>
<use xlink:href="#stroke0_315_243" transform="translate(216.107 327.123) scale(0.0590417) rotate(-40.449)"/>
<use xlink:href="#stroke0_315_243" transform="translate(214.269 331.166) scale(0.0671582) rotate(-77.9398)"/>
<use xlink:href="#stroke0_315_243" transform="translate(231.539 327.965) scale(0.0501311) rotate(-179.897)"/>
<use xlink:href="#stroke0_315_243" transform="translate(228.505 328.079) scale(0.049398) rotate(-171.62)"/>
<use xlink:href="#stroke0_315_243" transform="translate(230.796 319.039) scale(0.0530931) rotate(112.718)"/>
<use xlink:href="#stroke0_315_243" transform="translate(214.832 339.168) scale(0.0658439) rotate(-127.871)"/>
<use xlink:href="#stroke0_315_243" transform="translate(217.201 316.15) scale(0.0662298) rotate(56.252)"/>
<use xlink:href="#stroke0_315_243" transform="translate(208.927 321.319) scale(0.053517) rotate(34.6978)"/>
<use xlink:href="#stroke0_315_243" transform="translate(198.709 344.01) scale(0.0593664) rotate(-97.4127)"/>
<use xlink:href="#stroke0_315_243" transform="translate(206.431 327.01) scale(0.0515182) rotate(59.1123)"/>
<use xlink:href="#stroke0_315_243" transform="translate(205.307 330.895) scale(0.0470662) rotate(75.0988)"/>
<use xlink:href="#stroke0_315_243" transform="translate(192.717 328.692) scale(0.0609985) rotate(25.1722)"/>
<use xlink:href="#stroke0_315_243" transform="translate(187.764 352.768) scale(0.0547623) rotate(-115.817)"/>
<use xlink:href="#stroke0_315_243" transform="translate(183.234 354.806) scale(0.0588602) rotate(-115.45)"/>
<use xlink:href="#stroke0_315_243" transform="translate(195.167 344.374) scale(0.0554963) rotate(130.064)"/>
<use xlink:href="#stroke0_315_243" transform="translate(188.568 349.113) scale(0.0460691) rotate(155.639)"/>
<use xlink:href="#stroke0_315_243" transform="translate(181.776 337.872) scale(0.0452233) rotate(76.2638)"/>
<use xlink:href="#stroke0_315_243" transform="translate(180.063 355.635) scale(0.0615322) rotate(-175.91)"/>
<use xlink:href="#stroke0_315_243" transform="translate(172.868 334.757) scale(0.056501) rotate(66.7018)"/>
<use xlink:href="#stroke0_315_243" transform="translate(176.036 349.603) scale(0.0667342) rotate(152.903)"/>
<use xlink:href="#stroke0_315_243" transform="translate(162.186 352.467) scale(0.0456993) rotate(-157.834)"/>
<use xlink:href="#stroke0_315_243" transform="translate(163.502 350.996) scale(0.0576022) rotate(177.848)"/>
<use xlink:href="#stroke0_315_243" transform="translate(152.535 350.865) scale(0.0485159) rotate(-144.146)"/>
<use xlink:href="#stroke0_315_243" transform="translate(142.448 347.817) scale(0.0497489) rotate(-104.548)"/>
<use xlink:href="#stroke0_315_243" transform="translate(153.637 340.744) scale(0.0445194) rotate(151.373)"/>
<use xlink:href="#stroke0_315_243" transform="translate(132.425 342.536) scale(0.056553) rotate(-85.2951)"/>
<use xlink:href="#stroke0_315_243" transform="translate(148.072 337.091) scale(0.0504939) rotate(153.241)"/>
<use xlink:href="#stroke0_315_243" transform="translate(144.433 334.858) scale(0.0474605) rotate(155.28)"/>
<use xlink:href="#stroke0_315_243" transform="translate(121.659 318.954) scale(0.0675696) rotate(-8.0276)"/>
<use xlink:href="#stroke0_315_243" transform="translate(120.7 321.455) scale(0.0446552) rotate(-25.9981)"/>
<use xlink:href="#stroke0_315_243" transform="translate(127.637 332.001) scale(0.0467135) rotate(-143.408)"/>
<use xlink:href="#stroke0_315_243" transform="translate(137.665 324.365) scale(0.0663101) rotate(128.859)"/>
<use xlink:href="#stroke0_315_243" transform="translate(124.847 317.2) scale(0.0578069) rotate(61.6125)"/>
<use xlink:href="#stroke0_315_243" transform="translate(111.485 321.433) scale(0.0559972) rotate(9.89674)"/>
<use xlink:href="#stroke0_315_243" transform="translate(118.598 346.763) scale(0.0656861) rotate(-159.163)"/>
<use xlink:href="#stroke0_315_243" transform="translate(106.551 347.237) scale(0.0542002) rotate(-120.306)"/>
<use xlink:href="#stroke0_315_243" transform="translate(115.905 329.727) scale(0.0652513) rotate(88.3219)"/>
<use xlink:href="#stroke0_315_243" transform="translate(103.189 331.42) scale(0.0454356) rotate(46.8813)"/>
<use xlink:href="#stroke0_315_243" transform="translate(106.038 349.382) scale(0.0494311) rotate(177.211)"/>
<use xlink:href="#stroke0_315_243" transform="translate(91.427 332.203) scale(0.0571702) rotate(23.235)"/>
<use xlink:href="#stroke0_315_243" transform="translate(87.5049 332.634) scale(0.0598532) rotate(25.9743)"/>
<use xlink:href="#stroke0_315_243" transform="translate(74.5838 343.202) scale(0.0581475) rotate(-38.3642)"/>
<use xlink:href="#stroke0_315_243" transform="translate(80.2913 332.505) scale(0.0651476) rotate(35.4095)"/>
<use xlink:href="#stroke0_315_243" transform="translate(86.7411 349.836) scale(0.0493847) rotate(153.582)"/>
<use xlink:href="#stroke0_315_243" transform="translate(84.9098 345.946) scale(0.0564342) rotate(131.729)"/>
<use xlink:href="#stroke0_315_243" transform="translate(61.6875 339.661) scale(0.0469342) rotate(-11.311)"/>
<use xlink:href="#stroke0_315_243" transform="translate(51.2169 345.693) scale(0.0674496) rotate(-52.2091)"/>
<use xlink:href="#stroke0_315_243" transform="translate(54.3215 330.696) scale(0.0685756) rotate(17.5346)"/>
<use xlink:href="#stroke0_315_243" transform="translate(41.1812 341.96) scale(0.0676676) rotate(-48.5688)"/>
<use xlink:href="#stroke0_315_243" transform="translate(59.9931 347.25) scale(0.0567694) rotate(169.029)"/>
<use xlink:href="#stroke0_315_243" transform="translate(35.0004 332.245) scale(0.0632882) rotate(-22.2381)"/>
<use xlink:href="#stroke0_315_243" transform="translate(50.7365 324.808) scale(0.0654838) rotate(79.1511)"/>
<use xlink:href="#stroke0_315_243" transform="translate(28.5201 328.635) scale(0.0538826) rotate(-26.4895)"/>
<use xlink:href="#stroke0_315_243" transform="translate(40.9402 320.637) scale(0.0531474) rotate(70.3294)"/>
<use xlink:href="#stroke0_315_243" transform="translate(37.4685 313.99) scale(0.0681894) rotate(63.0562)"/>
<use xlink:href="#stroke0_315_243" transform="translate(21.2319 319.869) scale(0.0441735) rotate(-22.3737)"/>
<use xlink:href="#stroke0_315_243" transform="translate(30.9026 312.016) scale(0.0480359) rotate(63.6374)"/>
<use xlink:href="#stroke0_315_243" transform="translate(29.5482 307.637) scale(0.0552342) rotate(65.842)"/>
<use xlink:href="#stroke0_315_243" transform="translate(22.692 324.398) scale(0.0471109) rotate(-138.313)"/>
<use xlink:href="#stroke0_315_243" transform="translate(27.0156 303.292) scale(0.0496105) rotate(77.9909)"/>
<use xlink:href="#stroke0_315_243" transform="translate(26.7553 298.389) scale(0.0588144) rotate(80.5294)"/>
<use xlink:href="#stroke0_315_243" transform="translate(20.6528 313.759) scale(0.0500311) rotate(-156.238)"/>
<use xlink:href="#stroke0_315_243" transform="translate(16.2945 310.57) scale(0.0496256) rotate(-138.612)"/>
<use xlink:href="#stroke0_315_243" transform="translate(7.10807 301.413) scale(0.0455144) rotate(-77.6179)"/>
<use xlink:href="#stroke0_315_243" transform="translate(20.9592 301.055) scale(0.0488025) rotate(-178.605)"/>
<use xlink:href="#stroke0_315_243" transform="translate(4.78645 288.666) scale(0.044647) rotate(-41.1707)"/>
<use xlink:href="#stroke0_315_243" transform="translate(22.2745 291.413) scale(0.0494618) rotate(161.603)"/>
<use xlink:href="#stroke0_315_243" transform="translate(8.52845 272.911) scale(0.0516717) rotate(15.1495)"/>
<use xlink:href="#stroke0_315_243" transform="translate(17.6018 269.874) scale(0.0477115) rotate(68.0217)"/>
<use xlink:href="#stroke0_315_243" transform="translate(13.4847 285.46) scale(0.0514168) rotate(-139.166)"/>
<use xlink:href="#stroke0_315_243" transform="translate(19.6037 262.45) scale(0.05036) rotate(75.6143)"/>
<use xlink:href="#stroke0_315_243" transform="translate(4.8043 262.853) scale(0.051157) rotate(-24.187)"/>
<use xlink:href="#stroke0_315_243" transform="translate(8.67836 275.028) scale(0.067869) rotate(-109.876)"/>
<use xlink:href="#stroke0_315_243" transform="translate(22.1719 250.184) scale(0.0485904) rotate(74.8948)"/>
<use xlink:href="#stroke0_315_243" transform="translate(22.2723 264.997) scale(0.053403) rotate(-161.527)"/>
<use xlink:href="#stroke0_315_243" transform="translate(8.51632 255.194) scale(0.0580176) rotate(-69.2385)"/>
<use xlink:href="#stroke0_315_243" transform="translate(20.4644 257.431) scale(0.049288) rotate(-132.403)"/>
<use xlink:href="#stroke0_315_243" transform="translate(12.0583 250.785) scale(0.0671938) rotate(-80.2067)"/>
<use xlink:href="#stroke0_315_243" transform="translate(34.5794 245.53) scale(0.0484421) rotate(165.695)"/>
<use xlink:href="#stroke0_315_243" transform="translate(29.8074 246.362) scale(0.0454166) rotate(-146.314)"/>
<use xlink:href="#stroke0_315_243" transform="translate(20.5721 229.481) scale(0.0560965) rotate(-24.4823)"/>
<use xlink:href="#stroke0_315_243" transform="translate(23.9535 232.413) scale(0.0487182) rotate(-54.5977)"/>
<use xlink:href="#stroke0_315_243" transform="translate(46.1421 224.594) scale(0.0501752) rotate(107.038)"/>
<use xlink:href="#stroke0_315_243" transform="translate(42.9718 212.795) scale(0.0661031) rotate(53.0713)"/>
<use xlink:href="#stroke0_315_243" transform="translate(52.3876 220.721) scale(0.0446532) rotate(112.217)"/>
<use xlink:href="#stroke0_315_243" transform="translate(45.0314 210.072) scale(0.057623) rotate(31.5445)"/>
<use xlink:href="#stroke0_315_243" transform="translate(62.3547 214.181) scale(0.0609677) rotate(105.222)"/>
<use xlink:href="#stroke0_315_243" transform="translate(61.268 227.579) scale(0.055127) rotate(-171.07)"/>
<use xlink:href="#stroke0_315_243" transform="translate(49.056 212.271) scale(0.0532241) rotate(-24.8678)"/>
<use xlink:href="#stroke0_315_243" transform="translate(54.0643 206.493) scale(0.0630645) rotate(-4.38323)"/>
<use xlink:href="#stroke0_315_243" transform="translate(74.3906 220.979) scale(0.0453563) rotate(173.154)"/>
<use xlink:href="#stroke0_315_243" transform="translate(80.5449 219.506) scale(0.0523423) rotate(160.347)"/>
<use xlink:href="#stroke0_315_243" transform="translate(84.2709 212.555) scale(0.046267) rotate(122.418)"/>
<use xlink:href="#stroke0_315_243" transform="translate(86.64 208.941) scale(0.0469235) rotate(99.7318)"/>
<use xlink:href="#stroke0_315_243" transform="translate(71.5966 206.853) scale(0.0646647) rotate(-14.8868)"/>
<use xlink:href="#stroke0_315_243" transform="translate(91.7157 225.803) scale(0.0575522) rotate(-160.548)"/>
<use xlink:href="#stroke0_315_243" transform="translate(84.0848 209.584) scale(0.0448681) rotate(-8.20385)"/>
<use xlink:href="#stroke0_315_243" transform="translate(89.8068 204.812) scale(0.062824) rotate(17.3086)"/>
<use xlink:href="#stroke0_315_243" transform="translate(97.0111 205.774) scale(0.0613765) rotate(29.7474)"/>
<use xlink:href="#stroke0_315_243" transform="translate(103.401 230.945) scale(0.0664933) rotate(-141.932)"/>
<use xlink:href="#stroke0_315_243" transform="translate(111.098 222.048) scale(0.0584396) rotate(-177.067)"/>
<use xlink:href="#stroke0_315_243" transform="translate(102.658 198.163) scale(0.0514904) rotate(30.5798)"/>
<use xlink:href="#stroke0_315_243" transform="translate(118.668 209.713) scale(0.0674743) rotate(154.708)"/>
<use xlink:href="#stroke0_315_243" transform="translate(98.5358 205.93) scale(0.0518571) rotate(-82.975)"/>
<use xlink:href="#stroke0_315_243" transform="translate(99.8551 205.123) scale(0.0630073) rotate(-94.5381)"/>
<use xlink:href="#stroke0_315_243" transform="translate(108.983 182.535) scale(0.046331) rotate(32.4403)"/>
<use xlink:href="#stroke0_315_243" transform="translate(117.378 178.634) scale(0.0543036) rotate(69.8129)"/>
<use xlink:href="#stroke0_315_243" transform="translate(124.49 193.162) scale(0.0660636) rotate(171.73)"/>
<use xlink:href="#stroke0_315_243" transform="translate(117.704 167.76) scale(0.0605126) rotate(47.0441)"/>
<use xlink:href="#stroke0_315_243" transform="translate(109.874 184.958) scale(0.0611474) rotate(-92.5911)"/>
<use xlink:href="#stroke0_315_243" transform="translate(125.162 158.642) scale(0.0678445) rotate(55.6681)"/>
<use xlink:href="#stroke0_315_243" transform="translate(126.025 155.37) scale(0.0627937) rotate(46.995)"/>
<use xlink:href="#stroke0_315_243" transform="translate(126.301 176.354) scale(0.0566387) rotate(-131.523)"/>
<use xlink:href="#stroke0_315_243" transform="translate(121.228 154.407) scale(0.0581176) rotate(-11.4486)"/>
<use xlink:href="#stroke0_315_243" transform="translate(124.71 161.963) scale(0.0459102) rotate(-67.4302)"/>
<use xlink:href="#stroke0_315_243" transform="translate(142.047 147.054) scale(0.0530437) rotate(71.7771)"/>
<use xlink:href="#stroke0_315_243" transform="translate(136.571 162.891) scale(0.044456) rotate(-120.055)"/>
<use xlink:href="#stroke0_315_243" transform="translate(130.903 158.895) scale(0.0682706) rotate(-78.8708)"/>
<use xlink:href="#stroke0_315_243" transform="translate(157.729 148.991) scale(0.0521748) rotate(128.676)"/>
<use xlink:href="#stroke0_315_243" transform="translate(161.658 139.255) scale(0.0654561) rotate(93.4959)"/>
<use xlink:href="#stroke0_315_243" transform="translate(145.439 145.82) scale(0.0463692) rotate(-47.858)"/>
<use xlink:href="#stroke0_315_243" transform="translate(162.42 134.207) scale(0.0544785) rotate(61.1122)"/>
<use xlink:href="#stroke0_315_243" transform="translate(155.183 153.086) scale(0.0586709) rotate(-99.3211)"/>
<use xlink:href="#stroke0_315_243" transform="translate(157.748 139.791) scale(0.046757) rotate(-28.5904)"/>
<use xlink:href="#stroke0_315_243" transform="translate(176.381 135.515) scale(0.0459011) rotate(81.4294)"/>
<use xlink:href="#stroke0_315_243" transform="translate(172.184 131.221) scale(0.0563741) rotate(31.3805)"/>
<use xlink:href="#stroke0_315_243" transform="translate(181.25 130.068) scale(0.0634199) rotate(52.3948)"/>
<use xlink:href="#stroke0_315_243" transform="translate(180.299 133.483) scale(0.0502742) rotate(25.958)"/>
<use xlink:href="#stroke0_315_243" transform="translate(175.938 144.063) scale(0.0533616) rotate(-47.4913)"/>
<use xlink:href="#stroke0_315_243" transform="translate(200.16 138.299) scale(0.05665) rotate(93.6313)"/>
<use xlink:href="#stroke0_315_243" transform="translate(205.881 140.318) scale(0.0614381) rotate(99.409)"/>
<use xlink:href="#stroke0_315_243" transform="translate(190.145 145.123) scale(0.0458799) rotate(-26.1759)"/>
<use xlink:href="#stroke0_315_243" transform="translate(214.716 152.361) scale(0.0602707) rotate(139.328)"/>
<use xlink:href="#stroke0_315_243" transform="translate(196.744 151.452) scale(0.0445466) rotate(-40.3298)"/>
<use xlink:href="#stroke0_315_243" transform="translate(208.877 165.526) scale(0.051691) rotate(-138.953)"/>
<use xlink:href="#stroke0_315_243" transform="translate(213.44 171.315) scale(0.0664013) rotate(-143.267)"/>
<use xlink:href="#stroke0_315_243" transform="translate(223.043 167.253) scale(0.0484989) rotate(173.022)"/>
<use xlink:href="#stroke0_315_243" transform="translate(228.141 163.075) scale(0.0483445) rotate(130.504)"/>
<use xlink:href="#stroke0_315_243" transform="translate(207.355 169.383) scale(0.0686265) rotate(-60.237)"/>
<use xlink:href="#stroke0_315_243" transform="translate(234.146 169.855) scale(0.0491931) rotate(130.756)"/>
<use xlink:href="#stroke0_315_243" transform="translate(234.377 174.023) scale(0.0579777) rotate(172.817)"/>
<use xlink:href="#stroke0_315_243" transform="translate(237.043 152.279) scale(0.0663994) rotate(87.7166)"/>
<use xlink:href="#stroke0_315_243" transform="translate(235.125 166.175) scale(0.0515546) rotate(-174.451)"/>
<use xlink:href="#stroke0_315_243" transform="translate(225.235 140.694) scale(0.0675355) rotate(17.8915)"/>
<use xlink:href="#stroke0_315_243" transform="translate(221.125 144.748) scale(0.0609607) rotate(-28.6215)"/>
<use xlink:href="#stroke0_315_243" transform="translate(236.934 157.688) scale(0.0630565) rotate(-146.724)"/>
<use xlink:href="#stroke0_315_243" transform="translate(244.988 136.193) scale(0.0454306) rotate(98.8337)"/>
<use xlink:href="#stroke0_315_243" transform="translate(227.289 132.005) scale(0.0641528) rotate(-23.3775)"/>
<use xlink:href="#stroke0_315_243" transform="translate(241.428 145.51) scale(0.0573356) rotate(-137.266)"/>
<use xlink:href="#stroke0_315_243" transform="translate(254.205 124.554) scale(0.0560145) rotate(102.473)"/>
<use xlink:href="#stroke0_315_243" transform="translate(244.54 139.094) scale(0.0622522) rotate(-128.659)"/>
<use xlink:href="#stroke0_315_243" transform="translate(247.595 135.689) scale(0.0640876) rotate(-129.427)"/>
<use xlink:href="#stroke0_315_243" transform="translate(242.02 110.427) scale(0.0668224) rotate(-10.8563)"/>
<use xlink:href="#stroke0_315_243" transform="translate(268.358 121.763) scale(0.0669009) rotate(160.491)"/>
<use xlink:href="#stroke0_315_243" transform="translate(249.561 112.974) scale(0.0480831) rotate(-54.5426)"/>
<use xlink:href="#stroke0_315_243" transform="translate(270.671 103.518) scale(0.0503225) rotate(96.9508)"/>
<use xlink:href="#stroke0_315_243" transform="translate(260.828 117.685) scale(0.057647) rotate(-116.827)"/>
<use xlink:href="#stroke0_315_243" transform="translate(257.211 103.845) scale(0.055242) rotate(-47.97)"/>
<use xlink:href="#stroke0_315_243" transform="translate(275.441 88.0141) scale(0.0660393) rotate(54.7262)"/>
<use xlink:href="#stroke0_315_243" transform="translate(282.086 90.745) scale(0.0492114) rotate(78.5127)"/>
<use xlink:href="#stroke0_315_243" transform="translate(276.104 106.244) scale(0.0475914) rotate(-120.509)"/>
<use xlink:href="#stroke0_315_243" transform="translate(271.014 95.9571) scale(0.0566946) rotate(-53.0232)"/>
<use xlink:href="#stroke0_315_243" transform="translate(293.059 81.347) scale(0.0645984) rotate(69.3519)"/>
<use xlink:href="#stroke0_315_243" transform="translate(281.597 91.7631) scale(0.044097) rotate(-49.9981)"/>
<use xlink:href="#stroke0_315_243" transform="translate(282.042 88.225) scale(0.0611547) rotate(-39.3723)"/>
<use xlink:href="#stroke0_315_243" transform="translate(306.907 93.0357) scale(0.0455607) rotate(155.964)"/>
<use xlink:href="#stroke0_315_243" transform="translate(290.545 93.0612) scale(0.0620932) rotate(-70.7082)"/>
<use xlink:href="#stroke0_315_243" transform="translate(318.91 88.6208) scale(0.0584898) rotate(136.584)"/>
<use xlink:href="#stroke0_315_243" transform="translate(313.583 73.5452) scale(0.0665526) rotate(49.441)"/>
<use xlink:href="#stroke0_315_243" transform="translate(318.909 97.7446) scale(0.0547131) rotate(-155.999)"/>
</g>
<defs>
<g id="stroke0_315_243" data-figma-scatter-ref="stroke0_315_243_ref" data-figma-scatter="f0.28_w0_aj180_sj0.25_r0_s7166259504722092330_sw17">
<path d="M103.731 283.547C110.352 281.363 112.807 281.348 116.121 283.468C130.109 292.418 124.85 308.718 107.972 308.727C90.3768 308.737 87.0606 289.046 103.731 283.547ZM139.837 35.4146C140.937 35.1787 142.512 35.114 143.337 35.271C144.162 35.4281 146.516 35.8391 148.567 36.1851C155.802 37.4051 160.179 46.6969 156.734 53.5249C152.924 61.0769 144.715 67.5811 140.859 66.1021C135.872 64.1881 137.625 69.8792 144.066 76.5152C148.306 80.8841 150.337 81.2685 150.337 77.7066C150.337 76.6574 151.622 74.3218 153.193 72.5161C154.823 70.6412 156.597 66.9201 157.324 63.8501C158.925 57.0892 160.788 55.2289 167.369 53.8169C177.32 51.6829 185.581 56.9263 183.752 64.2153C183.293 66.0423 183.901 67.6656 186.09 70.4585C196.859 84.1975 193.875 104.273 180.596 107.418C177.049 108.258 176.832 108.532 176.773 112.27C176.739 114.448 176.365 116.987 175.943 117.912C175.255 119.417 175.946 119.564 182.506 119.31C190.415 119.003 192.674 119.705 195.953 123.487C199.054 127.064 201.598 126.114 202.609 121.002C203.503 116.483 209.096 110.731 212.596 110.731C214.841 110.731 215.934 108.156 214.449 106.367C206.1 96.3056 222.234 73.6632 235.605 76.6792C241.572 78.0252 246.302 83.6302 246.367 89.4312C246.384 90.9712 247.505 94.4811 248.858 97.231C255.362 110.453 243.304 126.225 232.777 118.263C229.924 116.105 229.837 116.226 229.837 122.341C229.837 128.93 225.932 133.292 219.049 134.393C216.068 134.87 214.933 135.67 213.775 138.116C212.964 139.829 211.55 142.415 210.63 143.863C208.984 146.456 209.02 146.565 213.147 151.254C215.451 153.871 217.337 156.555 217.337 157.218C217.337 157.882 218.074 159.901 218.974 161.706C222.148 168.067 221.073 181.731 217.4 181.731C217.052 181.731 215.97 183.081 214.995 184.731C214.02 186.381 212.573 187.731 211.779 187.731C209.595 187.731 210.044 189.817 212.863 192.76C216.384 196.435 217.425 204.867 214.728 207.858C209.503 213.649 203.05 218.01 198.064 219.122C193.944 220.041 192.83 220.705 192.804 222.259C192.669 230.389 188.242 235.387 179.682 237.077C172.845 238.427 172.072 240.31 177.577 242.203C190.358 246.597 192.892 257.693 182.442 263.506C176.521 266.799 172.426 266.758 167.515 263.354C163.894 260.845 163.161 260.686 159.679 261.653C153.737 263.303 147.363 262.934 141.337 260.593C135.874 258.47 130.724 257.068 124.689 256.061C118.715 255.064 115.151 249.943 114.592 241.551C114.184 235.417 113.671 233.745 111.425 231.231C109.951 229.581 107.986 226.544 107.058 224.481C105.42 220.844 105.211 220.731 100.164 220.731C93.7935 220.731 89.0798 217.922 86.2168 212.42C83.0468 206.327 78.9427 207.336 78.8477 214.231C78.8097 216.981 78.4233 220.817 77.9883 222.755C77.2354 226.113 77.3507 226.324 80.4366 227.255C90.5004 230.29 90.3981 247.946 80.2881 252.934C55.9904 264.92 26.2411 240.473 47.875 226.298C49.556 225.196 50.1805 223.494 50.6895 218.626C51.0495 215.185 52.1298 211.262 53.0908 209.91C54.0507 208.557 55.2736 206.856 55.8086 206.127C56.5016 205.184 56.0161 204.003 54.1221 202.017C50.6273 198.355 49.3112 194.657 49.9981 190.428C50.3281 188.392 50.1033 186.705 49.4463 186.299C48.8364 185.922 48.337 184.345 48.3369 182.794C48.3369 181.244 47.6012 179.366 46.7032 178.621C43.9996 176.376 34.3369 162.856 34.3369 161.317C34.3368 160.529 32.7627 157.822 30.8389 155.302C28.915 152.781 27.3998 150.384 27.4727 149.975C28.4457 144.478 24.6467 141.425 20.4727 144.348C18.2547 145.902 11.2222 145.776 6.86624 144.104C-3.23648 140.227 -1.78745 115.126 8.56839 114.62C14.8594 114.313 23.3369 117.551 23.3369 120.261C23.3372 122.018 26.1103 124.731 27.9073 124.731C28.6933 124.731 29.3369 124.041 29.3369 123.198C29.3372 109.814 50.1851 94.3087 69.8369 93.0767C82.9305 92.2547 88.2617 93.4969 97.1895 99.4468C101.45 102.287 108.337 96.8837 108.337 90.7007C108.337 88.6598 109.172 86.4706 110.483 85.0747C112.734 82.6789 111.804 79.7313 108.796 79.731C106.403 79.731 103.556 73.5422 104.077 69.4702C105.046 61.8843 117.633 57.7673 123.289 63.1861C125.639 65.4379 126.708 65.8083 129.245 65.2515C133.054 64.4145 133.128 63.4739 129.587 60.895C121.36 54.902 128.195 37.9086 139.837 35.4146ZM227.337 203.429C239.094 199.654 252.722 207.291 252.722 217.653C252.722 228.495 231.921 239.44 223.927 232.806C221.665 230.929 220.403 232.363 221.012 236.118C222.097 242.802 213.511 254.731 207.616 254.731C194.246 254.731 188.8 246.232 194.457 234.198C198.202 226.231 204.453 223.784 213.238 226.847C217.536 228.345 217.88 227.687 215.921 221.697C213.052 212.925 216.89 206.783 227.337 203.429ZM179.7 192.695C179.049 192.044 178.051 192.413 176.774 193.779C168.37 202.768 165.063 203.713 156.506 199.571C149.746 196.298 146.45 201.459 151.961 206.689C154.209 208.822 154.482 209.744 154.038 213.682C153.54 218.098 153.664 218.344 158.682 222.967C163.836 227.716 163.837 227.716 164.351 222.867C164.987 216.872 169.522 209.969 174.077 208.066C177.094 206.805 177.337 206.359 177.337 202.046C177.337 199.092 177.95 196.711 179.013 195.536C180.117 194.315 180.352 193.347 179.7 192.695ZM13.7354 183.697C21.2304 180.362 25.9355 181.225 32.1055 187.066C40.5644 195.074 37.0287 205.612 24.6309 209.343C9.40689 213.925 -0.704596 190.124 13.7354 183.697ZM252.956 148.251C262.129 145.732 267.81 147.203 270.983 152.921C277.397 164.478 257.352 180.919 247.179 172.445C237.093 164.044 240.016 151.805 252.956 148.251ZM175.822 162.709C174.842 161.123 172.482 161.589 171.417 163.579C170.283 165.699 171.384 170.913 173.086 171.481C174.366 171.905 176.761 164.229 175.822 162.709ZM150.152 111.481C150.492 108.526 149.534 108.177 145.513 109.79C142.108 111.155 143.035 114.231 146.851 114.231C149.365 114.231 149.886 113.796 150.152 111.481ZM156.837 98.731C156.012 98.731 155.337 99.406 155.337 100.231C155.337 101.056 156.012 101.731 156.837 101.731C157.662 101.731 158.337 101.056 158.337 100.231C158.337 99.4061 157.662 98.7312 156.837 98.731ZM131.337 85.6382C131.337 82.8002 129.491 81.4004 127.429 82.6743C126.501 83.2473 126.685 84.2905 128.185 86.9605C129.273 88.9003 130.316 91.46 130.5 92.6489C130.685 93.8379 131.287 94.905 131.837 95.021C133.25 95.317 133.729 90.7224 132.422 89.4155C131.825 88.8185 131.337 87.1191 131.337 85.6382ZM79.8369 36.9214C89.8819 31.2487 102.893 46.8492 95.6582 55.8921C92.2024 60.211 91.2042 63.981 91.8701 70.1997C92.5322 76.3837 92.4821 76.5638 89.0371 80.3628C76.0391 94.6997 55.1533 78.5005 64.8242 61.5825C66.3391 58.9327 67.3172 55.6452 67.3242 53.1753C67.3402 47.7053 72.4159 41.1124 79.8369 36.9214ZM120.896 78.731C120.653 78.731 120.177 79.1811 119.837 79.731C119.497 80.2809 119.695 80.7309 120.277 80.731C120.859 80.731 121.337 80.281 121.337 79.731C121.337 79.181 121.139 78.731 120.896 78.731ZM205.485 39.4898C219.631 37.0418 227.598 50.9151 220.597 65.8081C213.393 81.13 190.339 77.7861 190.091 61.3823C189.98 54.0764 199.509 40.5238 205.485 39.4898ZM51.8369 14.5542C64.4449 5.86451 75.68 19.3671 68.6241 34.731C62.385 48.3167 41.3372 43.775 41.3369 28.8423C41.3369 26.0333 47.6529 17.4382 51.8369 14.5542ZM108.212 2.17043C121.43 -6.81137 141.546 14.0924 133.237 28.1743C132.084 30.1297 130.819 31.7302 130.427 31.731C130.035 31.731 128.813 32.5703 127.713 33.5962C119.456 41.2872 107.786 35.7761 103.367 22.0991C100.152 12.1461 101.463 6.75643 108.212 2.17043Z" fill="#C8E6FF"/>
</g>
<path id="stroke0_315_243_ref" d="M315.541 87C351.286 87 382.808 114.358 401.474 155.997C427.215 113.232 469.821 85.9684 516.513 87.999C564.652 90.0926 605.047 122.8 625.418 169.862C638.483 153.623 655.792 143.735 674.778 143.735C715.476 143.736 748.468 189.164 748.468 245.203C748.468 301.242 715.476 346.671 674.778 346.671C654.582 346.671 636.285 335.483 622.975 317.363C598.948 369.45 551.659 404.125 499.217 401.845C457.239 400.019 421.15 374.915 399.092 337.314C380.193 376.078 349.808 401.222 315.541 401.222C275.93 401.222 241.505 367.626 224.015 318.229C210.843 335.193 193.147 345.579 173.689 345.579C155.742 345.579 139.294 336.742 126.513 322.059C114.774 336.683 97.0369 346 77.1895 346C41.8432 346 13.1895 316.451 13.1895 280C13.1895 243.549 41.8432 214 77.1895 214C86.0758 214 94.5391 215.868 102.23 219.243C110.284 175.227 139.223 142.644 173.689 142.644C193.147 142.644 210.843 153.029 224.015 169.992C241.505 120.596 275.931 87.0002 315.541 87Z"/>
</defs>
</svg>
