<svg width="29" height="29" viewBox="0 0 29 29" fill="none" xmlns="http://www.w3.org/2000/svg">
<path d="M9.85867 2.91506C10.4761 2.7289 11.1387 2.75983 11.7361 3.0027C12.3335 3.24556 12.8297 3.68572 13.1421 4.2499L13.2466 4.46014L14.1807 6.53577C14.4636 7.16588 14.5553 7.8652 14.4444 8.54697C14.3336 9.22873 14.025 9.86295 13.557 10.3709L13.3693 10.5572L11.8976 11.9301C11.6323 12.1813 11.8313 13.1535 12.7908 14.8157C13.6543 16.3114 14.357 17.0098 14.7027 17.0479H14.7634L14.8382 17.0338L17.7308 16.1491C18.1196 16.0299 18.5344 16.0252 18.9258 16.1355C19.3172 16.2459 19.6685 16.4666 19.9377 16.7714L20.0661 16.9337L21.9808 19.5864C22.3561 20.1063 22.5431 20.7386 22.511 21.379C22.479 22.0194 22.2298 22.6299 21.8045 23.1097L21.6323 23.2875L20.8675 24.0128C20.1808 24.6632 19.3217 25.1027 18.3924 25.279C17.4632 25.4554 16.5028 25.3611 15.6256 25.0076C12.8952 23.907 10.4146 21.3925 8.1612 17.4896C5.90355 13.5768 4.96521 10.1663 5.38429 7.24552C5.5111 6.36259 5.87468 5.53049 6.4364 4.83758C6.99812 4.14468 7.73703 3.61685 8.57463 3.31015L8.84696 3.21984L9.85867 2.91506Z" fill="#791C0E"/>
</svg>
