<svg width="140" height="44" viewBox="0 0 140 44" fill="none" xmlns="http://www.w3.org/2000/svg">
<rect x="1" y="1" width="138" height="42" rx="21" fill="#1F1F1F"/>
<rect x="1" y="1" width="138" height="42" rx="21" stroke="#FF719E" stroke-width="2"/>
<path d="M28.3874 13.9V28.9H26.9074V13.9H28.3874ZM31.6855 13.5H33.1255V28.9H31.6855V13.5ZM36.1191 13.5H37.5591V28.9H36.1191V13.5ZM50.3527 28.9H48.9127V26.9C48.0127 28.26 46.4327 29.2 44.9327 29.2C43.0127 29.2 41.7727 28.4 41.0527 27.04C40.6527 26.3 40.5527 25.34 40.5527 24.2V17.9H41.9927V24.2C41.9927 25 42.1327 25.74 42.3527 26.28C42.8127 27.34 43.6727 27.96 44.9327 27.96C46.7527 27.96 48.2927 26.6 48.7127 24.96C48.8527 24.48 48.9127 23.66 48.9127 22.46V17.9H50.3527V28.9ZM58.9299 19L58.0499 19.78C57.4699 19.12 56.7099 18.8 55.7899 18.8C54.3699 18.8 53.7899 19.58 53.7899 20.52C53.7899 21.3 54.1899 21.84 55.2499 22.3L56.7299 22.92C58.2099 23.5 59.5899 24.4 59.5899 26.1C59.5899 27.7 58.2299 29.2 55.8099 29.2C53.8499 29.2 52.2699 27.86 51.7299 26.88L52.6899 26.06C53.2299 27.08 54.5099 28 55.8099 28C57.3899 28 58.1899 27.24 58.1899 26.1C58.1899 25.16 57.6899 24.62 56.4099 24.08L54.8899 23.46C52.8499 22.6 52.3899 21.62 52.3899 20.54C52.3899 18.94 53.7299 17.6 55.7899 17.6C57.1499 17.6 58.2099 18.22 58.9299 19ZM62.7627 19.14H60.5027V17.9H62.7627V14.9H64.2027V17.9H67.4827V19.14H64.2027V25.5C64.2027 27.06 64.4027 28 66.4427 28C66.7827 28 67.1227 27.98 67.4827 27.94V29.14C67.0627 29.2 66.6627 29.2 66.3227 29.2C63.6027 29.2 62.7627 27.68 62.7627 25.5V19.14ZM69.1855 17.9H70.6255V19.9C71.5055 18.52 73.1055 17.6 74.8855 17.6V18.86C72.8255 18.86 71.2055 20.18 70.8255 21.84C70.6855 22.32 70.6255 23.14 70.6255 24.34V28.9H69.1855V17.9ZM84.8471 23.4C84.8471 20.56 82.9871 18.84 80.6871 18.84C78.3871 18.84 76.5271 20.74 76.5271 23.4C76.5271 26.06 78.3871 27.96 80.6871 27.96C82.9871 27.96 84.8471 26.06 84.8471 23.4ZM84.8671 17.9H86.3071V28.9H84.8671V26.94C84.0071 28.38 82.3471 29.2 80.6871 29.2C77.5071 29.2 75.0871 26.8 75.0871 23.4C75.0871 20 77.5071 17.6 80.6871 17.6C82.4471 17.6 84.0071 18.4 84.8671 19.68V17.9ZM90.2627 19.14H88.0027V17.9H90.2627V14.9H91.7027V17.9H94.9827V19.14H91.7027V25.5C91.7027 27.06 91.9027 28 93.9427 28C94.2827 28 94.6227 27.98 94.9827 27.94V29.14C94.5627 29.2 94.1627 29.2 93.8227 29.2C91.1027 29.2 90.2627 27.68 90.2627 25.5V19.14ZM105.253 23.4C105.253 20.76 103.373 18.86 101.193 18.86C98.9926 18.86 97.1326 20.76 97.1326 23.4C97.1326 26.06 98.9926 27.96 101.193 27.96C103.373 27.96 105.253 26.06 105.253 23.4ZM95.6926 23.4C95.6926 20 98.1126 17.62 101.193 17.62C104.273 17.62 106.693 20 106.693 23.4C106.693 26.8 104.273 29.2 101.193 29.2C98.1126 29.2 95.6926 26.8 95.6926 23.4ZM108.99 17.9H110.43V19.9C111.31 18.52 112.91 17.6 114.69 17.6V18.86C112.63 18.86 111.01 20.18 110.63 21.84C110.49 22.32 110.43 23.14 110.43 24.34V28.9H108.99V17.9Z" fill="#FF719E"/>
</svg>
