<svg width="113" height="44" viewBox="0 0 113 44" fill="none" xmlns="http://www.w3.org/2000/svg">
<rect x="1" y="1" width="111" height="42" rx="21" fill="#1F1F1F"/>
<rect x="1" y="1" width="111" height="42" rx="21" stroke="#25B544" stroke-width="2"/>
<path d="M28.4714 22.18V28.9H26.9914V13.9H36.8914V15.18H28.4714V20.9H35.4914V22.18H28.4714ZM40.6514 17.94V28.9H39.2114V17.94H40.6514ZM38.9714 15.78V13.86H40.8914V15.78H38.9714ZM48.5641 27.6C50.8641 27.6 52.7241 25.88 52.7241 23.22C52.7241 20.56 50.8641 18.84 48.5641 18.84C46.2641 18.84 44.4041 20.56 44.4041 23.22C44.4041 25.88 46.2641 27.6 48.5641 27.6ZM52.7441 17.9H54.1841V28.22C54.1841 31.5 52.0241 33.3 48.7241 33.3C46.7041 33.3 44.8641 32.32 43.9241 30.78L45.0441 30.08C45.6841 31.32 47.2441 32.06 48.7241 32.06C51.1241 32.06 52.7641 30.84 52.7641 28.22L52.7441 26.78C51.8841 28.16 50.2241 28.84 48.5641 28.84C45.3841 28.84 42.9641 26.64 42.9641 23.22C42.9641 19.82 45.3841 17.6 48.5641 17.6C50.3241 17.6 51.8841 18.4 52.7441 19.68V17.9ZM57.1797 28.9V17.9H58.6197V19.72C59.3397 18.46 60.6597 17.58 62.2397 17.6C63.8397 17.66 64.9397 18.58 65.4397 20.1C66.0797 18.88 67.3397 17.6 69.4797 17.6C70.9197 17.6 72.1197 18.54 72.5997 19.72C72.8997 20.42 72.9997 21.46 72.9997 22.82V28.9H71.5597V22.82C71.5597 21.64 71.4597 20.84 71.2797 20.38C70.8997 19.48 70.1797 18.84 69.1197 18.84C67.6797 18.84 66.6397 19.88 66.1997 21.12C65.9597 21.82 65.8197 22.92 65.8197 24.54V28.9H64.3797V23.2C64.3797 21.84 64.2597 20.92 64.0797 20.44C63.6997 19.48 63.0397 18.84 61.9197 18.84C60.4797 18.84 59.5197 19.96 59.0397 21.1C58.7397 21.8 58.6197 22.76 58.6197 24.18V28.9H57.1797ZM84.853 23.4C84.853 20.56 82.993 18.84 80.693 18.84C78.393 18.84 76.533 20.74 76.533 23.4C76.533 26.06 78.393 27.96 80.693 27.96C82.993 27.96 84.853 26.06 84.853 23.4ZM84.873 17.9H86.313V28.9H84.873V26.94C84.013 28.38 82.353 29.2 80.693 29.2C77.513 29.2 75.093 26.8 75.093 23.4C75.093 20 77.513 17.6 80.693 17.6C82.453 17.6 84.013 18.4 84.873 19.68V17.9Z" fill="#25B544"/>
</svg>
