<svg width="101" height="44" viewBox="0 0 101 44" fill="none" xmlns="http://www.w3.org/2000/svg">
<rect x="1" y="1" width="99" height="42" rx="21" fill="#1F1F1F"/>
<rect x="1" y="1" width="99" height="42" rx="21" stroke="#FF719E" stroke-width="2"/>
<path d="M28.3698 13.9V27.62H36.9698V28.9H26.8898V13.9H28.3698ZM47.5592 23.4C47.5592 20.76 45.6792 18.86 43.4992 18.86C41.2992 18.86 39.4392 20.76 39.4392 23.4C39.4392 26.06 41.2992 27.96 43.4992 27.96C45.6792 27.96 47.5592 26.06 47.5592 23.4ZM37.9992 23.4C37.9992 20 40.4192 17.62 43.4992 17.62C46.5792 17.62 48.9992 20 48.9992 23.4C48.9992 26.8 46.5792 29.2 43.4992 29.2C40.4192 29.2 37.9992 26.8 37.9992 23.4ZM56.1969 27.6C58.4969 27.6 60.3569 25.88 60.3569 23.22C60.3569 20.56 58.4969 18.84 56.1969 18.84C53.8969 18.84 52.0369 20.56 52.0369 23.22C52.0369 25.88 53.8969 27.6 56.1969 27.6ZM60.3769 17.9H61.8169V28.22C61.8169 31.5 59.6569 33.3 56.3569 33.3C54.3369 33.3 52.4969 32.32 51.5569 30.78L52.6769 30.08C53.3169 31.32 54.8769 32.06 56.3569 32.06C58.7569 32.06 60.3969 30.84 60.3969 28.22L60.3769 26.78C59.5169 28.16 57.8569 28.84 56.1969 28.84C53.0169 28.84 50.5969 26.64 50.5969 23.22C50.5969 19.82 53.0169 17.6 56.1969 17.6C57.9569 17.6 59.5169 18.4 60.3769 19.68V17.9ZM73.6725 23.4C73.6725 20.76 71.7925 18.86 69.6125 18.86C67.4125 18.86 65.5525 20.76 65.5525 23.4C65.5525 26.06 67.4125 27.96 69.6125 27.96C71.7925 27.96 73.6725 26.06 73.6725 23.4ZM64.1125 23.4C64.1125 20 66.5325 17.62 69.6125 17.62C72.6925 17.62 75.1125 20 75.1125 23.4C75.1125 26.8 72.6925 29.2 69.6125 29.2C66.5325 29.2 64.1125 26.8 64.1125 23.4Z" fill="#FF719E"/>
</svg>
