<svg width="147" height="44" viewBox="0 0 147 44" fill="none" xmlns="http://www.w3.org/2000/svg">
<rect x="1" y="1" width="145" height="42" rx="21" fill="#1F1F1F"/>
<rect x="1" y="1" width="145" height="42" rx="21" stroke="#48ADFF" stroke-width="2"/>
<path d="M28.362 22.42H32.382C34.782 22.42 36.402 20.78 36.402 18.8C36.402 16.82 34.782 15.18 32.382 15.18H28.362V22.42ZM32.382 23.7H28.362V28.9H26.882V13.9H32.382C35.662 13.9 37.882 16.14 37.882 18.8C37.882 21.46 35.662 23.7 32.382 23.7ZM39.9805 17.9H41.4205V19.9C42.3005 18.52 43.9005 17.6 45.6805 17.6V18.86C43.6205 18.86 42.0005 20.18 41.6205 21.84C41.4805 22.32 41.4205 23.14 41.4205 24.34V28.9H39.9805V17.9ZM55.8522 23.4C55.8522 20.76 53.9722 18.86 51.7922 18.86C49.5922 18.86 47.7322 20.76 47.7322 23.4C47.7322 26.06 49.5922 27.96 51.7922 27.96C53.9722 27.96 55.8522 26.06 55.8522 23.4ZM46.2922 23.4C46.2922 20 48.7122 17.62 51.7922 17.62C54.8722 17.62 57.2922 20 57.2922 23.4C57.2922 26.8 54.8722 29.2 51.7922 29.2C48.7122 29.2 46.2922 26.8 46.2922 23.4ZM60.5498 19.14H58.2898V17.9H60.5498V14.9H61.9898V17.9H65.2698V19.14H61.9898V25.5C61.9898 27.06 62.1898 28 64.2298 28C64.5698 28 64.9098 27.98 65.2698 27.94V29.14C64.8498 29.2 64.4498 29.2 64.1098 29.2C61.3898 29.2 60.5498 27.68 60.5498 25.5V19.14ZM75.5397 23.4C75.5397 20.76 73.6597 18.86 71.4797 18.86C69.2797 18.86 67.4197 20.76 67.4197 23.4C67.4197 26.06 69.2797 27.96 71.4797 27.96C73.6597 27.96 75.5397 26.06 75.5397 23.4ZM65.9797 23.4C65.9797 20 68.3997 17.62 71.4797 17.62C74.5597 17.62 76.9797 20 76.9797 23.4C76.9797 26.8 74.5597 29.2 71.4797 29.2C68.3997 29.2 65.9797 26.8 65.9797 23.4ZM80.2373 19.14H77.9773V17.9H80.2373V14.9H81.6773V17.9H84.9573V19.14H81.6773V25.5C81.6773 27.06 81.8773 28 83.9173 28C84.2573 28 84.5973 27.98 84.9573 27.94V29.14C84.5373 29.2 84.1373 29.2 83.7973 29.2C81.0773 29.2 80.2373 27.68 80.2373 25.5V19.14ZM96.0048 17.9L89.2848 33.1H87.8048L89.8448 28.48L85.1648 17.9H86.6848L90.0448 25.64L90.5448 27.02L91.0848 25.66L94.4848 17.9H96.0048ZM99.1553 23.4C99.1553 26.06 101.015 27.96 103.315 27.96C105.615 27.96 107.475 26.06 107.475 23.4C107.475 20.74 105.615 18.84 103.315 18.84C101.015 18.84 99.1553 20.56 99.1553 23.4ZM97.6953 17.9H99.1353V19.68C99.9953 18.4 101.555 17.6 103.315 17.6C106.495 17.6 108.915 20 108.915 23.4C108.915 26.8 106.495 29.2 103.315 29.2C101.655 29.2 99.9953 28.38 99.1353 26.94V32.9H97.6953V17.9ZM121.111 24L112.011 24C112.231 26.28 113.611 27.96 116.011 27.96C117.691 27.96 119.031 26.98 119.891 25.7L120.851 26.46C119.831 28 118.031 29.2 116.011 29.2C112.811 29.2 110.511 26.8 110.511 23.4C110.511 20 112.931 17.6 115.811 17.6C118.851 17.6 121.111 20.02 121.111 23.2V24ZM111.971 22.8H119.671C119.451 20.52 118.011 18.84 115.811 18.84C113.871 18.84 112.231 20.48 111.971 22.8Z" fill="#48ADFF"/>
</svg>
