<svg width="156" height="44" viewBox="0 0 156 44" fill="none" xmlns="http://www.w3.org/2000/svg">
<rect x="1" y="1" width="154" height="42" rx="21" fill="#1F1F1F"/>
<rect x="1" y="1" width="154" height="42" rx="21" stroke="#48ADFF" stroke-width="2"/>
<path d="M28.448 22.42H32.468C34.868 22.42 36.488 20.78 36.488 18.8C36.488 16.82 34.868 15.18 32.468 15.18H28.448V22.42ZM32.468 23.7H28.448V28.9H26.968V13.9H32.468C35.748 13.9 37.968 16.14 37.968 18.8C37.968 21.46 35.748 23.7 32.468 23.7ZM41.5064 13.5V19.9C42.3464 18.52 44.0064 17.6 45.4864 17.6C47.4064 17.6 48.6464 18.4 49.3664 19.76C49.7664 20.5 49.8664 21.46 49.8664 22.6V28.9H48.4264V22.6C48.4264 21.8 48.2864 21.06 48.0664 20.52C47.6064 19.46 46.7464 18.84 45.4864 18.84C43.6864 18.84 42.0664 20.2 41.7064 21.84C41.5664 22.32 41.5064 23.14 41.5064 24.34V28.9H40.0664V13.5H41.5064ZM61.5436 23.4C61.5436 20.76 59.6636 18.86 57.4836 18.86C55.2836 18.86 53.4236 20.76 53.4236 23.4C53.4236 26.06 55.2836 27.96 57.4836 27.96C59.6636 27.96 61.5436 26.06 61.5436 23.4ZM51.9836 23.4C51.9836 20 54.4036 17.62 57.4836 17.62C60.5636 17.62 62.9836 20 62.9836 23.4C62.9836 26.8 60.5636 29.2 57.4836 29.2C54.4036 29.2 51.9836 26.8 51.9836 23.4ZM66.2413 19.14H63.9813V17.9H66.2413V14.9H67.6813V17.9H70.9613V19.14H67.6813V25.5C67.6813 27.06 67.8813 28 69.9213 28C70.2613 28 70.6013 27.98 70.9613 27.94V29.14C70.5413 29.2 70.1413 29.2 69.8013 29.2C67.0813 29.2 66.2413 27.68 66.2413 25.5V19.14ZM81.2311 23.4C81.2311 20.76 79.3511 18.86 77.1711 18.86C74.9711 18.86 73.1111 20.76 73.1111 23.4C73.1111 26.06 74.9711 27.96 77.1711 27.96C79.3511 27.96 81.2311 26.06 81.2311 23.4ZM71.6711 23.4C71.6711 20 74.0911 17.62 77.1711 17.62C80.2511 17.62 82.6711 20 82.6711 23.4C82.6711 26.8 80.2511 29.2 77.1711 29.2C74.0911 29.2 71.6711 26.8 71.6711 23.4ZM90.7288 19L89.8488 19.78C89.2688 19.12 88.5088 18.8 87.5888 18.8C86.1688 18.8 85.5888 19.58 85.5888 20.52C85.5888 21.3 85.9888 21.84 87.0488 22.3L88.5288 22.92C90.0088 23.5 91.3888 24.4 91.3888 26.1C91.3888 27.7 90.0288 29.2 87.6088 29.2C85.6488 29.2 84.0688 27.86 83.5288 26.88L84.4888 26.06C85.0288 27.08 86.3088 28 87.6088 28C89.1888 28 89.9888 27.24 89.9888 26.1C89.9888 25.16 89.4888 24.62 88.2088 24.08L86.6888 23.46C84.6488 22.6 84.1888 21.62 84.1888 20.54C84.1888 18.94 85.5288 17.6 87.5888 17.6C88.9488 17.6 90.0088 18.22 90.7288 19ZM95.0416 13.5V19.9C95.8816 18.52 97.5416 17.6 99.0216 17.6C100.942 17.6 102.182 18.4 102.902 19.76C103.302 20.5 103.402 21.46 103.402 22.6V28.9H101.962V22.6C101.962 21.8 101.822 21.06 101.602 20.52C101.142 19.46 100.282 18.84 99.0216 18.84C97.2216 18.84 95.6016 20.2 95.2416 21.84C95.1016 22.32 95.0416 23.14 95.0416 24.34V28.9H93.6016V13.5H95.0416ZM115.079 23.4C115.079 20.76 113.199 18.86 111.019 18.86C108.819 18.86 106.959 20.76 106.959 23.4C106.959 26.06 108.819 27.96 111.019 27.96C113.199 27.96 115.079 26.06 115.079 23.4ZM105.519 23.4C105.519 20 107.939 17.62 111.019 17.62C114.099 17.62 116.519 20 116.519 23.4C116.519 26.8 114.099 29.2 111.019 29.2C107.939 29.2 105.519 26.8 105.519 23.4ZM120.276 23.4C120.276 26.06 122.136 27.96 124.436 27.96C126.736 27.96 128.596 26.06 128.596 23.4C128.596 20.74 126.736 18.84 124.436 18.84C122.136 18.84 120.276 20.56 120.276 23.4ZM118.816 17.9H120.256V19.68C121.116 18.4 122.676 17.6 124.436 17.6C127.616 17.6 130.036 20 130.036 23.4C130.036 26.8 127.616 29.2 124.436 29.2C122.776 29.2 121.116 28.38 120.256 26.94V32.9H118.816V17.9Z" fill="#48ADFF"/>
</svg>
