<svg width="138" height="44" viewBox="0 0 138 44" fill="none" xmlns="http://www.w3.org/2000/svg">
<rect x="1" y="1" width="136" height="42" rx="21" fill="#1F1F1F"/>
<rect x="1" y="1" width="136" height="42" rx="21" stroke="white" stroke-width="2"/>
<path d="M28.6765 22.42H32.6965C35.0965 22.42 36.7165 20.78 36.7165 18.8C36.7165 16.82 35.0965 15.18 32.6965 15.18H28.6765V22.42ZM32.6965 23.7H28.6765V28.9H27.1965V13.9H32.6965C35.9765 13.9 38.1965 16.14 38.1965 18.8C38.1965 21.46 35.9765 23.7 32.6965 23.7ZM48.6518 23.4C48.6518 20.56 46.7918 18.84 44.4918 18.84C42.1918 18.84 40.3318 20.74 40.3318 23.4C40.3318 26.06 42.1918 27.96 44.4918 27.96C46.7918 27.96 48.6518 26.06 48.6518 23.4ZM48.6718 17.9H50.1118V28.9H48.6718V26.94C47.8118 28.38 46.1518 29.2 44.4918 29.2C41.3118 29.2 38.8918 26.8 38.8918 23.4C38.8918 20 41.3118 17.6 44.4918 17.6C46.2518 17.6 47.8118 18.4 48.6718 19.68V17.9ZM62.4274 20L61.2674 20.74C60.5274 19.54 59.2674 18.86 57.9074 18.86C55.7074 18.86 53.8474 20.76 53.8474 23.4C53.8474 26.06 55.7074 27.96 57.9074 27.96C59.4474 27.96 60.8474 27.1 61.5874 25.58L62.7074 26.36C61.7674 28.12 59.9874 29.2 57.9074 29.2C54.8274 29.2 52.4074 26.8 52.4074 23.4C52.4074 20 54.8274 17.62 57.9074 17.62C59.8274 17.62 61.4474 18.5 62.4274 20ZM71.596 28.9L65.856 23.38V28.9H64.416V13.5H65.856V23.02L71.056 17.9H72.816L67.456 23.16L73.356 28.9H71.596ZM83.9252 23.4C83.9252 20.56 82.0652 18.84 79.7652 18.84C77.4652 18.84 75.6052 20.74 75.6052 23.4C75.6052 26.06 77.4652 27.96 79.7652 27.96C82.0652 27.96 83.9252 26.06 83.9252 23.4ZM83.9452 17.9H85.3852V28.9H83.9452V26.94C83.0852 28.38 81.4252 29.2 79.7652 29.2C76.5852 29.2 74.1652 26.8 74.1652 23.4C74.1652 20 76.5852 17.6 79.7652 17.6C81.5252 17.6 83.0852 18.4 83.9452 19.68V17.9ZM93.2809 27.6C95.5809 27.6 97.4409 25.88 97.4409 23.22C97.4409 20.56 95.5809 18.84 93.2809 18.84C90.9809 18.84 89.1209 20.56 89.1209 23.22C89.1209 25.88 90.9809 27.6 93.2809 27.6ZM97.4609 17.9H98.9009V28.22C98.9009 31.5 96.7409 33.3 93.4409 33.3C91.4209 33.3 89.5809 32.32 88.6409 30.78L89.7609 30.08C90.4009 31.32 91.9609 32.06 93.4409 32.06C95.8409 32.06 97.4809 30.84 97.4809 28.22L97.4609 26.78C96.6009 28.16 94.9409 28.84 93.2809 28.84C90.1009 28.84 87.6809 26.64 87.6809 23.22C87.6809 19.82 90.1009 17.6 93.2809 17.6C95.0409 17.6 96.6009 18.4 97.4609 19.68V17.9ZM111.796 24H102.696C102.916 26.28 104.296 27.96 106.696 27.96C108.376 27.96 109.716 26.98 110.576 25.7L111.536 26.46C110.516 28 108.716 29.2 106.696 29.2C103.496 29.2 101.196 26.8 101.196 23.4C101.196 20 103.616 17.6 106.496 17.6C109.536 17.6 111.796 20.02 111.796 23.2V24ZM102.656 22.8H110.356C110.136 20.52 108.696 18.84 106.496 18.84C104.556 18.84 102.916 20.48 102.656 22.8Z" fill="white"/>
</svg>
