<svg width="125" height="125" viewBox="0 0 125 125" fill="none" xmlns="http://www.w3.org/2000/svg" xmlns:xlink="http://www.w3.org/1999/xlink">
<circle cx="62.459" cy="61.7393" r="57.5" fill="#F6749D"/>
<use xlink:href="#stroke0_14_162" transform="translate(115.246 60.1452) scale(0.0241764) rotate(-29.9097)"/>
<use xlink:href="#stroke0_14_162" transform="translate(120.867 65.8335) scale(0.0136346) rotate(-157.851)"/>
<use xlink:href="#stroke0_14_162" transform="translate(114.12 66.5191) scale(0.0291838) rotate(-65.1121)"/>
<use xlink:href="#stroke0_14_162" transform="translate(118.709 68.2133) scale(0.0105427) rotate(-109.059)"/>
<use xlink:href="#stroke0_14_162" transform="translate(120.823 70.3019) scale(0.0155265) rotate(-159.315)"/>
<use xlink:href="#stroke0_14_162" transform="translate(117.753 67.1091) scale(0.0106464) rotate(-15.4752)"/>
<use xlink:href="#stroke0_14_162" transform="translate(116.462 71.177) scale(0.0170449) rotate(-79.8952)"/>
<use xlink:href="#stroke0_14_162" transform="translate(122.752 72.358) scale(0.0187598) rotate(156.789)"/>
<use xlink:href="#stroke0_14_162" transform="translate(121.512 75.2297) scale(0.0193008) rotate(-177.421)"/>
<use xlink:href="#stroke0_14_162" transform="translate(115.371 67.7139) scale(0.035089) rotate(14.7287)"/>
<use xlink:href="#stroke0_14_162" transform="translate(125.116 78.3388) scale(0.0355315) rotate(143.71)"/>
<use xlink:href="#stroke0_14_162" transform="translate(112.032 78.0505) scale(0.0260978) rotate(-38.0483)"/>
<use xlink:href="#stroke0_14_162" transform="translate(115.406 85.018) scale(0.0216691) rotate(-121.218)"/>
<use xlink:href="#stroke0_14_162" transform="translate(119.421 78.3362) scale(0.0256661) rotate(80.166)"/>
<use xlink:href="#stroke0_14_162" transform="translate(113.058 83.464) scale(0.0123387) rotate(-41.022)"/>
<use xlink:href="#stroke0_14_162" transform="translate(117.387 84.0073) scale(0.010891) rotate(115.709)"/>
<use xlink:href="#stroke0_14_162" transform="translate(113.581 81.1528) scale(0.0232287) rotate(27.8911)"/>
<use xlink:href="#stroke0_14_162" transform="translate(118.843 82.5747) scale(0.0356289) rotate(85.7446)"/>
<use xlink:href="#stroke0_14_162" transform="translate(115.101 90.5715) scale(0.0122032) rotate(158.461)"/>
<use xlink:href="#stroke0_14_162" transform="translate(115.1 87.9934) scale(0.0180541) rotate(90.3395)"/>
<use xlink:href="#stroke0_14_162" transform="translate(111.469 98.7465) scale(0.0323882) rotate(-139.958)"/>
<use xlink:href="#stroke0_14_162" transform="translate(105.706 92.6712) scale(0.0224365) rotate(-33.9834)"/>
<use xlink:href="#stroke0_14_162" transform="translate(107.497 95.7316) scale(0.0104326) rotate(-72.3237)"/>
<use xlink:href="#stroke0_14_162" transform="translate(106.022 103.406) scale(0.0363857) rotate(-119.989)"/>
<use xlink:href="#stroke0_14_162" transform="translate(101.166 97.4048) scale(0.0281088) rotate(-40.2944)"/>
<use xlink:href="#stroke0_14_162" transform="translate(103.158 97.6788) scale(0.0156748) rotate(-13.9332)"/>
<use xlink:href="#stroke0_14_162" transform="translate(102.269 94.5425) scale(0.0327978) rotate(21.4267)"/>
<use xlink:href="#stroke0_14_162" transform="translate(102.1 100.071) scale(0.0117641) rotate(8.8953)"/>
<use xlink:href="#stroke0_14_162" transform="translate(108.742 104.272) scale(0.032099) rotate(139.985)"/>
<use xlink:href="#stroke0_14_162" transform="translate(103.441 105.258) scale(0.0126829) rotate(149.5)"/>
<use xlink:href="#stroke0_14_162" transform="translate(100.666 107.241) scale(0.0108383) rotate(-148.319)"/>
<use xlink:href="#stroke0_14_162" transform="translate(105.132 107.666) scale(0.0303637) rotate(146.288)"/>
<use xlink:href="#stroke0_14_162" transform="translate(95.4753 107.606) scale(0.0117906) rotate(-61.4174)"/>
<use xlink:href="#stroke0_14_162" transform="translate(100.703 108.459) scale(0.0186888) rotate(141.673)"/>
<use xlink:href="#stroke0_14_162" transform="translate(90.6449 104.889) scale(0.0301637) rotate(-8.75579)"/>
<use xlink:href="#stroke0_14_162" transform="translate(99.9817 112.442) scale(0.0338181) rotate(150.004)"/>
<use xlink:href="#stroke0_14_162" transform="translate(95.4046 112.795) scale(0.0196597) rotate(153.239)"/>
<use xlink:href="#stroke0_14_162" transform="translate(94.2601 111.658) scale(0.0189797) rotate(126.058)"/>
<use xlink:href="#stroke0_14_162" transform="translate(95.4785 113.73) scale(0.0336144) rotate(137.75)"/>
<use xlink:href="#stroke0_14_162" transform="translate(89.4345 113.963) scale(0.0116128) rotate(137.063)"/>
<use xlink:href="#stroke0_14_162" transform="translate(82.7794 119.097) scale(0.0271477) rotate(-106.914)"/>
<use xlink:href="#stroke0_14_162" transform="translate(81.7094 113.592) scale(0.0140938) rotate(-20.4798)"/>
<use xlink:href="#stroke0_14_162" transform="translate(80.3773 118.654) scale(0.0202984) rotate(-98.8278)"/>
<use xlink:href="#stroke0_14_162" transform="translate(88.0431 116.25) scale(0.0336584) rotate(132.277)"/>
<use xlink:href="#stroke0_14_162" transform="translate(79.5178 112.494) scale(0.0209228) rotate(46.4845)"/>
<use xlink:href="#stroke0_14_162" transform="translate(75.2265 112.324) scale(0.0262953) rotate(17.6515)"/>
<use xlink:href="#stroke0_14_162" transform="translate(79.2107 119.596) scale(0.0192863) rotate(159.91)"/>
<use xlink:href="#stroke0_14_162" transform="translate(76.6687 118.822) scale(0.0109012) rotate(154.14)"/>
<use xlink:href="#stroke0_14_162" transform="translate(75.8341 119.196) scale(0.0112916) rotate(158.789)"/>
<use xlink:href="#stroke0_14_162" transform="translate(75.0936 120.452) scale(0.0153146) rotate(174.074)"/>
<use xlink:href="#stroke0_14_162" transform="translate(68.9478 113.53) scale(0.0268473) rotate(17.4796)"/>
<use xlink:href="#stroke0_14_162" transform="translate(68.1824 122.056) scale(0.017089) rotate(-116.021)"/>
<use xlink:href="#stroke0_14_162" transform="translate(68.0789 123.009) scale(0.0196645) rotate(-137.76)"/>
<use xlink:href="#stroke0_14_162" transform="translate(69.3358 118.555) scale(0.0118924) rotate(119.335)"/>
<use xlink:href="#stroke0_14_162" transform="translate(66.8724 116.718) scale(0.0124406) rotate(60.9487)"/>
<use xlink:href="#stroke0_14_162" transform="translate(65.4384 113.649) scale(0.0273701) rotate(50.9796)"/>
<use xlink:href="#stroke0_14_162" transform="translate(58.1591 119.723) scale(0.0218232) rotate(-54.7858)"/>
<use xlink:href="#stroke0_14_162" transform="translate(65.8865 123.733) scale(0.0342556) rotate(171.361)"/>
<use xlink:href="#stroke0_14_162" transform="translate(58.9984 121.714) scale(0.0126994) rotate(-145.245)"/>
<use xlink:href="#stroke0_14_162" transform="translate(60.8733 113.709) scale(0.0317805) rotate(77.6438)"/>
<use xlink:href="#stroke0_14_162" transform="translate(52.7836 121.881) scale(0.0188086) rotate(-102.039)"/>
<use xlink:href="#stroke0_14_162" transform="translate(51.6104 119.725) scale(0.0124307) rotate(-74.4775)"/>
<use xlink:href="#stroke0_14_162" transform="translate(53.7638 120.654) scale(0.0112158) rotate(-157.383)"/>
<use xlink:href="#stroke0_14_162" transform="translate(51.4807 115.415) scale(0.0143066) rotate(30.0308)"/>
<use xlink:href="#stroke0_14_162" transform="translate(49.0288 116.567) scale(0.0124079) rotate(-11.4182)"/>
<use xlink:href="#stroke0_14_162" transform="translate(55.8616 117.331) scale(0.031304) rotate(127.604)"/>
<use xlink:href="#stroke0_14_162" transform="translate(48.8044 120.553) scale(0.01668) rotate(-158.074)"/>
<use xlink:href="#stroke0_14_162" transform="translate(47.4475 114.492) scale(0.0129842) rotate(60.5986)"/>
<use xlink:href="#stroke0_14_162" transform="translate(45.5034 118.909) scale(0.0104775) rotate(-133.032)"/>
<use xlink:href="#stroke0_14_162" transform="translate(42.8612 116.05) scale(0.010419) rotate(-35.7882)"/>
<use xlink:href="#stroke0_14_162" transform="translate(43.7411 113.024) scale(0.0155658) rotate(36.5822)"/>
<use xlink:href="#stroke0_14_162" transform="translate(42.3196 118.375) scale(0.0126447) rotate(-123.523)"/>
<use xlink:href="#stroke0_14_162" transform="translate(40.1614 114.291) scale(0.0113703) rotate(-16.1961)"/>
<use xlink:href="#stroke0_14_162" transform="translate(43.523 110.751) scale(0.0245492) rotate(73.1846)"/>
<use xlink:href="#stroke0_14_162" transform="translate(38.6202 121.15) scale(0.0339401) rotate(-137.013)"/>
<use xlink:href="#stroke0_14_162" transform="translate(29.7861 109.521) scale(0.0363277) rotate(-20.7913)"/>
<use xlink:href="#stroke0_14_162" transform="translate(38.7445 114.167) scale(0.0238491) rotate(158.554)"/>
<use xlink:href="#stroke0_14_162" transform="translate(35.3798 114.314) scale(0.0196069) rotate(-175.717)"/>
<use xlink:href="#stroke0_14_162" transform="translate(33.963 113.101) scale(0.0170991) rotate(-177.497)"/>
<use xlink:href="#stroke0_14_162" transform="translate(32.8569 107.597) scale(0.0145207) rotate(86.4604)"/>
<use xlink:href="#stroke0_14_162" transform="translate(36.4915 109.488) scale(0.0358816) rotate(138.152)"/>
<use xlink:href="#stroke0_14_162" transform="translate(26.3645 105.722) scale(0.0110863) rotate(5.07703)"/>
<use xlink:href="#stroke0_14_162" transform="translate(27.3277 109.215) scale(0.0105674) rotate(-145.605)"/>
<use xlink:href="#stroke0_14_162" transform="translate(28.8807 103.622) scale(0.0186518) rotate(85.8683)"/>
<use xlink:href="#stroke0_14_162" transform="translate(28.8268 103.055) scale(0.0216941) rotate(100.098)"/>
<use xlink:href="#stroke0_14_162" transform="translate(29.7795 103.456) scale(0.0305286) rotate(125.958)"/>
<use xlink:href="#stroke0_14_162" transform="translate(21.8943 106.998) scale(0.0209077) rotate(-135.783)"/>
<use xlink:href="#stroke0_14_162" transform="translate(24.259 100.018) scale(0.0173981) rotate(104.061)"/>
<use xlink:href="#stroke0_14_162" transform="translate(19.5975 103.197) scale(0.0119102) rotate(-121.681)"/>
<use xlink:href="#stroke0_14_162" transform="translate(18.8971 97.452) scale(0.0135498) rotate(25.6049)"/>
<use xlink:href="#stroke0_14_162" transform="translate(20.7659 97.1015) scale(0.013997) rotate(80.1692)"/>
<use xlink:href="#stroke0_14_162" transform="translate(22.1879 101.772) scale(0.0270748) rotate(171.952)"/>
<use xlink:href="#stroke0_14_162" transform="translate(13.0932 96.3683) scale(0.0184855) rotate(-42.224)"/>
<use xlink:href="#stroke0_14_162" transform="translate(18.2607 95.0063) scale(0.0109112) rotate(108.06)"/>
<use xlink:href="#stroke0_14_162" transform="translate(17.8174 97.6295) scale(0.0165875) rotate(-179.466)"/>
<use xlink:href="#stroke0_14_162" transform="translate(12.4189 93.0967) scale(0.0131898) rotate(-26.5218)"/>
<use xlink:href="#stroke0_14_162" transform="translate(15.7693 96.4572) scale(0.0176701) rotate(-162.746)"/>
<use xlink:href="#stroke0_14_162" transform="translate(15.0678 84.3002) scale(0.0357432) rotate(56.1268)"/>
<use xlink:href="#stroke0_14_162" transform="translate(10.7348 84.4186) scale(0.0250574) rotate(26.7313)"/>
<use xlink:href="#stroke0_14_162" transform="translate(15.9651 89.1118) scale(0.0242598) rotate(147.277)"/>
<use xlink:href="#stroke0_14_162" transform="translate(13.1127 86.2466) scale(0.0125433) rotate(126.053)"/>
<use xlink:href="#stroke0_14_162" transform="translate(10.0694 81.7579) scale(0.0178771) rotate(41.6467)"/>
<use xlink:href="#stroke0_14_162" transform="translate(11.3305 85.7373) scale(0.0104094) rotate(168.337)"/>
<use xlink:href="#stroke0_14_162" transform="translate(3.78334 80.1439) scale(0.0292008) rotate(-19.6057)"/>
<use xlink:href="#stroke0_14_162" transform="translate(11.2649 78.9952) scale(0.0180939) rotate(91.7613)"/>
<use xlink:href="#stroke0_14_162" transform="translate(10.3513 79.657) scale(0.0117484) rotate(115.995)"/>
<use xlink:href="#stroke0_14_162" transform="translate(3.38545 77.2091) scale(0.0224289) rotate(-24.9485)"/>
<use xlink:href="#stroke0_14_162" transform="translate(7.35589 80.4098) scale(0.0128117) rotate(-141.438)"/>
<use xlink:href="#stroke0_14_162" transform="translate(5.3726 71.3921) scale(0.0252473) rotate(25.0147)"/>
<use xlink:href="#stroke0_14_162" transform="translate(11.0168 78.7765) scale(0.0315857) rotate(175.255)"/>
<use xlink:href="#stroke0_14_162" transform="translate(1.25523 71.6393) scale(0.0228338) rotate(-41.2383)"/>
<use xlink:href="#stroke0_14_162" transform="translate(4.6936 68.7514) scale(0.0117007) rotate(16.92)"/>
<use xlink:href="#stroke0_14_162" transform="translate(7.523 67.8453) scale(0.0141117) rotate(84.3668)"/>
<use xlink:href="#stroke0_14_162" transform="translate(9.09213 67.5622) scale(0.0189053) rotate(114.028)"/>
<use xlink:href="#stroke0_14_162" transform="translate(6.12488 70.7902) scale(0.0172641) rotate(-153.193)"/>
<use xlink:href="#stroke0_14_162" transform="translate(4.46551 70.4428) scale(0.0225735) rotate(-130.708)"/>
<use xlink:href="#stroke0_14_162" transform="translate(3.00346 65.2916) scale(0.0104233) rotate(-67.8927)"/>
<use xlink:href="#stroke0_14_162" transform="translate(-1.47232 62.5223) scale(0.0313985) rotate(-44.417)"/>
<use xlink:href="#stroke0_14_162" transform="translate(1.9743 61.4133) scale(0.0145388) rotate(-51.9948)"/>
<use xlink:href="#stroke0_14_162" transform="translate(1.76156 61.8468) scale(0.0180719) rotate(-78.5175)"/>
<use xlink:href="#stroke0_14_162" transform="translate(2.48436 61.741) scale(0.0198871) rotate(-99.848)"/>
<use xlink:href="#stroke0_14_162" transform="translate(-0.5428 56.0186) scale(0.0279926) rotate(-41.5353)"/>
<use xlink:href="#stroke0_14_162" transform="translate(9.22588 56.4926) scale(0.0203157) rotate(153.867)"/>
<use xlink:href="#stroke0_14_162" transform="translate(0.159961 48.4276) scale(0.0341972) rotate(-9.77969)"/>
<use xlink:href="#stroke0_14_162" transform="translate(3.88126 54.4944) scale(0.0208217) rotate(-108.906)"/>
<use xlink:href="#stroke0_14_162" transform="translate(-0.186879 49.877) scale(0.0325669) rotate(-58.0105)"/>
<use xlink:href="#stroke0_14_162" transform="translate(5.05992 49.0886) scale(0.0129809) rotate(-96.8097)"/>
<use xlink:href="#stroke0_14_162" transform="translate(2.95356 42.3719) scale(0.0262308) rotate(-11.1384)"/>
<use xlink:href="#stroke0_14_162" transform="translate(8.47613 42.3123) scale(0.0105357) rotate(63.9085)"/>
<use xlink:href="#stroke0_14_162" transform="translate(6.9123 40.3444) scale(0.0155494) rotate(22.3742)"/>
<use xlink:href="#stroke0_14_162" transform="translate(14.8928 40.8551) scale(0.0310933) rotate(123.862)"/>
<use xlink:href="#stroke0_14_162" transform="translate(12.8159 36.86) scale(0.022299) rotate(91.5571)"/>
<use xlink:href="#stroke0_14_162" transform="translate(10.4218 40.7999) scale(0.0109633) rotate(-154.868)"/>
<use xlink:href="#stroke0_14_162" transform="translate(4.58745 36.6234) scale(0.0284738) rotate(-42.2972)"/>
<use xlink:href="#stroke0_14_162" transform="translate(6.13658 31.6387) scale(0.0310477) rotate(-14.3624)"/>
<use xlink:href="#stroke0_14_162" transform="translate(12.9543 36.1033) scale(0.0118067) rotate(-156.838)"/>
<use xlink:href="#stroke0_14_162" transform="translate(8.88518 33.4203) scale(0.0191835) rotate(-58.0826)"/>
<use xlink:href="#stroke0_14_162" transform="translate(20.0293 32.2249) scale(0.0308742) rotate(141.248)"/>
<use xlink:href="#stroke0_14_162" transform="translate(19.1903 26.4219) scale(0.0250986) rotate(96.7996)"/>
<use xlink:href="#stroke0_14_162" transform="translate(16.8616 30.5328) scale(0.0126231) rotate(-163.578)"/>
<use xlink:href="#stroke0_14_162" transform="translate(13.917 25.6665) scale(0.0144645) rotate(-14.2515)"/>
<use xlink:href="#stroke0_14_162" transform="translate(18.2433 22.9075) scale(0.0176965) rotate(59.38)"/>
<use xlink:href="#stroke0_14_162" transform="translate(21.6043 22.3307) scale(0.0220936) rotate(92.4521)"/>
<use xlink:href="#stroke0_14_162" transform="translate(17.6951 26.1422) scale(0.0109468) rotate(-106.862)"/>
<use xlink:href="#stroke0_14_162" transform="translate(25.7764 27.4046) scale(0.0353726) rotate(169.566)"/>
<use xlink:href="#stroke0_14_162" transform="translate(22.028 26.4771) scale(0.0255812) rotate(-142.648)"/>
<use xlink:href="#stroke0_14_162" transform="translate(20.3997 13.9848) scale(0.0310347) rotate(15.3555)"/>
<use xlink:href="#stroke0_14_162" transform="translate(24.7414 20.8431) scale(0.0107937) rotate(-147.853)"/>
<use xlink:href="#stroke0_14_162" transform="translate(28.2585 20.4192) scale(0.0190726) rotate(171.236)"/>
<use xlink:href="#stroke0_14_162" transform="translate(23.371 23.1758) scale(0.0363561) rotate(-110.64)"/>
<use xlink:href="#stroke0_14_162" transform="translate(33.6114 20.8553) scale(0.036305) rotate(-175.804)"/>
<use xlink:href="#stroke0_14_162" transform="translate(28.4885 12.8314) scale(0.011392) rotate(-22.2516)"/>
<use xlink:href="#stroke0_14_162" transform="translate(33.1357 16.5387) scale(0.0177424) rotate(-164.878)"/>
<use xlink:href="#stroke0_14_162" transform="translate(28.0519 16.9135) scale(0.0337666) rotate(-90.9099)"/>
<use xlink:href="#stroke0_14_162" transform="translate(31.1963 11.8466) scale(0.0182999) rotate(-57.6616)"/>
<use xlink:href="#stroke0_14_162" transform="translate(36.1953 5.90127) scale(0.0224788) rotate(40.2534)"/>
<use xlink:href="#stroke0_14_162" transform="translate(37.9109 6.98372) scale(0.0142941) rotate(48.559)"/>
<use xlink:href="#stroke0_14_162" transform="translate(41.4524 3.36042) scale(0.030534) rotate(63.4511)"/>
<use xlink:href="#stroke0_14_162" transform="translate(45.7116 5.58464) scale(0.0261768) rotate(100.603)"/>
<use xlink:href="#stroke0_14_162" transform="translate(43.7241 14.239) scale(0.032605) rotate(-143.245)"/>
<use xlink:href="#stroke0_14_162" transform="translate(43.6023 3.03021) scale(0.0201859) rotate(20.4529)"/>
<use xlink:href="#stroke0_14_162" transform="translate(44.542 7.98343) scale(0.0106328) rotate(-88.9249)"/>
<use xlink:href="#stroke0_14_162" transform="translate(44.0165 6.96023) scale(0.0156855) rotate(-60.5286)"/>
<use xlink:href="#stroke0_14_162" transform="translate(48.934 3.92644) scale(0.0109078) rotate(61.6777)"/>
<use xlink:href="#stroke0_14_162" transform="translate(50.2546 3.14684) scale(0.0141157) rotate(65.2509)"/>
<use xlink:href="#stroke0_14_162" transform="translate(48.2176 0.314478) scale(0.0276055) rotate(16.2399)"/>
<use xlink:href="#stroke0_14_162" transform="translate(59.1637 6.06296) scale(0.0311605) rotate(140.57)"/>
<use xlink:href="#stroke0_14_162" transform="translate(54.0263 0.512569) scale(0.0209045) rotate(31.1219)"/>
<use xlink:href="#stroke0_14_162" transform="translate(59.6915 7.46446) scale(0.02136) rotate(172.844)"/>
<use xlink:href="#stroke0_14_162" transform="translate(62.2744 3.29249) scale(0.0213906) rotate(116.721)"/>
<use xlink:href="#stroke0_14_162" transform="translate(56.316 0.996913) scale(0.0230185) rotate(-4.32193)"/>
<use xlink:href="#stroke0_14_162" transform="translate(60.1259 10.4023) scale(0.030965) rotate(-123.713)"/>
<use xlink:href="#stroke0_14_162" transform="translate(62.6404 10.6518) scale(0.0319109) rotate(-125.163)"/>
<use xlink:href="#stroke0_14_162" transform="translate(62.0879 3.27421) scale(0.0204687) rotate(-33.7093)"/>
<use xlink:href="#stroke0_14_162" transform="translate(67.6642 8.91094) scale(0.0215352) rotate(-137.426)"/>
<use xlink:href="#stroke0_14_162" transform="translate(63.1809 7.8781) scale(0.0362698) rotate(-73.6066)"/>
<use xlink:href="#stroke0_14_162" transform="translate(72.5593 1.25175) scale(0.0185463) rotate(49.6637)"/>
<use xlink:href="#stroke0_14_162" transform="translate(70.8414 5.27662) scale(0.0110909) rotate(-49.8581)"/>
<use xlink:href="#stroke0_14_162" transform="translate(76.4463 4.84637) scale(0.0122165) rotate(118.768)"/>
<use xlink:href="#stroke0_14_162" transform="translate(70.5285 9.36789) scale(0.0301922) rotate(-84.2978)"/>
<use xlink:href="#stroke0_14_162" transform="translate(75.546 9.31847) scale(0.017549) rotate(-108.839)"/>
<use xlink:href="#stroke0_14_162" transform="translate(73.6517 8.52392) scale(0.0274893) rotate(-67.9281)"/>
<use xlink:href="#stroke0_14_162" transform="translate(87.5728 5.46712) scale(0.0324518) rotate(115.024)"/>
<use xlink:href="#stroke0_14_162" transform="translate(77.5381 4.96214) scale(0.0330246) rotate(-20.0165)"/>
<use xlink:href="#stroke0_14_162" transform="translate(80.8247 5.14931) scale(0.0308487) rotate(-9.50156)"/>
<use xlink:href="#stroke0_14_162" transform="translate(88.4401 6.96659) scale(0.0151627) rotate(61.9897)"/>
<use xlink:href="#stroke0_14_162" transform="translate(95.1399 8.58123) scale(0.031798) rotate(112.616)"/>
<use xlink:href="#stroke0_14_162" transform="translate(89.1979 15.1768) scale(0.0187103) rotate(-116.646)"/>
<use xlink:href="#stroke0_14_162" transform="translate(92.3949 14.3704) scale(0.0112936) rotate(-157.865)"/>
<use xlink:href="#stroke0_14_162" transform="translate(91.6574 14.871) scale(0.0114632) rotate(-120.986)"/>
<use xlink:href="#stroke0_14_162" transform="translate(86.9281 15.9108) scale(0.0356708) rotate(-67.0879)"/>
<use xlink:href="#stroke0_14_162" transform="translate(98.8021 13.8366) scale(0.016427) rotate(116.651)"/>
<use xlink:href="#stroke0_14_162" transform="translate(100.943 13.5974) scale(0.0225705) rotate(106.291)"/>
<use xlink:href="#stroke0_14_162" transform="translate(99.6981 14.6574) scale(0.0124528) rotate(89.234)"/>
<use xlink:href="#stroke0_14_162" transform="translate(93.1253 13.3389) scale(0.0360293) rotate(-14.1076)"/>
<use xlink:href="#stroke0_14_162" transform="translate(96.4297 18.188) scale(0.0221266) rotate(-38.472)"/>
<use xlink:href="#stroke0_14_162" transform="translate(97.8463 21.7149) scale(0.0222876) rotate(-68.6869)"/>
<use xlink:href="#stroke0_14_162" transform="translate(103.596 23.1589) scale(0.0107301) rotate(-152.777)"/>
<use xlink:href="#stroke0_14_162" transform="translate(101.139 20.6616) scale(0.0133777) rotate(-27.0708)"/>
<use xlink:href="#stroke0_14_162" transform="translate(105.082 19.9957) scale(0.0120563) rotate(58.0824)"/>
<use xlink:href="#stroke0_14_162" transform="translate(102.805 18.0537) scale(0.0295931) rotate(15.7613)"/>
<use xlink:href="#stroke0_14_162" transform="translate(108.246 19.1824) scale(0.0303167) rotate(53.6336)"/>
<use xlink:href="#stroke0_14_162" transform="translate(105.707 29.177) scale(0.0165985) rotate(-95.5796)"/>
<use xlink:href="#stroke0_14_162" transform="translate(107.299 24.6112) scale(0.0166496) rotate(15.4345)"/>
<use xlink:href="#stroke0_14_162" transform="translate(110.272 31.0961) scale(0.012759) rotate(-156.726)"/>
<use xlink:href="#stroke0_14_162" transform="translate(110.586 31.7582) scale(0.0119383) rotate(-152.59)"/>
<use xlink:href="#stroke0_14_162" transform="translate(110.939 24.3543) scale(0.0310263) rotate(41.7991)"/>
<use xlink:href="#stroke0_14_162" transform="translate(109.567 31.4608) scale(0.0110163) rotate(-32.204)"/>
<use xlink:href="#stroke0_14_162" transform="translate(108.187 38.6984) scale(0.0329125) rotate(-98.1122)"/>
<use xlink:href="#stroke0_14_162" transform="translate(114.345 31.7794) scale(0.017255) rotate(55.2443)"/>
<use xlink:href="#stroke0_14_162" transform="translate(115.44 38.5603) scale(0.0131338) rotate(-170.291)"/>
<use xlink:href="#stroke0_14_162" transform="translate(118.262 38.6067) scale(0.019011) rotate(149.923)"/>
<use xlink:href="#stroke0_14_162" transform="translate(119.745 40.3479) scale(0.0232146) rotate(149.919)"/>
<use xlink:href="#stroke0_14_162" transform="translate(113.303 43.3867) scale(0.0193163) rotate(-98.9469)"/>
<use xlink:href="#stroke0_14_162" transform="translate(113.998 43.2055) scale(0.0138957) rotate(-85.0527)"/>
<use xlink:href="#stroke0_14_162" transform="translate(116.364 39.8062) scale(0.0130144) rotate(35.2636)"/>
<use xlink:href="#stroke0_14_162" transform="translate(116.379 45.9988) scale(0.0129378) rotate(-125.694)"/>
<use xlink:href="#stroke0_14_162" transform="translate(117.82 38.3741) scale(0.0324924) rotate(44.1422)"/>
<use xlink:href="#stroke0_14_162" transform="translate(112.629 49.1983) scale(0.0282868) rotate(-67.7877)"/>
<use xlink:href="#stroke0_14_162" transform="translate(114.51 47.9901) scale(0.0203979) rotate(-33.4602)"/>
<use xlink:href="#stroke0_14_162" transform="translate(116.847 52.307) scale(0.013534) rotate(-93.1528)"/>
<use xlink:href="#stroke0_14_162" transform="translate(117.724 45.8378) scale(0.0307762) rotate(28.4912)"/>
<use xlink:href="#stroke0_14_162" transform="translate(117.452 49.6742) scale(0.0233804) rotate(16.8739)"/>
<use xlink:href="#stroke0_14_162" transform="translate(120.832 62.1825) scale(0.0301676) rotate(-149.25)"/>
<use xlink:href="#stroke0_14_162" transform="translate(123.244 57.3006) scale(0.0168095) rotate(122.043)"/>
<use xlink:href="#stroke0_14_162" transform="translate(117.428 58.697) scale(0.0120472) rotate(-42.4211)"/>
<use xlink:href="#stroke0_14_162" transform="translate(126.232 60.5475) scale(0.0305352) rotate(131.084)"/>
<defs>
<g id="stroke0_14_162" data-figma-scatter-ref="stroke0_14_162_ref" data-figma-scatter="f0.28_w0_aj180_sj0.88_r0_s5348649651814949343_sw6">
<path d="M103.731 283.547C110.352 281.363 112.807 281.348 116.121 283.468C130.109 292.418 124.85 308.718 107.972 308.727C90.3768 308.737 87.0606 289.046 103.731 283.547ZM139.837 35.4146C140.937 35.1787 142.512 35.114 143.337 35.271C144.162 35.4281 146.516 35.8391 148.567 36.1851C155.802 37.4051 160.179 46.6969 156.734 53.5249C152.924 61.0769 144.715 67.5811 140.859 66.1021C135.872 64.1881 137.625 69.8792 144.066 76.5152C148.306 80.8841 150.337 81.2685 150.337 77.7066C150.337 76.6574 151.622 74.3218 153.193 72.5161C154.823 70.6412 156.597 66.9201 157.324 63.8501C158.925 57.0892 160.788 55.2289 167.369 53.8169C177.32 51.6829 185.581 56.9263 183.752 64.2153C183.293 66.0423 183.901 67.6656 186.09 70.4585C196.859 84.1975 193.875 104.273 180.596 107.418C177.049 108.258 176.832 108.532 176.773 112.27C176.739 114.448 176.365 116.987 175.943 117.912C175.255 119.417 175.946 119.564 182.506 119.31C190.415 119.003 192.674 119.705 195.953 123.487C199.054 127.064 201.598 126.114 202.609 121.002C203.503 116.483 209.096 110.731 212.596 110.731C214.841 110.731 215.934 108.156 214.449 106.367C206.1 96.3056 222.234 73.6632 235.605 76.6792C241.572 78.0252 246.302 83.6302 246.367 89.4312C246.384 90.9712 247.505 94.4811 248.858 97.231C255.362 110.453 243.304 126.225 232.777 118.263C229.924 116.105 229.837 116.226 229.837 122.341C229.837 128.93 225.932 133.292 219.049 134.393C216.068 134.87 214.933 135.67 213.775 138.116C212.964 139.829 211.55 142.415 210.63 143.863C208.984 146.456 209.02 146.565 213.147 151.254C215.451 153.871 217.337 156.555 217.337 157.218C217.337 157.882 218.074 159.901 218.974 161.706C222.148 168.067 221.073 181.731 217.4 181.731C217.052 181.731 215.97 183.081 214.995 184.731C214.02 186.381 212.573 187.731 211.779 187.731C209.595 187.731 210.044 189.817 212.863 192.76C216.384 196.435 217.425 204.867 214.728 207.858C209.503 213.649 203.05 218.01 198.064 219.122C193.944 220.041 192.83 220.705 192.804 222.259C192.669 230.389 188.242 235.387 179.682 237.077C172.845 238.427 172.072 240.31 177.577 242.203C190.358 246.597 192.892 257.693 182.442 263.506C176.521 266.799 172.426 266.758 167.515 263.354C163.894 260.845 163.161 260.686 159.679 261.653C153.737 263.303 147.363 262.934 141.337 260.593C135.874 258.47 130.724 257.068 124.689 256.061C118.715 255.064 115.151 249.943 114.592 241.551C114.184 235.417 113.671 233.745 111.425 231.231C109.951 229.581 107.986 226.544 107.058 224.481C105.42 220.844 105.211 220.731 100.164 220.731C93.7935 220.731 89.0798 217.922 86.2168 212.42C83.0468 206.327 78.9427 207.336 78.8477 214.231C78.8097 216.981 78.4233 220.817 77.9883 222.755C77.2354 226.113 77.3507 226.324 80.4366 227.255C90.5004 230.29 90.3981 247.946 80.2881 252.934C55.9904 264.92 26.2411 240.473 47.875 226.298C49.556 225.196 50.1805 223.494 50.6895 218.626C51.0495 215.185 52.1298 211.262 53.0908 209.91C54.0507 208.557 55.2736 206.856 55.8086 206.127C56.5016 205.184 56.0161 204.003 54.1221 202.017C50.6273 198.355 49.3112 194.657 49.9981 190.428C50.3281 188.392 50.1033 186.705 49.4463 186.299C48.8364 185.922 48.337 184.345 48.3369 182.794C48.3369 181.244 47.6012 179.366 46.7032 178.621C43.9996 176.376 34.3369 162.856 34.3369 161.317C34.3368 160.529 32.7627 157.822 30.8389 155.302C28.915 152.781 27.3998 150.384 27.4727 149.975C28.4457 144.478 24.6467 141.425 20.4727 144.348C18.2547 145.902 11.2222 145.776 6.86624 144.104C-3.23648 140.227 -1.78745 115.126 8.56839 114.62C14.8594 114.313 23.3369 117.551 23.3369 120.261C23.3372 122.018 26.1103 124.731 27.9073 124.731C28.6933 124.731 29.3369 124.041 29.3369 123.198C29.3372 109.814 50.1851 94.3087 69.8369 93.0767C82.9305 92.2547 88.2617 93.4969 97.1895 99.4468C101.45 102.287 108.337 96.8837 108.337 90.7007C108.337 88.6598 109.172 86.4706 110.483 85.0747C112.734 82.6789 111.804 79.7313 108.796 79.731C106.403 79.731 103.556 73.5422 104.077 69.4702C105.046 61.8843 117.633 57.7673 123.289 63.1861C125.639 65.4379 126.708 65.8083 129.245 65.2515C133.054 64.4145 133.128 63.4739 129.587 60.895C121.36 54.902 128.195 37.9086 139.837 35.4146ZM227.337 203.429C239.094 199.654 252.722 207.291 252.722 217.653C252.722 228.495 231.921 239.44 223.927 232.806C221.665 230.929 220.403 232.363 221.012 236.118C222.097 242.802 213.511 254.731 207.616 254.731C194.246 254.731 188.8 246.232 194.457 234.198C198.202 226.231 204.453 223.784 213.238 226.847C217.536 228.345 217.88 227.687 215.921 221.697C213.052 212.925 216.89 206.783 227.337 203.429ZM179.7 192.695C179.049 192.044 178.051 192.413 176.774 193.779C168.37 202.768 165.063 203.713 156.506 199.571C149.746 196.298 146.45 201.459 151.961 206.689C154.209 208.822 154.482 209.744 154.038 213.682C153.54 218.098 153.664 218.344 158.682 222.967C163.836 227.716 163.837 227.716 164.351 222.867C164.987 216.872 169.522 209.969 174.077 208.066C177.094 206.805 177.337 206.359 177.337 202.046C177.337 199.092 177.95 196.711 179.013 195.536C180.117 194.315 180.352 193.347 179.7 192.695ZM13.7354 183.697C21.2304 180.362 25.9355 181.225 32.1055 187.066C40.5644 195.074 37.0287 205.612 24.6309 209.343C9.40689 213.925 -0.704596 190.124 13.7354 183.697ZM252.956 148.251C262.129 145.732 267.81 147.203 270.983 152.921C277.397 164.478 257.352 180.919 247.179 172.445C237.093 164.044 240.016 151.805 252.956 148.251ZM175.822 162.709C174.842 161.123 172.482 161.589 171.417 163.579C170.283 165.699 171.384 170.913 173.086 171.481C174.366 171.905 176.761 164.229 175.822 162.709ZM150.152 111.481C150.492 108.526 149.534 108.177 145.513 109.79C142.108 111.155 143.035 114.231 146.851 114.231C149.365 114.231 149.886 113.796 150.152 111.481ZM156.837 98.731C156.012 98.731 155.337 99.406 155.337 100.231C155.337 101.056 156.012 101.731 156.837 101.731C157.662 101.731 158.337 101.056 158.337 100.231C158.337 99.4061 157.662 98.7312 156.837 98.731ZM131.337 85.6382C131.337 82.8002 129.491 81.4004 127.429 82.6743C126.501 83.2473 126.685 84.2905 128.185 86.9605C129.273 88.9003 130.316 91.46 130.5 92.6489C130.685 93.8379 131.287 94.905 131.837 95.021C133.25 95.317 133.729 90.7224 132.422 89.4155C131.825 88.8185 131.337 87.1191 131.337 85.6382ZM79.8369 36.9214C89.8819 31.2487 102.893 46.8492 95.6582 55.8921C92.2024 60.211 91.2042 63.981 91.8701 70.1997C92.5322 76.3837 92.4821 76.5638 89.0371 80.3628C76.0391 94.6997 55.1533 78.5005 64.8242 61.5825C66.3391 58.9327 67.3172 55.6452 67.3242 53.1753C67.3402 47.7053 72.4159 41.1124 79.8369 36.9214ZM120.896 78.731C120.653 78.731 120.177 79.1811 119.837 79.731C119.497 80.2809 119.695 80.7309 120.277 80.731C120.859 80.731 121.337 80.281 121.337 79.731C121.337 79.181 121.139 78.731 120.896 78.731ZM205.485 39.4898C219.631 37.0418 227.598 50.9151 220.597 65.8081C213.393 81.13 190.339 77.7861 190.091 61.3823C189.98 54.0764 199.509 40.5238 205.485 39.4898ZM51.8369 14.5542C64.4449 5.86451 75.68 19.3671 68.6241 34.731C62.385 48.3167 41.3372 43.775 41.3369 28.8423C41.3369 26.0333 47.6529 17.4382 51.8369 14.5542ZM108.212 2.17043C121.43 -6.81137 141.546 14.0924 133.237 28.1743C132.084 30.1297 130.819 31.7302 130.427 31.731C130.035 31.731 128.813 32.5703 127.713 33.5962C119.456 41.2872 107.786 35.7761 103.367 22.0991C100.152 12.1461 101.463 6.75643 108.212 2.17043Z" fill="#F6749D"/>
</g>
<path id="stroke0_14_162_ref" d="M119.959 61.7393C119.959 93.4956 94.2154 119.239 62.459 119.239C30.7026 119.239 4.95898 93.4956 4.95898 61.7393C4.95898 29.9829 30.7026 4.23926 62.459 4.23926C94.2154 4.23926 119.959 29.9829 119.959 61.7393Z"/>
</defs>
</svg>
