<svg width="119" height="119" viewBox="0 0 119 119" fill="none" xmlns="http://www.w3.org/2000/svg" xmlns:xlink="http://www.w3.org/1999/xlink">
<use xlink:href="#stroke0_fi" transform="translate(69.7117 7.01474) scale(0.0481751) rotate(134.311)"/>
<use xlink:href="#stroke0_fi" transform="translate(63.5997 -0.339686) scale(0.0481751) rotate(86.8626)"/>
<use xlink:href="#stroke0_fi" transform="translate(62.9129 4.61867) scale(0.0481751) rotate(117.97)"/>
<use xlink:href="#stroke0_fi" transform="translate(56.3901 15.0404) scale(0.0481751) rotate(-178.486)"/>
<use xlink:href="#stroke0_fi" transform="translate(41.4933 16.5005) scale(0.0481751) rotate(-106.015)"/>
<use xlink:href="#stroke0_fi" transform="translate(43.8469 -0.855417) scale(0.0481751) rotate(42.3506)"/>
<use xlink:href="#stroke0_fi" transform="translate(47.3727 2.92612) scale(0.0481751) rotate(84.5101)"/>
<use xlink:href="#stroke0_fi" transform="translate(27.3271 19.6143) scale(0.0481751) rotate(-90.86)"/>
<use xlink:href="#stroke0_fi" transform="translate(14.4966 18.0207) scale(0.0481751) rotate(-33.4386)"/>
<use xlink:href="#stroke0_fi" transform="translate(14.6485 29.8514) scale(0.0481751) rotate(-92.9114)"/>
<use xlink:href="#stroke0_fi" transform="translate(6.12146 28.1064) scale(0.0481751) rotate(-33.626)"/>
<use xlink:href="#stroke0_fi" transform="translate(8.62992 41.8038) scale(0.0481751) rotate(-105.654)"/>
<use xlink:href="#stroke0_fi" transform="translate(1.33759 40.3248) scale(0.0481751) rotate(-53.9335)"/>
<use xlink:href="#stroke0_fi" transform="translate(1.60028 41.6345) scale(0.0481751) rotate(-2.12955)"/>
<use xlink:href="#stroke0_fi" transform="translate(10.357 61.6632) scale(0.0481751) rotate(-152.935)"/>
<use xlink:href="#stroke0_fi" transform="translate(0.677006 54.7204) scale(0.0481751) rotate(-2.42868)"/>
<use xlink:href="#stroke0_fi" transform="translate(1.23375 69.9559) scale(0.0481751) rotate(-19.7767)"/>
<use xlink:href="#stroke0_fi" transform="translate(1.20393 79.2793) scale(0.0481751) rotate(-57.023)"/>
<use xlink:href="#stroke0_fi" transform="translate(2.52156 82.5171) scale(0.0481751) rotate(-58.3156)"/>
<use xlink:href="#stroke0_fi" transform="translate(6.46852 90.887) scale(0.0481751) rotate(-74.1714)"/>
<use xlink:href="#stroke0_fi" transform="translate(22.0015 101.454) scale(0.0481751) rotate(-154.858)"/>
<use xlink:href="#stroke0_fi" transform="translate(28.1123 101.684) scale(0.0481751) rotate(178.593)"/>
<use xlink:href="#stroke0_fi" transform="translate(19.8766 96.423) scale(0.0481751) rotate(-21.3337)"/>
<use xlink:href="#stroke0_fi" transform="translate(24.2702 109.734) scale(0.0481751) rotate(-92.7318)"/>
<use xlink:href="#stroke0_fi" transform="translate(43.1091 100.186) scale(0.0481751) rotate(105.472)"/>
<use xlink:href="#stroke0_fi" transform="translate(49.2319 111.219) scale(0.0481751) rotate(154.282)"/>
<use xlink:href="#stroke0_fi" transform="translate(43.8775 118.393) scale(0.0481751) rotate(-142.68)"/>
<use xlink:href="#stroke0_fi" transform="translate(55.5302 105.8) scale(0.0481751) rotate(109.822)"/>
<use xlink:href="#stroke0_fi" transform="translate(59.1978 108.118) scale(0.0481751) rotate(119.325)"/>
<use xlink:href="#stroke0_fi" transform="translate(62.618 118.457) scale(0.0481751) rotate(179.497)"/>
<use xlink:href="#stroke0_fi" transform="translate(66.0543 101.986) scale(0.0481751) rotate(2.61902)"/>
<use xlink:href="#stroke0_fi" transform="translate(70.7858 117.599) scale(0.0481751) rotate(-110.71)"/>
<use xlink:href="#stroke0_fi" transform="translate(74.6854 106.568) scale(0.0481751) rotate(-57.4628)"/>
<use xlink:href="#stroke0_fi" transform="translate(81.4662 111.405) scale(0.0481751) rotate(-102.387)"/>
<use xlink:href="#stroke0_fi" transform="translate(84.3889 109.731) scale(0.0481751) rotate(-103.73)"/>
<use xlink:href="#stroke0_fi" transform="translate(85.5251 95.1356) scale(0.0481751) rotate(-34.9003)"/>
<use xlink:href="#stroke0_fi" transform="translate(93.7114 86.035) scale(0.0481751) rotate(18.9055)"/>
<use xlink:href="#stroke0_fi" transform="translate(109.288 90.2221) scale(0.0481751) rotate(116.546)"/>
<use xlink:href="#stroke0_fi" transform="translate(101.604 80.2876) scale(0.0481751) rotate(40.5674)"/>
<use xlink:href="#stroke0_fi" transform="translate(106.26 77.9563) scale(0.0481751) rotate(56.8017)"/>
<use xlink:href="#stroke0_fi" transform="translate(111.65 77.0737) scale(0.0481751) rotate(80.9732)"/>
<use xlink:href="#stroke0_fi" transform="translate(116.148 60.9121) scale(0.0481751) rotate(72.1164)"/>
<use xlink:href="#stroke0_fi" transform="translate(121.171 68.9556) scale(0.0481751) rotate(147.503)"/>
<defs>
<g id="stroke0_fi">
<path d="M103.731 283.547C110.352 281.363 112.807 281.348 116.121 283.468C130.109 292.418 124.85 308.718 107.972 308.727C90.3768 308.737 87.0606 289.046 103.731 283.547ZM139.837 35.4146C140.937 35.1787 142.512 35.114 143.337 35.271C144.162 35.4281 146.516 35.8391 148.567 36.1851C155.802 37.4051 160.179 46.6969 156.734 53.5249C152.924 61.0769 144.715 67.5811 140.859 66.1021C135.872 64.1881 137.625 69.8792 144.066 76.5152C148.306 80.8841 150.337 81.2685 150.337 77.7066C150.337 76.6574 151.622 74.3218 153.193 72.5161C154.823 70.6412 156.597 66.9201 157.324 63.8501C158.925 57.0892 160.788 55.2289 167.369 53.8169C177.32 51.6829 185.581 56.9263 183.752 64.2153C183.293 66.0423 183.901 67.6656 186.09 70.4585C196.859 84.1975 193.875 104.273 180.596 107.418C177.049 108.258 176.832 108.532 176.773 112.27C176.739 114.448 176.365 116.987 175.943 117.912C175.255 119.417 175.946 119.564 182.506 119.31C190.415 119.003 192.674 119.705 195.953 123.487C199.054 127.064 201.598 126.114 202.609 121.002C203.503 116.483 209.096 110.731 212.596 110.731C214.841 110.731 215.934 108.156 214.449 106.367C206.1 96.3056 222.234 73.6632 235.605 76.6792C241.572 78.0252 246.302 83.6302 246.367 89.4312C246.384 90.9712 247.505 94.4811 248.858 97.231C255.362 110.453 243.304 126.225 232.777 118.263C229.924 116.105 229.837 116.226 229.837 122.341C229.837 128.93 225.932 133.292 219.049 134.393C216.068 134.87 214.933 135.67 213.775 138.116C212.964 139.829 211.55 142.415 210.63 143.863C208.984 146.456 209.02 146.565 213.147 151.254C215.451 153.871 217.337 156.555 217.337 157.218C217.337 157.882 218.074 159.901 218.974 161.706C222.148 168.067 221.073 181.731 217.4 181.731C217.052 181.731 215.97 183.081 214.995 184.731C214.02 186.381 212.573 187.731 211.779 187.731C209.595 187.731 210.044 189.817 212.863 192.76C216.384 196.435 217.425 204.867 214.728 207.858C209.503 213.649 203.05 218.01 198.064 219.122C193.944 220.041 192.83 220.705 192.804 222.259C192.669 230.389 188.242 235.387 179.682 237.077C172.845 238.427 172.072 240.31 177.577 242.203C190.358 246.597 192.892 257.693 182.442 263.506C176.521 266.799 172.426 266.758 167.515 263.354C163.894 260.845 163.161 260.686 159.679 261.653C153.737 263.303 147.363 262.934 141.337 260.593C135.874 258.47 130.724 257.068 124.689 256.061C118.715 255.064 115.151 249.943 114.592 241.551C114.184 235.417 113.671 233.745 111.425 231.231C109.951 229.581 107.986 226.544 107.058 224.481C105.42 220.844 105.211 220.731 100.164 220.731C93.7935 220.731 89.0798 217.922 86.2168 212.42C83.0468 206.327 78.9427 207.336 78.8477 214.231C78.8097 216.981 78.4233 220.817 77.9883 222.755C77.2354 226.113 77.3507 226.324 80.4366 227.255C90.5004 230.29 90.3981 247.946 80.2881 252.934C55.9904 264.92 26.2411 240.473 47.875 226.298C49.556 225.196 50.1805 223.494 50.6895 218.626C51.0495 215.185 52.1298 211.262 53.0908 209.91C54.0507 208.557 55.2736 206.856 55.8086 206.127C56.5016 205.184 56.0161 204.003 54.1221 202.017C50.6273 198.355 49.3112 194.657 49.9981 190.428C50.3281 188.392 50.1033 186.705 49.4463 186.299C48.8364 185.922 48.337 184.345 48.3369 182.794C48.3369 181.244 47.6012 179.366 46.7032 178.621C43.9996 176.376 34.3369 162.856 34.3369 161.317C34.3368 160.529 32.7627 157.822 30.8389 155.302C28.915 152.781 27.3998 150.384 27.4727 149.975C28.4457 144.478 24.6467 141.425 20.4727 144.348C18.2547 145.902 11.2222 145.776 6.86624 144.104C-3.23648 140.227 -1.78745 115.126 8.56839 114.62C14.8594 114.313 23.3369 117.551 23.3369 120.261C23.3372 122.018 26.1103 124.731 27.9073 124.731C28.6933 124.731 29.3369 124.041 29.3369 123.198C29.3372 109.814 50.1851 94.3087 69.8369 93.0767C82.9305 92.2547 88.2617 93.4969 97.1895 99.4468C101.45 102.287 108.337 96.8837 108.337 90.7007C108.337 88.6598 109.172 86.4706 110.483 85.0747C112.734 82.6789 111.804 79.7313 108.796 79.731C106.403 79.731 103.556 73.5422 104.077 69.4702C105.046 61.8843 117.633 57.7673 123.289 63.1861C125.639 65.4379 126.708 65.8083 129.245 65.2515C133.054 64.4145 133.128 63.4739 129.587 60.895C121.36 54.902 128.195 37.9086 139.837 35.4146Z" fill="white"/>
</g>
</defs>
</svg>
