<svg width="27" height="27" viewBox="0 0 27 27" fill="none" xmlns="http://www.w3.org/2000/svg">
<path d="M18.9381 3.72112C20.6183 4.69123 22.0159 6.08332 22.9927 7.7596C23.9696 9.43588 24.4916 11.3382 24.5073 13.2783C24.523 15.2183 24.0317 17.1288 23.0821 18.8207C22.1325 20.5125 20.7575 21.927 19.0932 22.9241C17.4289 23.9212 15.5331 24.4664 13.5934 24.5057C11.6536 24.5449 9.7373 24.0769 8.03404 23.1479C6.33078 22.219 4.89968 20.8613 3.88239 19.2092C2.86511 17.5572 2.29692 15.6681 2.23409 13.729L2.22852 13.3681L2.23409 13.0072C2.29647 11.0833 2.85629 9.2085 3.85897 7.56543C4.86165 5.92235 6.27296 4.56713 7.95532 3.63187C9.63769 2.69661 11.5337 2.21324 13.4585 2.22888C15.3833 2.24452 17.2712 2.75864 18.9381 3.72112ZM13.3682 6.68428C13.0954 6.68432 12.832 6.78449 12.6281 6.9658C12.4242 7.14711 12.294 7.39695 12.2621 7.66792L12.2543 7.79826V13.3681L12.2643 13.514C12.2897 13.7073 12.3654 13.8905 12.4837 14.0454L12.5807 14.1568L15.9226 17.4987L16.0273 17.5901C16.2226 17.7416 16.4629 17.8239 16.7101 17.8239C16.9574 17.8239 17.1977 17.7416 17.393 17.5901L17.4977 17.4976L17.5902 17.3929C17.7418 17.1975 17.824 16.9573 17.824 16.71C17.824 16.4628 17.7418 16.2225 17.5902 16.0272L17.4977 15.9225L14.4822 12.9058V7.79826L14.4744 7.66792C14.4425 7.39695 14.3122 7.14711 14.1083 6.9658C13.9044 6.78449 13.6411 6.68432 13.3682 6.68428Z" fill="#791C0E"/>
</svg>
