<svg width="1278" height="992" viewBox="0 0 1278 992" fill="none" xmlns="http://www.w3.org/2000/svg">
<path d="M19.8313 151.114H57.8412C66.1043 151.114 70.2358 157.724 72.7147 165.987L123.119 364.3L174.35 165.987C176.003 157.724 180.96 151.114 189.223 151.114H227.233C235.496 151.114 244.586 157.724 242.107 165.987L169.392 451.062C167.74 457.672 163.608 464.283 156.998 465.935L155.345 696.474C155.345 705.563 148.735 712.174 140.472 712.174H102.462C94.1986 712.174 87.5882 705.563 87.5882 696.474L89.2408 465.935C82.6303 464.283 79.3251 457.672 77.6725 451.062L4.13152 165.987C2.47891 157.724 11.5682 151.114 19.8313 151.114ZM270.059 151.114H308.069C316.332 151.114 323.769 157.724 323.769 166.813V565.092V570.876C323.769 571.702 323.769 571.702 323.769 572.528C322.943 606.407 320.464 644.417 333.685 644.417H355.995C369.216 644.417 366.737 606.407 366.737 572.528C366.737 571.702 366.737 571.702 366.737 570.876V565.918V565.092V166.813C366.737 157.724 373.347 151.114 381.61 151.114H419.62C427.883 151.114 434.494 157.724 434.494 166.813V570.876C434.494 571.702 434.494 571.702 434.494 571.702C433.667 672.511 420.446 713 355.995 713H333.685C269.233 713 256.012 672.511 255.186 571.702C255.186 571.702 255.186 571.702 255.186 570.876V565.918C255.186 565.092 255.186 564.265 255.186 563.439V166.813C255.186 157.724 261.796 151.114 270.059 151.114ZM470.276 151.114H508.286C516.549 151.114 523.986 157.724 523.986 165.987V210.608L581.827 417.183V165.987C581.827 157.724 588.438 151.114 596.701 151.114H634.711C642.974 151.114 649.584 157.724 649.584 165.987V697.3C649.584 706.39 642.974 713 634.711 713H596.701C588.438 713 581.827 706.39 581.827 697.3V652.68L523.986 447.757V697.3C523.986 706.39 516.549 713 508.286 713H470.276C462.013 713 455.403 706.39 455.403 697.3V165.987C455.403 157.724 462.013 151.114 470.276 151.114ZM754.234 151.114H792.244H815.381C824.47 151.114 829.428 157.724 831.08 165.987L903.795 697.3C904.621 705.563 897.185 713 888.922 713H850.912C842.649 713 836.865 705.563 835.212 697.3L814.554 542.781H755.061L734.403 697.3C732.75 705.563 727.793 713 718.703 713H680.693C672.43 713 664.993 705.563 665.82 697.3L738.534 165.987C740.187 157.724 745.971 151.114 754.234 151.114ZM784.807 327.943L764.976 474.198H804.639L784.807 327.943ZM1042.49 132.109C1037.53 151.389 1031.2 172.322 1023.49 194.908C1015.77 217.493 1007.24 240.079 997.871 262.665C989.057 284.699 980.243 305.632 971.429 325.464H917.72C921.576 310.039 925.432 293.513 929.288 275.885C933.695 258.258 937.551 240.63 940.856 223.002C944.712 204.823 948.017 187.196 950.772 170.119C954.077 153.042 956.831 137.342 959.035 123.019H1036.71L1042.49 132.109ZM1240.64 311.417L1246.43 396.526L1242.3 398.178C1210.07 338.685 1181.15 318.853 1154.71 318.853C1129.92 318.853 1113.39 335.379 1113.39 363.474C1113.39 451.062 1264.61 481.635 1264.61 612.191C1264.61 685.732 1214.2 725.395 1152.23 725.395C1128.27 725.395 1097.69 719.61 1074.56 711.347L1068.77 611.365L1072.08 609.712C1106.78 678.295 1134.88 710.521 1169.58 710.521C1200.15 710.521 1213.37 685.732 1213.37 654.332C1213.37 551.871 1072.9 522.95 1072.9 407.268C1072.9 338.685 1121.66 303.98 1180.32 303.98C1199.33 303.98 1224.94 307.285 1240.64 311.417Z" fill="#FFFAE0"/>
<mask id="mask0_586_206" style="mask-type:alpha" maskUnits="userSpaceOnUse" x="3" y="123" width="1263" height="603">
<path d="M1077.86 634.414C1091.09 658.419 1103.72 677.224 1116.56 690.807C1132.62 707.794 1149.49 717.095 1168.62 717.656C1163.56 718.254 1158.38 718.558 1153.09 718.558C1131.45 718.558 1103.92 713.632 1082.03 706.413L1077.86 634.414ZM1117.59 329.388C1110.75 338.297 1107.2 350.036 1107.2 363.637C1107.2 387.763 1117.69 407.629 1132.46 425.542C1147.05 443.252 1166.56 459.873 1185.16 477.029C1222.87 511.806 1258.62 550.279 1258.62 612.354C1258.62 647.435 1246.63 673.802 1227.83 691.428C1218.86 699.844 1208.2 706.388 1196.31 710.941C1201.56 707.748 1205.99 703.507 1209.59 698.398C1217.85 686.679 1221.32 671.029 1221.32 654.495C1221.32 599.799 1183.5 564.879 1148.89 530.924C1113.57 496.276 1080.66 462.013 1080.66 407.431C1080.66 374.926 1092.16 351.097 1110.04 335.317C1112.43 333.205 1114.95 331.229 1117.59 329.388ZM1181.22 311.143C1197.83 311.143 1219.75 313.762 1234.99 317.175L1239.06 377.03C1212.8 334.383 1187.59 315.359 1162.57 312.424C1168.6 311.573 1174.83 311.143 1181.22 311.143Z" fill="#1F1F1F" stroke="#FFC41B" stroke-width="14"/>
<path d="M1033.58 130.182L1035.66 133.46C1030.87 151.724 1024.84 171.505 1017.55 192.806C1009.88 215.247 1001.38 237.693 992.062 260.143L992.029 260.225C983.848 280.652 975.67 300.118 967.496 318.627H927.206C930.362 305.686 933.519 292.021 936.672 277.632C941.097 259.943 944.973 242.252 948.297 224.558C952.168 206.326 955.491 188.633 958.263 171.479C961.125 156.703 963.579 142.937 965.624 130.182H1033.58Z" fill="#1F1F1F" stroke="#FFC41B" stroke-width="14"/>
<path d="M754.565 158.277H815.794C818.464 158.277 820.153 159.171 821.403 160.47C822.778 161.898 823.956 164.198 824.613 167.353L897.364 698.223C897.687 701.909 893.996 706.163 889.433 706.163H851.372C847.956 706.163 843.932 702.864 842.552 696.261L821.904 542.016L821.092 535.945H749.268L748.455 542.016L727.803 696.282C727.132 699.496 725.912 702.08 724.422 703.746C723.054 705.276 721.386 706.163 718.987 706.163H680.927C676.363 706.163 672.671 701.909 672.994 698.223L745.745 167.357C747.025 161.25 750.774 158.277 754.565 158.277ZM758.386 473.419L757.308 481.362H813.052L811.974 473.419L792.116 327.163H778.243L758.386 473.419Z" fill="#1F1F1F" stroke="#FFC41B" stroke-width="14"/>
<path d="M588.931 651.872L588.667 650.939L530.748 446.016L517.013 447.919V697.463C517.013 702.44 512.951 706.163 508.292 706.163H470.231C466.061 706.163 462.338 702.929 462.338 697.463V166.15C462.338 161.762 465.815 158.277 470.231 158.277H508.292C513.206 158.277 517.012 162.241 517.013 166.15V211.734L517.272 212.661L575.19 419.236L588.931 417.346V166.15C588.931 161.762 592.407 158.277 596.823 158.277H634.884C639.3 158.277 642.777 161.762 642.777 166.15V697.463C642.777 702.929 639.054 706.163 634.884 706.163H596.823C592.653 706.163 588.931 702.929 588.931 697.463V651.872Z" fill="#1F1F1F" stroke="#FFC41B" stroke-width="14"/>
<path d="M269.747 158.277H307.808C312.467 158.277 316.528 162 316.528 166.977V572.577C316.121 589.203 315.275 607.668 316.233 621.813C316.709 628.839 317.664 635.543 319.693 640.682C321.686 645.729 325.79 651.579 333.457 651.579H355.797C363.461 651.579 367.564 645.732 369.566 640.7C371.607 635.573 372.591 628.878 373.119 621.866C374.18 607.78 373.553 589.221 373.553 572.692V166.977C373.553 161.511 377.276 158.277 381.446 158.277H419.507C423.677 158.277 427.399 161.511 427.399 166.977V571.856C426.982 622.416 423.376 656.11 412.741 677.161C407.575 687.387 400.825 694.441 391.959 699.051C382.961 703.73 371.255 706.163 355.797 706.163H333.457C317.998 706.163 306.292 703.73 297.294 699.051C288.428 694.441 281.678 687.387 276.512 677.161C266.206 656.762 262.5 624.489 261.901 576.501L261.854 571.808V166.977C261.854 161.511 265.577 158.277 269.747 158.277Z" fill="#1F1F1F" stroke="#FFC41B" stroke-width="14"/>
<path d="M19.1865 158.277H57.2471C59.208 158.277 60.457 158.937 61.626 160.256C63.0078 161.816 64.2849 164.372 65.3984 168.041L115.828 366.19L129.389 366.216L180.688 167.903L180.736 167.715L180.774 167.525C182.128 160.766 185.388 158.277 188.805 158.277H226.865C229.311 158.277 231.984 159.315 233.676 160.829C235.235 162.226 235.311 163.279 235.054 164.136L235.012 164.276L234.976 164.418L162.164 449.493L162.16 449.509L162.156 449.525C160.751 455.137 157.736 458.584 154.84 459.307L149.574 460.621L149.536 466.048L147.881 696.586V696.637C147.881 702.103 144.157 705.336 139.987 705.336H101.927C97.7569 705.336 94.0343 702.103 94.0342 696.637H94.0332L95.6885 466.149L95.7275 460.641L90.3838 459.307C87.8758 458.681 85.4653 455.796 83.8955 449.525L83.8887 449.499L83.8828 449.474L10.3105 164.663C10.1567 163.696 10.4631 162.398 12.1846 160.908C13.9221 159.404 16.425 158.407 18.7285 158.288L19.1865 158.277Z" fill="#1F1F1F" stroke="#FFC41B" stroke-width="14"/>
</mask>
<g mask="url(#mask0_586_206)">
<path d="M65.3467 326.844C162.89 316.931 308.456 331.024 515.648 399.702L515.87 399.775L516.096 399.834C655.503 435.93 1017.02 491.137 1349.72 423.429L1349.85 423.401L1349.99 423.367C1434.2 402.674 1567.89 374.733 1695.16 358.183C1758.8 349.907 1820.69 344.499 1873.91 344.242C1924.73 343.996 1966.84 348.467 1995 359.095V742H-95V395.011C-78.9081 369.369 -30.5922 336.594 65.3467 326.844Z" fill="#FFC41B" stroke="#FFC41B" stroke-width="14" stroke-linecap="round"/>
</g>
</svg>
