<svg width="21" height="21" viewBox="0 0 21 21" fill="none" xmlns="http://www.w3.org/2000/svg">
<g clip-path="url(#clip0_28_1261)">
<path fill-rule="evenodd" clip-rule="evenodd" d="M7.45678 11.7863L10.3991 13.7982L13.2355 11.8414L19.5933 18.114C19.4255 18.1687 19.2481 18.1965 19.0609 18.1972H1.73319C1.50446 18.1972 1.28612 18.1525 1.08545 18.0724L7.45678 11.7863ZM20.7941 6.63147V16.464C20.7941 16.7208 20.738 16.9641 20.6382 17.1835L14.4062 11.0346L20.7941 6.63147ZM0 6.68657L6.28191 10.9826L0.110209 17.0732C0.0379106 16.8782 0.000601982 16.672 0 16.464L0 6.68657ZM19.0609 2.60156C20.0175 2.60156 20.7941 3.37718 20.7941 4.33475V4.94402L10.395 12.1128L0 5.00329V4.33475C0 3.37822 0.775621 2.60156 1.73319 2.60156H19.0609Z" fill="#791C0E"/>
</g>
<defs>
<clipPath id="clip0_28_1261">
<rect width="20.7941" height="20.7941" fill="white"/>
</clipPath>
</defs>
</svg>
