<svg width="369" height="407" viewBox="0 0 369 407" fill="none" xmlns="http://www.w3.org/2000/svg" xmlns:xlink="http://www.w3.org/1999/xlink">
<path d="M184.672 4.02539C266.628 4.02563 333.067 67.325 333.067 145.408C333.067 159.744 330.826 173.582 326.662 186.621C325.419 190.51 321.731 193.032 317.648 193.032C308.031 193.032 303.551 206.315 310.405 213.061C343.584 245.719 364.156 291.147 364.156 341.38C364.156 352.579 363.133 363.539 361.175 374.171C358.04 391.205 342.124 402.028 324.804 402.028H43.4127C26.0929 402.028 10.1773 391.205 7.0414 374.171C5.08393 363.539 4.06059 352.579 4.06055 341.38C4.06055 290.813 24.9073 245.117 58.4743 212.413C65.1598 205.899 60.8303 193.032 51.4964 193.032C47.5333 193.032 43.9544 190.584 42.7431 186.811C38.5395 173.716 36.2764 159.814 36.2764 145.408C36.2765 67.3249 102.716 4.02553 184.672 4.02539Z" fill="#1F1F1F"/>
<use xlink:href="#stroke0_461_310" transform="translate(180.247 5.03671) scale(0.0220537) rotate(-61.4701)"/>
<use xlink:href="#stroke0_461_310" transform="translate(185.202 8.44587) scale(0.0221676) rotate(-123.829)"/>
<use xlink:href="#stroke0_461_310" transform="translate(190.616 6.80334) scale(0.018678) rotate(176.967)"/>
<use xlink:href="#stroke0_461_310" transform="translate(186.82 7.92407) scale(0.0226967) rotate(-103.573)"/>
<use xlink:href="#stroke0_461_310" transform="translate(186.705 3.68569) scale(0.021944) rotate(-42.5718)"/>
<use xlink:href="#stroke0_461_310" transform="translate(194.877 9.64003) scale(0.0276122) rotate(-157.018)"/>
<use xlink:href="#stroke0_461_310" transform="translate(189.591 2.99133) scale(0.0281045) rotate(-34.7425)"/>
<use xlink:href="#stroke0_461_310" transform="translate(193.072 4.23376) scale(0.0191435) rotate(-44.6247)"/>
<use xlink:href="#stroke0_461_310" transform="translate(204.273 4.31283) scale(0.0269006) rotate(127.881)"/>
<use xlink:href="#stroke0_461_310" transform="translate(198.002 7.85923) scale(0.0190881) rotate(-99.2973)"/>
<use xlink:href="#stroke0_461_310" transform="translate(197.628 3.21093) scale(0.0234121) rotate(-26.9165)"/>
<use xlink:href="#stroke0_461_310" transform="translate(202.025 1.35612) scale(0.0204409) rotate(16.9368)"/>
<use xlink:href="#stroke0_461_310" transform="translate(204.195 10.0383) scale(0.0233264) rotate(-123.822)"/>
<use xlink:href="#stroke0_461_310" transform="translate(203.38 8.08962) scale(0.0217246) rotate(-81.9437)"/>
<use xlink:href="#stroke0_461_310" transform="translate(205.222 2.26676) scale(0.0250538) rotate(-3.82964)"/>
<use xlink:href="#stroke0_461_310" transform="translate(211.642 1.07612) scale(0.0252785) rotate(50.9638)"/>
<use xlink:href="#stroke0_461_310" transform="translate(209.672 2.56641) scale(0.0240265) rotate(4.69637)"/>
<use xlink:href="#stroke0_461_310" transform="translate(210.331 6.86832) scale(0.0189634) rotate(-49.1436)"/>
<use xlink:href="#stroke0_461_310" transform="translate(211.057 4.96276) scale(0.025911) rotate(-24.2105)"/>
<use xlink:href="#stroke0_461_310" transform="translate(222.144 11.1135) scale(0.0268853) rotate(171.088)"/>
<use xlink:href="#stroke0_461_310" transform="translate(223.302 4.71101) scale(0.0234933) rotate(88.5333)"/>
<use xlink:href="#stroke0_461_310" transform="translate(216.946 8.11607) scale(0.0218589) rotate(-45.0034)"/>
<use xlink:href="#stroke0_461_310" transform="translate(218.483 6.12615) scale(0.0265826) rotate(-18.7928)"/>
<use xlink:href="#stroke0_461_310" transform="translate(224.457 13.9907) scale(0.0228626) rotate(-131.289)"/>
<use xlink:href="#stroke0_461_310" transform="translate(222.76 10.7868) scale(0.0193563) rotate(-63.69)"/>
<use xlink:href="#stroke0_461_310" transform="translate(233.594 11.7699) scale(0.0268149) rotate(147.577)"/>
<use xlink:href="#stroke0_461_310" transform="translate(231.363 15.0727) scale(0.0218497) rotate(-155.268)"/>
<use xlink:href="#stroke0_461_310" transform="translate(230.345 15.6908) scale(0.0224561) rotate(-121.71)"/>
<use xlink:href="#stroke0_461_310" transform="translate(235.024 8.39233) scale(0.0186243) rotate(70.2206)"/>
<use xlink:href="#stroke0_461_310" transform="translate(238.296 8.5155) scale(0.0251126) rotate(84.6541)"/>
<use xlink:href="#stroke0_461_310" transform="translate(240.998 14.7923) scale(0.0236803) rotate(154.361)"/>
<use xlink:href="#stroke0_461_310" transform="translate(241.911 13.5634) scale(0.0188351) rotate(133.185)"/>
<use xlink:href="#stroke0_461_310" transform="translate(243.135 10.4976) scale(0.0243189) rotate(86.6951)"/>
<use xlink:href="#stroke0_461_310" transform="translate(236.896 12.3854) scale(0.0241306) rotate(-21.0271)"/>
<use xlink:href="#stroke0_461_310" transform="translate(238.395 16.5787) scale(0.0229856) rotate(-63.6397)"/>
<use xlink:href="#stroke0_461_310" transform="translate(243.799 11.9414) scale(0.0198808) rotate(31.8729)"/>
<use xlink:href="#stroke0_461_310" transform="translate(248.511 19.5939) scale(0.0195575) rotate(-179.799)"/>
<use xlink:href="#stroke0_461_310" transform="translate(247.97 21.2147) scale(0.0199744) rotate(-148.837)"/>
<use xlink:href="#stroke0_461_310" transform="translate(247.319 12.6756) scale(0.0264263) rotate(25.0684)"/>
<use xlink:href="#stroke0_461_310" transform="translate(253.29 15.6782) scale(0.0199291) rotate(85.1657)"/>
<use xlink:href="#stroke0_461_310" transform="translate(246.633 20.7584) scale(0.0272368) rotate(-62.4317)"/>
<use xlink:href="#stroke0_461_310" transform="translate(248.619 19.7579) scale(0.0257233) rotate(-42.5796)"/>
<use xlink:href="#stroke0_461_310" transform="translate(260.165 24.83) scale(0.0278384) rotate(170.184)"/>
<use xlink:href="#stroke0_461_310" transform="translate(253.355 26.1307) scale(0.0279146) rotate(-91.2631)"/>
<use xlink:href="#stroke0_461_310" transform="translate(264.244 23.3168) scale(0.0239654) rotate(132.923)"/>
<use xlink:href="#stroke0_461_310" transform="translate(256.698 24.5383) scale(0.0199593) rotate(-56.0355)"/>
<use xlink:href="#stroke0_461_310" transform="translate(261.183 30.004) scale(0.0254867) rotate(-126.628)"/>
<use xlink:href="#stroke0_461_310" transform="translate(264.513 21.3281) scale(0.0219696) rotate(50.1186)"/>
<use xlink:href="#stroke0_461_310" transform="translate(262.695 31.6469) scale(0.0271461) rotate(-109.339)"/>
<use xlink:href="#stroke0_461_310" transform="translate(263.262 26.5811) scale(0.0184736) rotate(-31.5466)"/>
<use xlink:href="#stroke0_461_310" transform="translate(269.565 33.5029) scale(0.0246958) rotate(-153.238)"/>
<use xlink:href="#stroke0_461_310" transform="translate(264.766 30.589) scale(0.0252313) rotate(-59.1841)"/>
<use xlink:href="#stroke0_461_310" transform="translate(270.069 26.5155) scale(0.0208571) rotate(24.4057)"/>
<use xlink:href="#stroke0_461_310" transform="translate(271.886 35.5291) scale(0.0198594) rotate(-128.563)"/>
<use xlink:href="#stroke0_461_310" transform="translate(270.936 36.4408) scale(0.0242465) rotate(-101.178)"/>
<use xlink:href="#stroke0_461_310" transform="translate(272.471 29.1061) scale(0.0264936) rotate(7.24279)"/>
<use xlink:href="#stroke0_461_310" transform="translate(277.564 40.6207) scale(0.0280287) rotate(-142.267)"/>
<use xlink:href="#stroke0_461_310" transform="translate(279.356 31.9786) scale(0.019727) rotate(51.6243)"/>
<use xlink:href="#stroke0_461_310" transform="translate(283.164 32.918) scale(0.0252931) rotate(79.0819)"/>
<use xlink:href="#stroke0_461_310" transform="translate(285.305 42.0393) scale(0.0260145) rotate(176.164)"/>
<use xlink:href="#stroke0_461_310" transform="translate(278.129 40.5508) scale(0.0240799) rotate(-60.951)"/>
<use xlink:href="#stroke0_461_310" transform="translate(280.327 41.9047) scale(0.0201171) rotate(-67.2201)"/>
<use xlink:href="#stroke0_461_310" transform="translate(282.225 39.4846) scale(0.0181895) rotate(-15.2488)"/>
<use xlink:href="#stroke0_461_310" transform="translate(281.164 43.9302) scale(0.0273101) rotate(-61.2748)"/>
<use xlink:href="#stroke0_461_310" transform="translate(285.832 48.9073) scale(0.0260654) rotate(-113.011)"/>
<use xlink:href="#stroke0_461_310" transform="translate(286.351 41.8609) scale(0.0228344) rotate(-0.770692)"/>
<use xlink:href="#stroke0_461_310" transform="translate(288.978 41.6344) scale(0.0259336) rotate(20.9165)"/>
<use xlink:href="#stroke0_461_310" transform="translate(291.896 52.1685) scale(0.0208322) rotate(-135.668)"/>
<use xlink:href="#stroke0_461_310" transform="translate(297.72 53.0072) scale(0.0278862) rotate(172.863)"/>
<use xlink:href="#stroke0_461_310" transform="translate(289.828 49.2244) scale(0.0252598) rotate(-32.4832)"/>
<use xlink:href="#stroke0_461_310" transform="translate(294.3 46.689) scale(0.0281376) rotate(22.1112)"/>
<use xlink:href="#stroke0_461_310" transform="translate(301.355 53.1326) scale(0.0191658) rotate(126.237)"/>
<use xlink:href="#stroke0_461_310" transform="translate(296.566 58.957) scale(0.022776) rotate(-114.379)"/>
<use xlink:href="#stroke0_461_310" transform="translate(303.706 56.4419) scale(0.0202833) rotate(138.578)"/>
<use xlink:href="#stroke0_461_310" transform="translate(297.323 60.9239) scale(0.024254) rotate(-96.5834)"/>
<use xlink:href="#stroke0_461_310" transform="translate(304.389 61.5893) scale(0.0197674) rotate(-179.338)"/>
<use xlink:href="#stroke0_461_310" transform="translate(302.007 55.7104) scale(0.0195129) rotate(31.807)"/>
<use xlink:href="#stroke0_461_310" transform="translate(300.378 57.897) scale(0.0215633) rotate(-6.07179)"/>
<use xlink:href="#stroke0_461_310" transform="translate(301.201 59.9043) scale(0.0198458) rotate(-15.3344)"/>
<use xlink:href="#stroke0_461_310" transform="translate(301.077 64.2043) scale(0.0222279) rotate(-58.4305)"/>
<use xlink:href="#stroke0_461_310" transform="translate(307.228 60.9641) scale(0.0183262) rotate(52.4787)"/>
<use xlink:href="#stroke0_461_310" transform="translate(305.473 61.9325) scale(0.021371) rotate(15.57)"/>
<use xlink:href="#stroke0_461_310" transform="translate(312.216 68.5283) scale(0.0201103) rotate(150.386)"/>
<use xlink:href="#stroke0_461_310" transform="translate(310.182 63.8418) scale(0.0233015) rotate(52.7084)"/>
<use xlink:href="#stroke0_461_310" transform="translate(310.772 65.949) scale(0.0194101) rotate(50.3557)"/>
<use xlink:href="#stroke0_461_310" transform="translate(309.949 66.7309) scale(0.022478) rotate(27.938)"/>
<use xlink:href="#stroke0_461_310" transform="translate(317.196 72.748) scale(0.0252205) rotate(131.255)"/>
<use xlink:href="#stroke0_461_310" transform="translate(310.448 77.6398) scale(0.0204373) rotate(-102.536)"/>
<use xlink:href="#stroke0_461_310" transform="translate(309.342 74.2693) scale(0.0225299) rotate(-31.3872)"/>
<use xlink:href="#stroke0_461_310" transform="translate(311.418 82.0782) scale(0.0282671) rotate(-103.633)"/>
<use xlink:href="#stroke0_461_310" transform="translate(312.323 75.206) scale(0.0251566) rotate(-0.141294)"/>
<use xlink:href="#stroke0_461_310" transform="translate(313.786 83.6498) scale(0.0201537) rotate(-96.0639)"/>
<use xlink:href="#stroke0_461_310" transform="translate(320.381 84.0944) scale(0.0184665) rotate(166.84)"/>
<use xlink:href="#stroke0_461_310" transform="translate(315.734 78.3513) scale(0.0272295) rotate(16.5556)"/>
<use xlink:href="#stroke0_461_310" transform="translate(320.904 80.9924) scale(0.022211) rotate(66.8908)"/>
<use xlink:href="#stroke0_461_310" transform="translate(323.311 88.7638) scale(0.0206798) rotate(162.165)"/>
<use xlink:href="#stroke0_461_310" transform="translate(315.45 87.3123) scale(0.0243245) rotate(-39.1057)"/>
<use xlink:href="#stroke0_461_310" transform="translate(316.593 92.8154) scale(0.0264649) rotate(-80.967)"/>
<use xlink:href="#stroke0_461_310" transform="translate(326.403 91.3079) scale(0.0217555) rotate(127.915)"/>
<use xlink:href="#stroke0_461_310" transform="translate(327.639 91.8279) scale(0.0252538) rotate(115.769)"/>
<use xlink:href="#stroke0_461_310" transform="translate(328.006 97.1043) scale(0.0248092) rotate(155.802)"/>
<use xlink:href="#stroke0_461_310" transform="translate(329 97.3882) scale(0.024302) rotate(138.858)"/>
<use xlink:href="#stroke0_461_310" transform="translate(326.916 102.777) scale(0.0236646) rotate(-165.851)"/>
<use xlink:href="#stroke0_461_310" transform="translate(326.457 104.002) scale(0.0202151) rotate(-155.392)"/>
<use xlink:href="#stroke0_461_310" transform="translate(326.463 96.1457) scale(0.0272992) rotate(47.6604)"/>
<use xlink:href="#stroke0_461_310" transform="translate(329.972 102.139) scale(0.0183728) rotate(112.169)"/>
<use xlink:href="#stroke0_461_310" transform="translate(327.264 100.754) scale(0.0195676) rotate(47.409)"/>
<use xlink:href="#stroke0_461_310" transform="translate(326.788 111.345) scale(0.0243774) rotate(-132.337)"/>
<use xlink:href="#stroke0_461_310" transform="translate(331.213 110.772) scale(0.021195) rotate(170.431)"/>
<use xlink:href="#stroke0_461_310" transform="translate(324.199 109.331) scale(0.0196928) rotate(-45.8055)"/>
<use xlink:href="#stroke0_461_310" transform="translate(324.681 107.998) scale(0.0248076) rotate(-10.2488)"/>
<use xlink:href="#stroke0_461_310" transform="translate(329.893 107.396) scale(0.0279968) rotate(48.5251)"/>
<use xlink:href="#stroke0_461_310" transform="translate(332.86 119.795) scale(0.0273286) rotate(-173.212)"/>
<use xlink:href="#stroke0_461_310" transform="translate(334.195 119.533) scale(0.0233268) rotate(162.47)"/>
<use xlink:href="#stroke0_461_310" transform="translate(331.455 122.867) scale(0.0208557) rotate(-152.508)"/>
<use xlink:href="#stroke0_461_310" transform="translate(329.733 114.868) scale(0.0279541) rotate(30.9562)"/>
<use xlink:href="#stroke0_461_310" transform="translate(334.97 121.1) scale(0.0197227) rotate(113.969)"/>
<use xlink:href="#stroke0_461_310" transform="translate(336.411 126.891) scale(0.0278716) rotate(160.416)"/>
<use xlink:href="#stroke0_461_310" transform="translate(337.473 126.59) scale(0.0280605) rotate(135.165)"/>
<use xlink:href="#stroke0_461_310" transform="translate(328.17 127.373) scale(0.0185973) rotate(-39.5716)"/>
<use xlink:href="#stroke0_461_310" transform="translate(335.448 126.662) scale(0.0211217) rotate(91.0336)"/>
<use xlink:href="#stroke0_461_310" transform="translate(335.222 128.48) scale(0.0187013) rotate(90.6784)"/>
<use xlink:href="#stroke0_461_310" transform="translate(335.784 134.258) scale(0.0185587) rotate(160.533)"/>
<use xlink:href="#stroke0_461_310" transform="translate(333.616 139.141) scale(0.0251965) rotate(-149.945)"/>
<use xlink:href="#stroke0_461_310" transform="translate(335.854 131.49) scale(0.0267418) rotate(75.7875)"/>
<use xlink:href="#stroke0_461_310" transform="translate(335.45 140.645) scale(0.0188151) rotate(179.323)"/>
<use xlink:href="#stroke0_461_310" transform="translate(333.193 134.948) scale(0.0211216) rotate(44.8615)"/>
<use xlink:href="#stroke0_461_310" transform="translate(336.476 143.566) scale(0.0213126) rotate(168.841)"/>
<use xlink:href="#stroke0_461_310" transform="translate(335.719 138.52) scale(0.0237923) rotate(74.5899)"/>
<use xlink:href="#stroke0_461_310" transform="translate(331.243 140.482) scale(0.0206135) rotate(16.0041)"/>
<use xlink:href="#stroke0_461_310" transform="translate(332.944 149.956) scale(0.0198916) rotate(-136.885)"/>
<use xlink:href="#stroke0_461_310" transform="translate(333.159 142.786) scale(0.0228829) rotate(42.7063)"/>
<use xlink:href="#stroke0_461_310" transform="translate(334.1 145.201) scale(0.0197466) rotate(56.8545)"/>
<use xlink:href="#stroke0_461_310" transform="translate(331.342 146.175) scale(0.023686) rotate(21.9833)"/>
<use xlink:href="#stroke0_461_310" transform="translate(335.725 157.519) scale(0.0271717) rotate(-169.259)"/>
<use xlink:href="#stroke0_461_310" transform="translate(331.453 150.741) scale(0.0192299) rotate(22.0167)"/>
<use xlink:href="#stroke0_461_310" transform="translate(329.531 159.897) scale(0.0238311) rotate(-99.1347)"/>
<use xlink:href="#stroke0_461_310" transform="translate(329.496 154.171) scale(0.0232494) rotate(2.58373)"/>
<use xlink:href="#stroke0_461_310" transform="translate(327.72 157.87) scale(0.0240367) rotate(-26.9841)"/>
<use xlink:href="#stroke0_461_310" transform="translate(337.11 161.656) scale(0.0242876) rotate(132.94)"/>
<use xlink:href="#stroke0_461_310" transform="translate(333.127 168.542) scale(0.0256638) rotate(-152.31)"/>
<use xlink:href="#stroke0_461_310" transform="translate(327.548 161.698) scale(0.0266037) rotate(-6.28924)"/>
<use xlink:href="#stroke0_461_310" transform="translate(333.7 171.353) scale(0.023066) rotate(-168.892)"/>
<use xlink:href="#stroke0_461_310" transform="translate(336.05 170.551) scale(0.0255798) rotate(147.618)"/>
<use xlink:href="#stroke0_461_310" transform="translate(330.752 165.82) scale(0.0250808) rotate(42.5898)"/>
<use xlink:href="#stroke0_461_310" transform="translate(333.532 177.382) scale(0.0268842) rotate(-174.885)"/>
<use xlink:href="#stroke0_461_310" transform="translate(332.518 177.316) scale(0.0183112) rotate(177.357)"/>
<use xlink:href="#stroke0_461_310" transform="translate(329.503 180.558) scale(0.0216936) rotate(-137.852)"/>
<use xlink:href="#stroke0_461_310" transform="translate(324.81 175.679) scale(0.0234511) rotate(-22.9602)"/>
<use xlink:href="#stroke0_461_310" transform="translate(331.78 176.977) scale(0.0185336) rotate(93.5252)"/>
<use xlink:href="#stroke0_461_310" transform="translate(323.851 182.378) scale(0.0231415) rotate(-67.2558)"/>
<use xlink:href="#stroke0_461_310" transform="translate(328.854 187.895) scale(0.025914) rotate(-149.321)"/>
<use xlink:href="#stroke0_461_310" transform="translate(324.861 188.237) scale(0.0221599) rotate(-105.581)"/>
<use xlink:href="#stroke0_461_310" transform="translate(322.803 184.615) scale(0.0208184) rotate(-30.0348)"/>
<use xlink:href="#stroke0_461_310" transform="translate(321.191 186.738) scale(0.0250714) rotate(-38.7138)"/>
<use xlink:href="#stroke0_461_310" transform="translate(322.886 192.868) scale(0.0217008) rotate(-104.678)"/>
<use xlink:href="#stroke0_461_310" transform="translate(328.134 191.247) scale(0.0188221) rotate(145.11)"/>
<use xlink:href="#stroke0_461_310" transform="translate(320.851 195.607) scale(0.0234545) rotate(-110.475)"/>
<use xlink:href="#stroke0_461_310" transform="translate(325.265 189.601) scale(0.0216964) rotate(95.9751)"/>
<use xlink:href="#stroke0_461_310" transform="translate(324.459 192.795) scale(0.0212736) rotate(132.302)"/>
<use xlink:href="#stroke0_461_310" transform="translate(315.555 188.544) scale(0.0255282) rotate(9.61249)"/>
<use xlink:href="#stroke0_461_310" transform="translate(319.881 190.464) scale(0.0205412) rotate(93.016)"/>
<use xlink:href="#stroke0_461_310" transform="translate(309.599 194.875) scale(0.0263035) rotate(-63.949)"/>
<use xlink:href="#stroke0_461_310" transform="translate(317.908 195.592) scale(0.0246723) rotate(147.475)"/>
<use xlink:href="#stroke0_461_310" transform="translate(315.505 195.099) scale(0.0187444) rotate(131.5)"/>
<use xlink:href="#stroke0_461_310" transform="translate(313.37 193.417) scale(0.0185826) rotate(88.0794)"/>
<use xlink:href="#stroke0_461_310" transform="translate(304.835 194.204) scale(0.0272996) rotate(-14.1487)"/>
<use xlink:href="#stroke0_461_310" transform="translate(312.499 197.183) scale(0.0212134) rotate(107.342)"/>
<use xlink:href="#stroke0_461_310" transform="translate(304.837 195.773) scale(0.0278625) rotate(10.3954)"/>
<use xlink:href="#stroke0_461_310" transform="translate(307.973 207.532) scale(0.0241511) rotate(-146.367)"/>
<use xlink:href="#stroke0_461_310" transform="translate(309.366 200.443) scale(0.0219273) rotate(71.3859)"/>
<use xlink:href="#stroke0_461_310" transform="translate(303.214 207.378) scale(0.0203049) rotate(-68.4259)"/>
<use xlink:href="#stroke0_461_310" transform="translate(304.762 202.741) scale(0.0276424) rotate(13.3826)"/>
<use xlink:href="#stroke0_461_310" transform="translate(305.6 206.369) scale(0.0189196) rotate(3.71481)"/>
<use xlink:href="#stroke0_461_310" transform="translate(312.703 215.305) scale(0.0280931) rotate(178.869)"/>
<use xlink:href="#stroke0_461_310" transform="translate(308.873 207.348) scale(0.0266295) rotate(28.9496)"/>
<use xlink:href="#stroke0_461_310" transform="translate(315.66 215.976) scale(0.022805) rotate(155.839)"/>
<use xlink:href="#stroke0_461_310" transform="translate(308.139 215.142) scale(0.0215761) rotate(-47.3781)"/>
<use xlink:href="#stroke0_461_310" transform="translate(310.78 213.136) scale(0.0213785) rotate(-0.514479)"/>
<use xlink:href="#stroke0_461_310" transform="translate(312.793 214.201) scale(0.0187692) rotate(10.4954)"/>
<use xlink:href="#stroke0_461_310" transform="translate(319.934 218.584) scale(0.0201212) rotate(131.253)"/>
<use xlink:href="#stroke0_461_310" transform="translate(319.86 214.847) scale(0.0283232) rotate(70.2744)"/>
<use xlink:href="#stroke0_461_310" transform="translate(313.827 221.137) scale(0.0219081) rotate(-45.611)"/>
<use xlink:href="#stroke0_461_310" transform="translate(318.318 218.492) scale(0.0205642) rotate(26.5408)"/>
<use xlink:href="#stroke0_461_310" transform="translate(321.807 219.439) scale(0.0222149) rotate(58.3525)"/>
<use xlink:href="#stroke0_461_310" transform="translate(322.148 220.213) scale(0.0241485) rotate(47.4832)"/>
<use xlink:href="#stroke0_461_310" transform="translate(325.873 230.738) scale(0.0250073) rotate(-174.916)"/>
<use xlink:href="#stroke0_461_310" transform="translate(320.082 229.475) scale(0.0200955) rotate(-70.6667)"/>
<use xlink:href="#stroke0_461_310" transform="translate(327.444 232.032) scale(0.0190764) rotate(-179.911)"/>
<use xlink:href="#stroke0_461_310" transform="translate(323.495 226.578) scale(0.0212347) rotate(9.48192)"/>
<use xlink:href="#stroke0_461_310" transform="translate(330.692 228.125) scale(0.0253026) rotate(88.2383)"/>
<use xlink:href="#stroke0_461_310" transform="translate(323.859 231.688) scale(0.0210902) rotate(-29.6853)"/>
<use xlink:href="#stroke0_461_310" transform="translate(332.464 238.264) scale(0.0248273) rotate(178.899)"/>
<use xlink:href="#stroke0_461_310" transform="translate(332.249 240.141) scale(0.0228609) rotate(-165.991)"/>
<use xlink:href="#stroke0_461_310" transform="translate(325.733 236.681) scale(0.0267924) rotate(-40.024)"/>
<use xlink:href="#stroke0_461_310" transform="translate(336.351 240.796) scale(0.0217351) rotate(154.82)"/>
<use xlink:href="#stroke0_461_310" transform="translate(334.54 236.122) scale(0.021739) rotate(59.0618)"/>
<use xlink:href="#stroke0_461_310" transform="translate(329.041 240.473) scale(0.0259875) rotate(-33.1734)"/>
<use xlink:href="#stroke0_461_310" transform="translate(331.23 242.774) scale(0.0192075) rotate(-40.447)"/>
<use xlink:href="#stroke0_461_310" transform="translate(339.825 244.206) scale(0.0189949) rotate(126.238)"/>
<use xlink:href="#stroke0_461_310" transform="translate(337.971 240.779) scale(0.0259809) rotate(53.522)"/>
<use xlink:href="#stroke0_461_310" transform="translate(335.986 252.924) scale(0.0269444) rotate(-118.304)"/>
<use xlink:href="#stroke0_461_310" transform="translate(340.149 254.645) scale(0.0259168) rotate(-151.604)"/>
<use xlink:href="#stroke0_461_310" transform="translate(339.543 255.102) scale(0.0201678) rotate(-134.494)"/>
<use xlink:href="#stroke0_461_310" transform="translate(346.405 252.46) scale(0.0275065) rotate(130.631)"/>
<use xlink:href="#stroke0_461_310" transform="translate(344.601 258.123) scale(0.0235791) rotate(-175.341)"/>
<use xlink:href="#stroke0_461_310" transform="translate(339.227 252.973) scale(0.0207926) rotate(-8.71027)"/>
<use xlink:href="#stroke0_461_310" transform="translate(348.473 258.061) scale(0.0252419) rotate(140.23)"/>
<use xlink:href="#stroke0_461_310" transform="translate(345.795 254.294) scale(0.0237665) rotate(60.3742)"/>
<use xlink:href="#stroke0_461_310" transform="translate(344.847 256.475) scale(0.0189251) rotate(39.9718)"/>
<use xlink:href="#stroke0_461_310" transform="translate(350.379 259.283) scale(0.0260167) rotate(102.123)"/>
<use xlink:href="#stroke0_461_310" transform="translate(346.111 267.305) scale(0.0188603) rotate(-133.47)"/>
<use xlink:href="#stroke0_461_310" transform="translate(351.109 268.284) scale(0.0250505) rotate(171.685)"/>
<use xlink:href="#stroke0_461_310" transform="translate(344.543 271.252) scale(0.0275538) rotate(-100.81)"/>
<use xlink:href="#stroke0_461_310" transform="translate(345.357 265.41) scale(0.0225109) rotate(-6.58733)"/>
<use xlink:href="#stroke0_461_310" transform="translate(345.406 266.918) scale(0.0255956) rotate(-10.1871)"/>
<use xlink:href="#stroke0_461_310" transform="translate(349.906 277.044) scale(0.0247828) rotate(-134.338)"/>
<use xlink:href="#stroke0_461_310" transform="translate(348.058 277.612) scale(0.0238653) rotate(-101.935)"/>
<use xlink:href="#stroke0_461_310" transform="translate(356.129 277.023) scale(0.0232184) rotate(152.054)"/>
<use xlink:href="#stroke0_461_310" transform="translate(357.223 278.885) scale(0.0253755) rotate(151.819)"/>
<use xlink:href="#stroke0_461_310" transform="translate(357.707 279.274) scale(0.0230894) rotate(137.214)"/>
<use xlink:href="#stroke0_461_310" transform="translate(354.605 286.26) scale(0.0278221) rotate(-148.255)"/>
<use xlink:href="#stroke0_461_310" transform="translate(349.606 280.21) scale(0.0255336) rotate(-22.3539)"/>
<use xlink:href="#stroke0_461_310" transform="translate(354.087 290.091) scale(0.0277184) rotate(-129.672)"/>
<use xlink:href="#stroke0_461_310" transform="translate(358.584 289.243) scale(0.0208419) rotate(176.328)"/>
<use xlink:href="#stroke0_461_310" transform="translate(357.483 291.476) scale(0.0197344) rotate(-159.792)"/>
<use xlink:href="#stroke0_461_310" transform="translate(351.161 287.513) scale(0.0277476) rotate(-29.1023)"/>
<use xlink:href="#stroke0_461_310" transform="translate(360.744 294.686) scale(0.0241087) rotate(174.204)"/>
<use xlink:href="#stroke0_461_310" transform="translate(352.992 294.166) scale(0.0230168) rotate(-62.3174)"/>
<use xlink:href="#stroke0_461_310" transform="translate(357.308 290.812) scale(0.0185821) rotate(30.8061)"/>
<use xlink:href="#stroke0_461_310" transform="translate(355.871 293.079) scale(0.018459) rotate(0.221914)"/>
<use xlink:href="#stroke0_461_310" transform="translate(355.358 293.929) scale(0.0240233) rotate(-2.28038)"/>
<use xlink:href="#stroke0_461_310" transform="translate(363.315 298.767) scale(0.0202023) rotate(126.225)"/>
<use xlink:href="#stroke0_461_310" transform="translate(362.337 296.617) scale(0.0243698) rotate(74.9755)"/>
<use xlink:href="#stroke0_461_310" transform="translate(365.055 305.199) scale(0.0273778) rotate(157.514)"/>
<use xlink:href="#stroke0_461_310" transform="translate(363.022 301.647) scale(0.0187343) rotate(85.0076)"/>
<use xlink:href="#stroke0_461_310" transform="translate(357.92 301.079) scale(0.0283415) rotate(12.7182)"/>
<use xlink:href="#stroke0_461_310" transform="translate(358.39 305.033) scale(0.0193371) rotate(-0.808949)"/>
<use xlink:href="#stroke0_461_310" transform="translate(357.112 308.448) scale(0.0211826) rotate(-34.6177)"/>
<use xlink:href="#stroke0_461_310" transform="translate(358.396 313.156) scale(0.0187826) rotate(-82.4981)"/>
<use xlink:href="#stroke0_461_310" transform="translate(362.852 307.186) scale(0.0273715) rotate(51.2382)"/>
<use xlink:href="#stroke0_461_310" transform="translate(358.02 312.718) scale(0.0221834) rotate(-24.2188)"/>
<use xlink:href="#stroke0_461_310" transform="translate(358.125 314.886) scale(0.0219108) rotate(-30.791)"/>
<use xlink:href="#stroke0_461_310" transform="translate(359.831 314.074) scale(0.0233951) rotate(5.58238)"/>
<use xlink:href="#stroke0_461_310" transform="translate(364.488 325.036) scale(0.0263433) rotate(-155.819)"/>
<use xlink:href="#stroke0_461_310" transform="translate(361.74 316.496) scale(0.026986) rotate(27.1008)"/>
<use xlink:href="#stroke0_461_310" transform="translate(360.569 326.489) scale(0.0191901) rotate(-95.0129)"/>
<use xlink:href="#stroke0_461_310" transform="translate(358.024 326.936) scale(0.0274348) rotate(-64.4183)"/>
<use xlink:href="#stroke0_461_310" transform="translate(367.642 330.112) scale(0.0237378) rotate(165.928)"/>
<use xlink:href="#stroke0_461_310" transform="translate(363.565 324.948) scale(0.0196586) rotate(38.9705)"/>
<use xlink:href="#stroke0_461_310" transform="translate(362.028 334.244) scale(0.0201769) rotate(-112.82)"/>
<use xlink:href="#stroke0_461_310" transform="translate(362.364 337.314) scale(0.0257357) rotate(-121.411)"/>
<use xlink:href="#stroke0_461_310" transform="translate(367.56 335.183) scale(0.0183195) rotate(150.835)"/>
<use xlink:href="#stroke0_461_310" transform="translate(358.998 338.479) scale(0.0280973) rotate(-77.3407)"/>
<use xlink:href="#stroke0_461_310" transform="translate(369.121 338.646) scale(0.0247233) rotate(142.003)"/>
<use xlink:href="#stroke0_461_310" transform="translate(361.258 343.38) scale(0.0233466) rotate(-101.626)"/>
<use xlink:href="#stroke0_461_310" transform="translate(359.494 339.658) scale(0.0241045) rotate(-28.6147)"/>
<use xlink:href="#stroke0_461_310" transform="translate(366.329 339.787) scale(0.0188213) rotate(75.6434)"/>
<use xlink:href="#stroke0_461_310" transform="translate(359.286 347.312) scale(0.0266691) rotate(-76.7448)"/>
<use xlink:href="#stroke0_461_310" transform="translate(359.984 347.542) scale(0.020534) rotate(-62.5822)"/>
<use xlink:href="#stroke0_461_310" transform="translate(364.737 343.818) scale(0.0211247) rotate(50.7301)"/>
<use xlink:href="#stroke0_461_310" transform="translate(367.874 347.715) scale(0.0213546) rotate(104.191)"/>
<use xlink:href="#stroke0_461_310" transform="translate(364.121 346.282) scale(0.0254083) rotate(44.0926)"/>
<use xlink:href="#stroke0_461_310" transform="translate(365.838 349.22) scale(0.0223264) rotate(68.1992)"/>
<use xlink:href="#stroke0_461_310" transform="translate(365.14 360.079) scale(0.0251496) rotate(-155.456)"/>
<use xlink:href="#stroke0_461_310" transform="translate(360.116 355.141) scale(0.0182886) rotate(-22.8493)"/>
<use xlink:href="#stroke0_461_310" transform="translate(361.549 363.115) scale(0.024536) rotate(-117.555)"/>
<use xlink:href="#stroke0_461_310" transform="translate(368.665 358.549) scale(0.0282104) rotate(112.791)"/>
<use xlink:href="#stroke0_461_310" transform="translate(365.291 359.08) scale(0.0188482) rotate(78.2293)"/>
<use xlink:href="#stroke0_461_310" transform="translate(365.265 359.088) scale(0.026333) rotate(68.9166)"/>
<use xlink:href="#stroke0_461_310" transform="translate(364.51 361.49) scale(0.0228657) rotate(66.4363)"/>
<use xlink:href="#stroke0_461_310" transform="translate(361.925 373.052) scale(0.0264661) rotate(-135.102)"/>
<use xlink:href="#stroke0_461_310" transform="translate(365.447 373.832) scale(0.0266083) rotate(-178.239)"/>
<use xlink:href="#stroke0_461_310" transform="translate(355.873 370.774) scale(0.0282493) rotate(-39.6433)"/>
<use xlink:href="#stroke0_461_310" transform="translate(365.262 369.652) scale(0.0280298) rotate(85.5472)"/>
<use xlink:href="#stroke0_461_310" transform="translate(356.69 372.742) scale(0.0249571) rotate(-12.48)"/>
<use xlink:href="#stroke0_461_310" transform="translate(355.549 380.983) scale(0.0280537) rotate(-82.9896)"/>
<use xlink:href="#stroke0_461_310" transform="translate(359.375 375.251) scale(0.0206141) rotate(36.7148)"/>
<use xlink:href="#stroke0_461_310" transform="translate(362.574 384.165) scale(0.0227554) rotate(173.685)"/>
<use xlink:href="#stroke0_461_310" transform="translate(360.629 378.029) scale(0.0251385) rotate(67.6534)"/>
<use xlink:href="#stroke0_461_310" transform="translate(362.238 383.13) scale(0.0239413) rotate(117.467)"/>
<use xlink:href="#stroke0_461_310" transform="translate(351.667 386.814) scale(0.023932) rotate(-59.6438)"/>
<use xlink:href="#stroke0_461_310" transform="translate(351.107 388.258) scale(0.0218674) rotate(-60.8282)"/>
<use xlink:href="#stroke0_461_310" transform="translate(349.219 387.422) scale(0.0259139) rotate(-34.2737)"/>
<use xlink:href="#stroke0_461_310" transform="translate(355.313 386.744) scale(0.0187937) rotate(73.3076)"/>
<use xlink:href="#stroke0_461_310" transform="translate(347.719 391.571) scale(0.0218611) rotate(-54.0188)"/>
<use xlink:href="#stroke0_461_310" transform="translate(354.507 389.027) scale(0.0236551) rotate(88.5369)"/>
<use xlink:href="#stroke0_461_310" transform="translate(345.008 393.782) scale(0.022389) rotate(-52.3438)"/>
<use xlink:href="#stroke0_461_310" transform="translate(349.976 399.419) scale(0.0250635) rotate(-159.036)"/>
<use xlink:href="#stroke0_461_310" transform="translate(351.314 394.477) scale(0.0233013) rotate(117.406)"/>
<use xlink:href="#stroke0_461_310" transform="translate(346.793 391.979) scale(0.023783) rotate(61.1713)"/>
<use xlink:href="#stroke0_461_310" transform="translate(344.72 401.632) scale(0.0211203) rotate(-152.921)"/>
<use xlink:href="#stroke0_461_310" transform="translate(338.654 397.025) scale(0.018459) rotate(-32.1491)"/>
<use xlink:href="#stroke0_461_310" transform="translate(341.56 402.713) scale(0.0196819) rotate(-146.887)"/>
<use xlink:href="#stroke0_461_310" transform="translate(338.282 403.382) scale(0.0208048) rotate(-121.393)"/>
<use xlink:href="#stroke0_461_310" transform="translate(335.55 396.725) scale(0.0195046) rotate(1.86096)"/>
<use xlink:href="#stroke0_461_310" transform="translate(341.324 398.634) scale(0.0248796) rotate(111.986)"/>
<use xlink:href="#stroke0_461_310" transform="translate(330.048 401.487) scale(0.023005) rotate(-56.7258)"/>
<use xlink:href="#stroke0_461_310" transform="translate(334.599 396.917) scale(0.0221045) rotate(61.2121)"/>
<use xlink:href="#stroke0_461_310" transform="translate(326.65 400.992) scale(0.023046) rotate(-42.374)"/>
<use xlink:href="#stroke0_461_310" transform="translate(333.623 399.718) scale(0.0215233) rotate(104.235)"/>
<use xlink:href="#stroke0_461_310" transform="translate(332.632 403.092) scale(0.0233192) rotate(145.704)"/>
<use xlink:href="#stroke0_461_310" transform="translate(325.267 397.596) scale(0.0219492) rotate(28.7212)"/>
<use xlink:href="#stroke0_461_310" transform="translate(322.387 398.193) scale(0.021521) rotate(11.3991)"/>
<use xlink:href="#stroke0_461_310" transform="translate(319.287 406.26) scale(0.0266221) rotate(-99.1626)"/>
<use xlink:href="#stroke0_461_310" transform="translate(325.408 399.25) scale(0.0263615) rotate(100.598)"/>
<use xlink:href="#stroke0_461_310" transform="translate(314.078 402.097) scale(0.0232307) rotate(-49.4143)"/>
<use xlink:href="#stroke0_461_310" transform="translate(321.099 403.581) scale(0.0204165) rotate(153.088)"/>
<use xlink:href="#stroke0_461_310" transform="translate(319.675 400.159) scale(0.0218559) rotate(106.853)"/>
<use xlink:href="#stroke0_461_310" transform="translate(314.734 406.203) scale(0.0206249) rotate(-149.041)"/>
<use xlink:href="#stroke0_461_310" transform="translate(316.277 400.345) scale(0.0205579) rotate(107.966)"/>
<use xlink:href="#stroke0_461_310" transform="translate(311.609 397.705) scale(0.0213731) rotate(52.035)"/>
<use xlink:href="#stroke0_461_310" transform="translate(308.343 398.211) scale(0.0190725) rotate(27.9554)"/>
<use xlink:href="#stroke0_461_310" transform="translate(303.923 401.984) scale(0.0188833) rotate(-47.9413)"/>
<use xlink:href="#stroke0_461_310" transform="translate(309.863 397.848) scale(0.0275241) rotate(83.8475)"/>
<use xlink:href="#stroke0_461_310" transform="translate(298.171 402.68) scale(0.0281135) rotate(-55.0604)"/>
<use xlink:href="#stroke0_461_310" transform="translate(298.633 405.067) scale(0.0220641) rotate(-90.5925)"/>
<use xlink:href="#stroke0_461_310" transform="translate(304.995 401.947) scale(0.0228353) rotate(130.416)"/>
<use xlink:href="#stroke0_461_310" transform="translate(301.437 398.252) scale(0.0231128) rotate(78.8501)"/>
<use xlink:href="#stroke0_461_310" transform="translate(296.105 405.68) scale(0.0182329) rotate(-125.269)"/>
<use xlink:href="#stroke0_461_310" transform="translate(299.299 399.118) scale(0.023762) rotate(94.8887)"/>
<use xlink:href="#stroke0_461_310" transform="translate(297.06 397.99) scale(0.0262815) rotate(83.101)"/>
<use xlink:href="#stroke0_461_310" transform="translate(286.152 401.773) scale(0.0258873) rotate(-45.8491)"/>
<use xlink:href="#stroke0_461_310" transform="translate(287.187 405.214) scale(0.019815) rotate(-99.9736)"/>
<use xlink:href="#stroke0_461_310" transform="translate(284.817 403.912) scale(0.0190304) rotate(-77.3369)"/>
<use xlink:href="#stroke0_461_310" transform="translate(290.831 401.5) scale(0.0199101) rotate(123.992)"/>
<use xlink:href="#stroke0_461_310" transform="translate(282.41 405.78) scale(0.022571) rotate(-102.472)"/>
<use xlink:href="#stroke0_461_310" transform="translate(282.332 398.204) scale(0.0194927) rotate(23.8026)"/>
<use xlink:href="#stroke0_461_310" transform="translate(280.57 406.909) scale(0.0245368) rotate(-123.706)"/>
<use xlink:href="#stroke0_461_310" transform="translate(283.096 399.503) scale(0.0185844) rotate(90.0769)"/>
<use xlink:href="#stroke0_461_310" transform="translate(274.015 403.672) scale(0.023719) rotate(-68.273)"/>
<use xlink:href="#stroke0_461_310" transform="translate(279.265 396.967) scale(0.0276746) rotate(68.7041)"/>
<use xlink:href="#stroke0_461_310" transform="translate(272.513 397.179) scale(0.0256898) rotate(17.9272)"/>
<use xlink:href="#stroke0_461_310" transform="translate(276.158 406.58) scale(0.0281728) rotate(-176.868)"/>
<use xlink:href="#stroke0_461_310" transform="translate(270.416 406.281) scale(0.0207103) rotate(-134.733)"/>
<use xlink:href="#stroke0_461_310" transform="translate(270.906 405.673) scale(0.0196241) rotate(-164.109)"/>
<use xlink:href="#stroke0_461_310" transform="translate(272.077 401.524) scale(0.0219887) rotate(125.004)"/>
<use xlink:href="#stroke0_461_310" transform="translate(264.133 398.569) scale(0.0191312) rotate(12.8881)"/>
<use xlink:href="#stroke0_461_310" transform="translate(260.562 400.837) scale(0.0200778) rotate(-31.8342)"/>
<use xlink:href="#stroke0_461_310" transform="translate(259.325 405.455) scale(0.0238668) rotate(-92.8373)"/>
<use xlink:href="#stroke0_461_310" transform="translate(264.972 404.049) scale(0.0210921) rotate(159.152)"/>
<use xlink:href="#stroke0_461_310" transform="translate(257.542 396.531) scale(0.0279843) rotate(24.0474)"/>
<use xlink:href="#stroke0_461_310" transform="translate(261.678 405.39) scale(0.0274058) rotate(167.985)"/>
<use xlink:href="#stroke0_461_310" transform="translate(258.206 404.712) scale(0.0189259) rotate(174.963)"/>
<use xlink:href="#stroke0_461_310" transform="translate(256.326 398.422) scale(0.0212515) rotate(75.8513)"/>
<use xlink:href="#stroke0_461_310" transform="translate(251.507 407.396) scale(0.0262095) rotate(-132.892)"/>
<use xlink:href="#stroke0_461_310" transform="translate(248.367 407.285) scale(0.02678) rotate(-121.095)"/>
<use xlink:href="#stroke0_461_310" transform="translate(248.572 397.874) scale(0.0202551) rotate(46.0854)"/>
<use xlink:href="#stroke0_461_310" transform="translate(244.689 398.012) scale(0.0216821) rotate(15.5796)"/>
<use xlink:href="#stroke0_461_310" transform="translate(249.891 400.506) scale(0.0256916) rotate(114.673)"/>
<use xlink:href="#stroke0_461_310" transform="translate(246.984 403.297) scale(0.0198975) rotate(149.451)"/>
<use xlink:href="#stroke0_461_310" transform="translate(236.562 403.43) scale(0.0244728) rotate(-64.7582)"/>
<use xlink:href="#stroke0_461_310" transform="translate(239.735 397.578) scale(0.0216266) rotate(42.6037)"/>
<use xlink:href="#stroke0_461_310" transform="translate(232.639 403.653) scale(0.0263524) rotate(-66.0285)"/>
<use xlink:href="#stroke0_461_310" transform="translate(238.79 398.186) scale(0.0232959) rotate(78.1479)"/>
<use xlink:href="#stroke0_461_310" transform="translate(229.483 404.563) scale(0.0254383) rotate(-77.5509)"/>
<use xlink:href="#stroke0_461_310" transform="translate(236.632 400.958) scale(0.0218623) rotate(117.644)"/>
<use xlink:href="#stroke0_461_310" transform="translate(235.386 399.447) scale(0.0273406) rotate(104.092)"/>
<use xlink:href="#stroke0_461_310" transform="translate(229.746 406.577) scale(0.022955) rotate(-154.27)"/>
<use xlink:href="#stroke0_461_310" transform="translate(227.07 398.147) scale(0.0188828) rotate(44.2823)"/>
<use xlink:href="#stroke0_461_310" transform="translate(221.542 397.721) scale(0.0272061) rotate(1.69995)"/>
<use xlink:href="#stroke0_461_310" transform="translate(226.589 399.133) scale(0.0214168) rotate(90.3405)"/>
<use xlink:href="#stroke0_461_310" transform="translate(217.967 401.42) scale(0.018577) rotate(-39.4459)"/>
<use xlink:href="#stroke0_461_310" transform="translate(216.742 397.768) scale(0.0261662) rotate(3.69577)"/>
<use xlink:href="#stroke0_461_310" transform="translate(222.541 402.377) scale(0.0209716) rotate(136.033)"/>
<use xlink:href="#stroke0_461_310" transform="translate(219.311 397.162) scale(0.0275814) rotate(72.3891)"/>
<use xlink:href="#stroke0_461_310" transform="translate(218.011 400.118) scale(0.018926) rotate(102.033)"/>
<use xlink:href="#stroke0_461_310" transform="translate(213.06 396.358) scale(0.0275704) rotate(43.5852)"/>
<use xlink:href="#stroke0_461_310" transform="translate(209.509 398.288) scale(0.0196476) rotate(19.0811)"/>
<use xlink:href="#stroke0_461_310" transform="translate(204.121 402.878) scale(0.0256004) rotate(-57.8706)"/>
<use xlink:href="#stroke0_461_310" transform="translate(209.576 397.522) scale(0.0242741) rotate(66.9742)"/>
<use xlink:href="#stroke0_461_310" transform="translate(209.129 404.126) scale(0.0192834) rotate(163.315)"/>
<use xlink:href="#stroke0_461_310" transform="translate(198.667 404.3) scale(0.0279815) rotate(-71.8242)"/>
<use xlink:href="#stroke0_461_310" transform="translate(204.754 405.088) scale(0.0195314) rotate(-179.018)"/>
<use xlink:href="#stroke0_461_310" transform="translate(203.269 405.292) scale(0.0204067) rotate(-177.602)"/>
<use xlink:href="#stroke0_461_310" transform="translate(197.279 406.652) scale(0.0238709) rotate(-118.861)"/>
<use xlink:href="#stroke0_461_310" transform="translate(191.976 399.779) scale(0.0267815) rotate(-24.5093)"/>
<use xlink:href="#stroke0_461_310" transform="translate(198.763 398.135) scale(0.0263688) rotate(85.5658)"/>
<use xlink:href="#stroke0_461_310" transform="translate(188.864 400.109) scale(0.022657) rotate(-24.295)"/>
<use xlink:href="#stroke0_461_310" transform="translate(193.383 407.252) scale(0.0275044) rotate(-161.256)"/>
<use xlink:href="#stroke0_461_310" transform="translate(192.625 399.928) scale(0.0185067) rotate(97.9295)"/>
<use xlink:href="#stroke0_461_310" transform="translate(187.972 407.154) scale(0.0249208) rotate(-140.595)"/>
<use xlink:href="#stroke0_461_310" transform="translate(181.798 400.43) scale(0.0218859) rotate(-27.8066)"/>
<use xlink:href="#stroke0_461_310" transform="translate(182.634 405.56) scale(0.0192748) rotate(-111.494)"/>
<use xlink:href="#stroke0_461_310" transform="translate(178.35 405.15) scale(0.0260657) rotate(-84.1755)"/>
<use xlink:href="#stroke0_461_310" transform="translate(180.937 406.386) scale(0.021176) rotate(-138.925)"/>
<use xlink:href="#stroke0_461_310" transform="translate(175.234 401.53) scale(0.0200931) rotate(-41.6703)"/>
<use xlink:href="#stroke0_461_310" transform="translate(176.647 398.322) scale(0.0189356) rotate(23.3997)"/>
<use xlink:href="#stroke0_461_310" transform="translate(180.55 401.047) scale(0.0210615) rotate(118.316)"/>
<use xlink:href="#stroke0_461_310" transform="translate(169.235 401.081) scale(0.0261331) rotate(-38.4455)"/>
<use xlink:href="#stroke0_461_310" transform="translate(170.593 397.464) scale(0.024244) rotate(17.5684)"/>
<use xlink:href="#stroke0_461_310" transform="translate(174.457 405.301) scale(0.0239468) rotate(173.012)"/>
<use xlink:href="#stroke0_461_310" transform="translate(165.086 404.156) scale(0.0217765) rotate(-76.9411)"/>
<use xlink:href="#stroke0_461_310" transform="translate(168.07 397.975) scale(0.0199314) rotate(50.2416)"/>
<use xlink:href="#stroke0_461_310" transform="translate(162.106 402.426) scale(0.0188381) rotate(-54.476)"/>
<use xlink:href="#stroke0_461_310" transform="translate(165.731 397.778) scale(0.0216103) rotate(58.5373)"/>
<use xlink:href="#stroke0_461_310" transform="translate(159.021 404.953) scale(0.0229301) rotate(-86.8998)"/>
<use xlink:href="#stroke0_461_310" transform="translate(158.412 398.548) scale(0.0211948) rotate(4.3267)"/>
<use xlink:href="#stroke0_461_310" transform="translate(162.119 397.521) scale(0.025976) rotate(73.9279)"/>
<use xlink:href="#stroke0_461_310" transform="translate(162.36 404.643) scale(0.0281919) rotate(158.186)"/>
<use xlink:href="#stroke0_461_310" transform="translate(156.908 397.054) scale(0.0256746) rotate(61.1077)"/>
<use xlink:href="#stroke0_461_310" transform="translate(149.471 402.922) scale(0.0195871) rotate(-61.4012)"/>
<use xlink:href="#stroke0_461_310" transform="translate(150.731 397.214) scale(0.0239064) rotate(29.5143)"/>
<use xlink:href="#stroke0_461_310" transform="translate(154.527 399.481) scale(0.0258906) rotate(102.847)"/>
<use xlink:href="#stroke0_461_310" transform="translate(145.529 397.835) scale(0.0235575) rotate(11.2886)"/>
<use xlink:href="#stroke0_461_310" transform="translate(150.532 401.329) scale(0.0210218) rotate(122.097)"/>
<use xlink:href="#stroke0_461_310" transform="translate(143.013 397.152) scale(0.0247949) rotate(24.2599)"/>
<use xlink:href="#stroke0_461_310" transform="translate(145.982 398.651) scale(0.0228854) rotate(85.5868)"/>
<use xlink:href="#stroke0_461_310" transform="translate(145.309 400.975) scale(0.0215166) rotate(117.645)"/>
<use xlink:href="#stroke0_461_310" transform="translate(136.789 396.883) scale(0.0274875) rotate(16.8464)"/>
<use xlink:href="#stroke0_461_310" transform="translate(141.151 405.576) scale(0.0261834) rotate(172.575)"/>
<use xlink:href="#stroke0_461_310" transform="translate(130.163 400.347) scale(0.0254643) rotate(-29.877)"/>
<use xlink:href="#stroke0_461_310" transform="translate(136.519 404.339) scale(0.018692) rotate(168.318)"/>
<use xlink:href="#stroke0_461_310" transform="translate(130.65 407.513) scale(0.0271303) rotate(-127.787)"/>
<use xlink:href="#stroke0_461_310" transform="translate(129.352 405.717) scale(0.0181732) rotate(-129.081)"/>
<use xlink:href="#stroke0_461_310" transform="translate(126.698 397.699) scale(0.0226296) rotate(19.7602)"/>
<use xlink:href="#stroke0_461_310" transform="translate(126.183 397.943) scale(0.0200699) rotate(32.9766)"/>
<use xlink:href="#stroke0_461_310" transform="translate(125.845 397.755) scale(0.0209824) rotate(49.6858)"/>
<use xlink:href="#stroke0_461_310" transform="translate(127.498 403.053) scale(0.0191396) rotate(146.475)"/>
<use xlink:href="#stroke0_461_310" transform="translate(118.361 406.517) scale(0.0277899) rotate(-100.299)"/>
<use xlink:href="#stroke0_461_310" transform="translate(114.69 402.346) scale(0.0252817) rotate(-52.0948)"/>
<use xlink:href="#stroke0_461_310" transform="translate(121.589 403.71) scale(0.0182826) rotate(157.952)"/>
<use xlink:href="#stroke0_461_310" transform="translate(113.093 400.058) scale(0.0202085) rotate(-20.3221)"/>
<use xlink:href="#stroke0_461_310" transform="translate(117.746 399.012) scale(0.0189858) rotate(80.8757)"/>
<use xlink:href="#stroke0_461_310" transform="translate(115.946 397.836) scale(0.0232141) rotate(70.069)"/>
<use xlink:href="#stroke0_461_310" transform="translate(116.368 403.431) scale(0.0227426) rotate(148.839)"/>
<use xlink:href="#stroke0_461_310" transform="translate(112.875 405.23) scale(0.0200526) rotate(-177.712)"/>
<use xlink:href="#stroke0_461_310" transform="translate(103.203 403.654) scale(0.0268493) rotate(-65.7041)"/>
<use xlink:href="#stroke0_461_310" transform="translate(100.693 400.983) scale(0.0281356) rotate(-38.1904)"/>
<use xlink:href="#stroke0_461_310" transform="translate(99.9086 399.704) scale(0.0244972) rotate(-21.1439)"/>
<use xlink:href="#stroke0_461_310" transform="translate(104.441 405.499) scale(0.0187959) rotate(-164.8)"/>
<use xlink:href="#stroke0_461_310" transform="translate(99.4388 405.98) scale(0.0210483) rotate(-114.403)"/>
<use xlink:href="#stroke0_461_310" transform="translate(95.6688 399.455) scale(0.0226261) rotate(-15.0439)"/>
<use xlink:href="#stroke0_461_310" transform="translate(101.817 403.038) scale(0.0194375) rotate(146.027)"/>
<use xlink:href="#stroke0_461_310" transform="translate(100.998 402.333) scale(0.0226722) rotate(135.146)"/>
<use xlink:href="#stroke0_461_310" transform="translate(98.7471 402.92) scale(0.0200788) rotate(143.87)"/>
<use xlink:href="#stroke0_461_310" transform="translate(92.2848 405.654) scale(0.0182342) rotate(-123.658)"/>
<use xlink:href="#stroke0_461_310" transform="translate(94.5703 405.737) scale(0.0228241) rotate(-176.458)"/>
<use xlink:href="#stroke0_461_310" transform="translate(91.8181 398.376) scale(0.019681) rotate(67.0143)"/>
<use xlink:href="#stroke0_461_310" transform="translate(92.6907 401.689) scale(0.0201998) rotate(126.719)"/>
<use xlink:href="#stroke0_461_310" transform="translate(83.5178 403.368) scale(0.0184646) rotate(-69.2395)"/>
<use xlink:href="#stroke0_461_310" transform="translate(83.7029 405.754) scale(0.0203071) rotate(-111.656)"/>
<use xlink:href="#stroke0_461_310" transform="translate(79.0141 401.338) scale(0.0240113) rotate(-40.5639)"/>
<use xlink:href="#stroke0_461_310" transform="translate(81.486 397.801) scale(0.0208317) rotate(31.8421)"/>
<use xlink:href="#stroke0_461_310" transform="translate(79.2632 397.529) scale(0.0227254) rotate(25.5849)"/>
<use xlink:href="#stroke0_461_310" transform="translate(73.9013 399.722) scale(0.0258184) rotate(-22.8686)"/>
<use xlink:href="#stroke0_461_310" transform="translate(80.8033 404.502) scale(0.0227056) rotate(163.364)"/>
<use xlink:href="#stroke0_461_310" transform="translate(75.936 405.986) scale(0.0195344) rotate(-148.725)"/>
<use xlink:href="#stroke0_461_310" transform="translate(69.3216 399.689) scale(0.0236264) rotate(-19.8323)"/>
<use xlink:href="#stroke0_461_310" transform="translate(76.3573 400.696) scale(0.0230463) rotate(115.092)"/>
<use xlink:href="#stroke0_461_310" transform="translate(73.4211 399.899) scale(0.0187044) rotate(97.8237)"/>
<use xlink:href="#stroke0_461_310" transform="translate(63.3875 399.56) scale(0.027398) rotate(-22.6351)"/>
<use xlink:href="#stroke0_461_310" transform="translate(67.2257 406.596) scale(0.0224279) rotate(-146.911)"/>
<use xlink:href="#stroke0_461_310" transform="translate(59.6902 399.278) scale(0.0275686) rotate(-19.5991)"/>
<use xlink:href="#stroke0_461_310" transform="translate(60.0191 397.393) scale(0.0258216) rotate(12.1267)"/>
<use xlink:href="#stroke0_461_310" transform="translate(60.3173 406.307) scale(0.0209429) rotate(-131.688)"/>
<use xlink:href="#stroke0_461_310" transform="translate(60.1585 397.998) scale(0.0200518) rotate(53.7899)"/>
<use xlink:href="#stroke0_461_310" transform="translate(57.2037 397.738) scale(0.0209906) rotate(34.6848)"/>
<use xlink:href="#stroke0_461_310" transform="translate(59.5621 403.838) scale(0.0185427) rotate(159.716)"/>
<use xlink:href="#stroke0_461_310" transform="translate(54.3599 397.75) scale(0.0208561) rotate(36.8471)"/>
<use xlink:href="#stroke0_461_310" transform="translate(57.123 399.538) scale(0.0233347) rotate(100.17)"/>
<use xlink:href="#stroke0_461_310" transform="translate(55.7929 402.081) scale(0.0218599) rotate(132.08)"/>
<use xlink:href="#stroke0_461_310" transform="translate(46.9426 404.733) scale(0.0189081) rotate(-92.621)"/>
<use xlink:href="#stroke0_461_310" transform="translate(46.3219 405.556) scale(0.0195911) rotate(-109.648)"/>
<use xlink:href="#stroke0_461_310" transform="translate(49.0586 405.239) scale(0.0190744) rotate(-173.725)"/>
<use xlink:href="#stroke0_461_310" transform="translate(39.6981 402.636) scale(0.0262754) rotate(-55.0473)"/>
<use xlink:href="#stroke0_461_310" transform="translate(43.3 406.883) scale(0.0236021) rotate(-140.129)"/>
<use xlink:href="#stroke0_461_310" transform="translate(37.5038 405.424) scale(0.0249873) rotate(-90.7067)"/>
<use xlink:href="#stroke0_461_310" transform="translate(43.1474 398.66) scale(0.0236215) rotate(90.5395)"/>
<use xlink:href="#stroke0_461_310" transform="translate(31.822 400.642) scale(0.0280595) rotate(-38.9749)"/>
<use xlink:href="#stroke0_461_310" transform="translate(37.5447 396.937) scale(0.0231525) rotate(65.6059)"/>
<use xlink:href="#stroke0_461_310" transform="translate(35.5161 406.172) scale(0.0271823) rotate(-157.356)"/>
<use xlink:href="#stroke0_461_310" transform="translate(32.1397 396.221) scale(0.0203638) rotate(43.7843)"/>
<use xlink:href="#stroke0_461_310" transform="translate(35.5502 401.075) scale(0.0263191) rotate(144.218)"/>
<use xlink:href="#stroke0_461_310" transform="translate(22.9998 397.583) scale(0.0271471) rotate(-32.1021)"/>
<use xlink:href="#stroke0_461_310" transform="translate(24.6306 402.462) scale(0.0218543) rotate(-112.069)"/>
<use xlink:href="#stroke0_461_310" transform="translate(24.3437 393.341) scale(0.0216255) rotate(31.0151)"/>
<use xlink:href="#stroke0_461_310" transform="translate(27.6597 395.461) scale(0.0204255) rotate(110.478)"/>
<use xlink:href="#stroke0_461_310" transform="translate(17.0955 397.906) scale(0.0263899) rotate(-68.5754)"/>
<use xlink:href="#stroke0_461_310" transform="translate(26.014 395.989) scale(0.0273086) rotate(142.426)"/>
<use xlink:href="#stroke0_461_310" transform="translate(14.8966 396.846) scale(0.0247187) rotate(-86.4654)"/>
<use xlink:href="#stroke0_461_310" transform="translate(17.764 387.822) scale(0.0230264) rotate(44.3719)"/>
<use xlink:href="#stroke0_461_310" transform="translate(13.9868 387.405) scale(0.0222345) rotate(11.6827)"/>
<use xlink:href="#stroke0_461_310" transform="translate(15.6248 394.123) scale(0.0189212) rotate(-145.453)"/>
<use xlink:href="#stroke0_461_310" transform="translate(10.0201 390.947) scale(0.0218884) rotate(-72.8743)"/>
<use xlink:href="#stroke0_461_310" transform="translate(17.1772 388.567) scale(0.0199997) rotate(141.394)"/>
<use xlink:href="#stroke0_461_310" transform="translate(15.8676 388.846) scale(0.0208915) rotate(162.977)"/>
<use xlink:href="#stroke0_461_310" transform="translate(13.4638 388.936) scale(0.0205758) rotate(-168.767)"/>
<use xlink:href="#stroke0_461_310" transform="translate(16.0959 382.934) scale(0.0278933) rotate(123.939)"/>
<use xlink:href="#stroke0_461_310" transform="translate(4.2796 381.081) scale(0.0255789) rotate(-40.0767)"/>
<use xlink:href="#stroke0_461_310" transform="translate(9.49289 375.854) scale(0.0214703) rotate(50.7392)"/>
<use xlink:href="#stroke0_461_310" transform="translate(4.0155 379.022) scale(0.0205002) rotate(-52.8015)"/>
<use xlink:href="#stroke0_461_310" transform="translate(6.27112 382.325) scale(0.0268238) rotate(-123.689)"/>
<use xlink:href="#stroke0_461_310" transform="translate(2.26595 371.873) scale(0.0282429) rotate(-16.5944)"/>
<use xlink:href="#stroke0_461_310" transform="translate(5.4277 378.042) scale(0.0257539) rotate(-123.4)"/>
<use xlink:href="#stroke0_461_310" transform="translate(10.76 372.213) scale(0.0212552) rotate(145.31)"/>
<use xlink:href="#stroke0_461_310" transform="translate(1.79545 371.179) scale(0.0231162) rotate(-69.3572)"/>
<use xlink:href="#stroke0_461_310" transform="translate(2.37025 366.52) scale(0.0188978) rotate(-27.6625)"/>
<use xlink:href="#stroke0_461_310" transform="translate(6.72315 371.017) scale(0.0232924) rotate(-150.005)"/>
<use xlink:href="#stroke0_461_310" transform="translate(9.88975 362.16) scale(0.0240821) rotate(102.864)"/>
<use xlink:href="#stroke0_461_310" transform="translate(10.7764 361.953) scale(0.0268005) rotate(124.633)"/>
<use xlink:href="#stroke0_461_310" transform="translate(8.96017 363.262) scale(0.0224506) rotate(164.511)"/>
<use xlink:href="#stroke0_461_310" transform="translate(3.78106 363.582) scale(0.0228345) rotate(-124.639)"/>
<use xlink:href="#stroke0_461_310" transform="translate(8.56501 358.558) scale(0.0192633) rotate(148.025)"/>
<use xlink:href="#stroke0_461_310" transform="translate(3.51608 351.507) scale(0.0218511) rotate(26.997)"/>
<use xlink:href="#stroke0_461_310" transform="translate(4.66971 358.501) scale(0.0206921) rotate(-140.697)"/>
<use xlink:href="#stroke0_461_310" transform="translate(-0.210732 351.437) scale(0.0230987) rotate(-34.6816)"/>
<use xlink:href="#stroke0_461_310" transform="translate(4.08776 347.038) scale(0.019151) rotate(38.1438)"/>
<use xlink:href="#stroke0_461_310" transform="translate(8.87756 345.792) scale(0.027957) rotate(95.3401)"/>
<use xlink:href="#stroke0_461_310" transform="translate(0.652171 350.329) scale(0.0226538) rotate(-89.8977)"/>
<use xlink:href="#stroke0_461_310" transform="translate(5.45589 349.472) scale(0.0197512) rotate(-157.932)"/>
<use xlink:href="#stroke0_461_310" transform="translate(8.15966 346.482) scale(0.0232088) rotate(162.724)"/>
<use xlink:href="#stroke0_461_310" transform="translate(2.50067 338.733) scale(0.0192784) rotate(18.2105)"/>
<use xlink:href="#stroke0_461_310" transform="translate(7.99785 337.388) scale(0.0249714) rotate(91.3905)"/>
<use xlink:href="#stroke0_461_310" transform="translate(7.8835 340.941) scale(0.0208914) rotate(159.103)"/>
<use xlink:href="#stroke0_461_310" transform="translate(7.91886 336.942) scale(0.0186962) rotate(124.037)"/>
<use xlink:href="#stroke0_461_310" transform="translate(3.34594 331.417) scale(0.0220439) rotate(31.2876)"/>
<use xlink:href="#stroke0_461_310" transform="translate(0.92613 331.501) scale(0.0207729) rotate(-8.55492)"/>
<use xlink:href="#stroke0_461_310" transform="translate(7.05869 329.452) scale(0.0207099) rotate(82.317)"/>
<use xlink:href="#stroke0_461_310" transform="translate(1.41224 326.732) scale(0.0249421) rotate(6.37749)"/>
<use xlink:href="#stroke0_461_310" transform="translate(2.14408 332.689) scale(0.0203098) rotate(-104.863)"/>
<use xlink:href="#stroke0_461_310" transform="translate(0.662897 325.869) scale(0.020889) rotate(-24.1445)"/>
<use xlink:href="#stroke0_461_310" transform="translate(3.00326 329.935) scale(0.0204934) rotate(-114.845)"/>
<use xlink:href="#stroke0_461_310" transform="translate(6.50422 320.67) scale(0.0203909) rotate(64.7783)"/>
<use xlink:href="#stroke0_461_310" transform="translate(2.0522 318.798) scale(0.024282) rotate(5.19197)"/>
<use xlink:href="#stroke0_461_310" transform="translate(0.765476 322.662) scale(0.0229302) rotate(-68.705)"/>
<use xlink:href="#stroke0_461_310" transform="translate(9.21978 317.803) scale(0.0201855) rotate(108.685)"/>
<use xlink:href="#stroke0_461_310" transform="translate(0.849399 317.033) scale(0.0233331) rotate(-39.8527)"/>
<use xlink:href="#stroke0_461_310" transform="translate(11.1413 316.442) scale(0.0258472) rotate(137.202)"/>
<use xlink:href="#stroke0_461_310" transform="translate(7.09026 317.862) scale(0.0182422) rotate(-154.011)"/>
<use xlink:href="#stroke0_461_310" transform="translate(11.6763 310.362) scale(0.0278405) rotate(109.417)"/>
<use xlink:href="#stroke0_461_310" transform="translate(2.42508 310.122) scale(0.0207926) rotate(-41.1189)"/>
<use xlink:href="#stroke0_461_310" transform="translate(9.79425 306.604) scale(0.0187702) rotate(89.2807)"/>
<use xlink:href="#stroke0_461_310" transform="translate(11.0819 311.437) scale(0.026753) rotate(177.239)"/>
<use xlink:href="#stroke0_461_310" transform="translate(4.23851 302.051) scale(0.0237984) rotate(-2.20039)"/>
<use xlink:href="#stroke0_461_310" transform="translate(4.60469 302.242) scale(0.0183795) rotate(-20.4859)"/>
<use xlink:href="#stroke0_461_310" transform="translate(6.30109 298.291) scale(0.0225655) rotate(16.3169)"/>
<use xlink:href="#stroke0_461_310" transform="translate(13.6791 301.973) scale(0.0250841) rotate(145.372)"/>
<use xlink:href="#stroke0_461_310" transform="translate(9.91032 295.202) scale(0.0192923) rotate(53.8066)"/>
<use xlink:href="#stroke0_461_310" transform="translate(5.86901 301.621) scale(0.0271336) rotate(-98.3)"/>
<use xlink:href="#stroke0_461_310" transform="translate(12.0339 299.156) scale(0.0199849) rotate(-169.42)"/>
<use xlink:href="#stroke0_461_310" transform="translate(14.3241 293.904) scale(0.0195246) rotate(127.644)"/>
<use xlink:href="#stroke0_461_310" transform="translate(8.22803 289.271) scale(0.0205747) rotate(5.34209)"/>
<use xlink:href="#stroke0_461_310" transform="translate(13.7634 287.783) scale(0.0208113) rotate(78.9638)"/>
<use xlink:href="#stroke0_461_310" transform="translate(9.9401 293.227) scale(0.0187638) rotate(-113.485)"/>
<use xlink:href="#stroke0_461_310" transform="translate(15.058 286.24) scale(0.018193) rotate(96.496)"/>
<use xlink:href="#stroke0_461_310" transform="translate(14.2931 290.856) scale(0.0209879) rotate(-164.117)"/>
<use xlink:href="#stroke0_461_310" transform="translate(18.4159 286.645) scale(0.0272428) rotate(146.257)"/>
<use xlink:href="#stroke0_461_310" transform="translate(16.9405 286.777) scale(0.0231085) rotate(176.858)"/>
<use xlink:href="#stroke0_461_310" transform="translate(12.6641 285.924) scale(0.0213807) rotate(-118.75)"/>
<use xlink:href="#stroke0_461_310" transform="translate(13.0704 276.943) scale(0.0183175) rotate(16.3846)"/>
<use xlink:href="#stroke0_461_310" transform="translate(18.6798 277.409) scale(0.0188693) rotate(106.764)"/>
<use xlink:href="#stroke0_461_310" transform="translate(18.7395 272.944) scale(0.0261531) rotate(75.1162)"/>
<use xlink:href="#stroke0_461_310" transform="translate(13.4056 272.246) scale(0.0222641) rotate(0.317936)"/>
<use xlink:href="#stroke0_461_310" transform="translate(21.0927 273.81) scale(0.0199309) rotate(125.86)"/>
<use xlink:href="#stroke0_461_310" transform="translate(23.282 272.15) scale(0.027238) rotate(127.405)"/>
<use xlink:href="#stroke0_461_310" transform="translate(18.3543 266.836) scale(0.0197046) rotate(41.0046)"/>
<use xlink:href="#stroke0_461_310" transform="translate(15.3449 267.547) scale(0.0200606) rotate(-20.3637)"/>
<use xlink:href="#stroke0_461_310" transform="translate(15.7484 265.397) scale(0.0227719) rotate(-14.7691)"/>
<use xlink:href="#stroke0_461_310" transform="translate(23.0614 271.373) scale(0.0279855) rotate(-165.67)"/>
<use xlink:href="#stroke0_461_310" transform="translate(24.7312 267.298) scale(0.021649) rotate(169.809)"/>
<use xlink:href="#stroke0_461_310" transform="translate(22.995 258.133) scale(0.0239661) rotate(53.1598)"/>
<use xlink:href="#stroke0_461_310" transform="translate(25.3672 264.669) scale(0.0202159) rotate(-177.904)"/>
<use xlink:href="#stroke0_461_310" transform="translate(23.3157 265.185) scale(0.0257765) rotate(-136.403)"/>
<use xlink:href="#stroke0_461_310" transform="translate(20.1313 258.214) scale(0.0203756) rotate(-47.1389)"/>
<use xlink:href="#stroke0_461_310" transform="translate(29.2589 256.484) scale(0.0205685) rotate(125.232)"/>
<use xlink:href="#stroke0_461_310" transform="translate(22.5039 252.634) scale(0.0213505) rotate(-7.33898)"/>
<use xlink:href="#stroke0_461_310" transform="translate(32.1811 255.514) scale(0.0277321) rotate(147.901)"/>
<use xlink:href="#stroke0_461_310" transform="translate(29.9529 247.875) scale(0.0236961) rotate(69.2895)"/>
<use xlink:href="#stroke0_461_310" transform="translate(32.7217 248.54) scale(0.0226982) rotate(104.483)"/>
<use xlink:href="#stroke0_461_310" transform="translate(30.8676 243.89) scale(0.0259776) rotate(56.2123)"/>
<use xlink:href="#stroke0_461_310" transform="translate(33.2767 251.811) scale(0.0253484) rotate(-170.563)"/>
<use xlink:href="#stroke0_461_310" transform="translate(36.9768 243.906) scale(0.0275945) rotate(113.29)"/>
<use xlink:href="#stroke0_461_310" transform="translate(27.2756 245.64) scale(0.0277496) rotate(-66.415)"/>
<use xlink:href="#stroke0_461_310" transform="translate(35.5898 246.099) scale(0.0203383) rotate(-165.221)"/>
<use xlink:href="#stroke0_461_310" transform="translate(32.4536 244.89) scale(0.0214466) rotate(-109.543)"/>
<use xlink:href="#stroke0_461_310" transform="translate(39.1977 240.895) scale(0.0189753) rotate(148.344)"/>
<use xlink:href="#stroke0_461_310" transform="translate(31.0353 238.146) scale(0.0262974) rotate(-46.5604)"/>
<use xlink:href="#stroke0_461_310" transform="translate(36.1849 233.329) scale(0.0185684) rotate(22.3825)"/>
<use xlink:href="#stroke0_461_310" transform="translate(38.1505 240.573) scale(0.0240793) rotate(-135.941)"/>
<use xlink:href="#stroke0_461_310" transform="translate(43.4798 230.511) scale(0.0259599) rotate(89.4002)"/>
<use xlink:href="#stroke0_461_310" transform="translate(43.2311 229.38) scale(0.0205451) rotate(80.3394)"/>
<use xlink:href="#stroke0_461_310" transform="translate(44.2573 227.837) scale(0.0216983) rotate(78.6817)"/>
<use xlink:href="#stroke0_461_310" transform="translate(47.6742 227.829) scale(0.02636) rotate(108.42)"/>
<use xlink:href="#stroke0_461_310" transform="translate(39.6945 229.271) scale(0.0201748) rotate(-58.4543)"/>
<use xlink:href="#stroke0_461_310" transform="translate(41.6573 223.917) scale(0.0224675) rotate(-1.58465)"/>
<use xlink:href="#stroke0_461_310" transform="translate(43.3872 222.996) scale(0.019079) rotate(3.12942)"/>
<use xlink:href="#stroke0_461_310" transform="translate(41.8756 225.763) scale(0.0248511) rotate(-59.4671)"/>
<use xlink:href="#stroke0_461_310" transform="translate(45.0752 226.331) scale(0.0197708) rotate(-92.5129)"/>
<use xlink:href="#stroke0_461_310" transform="translate(49.3821 227.185) scale(0.0240017) rotate(-141.816)"/>
<use xlink:href="#stroke0_461_310" transform="translate(49.4568 226.164) scale(0.0263448) rotate(-128.766)"/>
<use xlink:href="#stroke0_461_310" transform="translate(47.7902 219.732) scale(0.0181624) rotate(-51.1221)"/>
<use xlink:href="#stroke0_461_310" transform="translate(57.0319 221.4) scale(0.0259147) rotate(166.478)"/>
<use xlink:href="#stroke0_461_310" transform="translate(54.0817 220.852) scale(0.0182066) rotate(-142.567)"/>
<use xlink:href="#stroke0_461_310" transform="translate(55.01 210.368) scale(0.0267795) rotate(41.3887)"/>
<use xlink:href="#stroke0_461_310" transform="translate(60.9072 216.704) scale(0.024492) rotate(157.52)"/>
<use xlink:href="#stroke0_461_310" transform="translate(58.9327 218.081) scale(0.0246205) rotate(-152.59)"/>
<use xlink:href="#stroke0_461_310" transform="translate(62.6388 208.662) scale(0.023538) rotate(90.0777)"/>
<use xlink:href="#stroke0_461_310" transform="translate(56.6568 207.846) scale(0.0208425) rotate(-10.1735)"/>
<use xlink:href="#stroke0_461_310" transform="translate(57.5896 212.184) scale(0.0215976) rotate(-92.8276)"/>
<use xlink:href="#stroke0_461_310" transform="translate(60.9322 211.727) scale(0.0202237) rotate(-133.491)"/>
<use xlink:href="#stroke0_461_310" transform="translate(61.483 200.706) scale(0.0251694) rotate(39.7831)"/>
<use xlink:href="#stroke0_461_310" transform="translate(64.5212 199.832) scale(0.0244371) rotate(75.5082)"/>
<use xlink:href="#stroke0_461_310" transform="translate(57.7774 200.891) scale(0.0195096) rotate(-27.5795)"/>
<use xlink:href="#stroke0_461_310" transform="translate(63.5267 204.962) scale(0.023581) rotate(-168.019)"/>
<use xlink:href="#stroke0_461_310" transform="translate(57.0743 202.539) scale(0.0237032) rotate(-94.1521)"/>
<use xlink:href="#stroke0_461_310" transform="translate(63.4474 198.593) scale(0.0187814) rotate(145.609)"/>
<use xlink:href="#stroke0_461_310" transform="translate(57.1437 200.169) scale(0.019742) rotate(-114.206)"/>
<use xlink:href="#stroke0_461_310" transform="translate(58.7561 200.806) scale(0.0278973) rotate(-150.937)"/>
<use xlink:href="#stroke0_461_310" transform="translate(51.2292 196.346) scale(0.025009) rotate(-74.6694)"/>
<use xlink:href="#stroke0_461_310" transform="translate(58.2074 193.839) scale(0.0190794) rotate(137.143)"/>
<use xlink:href="#stroke0_461_310" transform="translate(51.7456 197.886) scale(0.0236903) rotate(-127.198)"/>
<use xlink:href="#stroke0_461_310" transform="translate(54.2924 190.822) scale(0.0189002) rotate(96.9295)"/>
<use xlink:href="#stroke0_461_310" transform="translate(44.9928 190.682) scale(0.024067) rotate(-23.1049)"/>
<use xlink:href="#stroke0_461_310" transform="translate(46.3833 197.886) scale(0.0282925) rotate(-126.801)"/>
<use xlink:href="#stroke0_461_310" transform="translate(40.372 188.937) scale(0.0280743) rotate(-26.8453)"/>
<use xlink:href="#stroke0_461_310" transform="translate(39.3573 190.748) scale(0.0245881) rotate(-60.7713)"/>
<use xlink:href="#stroke0_461_310" transform="translate(39.621 187.283) scale(0.0189323) rotate(-33.3838)"/>
<use xlink:href="#stroke0_461_310" transform="translate(46.7488 184.105) scale(0.0235014) rotate(97.2535)"/>
<use xlink:href="#stroke0_461_310" transform="translate(38.9506 183.493) scale(0.0183509) rotate(-20.0281)"/>
<use xlink:href="#stroke0_461_310" transform="translate(40.5175 187.696) scale(0.0194615) rotate(-119.157)"/>
<use xlink:href="#stroke0_461_310" transform="translate(46.1294 182.768) scale(0.0230698) rotate(136.306)"/>
<use xlink:href="#stroke0_461_310" transform="translate(38.9606 176.888) scale(0.0210735) rotate(14.0992)"/>
<use xlink:href="#stroke0_461_310" transform="translate(35.7173 181.45) scale(0.0260726) rotate(-75.715)"/>
<use xlink:href="#stroke0_461_310" transform="translate(37.4268 173.484) scale(0.0221758) rotate(6.32862)"/>
<use xlink:href="#stroke0_461_310" transform="translate(38.6107 170.217) scale(0.0258474) rotate(30.3348)"/>
<use xlink:href="#stroke0_461_310" transform="translate(42.5805 171.96) scale(0.0183874) rotate(102.461)"/>
<use xlink:href="#stroke0_461_310" transform="translate(44.4377 171.756) scale(0.0268685) rotate(127.819)"/>
<use xlink:href="#stroke0_461_310" transform="translate(33.2384 169.745) scale(0.0258216) rotate(-44.4383)"/>
<use xlink:href="#stroke0_461_310" transform="translate(36.673 173.228) scale(0.0255054) rotate(-121.725)"/>
<use xlink:href="#stroke0_461_310" transform="translate(38.096 161.93) scale(0.0218508) rotate(43.8343)"/>
<use xlink:href="#stroke0_461_310" transform="translate(37.7081 169.788) scale(0.0249138) rotate(-139.339)"/>
<use xlink:href="#stroke0_461_310" transform="translate(41.3679 160.39) scale(0.022729) rotate(99.507)"/>
<use xlink:href="#stroke0_461_310" transform="translate(40.2878 163.428) scale(0.0181591) rotate(165.845)"/>
<use xlink:href="#stroke0_461_310" transform="translate(35.1742 154.758) scale(0.0254646) rotate(20.7627)"/>
<use xlink:href="#stroke0_461_310" transform="translate(34.1592 155.39) scale(0.0182578) rotate(-4.49766)"/>
<use xlink:href="#stroke0_461_310" transform="translate(32.8366 158.279) scale(0.0207457) rotate(-72.8723)"/>
<use xlink:href="#stroke0_461_310" transform="translate(39.7594 158.897) scale(0.0252429) rotate(-176.092)"/>
<use xlink:href="#stroke0_461_310" transform="translate(40.0425 155.261) scale(0.0203574) rotate(163.395)"/>
<use xlink:href="#stroke0_461_310" transform="translate(39.3866 148.3) scale(0.0211037) rotate(84.666)"/>
<use xlink:href="#stroke0_461_310" transform="translate(32.393 148.062) scale(0.0211044) rotate(-24.1974)"/>
<use xlink:href="#stroke0_461_310" transform="translate(32.2356 151.839) scale(0.0271081) rotate(-91.8144)"/>
<use xlink:href="#stroke0_461_310" transform="translate(37.2295 141.037) scale(0.0247567) rotate(52.17)"/>
<use xlink:href="#stroke0_461_310" transform="translate(39.9611 145.868) scale(0.0193344) rotate(153.732)"/>
<use xlink:href="#stroke0_461_310" transform="translate(32.2825 143.4) scale(0.019693) rotate(-56.1793)"/>
<use xlink:href="#stroke0_461_310" transform="translate(40.2417 142.245) scale(0.0194471) rotate(143.993)"/>
<use xlink:href="#stroke0_461_310" transform="translate(33.4405 142.854) scale(0.0204278) rotate(-94.067)"/>
<use xlink:href="#stroke0_461_310" transform="translate(31.9216 135.857) scale(0.0247332) rotate(-21.8921)"/>
<use xlink:href="#stroke0_461_310" transform="translate(37.5134 132.467) scale(0.019851) rotate(54.7559)"/>
<use xlink:href="#stroke0_461_310" transform="translate(32.2804 132.577) scale(0.023939) rotate(-22.1041)"/>
<use xlink:href="#stroke0_461_310" transform="translate(40.9685 129.529) scale(0.0258183) rotate(92.2125)"/>
<use xlink:href="#stroke0_461_310" transform="translate(33.604 134.706) scale(0.0246263) rotate(-95.9165)"/>
<use xlink:href="#stroke0_461_310" transform="translate(40.0518 126.157) scale(0.0204037) rotate(83.5781)"/>
<use xlink:href="#stroke0_461_310" transform="translate(32.6569 129.082) scale(0.0243966) rotate(-66.079)"/>
<use xlink:href="#stroke0_461_310" transform="translate(39.5028 120.806) scale(0.0253214) rotate(61.5624)"/>
<use xlink:href="#stroke0_461_310" transform="translate(38.0571 120.275) scale(0.0183789) rotate(42.9117)"/>
<use xlink:href="#stroke0_461_310" transform="translate(43.0824 124.551) scale(0.025793) rotate(155.402)"/>
<use xlink:href="#stroke0_461_310" transform="translate(41.8385 118.949) scale(0.0182802) rotate(103.038)"/>
<use xlink:href="#stroke0_461_310" transform="translate(40.8583 123.174) scale(0.0215178) rotate(-166.118)"/>
<use xlink:href="#stroke0_461_310" transform="translate(41.5662 112.453) scale(0.0268778) rotate(66.9712)"/>
<use xlink:href="#stroke0_461_310" transform="translate(38.8265 111.606) scale(0.0201589) rotate(31.2152)"/>
<use xlink:href="#stroke0_461_310" transform="translate(38.184 109.309) scale(0.0244831) rotate(20.9592)"/>
<use xlink:href="#stroke0_461_310" transform="translate(37.3692 114.77) scale(0.0182904) rotate(-86.7082)"/>
<use xlink:href="#stroke0_461_310" transform="translate(37.0438 112.544) scale(0.0190859) rotate(-70.6633)"/>
<use xlink:href="#stroke0_461_310" transform="translate(40.7456 105.232) scale(0.0212188) rotate(36.9961)"/>
<use xlink:href="#stroke0_461_310" transform="translate(45.5356 108.029) scale(0.0196022) rotate(130.598)"/>
<use xlink:href="#stroke0_461_310" transform="translate(44.9077 104.197) scale(0.0188891) rotate(91.7737)"/>
<use xlink:href="#stroke0_461_310" transform="translate(41.4437 109.104) scale(0.0190027) rotate(-125.441)"/>
<use xlink:href="#stroke0_461_310" transform="translate(45.4916 108.451) scale(0.0266512) rotate(-167.281)"/>
<use xlink:href="#stroke0_461_310" transform="translate(42.2654 97.5645) scale(0.0217626) rotate(26.1974)"/>
<use xlink:href="#stroke0_461_310" transform="translate(44.2393 105.558) scale(0.0262661) rotate(-140.705)"/>
<use xlink:href="#stroke0_461_310" transform="translate(50.2343 97.1263) scale(0.027259) rotate(119.963)"/>
<use xlink:href="#stroke0_461_310" transform="translate(42.8778 91.9862) scale(0.0247437) rotate(11.2117)"/>
<use xlink:href="#stroke0_461_310" transform="translate(47.1632 89.0867) scale(0.026998) rotate(51.7425)"/>
<use xlink:href="#stroke0_461_310" transform="translate(44.5595 96.8995) scale(0.0229489) rotate(-108.992)"/>
<use xlink:href="#stroke0_461_310" transform="translate(49.2465 95.0388) scale(0.0200282) rotate(-163.099)"/>
<use xlink:href="#stroke0_461_310" transform="translate(51.4979 87.4312) scale(0.020155) rotate(95.0857)"/>
<use xlink:href="#stroke0_461_310" transform="translate(49.5512 84.2946) scale(0.0206259) rotate(51.5909)"/>
<use xlink:href="#stroke0_461_310" transform="translate(49.9157 82.446) scale(0.0221977) rotate(46.6969)"/>
<use xlink:href="#stroke0_461_310" transform="translate(52.6815 90.496) scale(0.0278049) rotate(-162.901)"/>
<use xlink:href="#stroke0_461_310" transform="translate(49.7292 87.8656) scale(0.0219482) rotate(-119.896)"/>
<use xlink:href="#stroke0_461_310" transform="translate(46.7522 82.6645) scale(0.0258006) rotate(-56.0948)"/>
<use xlink:href="#stroke0_461_310" transform="translate(58.6814 79.6125) scale(0.0278175) rotate(125.804)"/>
<use xlink:href="#stroke0_461_310" transform="translate(49.9124 81.9146) scale(0.0262297) rotate(-89.6129)"/>
<use xlink:href="#stroke0_461_310" transform="translate(58.8066 77.7998) scale(0.0197295) rotate(144.889)"/>
<use xlink:href="#stroke0_461_310" transform="translate(60.2727 77.3955) scale(0.0241752) rotate(154.897)"/>
<use xlink:href="#stroke0_461_310" transform="translate(51.9012 72.4445) scale(0.024126) rotate(-32.2784)"/>
<use xlink:href="#stroke0_461_310" transform="translate(54.6764 69.127) scale(0.0211796) rotate(-0.405968)"/>
<use xlink:href="#stroke0_461_310" transform="translate(61.615 66.1044) scale(0.0272591) rotate(74.1372)"/>
<use xlink:href="#stroke0_461_310" transform="translate(57.1851 66.1722) scale(0.0192592) rotate(4.58736)"/>
<use xlink:href="#stroke0_461_310" transform="translate(57.5282 65.1777) scale(0.0199384) rotate(-3.00076)"/>
<use xlink:href="#stroke0_461_310" transform="translate(59.7841 62.664) scale(0.0214645) rotate(21.335)"/>
<use xlink:href="#stroke0_461_310" transform="translate(59.3837 62.2684) scale(0.0209355) rotate(-0.0669473)"/>
<use xlink:href="#stroke0_461_310" transform="translate(58.1148 62.1424) scale(0.0268565) rotate(-28.6715)"/>
<use xlink:href="#stroke0_461_310" transform="translate(59.9475 62.8635) scale(0.0218089) rotate(-52.7014)"/>
<use xlink:href="#stroke0_461_310" transform="translate(62.8259 56.7089) scale(0.0251257) rotate(10.0514)"/>
<use xlink:href="#stroke0_461_310" transform="translate(63.114 62.3332) scale(0.0211444) rotate(-85.1471)"/>
<use xlink:href="#stroke0_461_310" transform="translate(63.0801 58.0245) scale(0.0223139) rotate(-43.217)"/>
<use xlink:href="#stroke0_461_310" transform="translate(64.8945 54.9083) scale(0.0215891) rotate(-18.0414)"/>
<use xlink:href="#stroke0_461_310" transform="translate(65.8052 58.1888) scale(0.0224313) rotate(-78.4917)"/>
<use xlink:href="#stroke0_461_310" transform="translate(74.7103 54.2331) scale(0.0189344) rotate(124.551)"/>
<use xlink:href="#stroke0_461_310" transform="translate(70.2169 57.9525) scale(0.0231399) rotate(-117.818)"/>
<use xlink:href="#stroke0_461_310" transform="translate(71.061 48.2027) scale(0.0218526) rotate(15.0131)"/>
<use xlink:href="#stroke0_461_310" transform="translate(75.2296 47.0048) scale(0.0203513) rotate(56.2505)"/>
<use xlink:href="#stroke0_461_310" transform="translate(72.3266 52.5903) scale(0.0188438) rotate(-91.088)"/>
<use xlink:href="#stroke0_461_310" transform="translate(71.1496 48.1945) scale(0.0254806) rotate(-42.4044)"/>
<use xlink:href="#stroke0_461_310" transform="translate(75.4324 43.8322) scale(0.0207633) rotate(10.8252)"/>
<use xlink:href="#stroke0_461_310" transform="translate(82.5781 46.7326) scale(0.0189582) rotate(135.563)"/>
<use xlink:href="#stroke0_461_310" transform="translate(79.1568 40.6033) scale(0.0232324) rotate(33.1068)"/>
<use xlink:href="#stroke0_461_310" transform="translate(77.9822 47.4902) scale(0.0222341) rotate(-95.4983)"/>
<use xlink:href="#stroke0_461_310" transform="translate(84.1916 39.155) scale(0.0209372) rotate(67.1443)"/>
<use xlink:href="#stroke0_461_310" transform="translate(78.3942 42.002) scale(0.0254904) rotate(-50.2061)"/>
<use xlink:href="#stroke0_461_310" transform="translate(79.5301 41.7934) scale(0.0281466) rotate(-61.4087)"/>
<use xlink:href="#stroke0_461_310" transform="translate(90.497 39.5217) scale(0.0191921) rotate(134.033)"/>
<use xlink:href="#stroke0_461_310" transform="translate(91.6172 36.5526) scale(0.0208617) rotate(106.439)"/>
<use xlink:href="#stroke0_461_310" transform="translate(85.0807 38.2354) scale(0.0190107) rotate(-60.8535)"/>
<use xlink:href="#stroke0_461_310" transform="translate(86.4625 34.479) scale(0.0200296) rotate(-19.6167)"/>
<use xlink:href="#stroke0_461_310" transform="translate(96.1948 32.7664) scale(0.0263048) rotate(102.401)"/>
<use xlink:href="#stroke0_461_310" transform="translate(93.3983 39.1001) scale(0.0237114) rotate(-143.545)"/>
<use xlink:href="#stroke0_461_310" transform="translate(92.1805 36.593) scale(0.0191434) rotate(-106.224)"/>
<use xlink:href="#stroke0_461_310" transform="translate(93.1406 27.9403) scale(0.0243707) rotate(11.585)"/>
<use xlink:href="#stroke0_461_310" transform="translate(95.2956 36.6029) scale(0.0282422) rotate(-118.719)"/>
<use xlink:href="#stroke0_461_310" transform="translate(93.4914 30.3391) scale(0.026849) rotate(-52.6266)"/>
<use xlink:href="#stroke0_461_310" transform="translate(104.297 31.6083) scale(0.02237) rotate(167.278)"/>
<use xlink:href="#stroke0_461_310" transform="translate(102.942 31.6923) scale(0.0183832) rotate(-155.046)"/>
<use xlink:href="#stroke0_461_310" transform="translate(99.9809 30.968) scale(0.024223) rotate(-97.7746)"/>
<use xlink:href="#stroke0_461_310" transform="translate(105.01 31.4973) scale(0.0257776) rotate(-140.217)"/>
<use xlink:href="#stroke0_461_310" transform="translate(111.281 26.1376) scale(0.0237486) rotate(142.202)"/>
<use xlink:href="#stroke0_461_310" transform="translate(105.284 27.3757) scale(0.0192636) rotate(-97.3715)"/>
<use xlink:href="#stroke0_461_310" transform="translate(105.309 26.3902) scale(0.0237901) rotate(-83.5845)"/>
<use xlink:href="#stroke0_461_310" transform="translate(109.154 18.2863) scale(0.0231047) rotate(20.088)"/>
<use xlink:href="#stroke0_461_310" transform="translate(110.841 25.6673) scale(0.0194453) rotate(-117.058)"/>
<use xlink:href="#stroke0_461_310" transform="translate(110.072 18.9526) scale(0.0206742) rotate(-16.2154)"/>
<use xlink:href="#stroke0_461_310" transform="translate(111.96 24.1828) scale(0.0239154) rotate(-97.8068)"/>
<use xlink:href="#stroke0_461_310" transform="translate(113.374 16.8719) scale(0.0212303) rotate(-8.44622)"/>
<use xlink:href="#stroke0_461_310" transform="translate(122.997 17.7322) scale(0.0237674) rotate(117.098)"/>
<use xlink:href="#stroke0_461_310" transform="translate(118.715 13.1396) scale(0.0250587) rotate(27.6131)"/>
<use xlink:href="#stroke0_461_310" transform="translate(121.661 12.6363) scale(0.0230924) rotate(41.9858)"/>
<use xlink:href="#stroke0_461_310" transform="translate(120.96 13.4961) scale(0.0188257) rotate(8.3605)"/>
<use xlink:href="#stroke0_461_310" transform="translate(128.153 18.8092) scale(0.0220015) rotate(167.682)"/>
<use xlink:href="#stroke0_461_310" transform="translate(129.602 18.3118) scale(0.022042) rotate(169.974)"/>
<use xlink:href="#stroke0_461_310" transform="translate(127.192 19.4589) scale(0.0225041) rotate(-133.178)"/>
<use xlink:href="#stroke0_461_310" transform="translate(124.681 17.2777) scale(0.0275026) rotate(-82.0554)"/>
<use xlink:href="#stroke0_461_310" transform="translate(131.239 17.4604) scale(0.0191072) rotate(-141.129)"/>
<use xlink:href="#stroke0_461_310" transform="translate(134.019 9.41091) scale(0.0191973) rotate(64.973)"/>
<use xlink:href="#stroke0_461_310" transform="translate(131.296 9.71429) scale(0.0183723) rotate(0.0985945)"/>
<use xlink:href="#stroke0_461_310" transform="translate(137.746 7.31861) scale(0.0255648) rotate(68.2097)"/>
<use xlink:href="#stroke0_461_310" transform="translate(136.924 16.6082) scale(0.0252962) rotate(-135.41)"/>
<use xlink:href="#stroke0_461_310" transform="translate(138.795 6.43756) scale(0.0215614) rotate(39.8098)"/>
<use xlink:href="#stroke0_461_310" transform="translate(141.042 6.57397) scale(0.0189663) rotate(50.8588)"/>
<use xlink:href="#stroke0_461_310" transform="translate(141.194 14.2052) scale(0.0206697) rotate(-129.765)"/>
<use xlink:href="#stroke0_461_310" transform="translate(146.03 13.0544) scale(0.0212602) rotate(-175.812)"/>
<use xlink:href="#stroke0_461_310" transform="translate(149.676 11.0777) scale(0.0243571) rotate(154.42)"/>
<use xlink:href="#stroke0_461_310" transform="translate(147.304 4.10829) scale(0.0223255) rotate(47.8335)"/>
<use xlink:href="#stroke0_461_310" transform="translate(147.132 2.98991) scale(0.0264481) rotate(25.822)"/>
<use xlink:href="#stroke0_461_310" transform="translate(154.732 6.0373) scale(0.0226793) rotate(109.066)"/>
<use xlink:href="#stroke0_461_310" transform="translate(156.889 5.192) scale(0.0252289) rotate(105.984)"/>
<use xlink:href="#stroke0_461_310" transform="translate(152.164 3.32053) scale(0.020064) rotate(16.6537)"/>
<use xlink:href="#stroke0_461_310" transform="translate(153.462 2.3153) scale(0.0237832) rotate(16.3683)"/>
<use xlink:href="#stroke0_461_310" transform="translate(156.268 1.78208) scale(0.0231112) rotate(29.0272)"/>
<use xlink:href="#stroke0_461_310" transform="translate(162.958 2.65376) scale(0.025186) rotate(89.4862)"/>
<use xlink:href="#stroke0_461_310" transform="translate(159.679 9.49806) scale(0.018454) rotate(-122.265)"/>
<use xlink:href="#stroke0_461_310" transform="translate(164.481 9.54155) scale(0.0218507) rotate(-168.051)"/>
<use xlink:href="#stroke0_461_310" transform="translate(166.755 10.2994) scale(0.0271666) rotate(-166.774)"/>
<use xlink:href="#stroke0_461_310" transform="translate(170.038 2.59667) scale(0.0231115) rotate(99.191)"/>
<use xlink:href="#stroke0_461_310" transform="translate(167.519 -0.598169) scale(0.0268673) rotate(37.3585)"/>
<use xlink:href="#stroke0_461_310" transform="translate(175.026 5.85826) scale(0.0255161) rotate(143.956)"/>
<use xlink:href="#stroke0_461_310" transform="translate(175.474 4.41993) scale(0.0189287) rotate(129.227)"/>
<use xlink:href="#stroke0_461_310" transform="translate(168.835 1.45288) scale(0.0260464) rotate(-14.7911)"/>
<use xlink:href="#stroke0_461_310" transform="translate(175.325 -1.21019) scale(0.0267878) rotate(41.6572)"/>
<use xlink:href="#stroke0_461_310" transform="translate(178.599 8.45609) scale(0.0218186) rotate(-157.324)"/>
<use xlink:href="#stroke0_461_310" transform="translate(182.284 2.80234) scale(0.0186256) rotate(111.01)"/>
<use xlink:href="#stroke0_461_310" transform="translate(183.957 3.76409) scale(0.0187515) rotate(126.547)"/>
<use xlink:href="#stroke0_461_310" transform="translate(176.993 5.27207) scale(0.0237781) rotate(-63.0256)"/>
<use xlink:href="#stroke0_461_310" transform="translate(185.635 -0.214108) scale(0.0230374) rotate(67.8872)"/>
<use xlink:href="#stroke0_461_310" transform="translate(185.559 9.06198) scale(0.0248494) rotate(-148.581)"/>
<defs>
<g id="stroke0_461_310" data-figma-scatter-ref="stroke0_461_310_ref" data-figma-scatter="f0.28_w0_aj180_sj0.25_r0_s14224912366038159097_sw7">
<path d="M103.731 283.547C110.352 281.363 112.807 281.348 116.121 283.468C130.109 292.418 124.85 308.718 107.972 308.727C90.3768 308.737 87.0606 289.046 103.731 283.547ZM139.837 35.4146C140.937 35.1787 142.512 35.114 143.337 35.271C144.162 35.4281 146.516 35.8391 148.567 36.1851C155.802 37.4051 160.179 46.6969 156.734 53.5249C152.924 61.0769 144.715 67.5811 140.859 66.1021C135.872 64.1881 137.625 69.8792 144.066 76.5152C148.306 80.8841 150.337 81.2685 150.337 77.7066C150.337 76.6574 151.622 74.3218 153.193 72.5161C154.823 70.6412 156.597 66.9201 157.324 63.8501C158.925 57.0892 160.788 55.2289 167.369 53.8169C177.32 51.6829 185.581 56.9263 183.752 64.2153C183.293 66.0423 183.901 67.6656 186.09 70.4585C196.859 84.1975 193.875 104.273 180.596 107.418C177.049 108.258 176.832 108.532 176.773 112.27C176.739 114.448 176.365 116.987 175.943 117.912C175.255 119.417 175.946 119.564 182.506 119.31C190.415 119.003 192.674 119.705 195.953 123.487C199.054 127.064 201.598 126.114 202.609 121.002C203.503 116.483 209.096 110.731 212.596 110.731C214.841 110.731 215.934 108.156 214.449 106.367C206.1 96.3056 222.234 73.6632 235.605 76.6792C241.572 78.0252 246.302 83.6302 246.367 89.4312C246.384 90.9712 247.505 94.4811 248.858 97.231C255.362 110.453 243.304 126.225 232.777 118.263C229.924 116.105 229.837 116.226 229.837 122.341C229.837 128.93 225.932 133.292 219.049 134.393C216.068 134.87 214.933 135.67 213.775 138.116C212.964 139.829 211.55 142.415 210.63 143.863C208.984 146.456 209.02 146.565 213.147 151.254C215.451 153.871 217.337 156.555 217.337 157.218C217.337 157.882 218.074 159.901 218.974 161.706C222.148 168.067 221.073 181.731 217.4 181.731C217.052 181.731 215.97 183.081 214.995 184.731C214.02 186.381 212.573 187.731 211.779 187.731C209.595 187.731 210.044 189.817 212.863 192.76C216.384 196.435 217.425 204.867 214.728 207.858C209.503 213.649 203.05 218.01 198.064 219.122C193.944 220.041 192.83 220.705 192.804 222.259C192.669 230.389 188.242 235.387 179.682 237.077C172.845 238.427 172.072 240.31 177.577 242.203C190.358 246.597 192.892 257.693 182.442 263.506C176.521 266.799 172.426 266.758 167.515 263.354C163.894 260.845 163.161 260.686 159.679 261.653C153.737 263.303 147.363 262.934 141.337 260.593C135.874 258.47 130.724 257.068 124.689 256.061C118.715 255.064 115.151 249.943 114.592 241.551C114.184 235.417 113.671 233.745 111.425 231.231C109.951 229.581 107.986 226.544 107.058 224.481C105.42 220.844 105.211 220.731 100.164 220.731C93.7935 220.731 89.0798 217.922 86.2168 212.42C83.0468 206.327 78.9427 207.336 78.8477 214.231C78.8097 216.981 78.4233 220.817 77.9883 222.755C77.2354 226.113 77.3507 226.324 80.4366 227.255C90.5004 230.29 90.3981 247.946 80.2881 252.934C55.9904 264.92 26.2411 240.473 47.875 226.298C49.556 225.196 50.1805 223.494 50.6895 218.626C51.0495 215.185 52.1298 211.262 53.0908 209.91C54.0507 208.557 55.2736 206.856 55.8086 206.127C56.5016 205.184 56.0161 204.003 54.1221 202.017C50.6273 198.355 49.3112 194.657 49.9981 190.428C50.3281 188.392 50.1033 186.705 49.4463 186.299C48.8364 185.922 48.337 184.345 48.3369 182.794C48.3369 181.244 47.6012 179.366 46.7032 178.621C43.9996 176.376 34.3369 162.856 34.3369 161.317C34.3368 160.529 32.7627 157.822 30.8389 155.302C28.915 152.781 27.3998 150.384 27.4727 149.975C28.4457 144.478 24.6467 141.425 20.4727 144.348C18.2547 145.902 11.2222 145.776 6.86624 144.104C-3.23648 140.227 -1.78745 115.126 8.56839 114.62C14.8594 114.313 23.3369 117.551 23.3369 120.261C23.3372 122.018 26.1103 124.731 27.9073 124.731C28.6933 124.731 29.3369 124.041 29.3369 123.198C29.3372 109.814 50.1851 94.3087 69.8369 93.0767C82.9305 92.2547 88.2617 93.4969 97.1895 99.4468C101.45 102.287 108.337 96.8837 108.337 90.7007C108.337 88.6598 109.172 86.4706 110.483 85.0747C112.734 82.6789 111.804 79.7313 108.796 79.731C106.403 79.731 103.556 73.5422 104.077 69.4702C105.046 61.8843 117.633 57.7673 123.289 63.1861C125.639 65.4379 126.708 65.8083 129.245 65.2515C133.054 64.4145 133.128 63.4739 129.587 60.895C121.36 54.902 128.195 37.9086 139.837 35.4146ZM227.337 203.429C239.094 199.654 252.722 207.291 252.722 217.653C252.722 228.495 231.921 239.44 223.927 232.806C221.665 230.929 220.403 232.363 221.012 236.118C222.097 242.802 213.511 254.731 207.616 254.731C194.246 254.731 188.8 246.232 194.457 234.198C198.202 226.231 204.453 223.784 213.238 226.847C217.536 228.345 217.88 227.687 215.921 221.697C213.052 212.925 216.89 206.783 227.337 203.429ZM179.7 192.695C179.049 192.044 178.051 192.413 176.774 193.779C168.37 202.768 165.063 203.713 156.506 199.571C149.746 196.298 146.45 201.459 151.961 206.689C154.209 208.822 154.482 209.744 154.038 213.682C153.54 218.098 153.664 218.344 158.682 222.967C163.836 227.716 163.837 227.716 164.351 222.867C164.987 216.872 169.522 209.969 174.077 208.066C177.094 206.805 177.337 206.359 177.337 202.046C177.337 199.092 177.95 196.711 179.013 195.536C180.117 194.315 180.352 193.347 179.7 192.695ZM13.7354 183.697C21.2304 180.362 25.9355 181.225 32.1055 187.066C40.5644 195.074 37.0287 205.612 24.6309 209.343C9.40689 213.925 -0.704596 190.124 13.7354 183.697ZM252.956 148.251C262.129 145.732 267.81 147.203 270.983 152.921C277.397 164.478 257.352 180.919 247.179 172.445C237.093 164.044 240.016 151.805 252.956 148.251ZM175.822 162.709C174.842 161.123 172.482 161.589 171.417 163.579C170.283 165.699 171.384 170.913 173.086 171.481C174.366 171.905 176.761 164.229 175.822 162.709ZM150.152 111.481C150.492 108.526 149.534 108.177 145.513 109.79C142.108 111.155 143.035 114.231 146.851 114.231C149.365 114.231 149.886 113.796 150.152 111.481ZM156.837 98.731C156.012 98.731 155.337 99.406 155.337 100.231C155.337 101.056 156.012 101.731 156.837 101.731C157.662 101.731 158.337 101.056 158.337 100.231C158.337 99.4061 157.662 98.7312 156.837 98.731ZM131.337 85.6382C131.337 82.8002 129.491 81.4004 127.429 82.6743C126.501 83.2473 126.685 84.2905 128.185 86.9605C129.273 88.9003 130.316 91.46 130.5 92.6489C130.685 93.8379 131.287 94.905 131.837 95.021C133.25 95.317 133.729 90.7224 132.422 89.4155C131.825 88.8185 131.337 87.1191 131.337 85.6382ZM79.8369 36.9214C89.8819 31.2487 102.893 46.8492 95.6582 55.8921C92.2024 60.211 91.2042 63.981 91.8701 70.1997C92.5322 76.3837 92.4821 76.5638 89.0371 80.3628C76.0391 94.6997 55.1533 78.5005 64.8242 61.5825C66.3391 58.9327 67.3172 55.6452 67.3242 53.1753C67.3402 47.7053 72.4159 41.1124 79.8369 36.9214ZM120.896 78.731C120.653 78.731 120.177 79.1811 119.837 79.731C119.497 80.2809 119.695 80.7309 120.277 80.731C120.859 80.731 121.337 80.281 121.337 79.731C121.337 79.181 121.139 78.731 120.896 78.731ZM205.485 39.4898C219.631 37.0418 227.598 50.9151 220.597 65.8081C213.393 81.13 190.339 77.7861 190.091 61.3823C189.98 54.0764 199.509 40.5238 205.485 39.4898ZM51.8369 14.5542C64.4449 5.86451 75.68 19.3671 68.6241 34.731C62.385 48.3167 41.3372 43.775 41.3369 28.8423C41.3369 26.0333 47.6529 17.4382 51.8369 14.5542ZM108.212 2.17043C121.43 -6.81137 141.546 14.0924 133.237 28.1743C132.084 30.1297 130.819 31.7302 130.427 31.731C130.035 31.731 128.813 32.5703 127.713 33.5962C119.456 41.2872 107.786 35.7761 103.367 22.0991C100.152 12.1461 101.463 6.75643 108.212 2.17043Z" fill="#1F1F1F"/>
</g>
<path id="stroke0_461_310_ref" d="M184.672 4.02539C266.628 4.02563 333.067 67.325 333.067 145.408C333.067 159.744 330.826 173.582 326.662 186.621C325.419 190.51 321.731 193.032 317.648 193.032C308.031 193.032 303.551 206.315 310.405 213.061C343.584 245.719 364.156 291.147 364.156 341.38C364.156 352.579 363.133 363.539 361.175 374.171C358.04 391.205 342.124 402.028 324.804 402.028H43.4127C26.0929 402.028 10.1773 391.205 7.0414 374.171C5.08393 363.539 4.06059 352.579 4.06055 341.38C4.06055 290.813 24.9073 245.117 58.4743 212.413C65.1598 205.899 60.8303 193.032 51.4964 193.032C47.5333 193.032 43.9544 190.584 42.7431 186.811C38.5395 173.716 36.2764 159.814 36.2764 145.408C36.2765 67.3249 102.716 4.02553 184.672 4.02539Z"/>
</defs>
</svg>
