<svg width="106" height="106" viewBox="0 0 106 106" fill="none" xmlns="http://www.w3.org/2000/svg">
<path d="M52.9565 8.83301C28.5765 8.83301 8.83398 28.6197 8.83398 52.9997C8.83398 77.3797 28.5765 97.1664 52.9565 97.1664C77.3807 97.1664 97.1673 77.3797 97.1673 52.9997C97.1673 28.6197 77.3807 8.83301 52.9565 8.83301ZM37.5423 35.333C41.2082 35.333 44.1673 38.2922 44.1673 41.958C44.1673 45.6238 41.2082 48.583 37.5423 48.583C33.8765 48.583 30.9173 45.6238 30.9173 41.958C30.9173 38.2922 33.8765 35.333 37.5423 35.333ZM73.8032 65.013C69.784 73.6255 62.0107 79.4997 53.0007 79.4997C43.9907 79.4997 36.2173 73.6255 32.1982 65.013C31.4915 63.5555 32.5515 61.833 34.1857 61.833H71.8157C73.4498 61.833 74.5098 63.5555 73.8032 65.013ZM68.459 48.583C64.7932 48.583 61.834 45.6238 61.834 41.958C61.834 38.2922 64.7932 35.333 68.459 35.333C72.1248 35.333 75.084 38.2922 75.084 41.958C75.084 45.6238 72.1248 48.583 68.459 48.583Z" fill="#25B544"/>
</svg>
