<svg width="106" height="106" viewBox="0 0 106 106" fill="none" xmlns="http://www.w3.org/2000/svg">
<path d="M53.0007 8.83301C56.958 8.83301 60.7917 9.35417 64.4398 10.3303L55.05 19.7157C54.3376 20.4309 53.7093 21.2251 53.1773 22.083H53.0007C46.8859 22.083 40.9085 23.8962 35.8243 27.2934C30.7401 30.6906 26.7774 35.5191 24.4374 41.1684C22.0974 46.8177 21.4851 53.034 22.678 59.0312C23.871 65.0285 26.8155 70.5373 31.1393 74.8611C35.463 79.1848 40.9719 82.1294 46.9691 83.3223C52.9664 84.5152 59.1827 83.903 64.832 81.563C70.4812 79.2229 75.3098 75.2603 78.7069 70.1761C82.1041 65.0918 83.9173 59.1144 83.9173 52.9997V52.823C84.7712 52.293 85.5589 51.6673 86.2802 50.9459L95.6701 41.5605C96.6462 45.2087 97.1673 49.0423 97.1673 52.9997C97.1673 77.3929 77.3939 97.1664 53.0007 97.1664C28.6074 97.1664 8.83398 77.3929 8.83398 52.9997C8.83398 28.6064 28.6074 8.83301 53.0007 8.83301ZM51.1722 30.9914C51.1722 34.75 50.9867 38.5616 51.1898 42.3158L48.8048 44.7008C47.9844 45.5212 47.3336 46.4952 46.8896 47.5671C46.4456 48.639 46.2171 49.7879 46.2171 50.9481C46.2171 52.1084 46.4456 53.2573 46.8896 54.3292C47.3336 55.4011 47.9844 56.3751 48.8048 57.1955C49.6252 58.0159 50.5992 58.6667 51.6711 59.1107C52.7431 59.5547 53.892 59.7833 55.0522 59.7833C56.2124 59.7833 57.3613 59.5547 58.4333 59.1107C59.5052 58.6667 60.4792 58.0159 61.2996 57.1955L63.6846 54.8105C67.4387 55.0137 71.2459 54.8282 75.0089 54.8282C74.66 59.0255 73.1181 63.0355 70.565 66.3853C68.0119 69.7351 64.554 72.2849 60.5994 73.734C56.6447 75.1831 52.3581 75.471 48.2451 74.5639C44.1322 73.6568 40.3644 71.5923 37.3862 68.6141C34.408 65.6359 32.3436 61.8682 31.4364 57.7552C30.5293 53.6422 30.8172 49.3556 32.2663 45.401C33.7154 41.4463 36.2652 37.9885 39.615 35.4354C42.9648 32.8822 46.9748 31.3403 51.1722 30.9914ZM81.7267 9.39392C82.5328 9.72817 83.2219 10.2938 83.7069 11.0193C84.1919 11.7448 84.4511 12.5978 84.4517 13.4705V21.553H92.5298C93.4032 21.5532 94.257 21.8123 94.9831 22.2977C95.7092 22.783 96.2752 23.4727 96.6094 24.2796C96.9436 25.0865 97.0311 25.9744 96.8607 26.8311C96.6904 27.6877 96.2699 28.4746 95.6524 29.0923L80.0307 44.6963C79.2026 45.5247 78.0794 45.9902 76.9081 45.9904H66.2507L58.177 54.0685C57.3482 54.8973 56.2242 55.3628 55.0522 55.3628C53.8802 55.3628 52.7561 54.8973 51.9274 54.0685C51.0987 53.2398 50.6331 52.1157 50.6331 50.9437C50.6331 49.7717 51.0987 48.6477 51.9274 47.8189L60.0055 39.7497V29.0878C60.005 28.5071 60.1191 27.932 60.3411 27.3955C60.5632 26.8589 60.8889 26.3714 61.2996 25.9608L76.9125 10.3479C77.5301 9.72989 78.3172 9.30894 79.1742 9.13834C80.0311 8.96774 80.9194 9.05514 81.7267 9.38951" fill="#BD68EE"/>
</svg>
