<svg width="33" height="33" viewBox="0 0 33 33" fill="none" xmlns="http://www.w3.org/2000/svg">
<path fill-rule="evenodd" clip-rule="evenodd" d="M3.75 2.5H16.25C16.5815 2.5 16.8995 2.6317 17.1339 2.86612C17.3683 3.10054 17.5 3.41848 17.5 3.75V7.5H11.25C10.2554 7.5 9.30161 7.89509 8.59835 8.59835C7.89509 9.30161 7.5 10.2554 7.5 11.25V17.5H3.75C3.41848 17.5 3.10054 17.3683 2.86612 17.1339C2.6317 16.8995 2.5 16.5815 2.5 16.25V3.75C2.5 3.41848 2.6317 3.10054 2.86612 2.86612C3.10054 2.6317 3.41848 2.5 3.75 2.5ZM23.75 7.5H20V3.75C20 2.75544 19.6049 1.80161 18.9017 1.09835C18.1984 0.395088 17.2446 0 16.25 0H3.75C2.75544 0 1.80161 0.395088 1.09835 1.09835C0.395088 1.80161 0 2.75544 0 3.75V16.25C0 17.2446 0.395088 18.1984 1.09835 18.9017C1.80161 19.6049 2.75544 20 3.75 20H7.5V23.75C7.5 24.7446 7.89509 25.6984 8.59835 26.4016C9.30161 27.1049 10.2554 27.5 11.25 27.5H18.58L19.8475 30.8775C20.0349 31.3763 20.3767 31.8022 20.8231 32.0931C21.2696 32.3839 21.7973 32.5245 22.3293 32.4944C22.8612 32.4642 23.3697 32.2649 23.7804 31.9255C24.1911 31.5861 24.4827 31.1243 24.6125 30.6075L25.8125 25.8125L30.6075 24.6125C31.1243 24.4827 31.5861 24.1911 31.9255 23.7804C32.2649 23.3697 32.4642 22.8612 32.4944 22.3293C32.5245 21.7973 32.3839 21.2696 32.0931 20.8231C31.8022 20.3767 31.3763 20.0349 30.8775 19.8475L27.5 18.58V11.25C27.5 10.2554 27.1049 9.30161 26.4016 8.59835C25.6984 7.89509 24.7446 7.5 23.75 7.5ZM27.5 21.25L25.875 20.6425L25 20.3125L20.6075 18.665L17.5 17.5L18.665 20.6075L20.3125 25L20.6425 25.875L21.25 27.5L22.1875 30L23.255 25.7275L23.75 23.75L25.7275 23.255L30 22.1875L27.5 21.25ZM17.6425 25L15.16 18.3775C14.9919 17.9282 14.9566 17.4401 15.0584 16.9713C15.1601 16.5025 15.3945 16.0729 15.7337 15.7337C16.0729 15.3945 16.5025 15.1601 16.9713 15.0584C17.4401 14.9566 17.9282 14.9919 18.3775 15.16L25 17.6425V11.25C25 10.9185 24.8683 10.6005 24.6339 10.3661C24.3995 10.1317 24.0815 10 23.75 10H11.25C10.9185 10 10.6005 10.1317 10.3661 10.3661C10.1317 10.6005 10 10.9185 10 11.25V23.75C10 24.0815 10.1317 24.3995 10.3661 24.6339C10.6005 24.8683 10.9185 25 11.25 25H17.6425Z" fill="#25B544"/>
</svg>
