<svg width="34" height="34" viewBox="0 0 34 34" fill="none" xmlns="http://www.w3.org/2000/svg">
<path d="M25.8076 0.896346C26.0028 0.701151 26.3194 0.701285 26.5146 0.896346L32.1621 6.54381L32.2266 6.62193C32.3544 6.81597 32.3328 7.0801 32.1621 7.25084L26.5146 12.8973C26.3194 13.0921 26.0027 13.0924 25.8076 12.8973C25.6128 12.7022 25.6129 12.3855 25.8076 12.1903L30.748 7.24986H20.2793C18.8986 7.24992 17.7793 8.36919 17.7793 9.74986V24.4559C17.7792 26.3888 16.2122 27.9559 14.2793 27.9559H10.1465C9.96568 30.3897 7.936 32.3084 5.45605 32.3085L5.21387 32.3016C2.80763 32.1797 0.877922 30.2508 0.755859 27.8446L0.75 27.6024C0.750111 25.0035 2.85714 22.8963 5.45605 22.8963L5.69824 22.9022C7.96791 23.0173 9.81272 24.7412 10.1172 26.9559H14.2793C15.66 26.9559 16.7792 25.8365 16.7793 24.4559V9.74986C16.7793 7.8169 18.3464 6.24992 20.2793 6.24986H30.4551L25.8076 1.60338C25.6127 1.40827 25.6129 1.09158 25.8076 0.896346ZM5.45605 23.8963C3.40942 23.8963 1.75011 25.5558 1.75 27.6024C1.75009 29.649 3.40941 31.3085 5.45605 31.3085C7.50262 31.3084 9.16202 29.649 9.16211 27.6024C9.162 25.5559 7.50261 23.8964 5.45605 23.8963Z" fill="#25B544" fill-opacity="0.9"/>
<path d="M25.8076 0.896346L25.2773 0.366016L25.2766 0.36675L25.8076 0.896346ZM26.5146 0.896346L27.045 0.366016L27.0447 0.365721L26.5146 0.896346ZM32.1621 6.54381L32.7406 6.06652C32.7254 6.04808 32.7093 6.03038 32.6924 6.01348L32.1621 6.54381ZM32.2266 6.62193L32.8528 6.20929C32.8381 6.1869 32.8222 6.16532 32.8051 6.14464L32.2266 6.62193ZM32.1621 7.25084L32.6924 7.78121L32.6924 7.78117L32.1621 7.25084ZM26.5146 12.8973L27.0444 13.4283L27.0449 13.4277L26.5146 12.8973ZM25.8076 12.8973L25.2769 13.4272L25.2774 13.4278L25.8076 12.8973ZM25.8076 12.1903L25.2773 11.66L25.2767 11.6606L25.8076 12.1903ZM30.748 7.24986L31.2784 7.78019C31.4929 7.56569 31.557 7.2431 31.441 6.96285C31.3249 6.68259 31.0514 6.49986 30.748 6.49986V7.24986ZM20.2793 7.24986V6.49986H20.2793L20.2793 7.24986ZM17.7793 9.74986H17.0293V9.74986H17.7793ZM17.7793 24.4559L18.5293 24.456V24.4559H17.7793ZM10.1465 27.9559V27.2059C9.75383 27.2059 9.42764 27.5088 9.39855 27.9004L10.1465 27.9559ZM5.45605 32.3085L5.43489 33.0582C5.44195 33.0584 5.44902 33.0585 5.45608 33.0585L5.45605 32.3085ZM5.21387 32.3016L5.17592 33.0507C5.18151 33.0509 5.18711 33.0512 5.19271 33.0513L5.21387 32.3016ZM0.755859 27.8446L0.00607878 27.8627C0.006239 27.8694 0.00648695 27.876 0.00682253 27.8826L0.755859 27.8446ZM0.75 27.6024L0 27.6024C-2.38419e-07 27.6084 7.28965e-05 27.6145 0.000219405 27.6205L0.75 27.6024ZM5.45605 22.8963L5.47419 22.1466C5.46815 22.1464 5.4621 22.1463 5.45605 22.1463V22.8963ZM5.69824 22.9022L5.73624 22.1532C5.72962 22.1528 5.723 22.1526 5.71638 22.1524L5.69824 22.9022ZM10.1172 26.9559L9.37418 27.0581C9.42521 27.4293 9.74245 27.7059 10.1172 27.7059V26.9559ZM16.7793 24.4559L17.5293 24.456V24.4559H16.7793ZM16.7793 9.74986H16.0293V9.74986H16.7793ZM20.2793 6.24986V5.49986H20.2793L20.2793 6.24986ZM30.4551 6.24986V6.99986C30.7584 6.99986 31.0319 6.81711 31.148 6.53684C31.2641 6.25656 31.1999 5.93396 30.9854 5.71948L30.4551 6.24986ZM25.8076 1.60338L25.277 2.13341L25.2773 2.13376L25.8076 1.60338ZM5.45605 23.8963L5.45609 23.1463H5.45605V23.8963ZM1.75 27.6024L1 27.6024V27.6024L1.75 27.6024ZM5.45605 31.3085V32.0585H5.45609L5.45605 31.3085ZM9.16211 27.6024L9.91211 27.6024V27.6024L9.16211 27.6024ZM25.8076 0.896346L26.3379 1.42668C26.24 1.52467 26.0819 1.52412 25.9846 1.42697L26.5146 0.896346L27.0447 0.365721C26.5569 -0.121546 25.7657 -0.122366 25.2773 0.366016L25.8076 0.896346ZM26.5146 0.896346L25.9843 1.42668L31.6318 7.07414L32.1621 6.54381L32.6924 6.01348L27.045 0.366016L26.5146 0.896346ZM32.1621 6.54381L31.5836 7.02109L31.648 7.09922L32.2266 6.62193L32.8051 6.14464L32.7406 6.06652L32.1621 6.54381ZM32.2266 6.62193L31.6003 7.03457C31.5361 6.93717 31.5459 6.80638 31.6318 6.72051L32.1621 7.25084L32.6924 7.78117C33.1198 7.35382 33.1727 6.69477 32.8528 6.20929L32.2266 6.62193ZM32.1621 7.25084L31.6318 6.72046L25.9844 12.3669L26.5146 12.8973L27.0449 13.4277L32.6924 7.78121L32.1621 7.25084ZM26.5146 12.8973L25.9849 12.3664C26.0819 12.2696 26.2396 12.2687 26.3378 12.3669L25.8076 12.8973L25.2774 13.4278C25.7659 13.9161 26.5568 13.9147 27.0444 13.4283L26.5146 12.8973ZM25.8076 12.8973L26.3384 12.3674C26.436 12.4652 26.4357 12.6226 26.3386 12.72L25.8076 12.1903L25.2767 11.6606C24.79 12.1483 24.7895 12.9391 25.2769 13.4272L25.8076 12.8973ZM25.8076 12.1903L26.3379 12.7206L31.2784 7.78019L30.748 7.24986L30.2177 6.71953L25.2773 11.66L25.8076 12.1903ZM30.748 7.24986V6.49986H20.2793V7.24986V7.99986H30.748V7.24986ZM20.2793 7.24986L20.2793 6.49986C18.4845 6.49994 17.0293 7.95494 17.0293 9.74986H17.7793H18.5293C18.5293 8.78344 19.3128 7.99991 20.2793 7.99986L20.2793 7.24986ZM17.7793 9.74986H17.0293V24.4559H17.7793H18.5293V9.74986H17.7793ZM17.7793 24.4559L17.0293 24.4559C17.0292 25.9746 15.798 27.2059 14.2793 27.2059V27.9559V28.7059C16.6265 28.7059 18.5292 26.803 18.5293 24.456L17.7793 24.4559ZM14.2793 27.9559V27.2059H10.1465V27.9559V28.7059H14.2793V27.9559ZM10.1465 27.9559L9.39855 27.9004C9.24658 29.946 7.53989 31.5584 5.45603 31.5585L5.45605 32.3085L5.45608 33.0585C8.33211 33.0584 10.6848 30.8334 10.8944 28.0115L10.1465 27.9559ZM5.45605 32.3085L5.47722 31.5588L5.23503 31.5519L5.21387 32.3016L5.19271 33.0513L5.43489 33.0582L5.45605 32.3085ZM5.21387 32.3016L5.25182 31.5526C3.22979 31.4501 1.60745 29.8283 1.5049 27.8066L0.755859 27.8446L0.00682253 27.8826C0.14839 30.6733 2.38548 32.9093 5.17592 33.0507L5.21387 32.3016ZM0.755859 27.8446L1.50564 27.8264L1.49978 27.5843L0.75 27.6024L0.000219405 27.6205L0.00607878 27.8627L0.755859 27.8446ZM0.75 27.6024L1.5 27.6024C1.50009 25.4177 3.27138 23.6463 5.45605 23.6463V22.8963V22.1463C2.44289 22.1463 0.000129104 24.5893 0 27.6024L0.75 27.6024ZM5.45605 22.8963L5.43791 23.6461L5.6801 23.652L5.69824 22.9022L5.71638 22.1524L5.47419 22.1466L5.45605 22.8963ZM5.69824 22.9022L5.66024 23.6512C7.56662 23.7479 9.11832 25.197 9.37418 27.0581L10.1172 26.9559L10.8602 26.8538C10.5071 24.2855 8.36919 22.2867 5.73624 22.1532L5.69824 22.9022ZM10.1172 26.9559V27.7059H14.2793V26.9559V26.2059H10.1172V26.9559ZM14.2793 26.9559V27.7059C16.0742 27.7059 17.5292 26.2507 17.5293 24.456L16.7793 24.4559L16.0293 24.4559C16.0292 25.4224 15.2457 26.2059 14.2793 26.2059V26.9559ZM16.7793 24.4559H17.5293V9.74986H16.7793H16.0293V24.4559H16.7793ZM16.7793 9.74986H17.5293C17.5293 8.23114 18.7605 6.99991 20.2793 6.99986L20.2793 6.24986L20.2793 5.49986C17.9322 5.49994 16.0293 7.40267 16.0293 9.74986H16.7793ZM20.2793 6.24986V6.99986H30.4551V6.24986V5.49986H20.2793V6.24986ZM30.4551 6.24986L30.9854 5.71948L26.3379 1.07299L25.8076 1.60338L25.2773 2.13376L29.9248 6.78025L30.4551 6.24986ZM25.8076 1.60338L26.3382 1.07334C26.4363 1.17149 26.4355 1.32889 26.3387 1.42594L25.8076 0.896346L25.2766 0.36675C24.7904 0.854273 24.7892 1.64504 25.277 2.13341L25.8076 1.60338ZM5.45605 23.8963V23.1463C2.99517 23.1463 1.00013 25.1416 1 27.6024L1.75 27.6024L2.5 27.6024C2.50009 25.97 3.82368 24.6463 5.45605 24.6463V23.8963ZM1.75 27.6024L1 27.6024C1.00011 30.0632 2.99516 32.0585 5.45605 32.0585V31.3085V30.5585C3.82366 30.5585 2.50007 29.2348 2.5 27.6024L1.75 27.6024ZM5.45605 31.3085L5.45609 32.0585C7.91684 32.0583 9.912 30.0632 9.91211 27.6024L9.16211 27.6024L8.41211 27.6024C8.41203 29.2347 7.0884 30.5584 5.45602 30.5585L5.45605 31.3085ZM9.16211 27.6024L9.91211 27.6024C9.91198 25.1416 7.91684 23.1465 5.45609 23.1463L5.45605 23.8963L5.45602 24.6463C7.08838 24.6464 8.41202 25.9701 8.41211 27.6024L9.16211 27.6024Z" fill="#25B544"/>
</svg>
